<svg height="235.6" width="331.2" xmlns="http://www.w3.org/2000/svg"><path d="m170.40836237.14949239c-10.38606272.44847715-20.96445993 1.94340101-30.96585366 4.1857868-1.92334495.44847716-3.6543554.89695431-5.38536585 1.34543147-2.69268293.74746193-5.38536586 1.49492386-7.88571429 2.24238579-4.61602787 1.34543147-9.03972125 2.84035533-14.04041812 4.63426396.38466899-.14949239-13.65574913 5.2322335-20.00278745 8.3715736-5.96236934 2.84035533-11.73240418 6.12918782-17.31010453 9.4180203-8.07804878 4.78375635-16.15609756 9.71700508-23.46480837 15.09873097-5.00069686 3.58781726-9.42439024 7.47461929-14.04041811 11.36142132-6.34703833 5.53121827-12.69407666 11.5109137-17.31010453 18.08857868-2.88501743 4.03629442-5.00069687 8.52106599-7.11637631 12.70685279-1.15400697 2.39187817-2.11567944 4.93324873-2.88501742 7.3251269-2.69268293 4.78375635-5.38536586 9.41802031-6.73170732 14.35126904-2.30801394 7.17563452-3.26968641 14.79974619-2.69268293 22.1248731.57700349 7.62411167 1.92334495 15.6967005 5.19303136 23.02182741 11.54006969 26.60964467 37.12055749 48.58502538 67.89407666 62.78680203 8.27038327 3.73730964 17.31010453 6.57766497 26.15749129 9.26852792 6.92404181 2.0928934 13.84808362 3.88680203 21.15679442 5.08274111 9.61672474 1.79390863 19.81045296 2.69086295 29.6195122 3.43832488 7.69337979.59796954 15.38675958.59796954 23.08013937.14949238 17.50243902-.89695431 35.00487805-3.43832487 51.5456446-8.3715736 9.03972125-2.69086295 17.88710801-5.68071066 26.15749129-9.41802031 8.65505226-3.88680203 16.54076655-8.96954314 24.04181185-14.05228426 5.77003484-3.88680203 10.7707317-8.67055838 15.19442508-13.45431472 5.00069687-4.03629442 9.23205575-8.3715736 13.65574913-12.70685279 4.23135889-4.1857868 7.88571429-8.67055838 10.9630662-13.30482234 4.61602788-6.87664974 8.46271777-14.35126903 10.96306621-21.82588832 2.50034843-7.17563452 3.6543554-14.7997462 4.23135888-22.27436548.76933798-7.92309645-.96167247-15.99568528-2.50034843-23.76928934-1.15400697-5.38172589-2.88501742-10.46446701-5.19303136-15.54720813-3.26968641-7.3251269-7.5010453-14.50076142-12.30940767-21.37741116-4.61602787-6.42817259-10.57839721-12.10888325-16.34843205-17.78959391-4.61602788-4.48477158-10.00139373-8.52106599-15.57909408-12.25837564-7.1163763-4.78375634-14.8097561-9.11903553-22.88780488-12.85634518-9.03972125-4.1857868-18.46411149-7.17563451-27.88850174-9.86649746-6.53937282-1.79390863-13.27108014-3.1393401-20.00278745-3.88680203-9.03972126-1.19593908-18.27177701-2.0928934-27.31149826-2.24238578-1.53867596-.14949239-2.88501742-.14949239-4.42369338-.14949239-1.92334495 0-3.6543554 0-5.57770035.14949239z" fill="#fff"/></svg>