<svg height="264.220944" width="284.620242" xmlns="http://www.w3.org/2000/svg" xmlns:xlink="http://www.w3.org/1999/xlink"><mask id="a" maskUnits="userSpaceOnUse"><path d="m0 0h284.620242v264.220944h-284.620242z"/><path d="m120 0h152.922121v144.301449h-152.922121z" fill="#fff"/></mask><mask id="b" maskUnits="userSpaceOnUse"><path d="m0 0h284.620242v264.220944h-284.620242z"/><use fill="#fff"/></mask><mask id="c" maskUnits="userSpaceOnUse"><path d="m0 0h284.620242v264.220944h-284.620242z"/><path d="m119.986969 174.916487h90.15423v77.878994h-90.15423z" fill="#fff"/></mask><g><g mask="url(#a)"><g fill-rule="evenodd"><path d="m256.2607711 3.69646052c22.58725721 8.61345045 22.16598415 97.69814893-1.03914021 103.76592374-3.58082101 3.27101884-8.97311617 4.99370893-13.52988643 5.52376742-5.23782837 1.08104034-10.51778405 1.84823026-15.81880338 2.2039274l-.70212177.03487227c-.23170018 6.4932165 1.13743726 28.62315843-6.26292615 29.06952347-6.72632652.40451832-18.10069913-23.63642395-22.34151459-29.22993591-13.80371392-.44636504-27.73380975-.17436134-41.41114175-2.14813177l-.11233949-.01394891c-35.47821282-4.7705264-37.87946926-29.05557456-33.31567779-64.63923788.54765498-5.09135128 1.26381918-10.15480475 2.14849261-15.1903604 5.61697412-31.26647641 33.11908369-33.21932348 56.7384599-33.0658855h.07021217c13.23499529.04882118 26.32254501-.18831025 39.46626446 1.57622656l-.30191235-.1046168c.16850922.0139489.33701844.03487227.49850645.04882117 11.17075729-.2859526 25.33957453-1.86217916 35.91352832 2.16905514" fill="#d0bac7"/><g fill="#741448"><path d="m193.32855346 31.59376311c-.22874014-1.05671158-1.00293756-1.96410522-2.45749029-2.25125511-10.77424739-2.14213815-23.88281731-.63747275-32.55148234 6.5527604-4.28741145 3.5549156-6.73903661 9.39554428-8.12320775 14.61018621-1.39003627 5.24909992-1.64810208 10.72791975-.844579 16.08039363.73900662 4.90452006 2.32845738 10.02727403 5.76542471 13.79468054 3.71849366 4.07752838 9.41353678 5.51327781 14.78013252 5.98994662 5.43697732.48241181 11.73026391-.41923883 16.36958328-3.42282664 5.02641808-3.25053671 7.01469782-6.35175548 8.08215183-11.65828538.57478293-2.86575587.1642237-8.89590348-1.8357863-11.46876646-1.60704615-2.06747918-4.46923055-3.34242467-6.86220438-4.30724829-4.48096082-1.80904428-9.32555981-2.37760106-14.07631669-1.75161431.2932566-2.521176 1.8533817-4.82986108 4.08799697-6.34026948 4.0938621-2.76812491 9.64227693-2.50394701 14.28159631-1.59655337 2.35778304.45943982 4.27568119-.98205261 4.45750028-3.32519568.25806581-3.42282665-.04692106-6.77099432-.80938821-10.11916199-.05865132-.29289289-.1466283-.55132779-.26393094-.78679069z"/><path d="m221.7861737 46.54278618c4.533747-1.73438531 10.56310265-2.49246101 15.26107334-1.20602952 2.01760539.55132778 4.6979707-1.06245458 4.45750029-3.32519568-.29912173-2.80258289 1.36657574-13.26058175-1.63050669-13.59367561-10.83876385-1.20028653-25.61889637-.55707078-33.38433107 7.97128084-7.04988861 7.74156093-10.89155004 18.38333571-7.86514195 31.13279066 2.50441134 10.56137282 12.08803695 17.61951702 22.82709356 18.35462073 5.0850694.35032286 11.01471781-.55707078 15.06752399-3.7903785 4.31673711-3.43431264 5.17891151-8.79252951 4.96776676-13.83488152-.22287501-5.39267486-2.95016137-11.38262149-8.4809808-13.57070362-4.73902662-1.87796026-10.86808951-.66044474-16.05873129.87293565.08211185-1.53338039.45161516-3.19310673.72141123-4.2785333.57478293-2.36037207 1.79473038-3.84206548 4.11732263-4.73223013z"/></g></g></g><g mask="url(#b)"><g fill-rule="evenodd"><path d="m41.43245482 161.97288343c.16289683 0 .30454625.07770245.46036061.09324294.06374224 0 .12040201 0 .18414424.00777025.2691339.10878344.53826779.21756687.81448416.32635031.56659767.35743128 1.02695828.8391865 1.37399936 1.44526564.61617496 1.01790215.91363874 2.29999264.88530886 3.51215092-.02832988 1.07229386-.30454625 2.23006043-.97029852 3.0459362-.53118531.65270061-1.47315394 1.20438803-2.30180304.9246592-.30454625-.10101319-.58076262-.23310736-.86406145-.37297178-.05665977.03885123-.10623707.07770245-.1699793.11655368-1.61480337 1.0956046-3.25085415-.66047086-3.81036935-2.20674969-.63033991-1.74830522-.50285544-4.30471595 1.09070052-5.40032055.120402-.0854727.24788648-.15540491.36828848-.23310737.03541236-.04662147.07790718-.09324294.11331954-.13986441.5595152-.65270062.92780369-.79256503 1.68562807-1.07229387.15581436-.05439172.35412355-.07770245.54535026-.07770245.23372154.00777024.45327814.03108098.59492756.03108098" fill="#fff"/><g><path d="m11.74981924 135.67060276c1.99017432 0 81.66088959-9.93037362 78.33921073 18.67189969-.19122671 9.4486184-.83573157 3.92397392-.6090925 27.17254815s-9.13638747 13.55130798-34.59787039 17.00906718c-.60201003-.24864786-.52410285 6.73680276 3.14461708 14.78677699-3.10212226 2.12127699-16.32509544-10.76178988-18.57023872-15.68812546-9.3488616-.66047086-36.46764272.66047086-37.81331219-9.69726625-.21247413-1.60067056-7.41534704-52.2549003 10.10668599-52.2549003z" fill="#f1b54e"/><path d="m27.31000783 157.91681533c-.15581436-12.33137944 12.17476749-10.52091227 17.00501265-2.43208681l.04249483.06993221.04249482.06993221c30.06508901-23.45060061 12.11102526 24.22762515-.2195566 28.43909815 0 .00777025-16.70754887-15.99893527-16.8704457-26.14687576z" fill="#b89352"/></g></g></g><g mask="url(#c)" transform="matrix(.96126167 .27563745 -.27563745 .96126167 65.341026 -37.213419)"><g fill-rule="evenodd"><path d="m194.75963663 175.00234157c-9.95830159-1.06460095-61.48354477 8.23348638-73.55990709 16.75029399-3.92012044 6.34467824 2.18638526 47.89845727 10.83798004 50.94630676 2.69881931 2.62716041 25.46797202-2.36101017 28.61944139-3.09077695.15373021 5.25432082 4.09093179 11.75353791 6.99472471 13.187315.16227078-.18888082 2.84400895-11.07528408 4.49233846-16.32101941.3928661-1.24489627 22.60688193-3.94074061 32.06129005-9.14354848 6.08942456-1.5282175 6.56769634-7.3062533 5.448882-13.23024246-1.1785983-6.23306685-6.00401888-40.94420913-14.89474956-39.09832845z" fill="#50c5dc"/><g fill="#2b6c78"><path d="m146.65062042 202.81074865c2.29741263 1.94032109 5.44034144.58381343 7.56694273-1.519632 2.11806071-2.10344542.93946241-4.90231566-.88821902-6.41336217-1.82768142-1.51104651-5.32931406-.84137818-7.18261719 1.17621234.00854057 0-1.78497858 4.81646075.50389348 6.75678183z"/><path d="m178.08844905 190.293102c-4.10801292-4.76494781-11.06003479.15453884-7.98543052 4.81646075 3.50163263 5.30583376 12.12760572-.00858549 7.98543052-4.81646075"/><path d="m178.36885532 206.17921035c-.29765852 2.08614372-.97483166 4.27348097-1.84548283 6.17280585-.45392924.87960538-1.0045975 1.67358545-1.607356 2.44421317-.82600239.90295773-1.71153649 1.74364251-2.64171936 2.52205435-1.60735601.97301479-3.44539736 1.51790308-5.23134848 2.00830253-1.30225602.27244414-2.61195351.31914886-3.93653392.17903472-.99715604-.16346648-1.99431208-.35028532-2.99146812-.49818357.08185609.00778412.15627072.02335235.23812682.03113647-1.41387797-.26466002-2.7756657-.70835477-4.07792172-1.315516-1.01948043-.60716123-1.9496633-1.33886836-2.78310716-2.20290549-6.55592889-7.04462712-2.1505828 8.0565625 6.70475815 9.23974849 8.13351905 1.35443659 15.88752348-1.13648128 19.83149886-9.40321498-.00744146.01556824-.01488292.02335235-.01488292.03892059 2.91705349-6.15723762-1.48085114-14.35391425-1.64456332-9.21639613"/></g></g></g></g></svg>