<svg height="142.411138" width="123.938587" xmlns="http://www.w3.org/2000/svg"><g><path d="m122.6527384 19.57324603c-1.28582764-1.85876465-27.96691895-5.28527832-27.96691895-5.28527832s-1.41442871-9.53613281-3.23071289-9.90783692c-1.81622314-.3717041-37.19281006-4.25085449-39.34655761-4.31542968-2.1538086-.06469727-4.4039917 7.24096679-4.4039917 7.24096679s-26.10250855-3.53967285-28.62594605-2.44067382c-2.52346802 1.09912109-19.07861328 121.02770996-17.76062012 122.28833007 1.31796265 1.26074219 104.82785035 15.2578125 106.91732789 13.62536621 2.10552978-1.63244628 15.70324707-119.36291503 14.41741943-121.20544433zm-67.05633545-13.28588867c2.82885742-.56567383 29.86352539 2.66687011 31.1975708 3.81445312 1.33410645 1.14758301 2.41094971 13.51220703.8036499 14.25561524-1.60723877.74353027-35.45690918-3.7821045-37.44995117-4.71948243-1.97698974-.95361328 2.61987305-12.78491211 5.44873047-13.35058593zm-31.31015015 5.26904297s-18.13031005 109.42272949-16.26583862 110.39245605c1.86444092.98596191 93.99462891 14.12634277 95.16796875 12.8494873 1.17333984-1.27685546 13.58166504-110.73193359 13.58166504-110.73193359l-21.29669189-2.29504394.12860107 4.38012695 15.67114258 2.32739258-12.44049073 90.62536621-15.33355712 8.921875-68.42260743-10.13415528 13.83880616-101.14733886 14.88354492 1.92346191.27325439-4.88122558zm79.40042115 19.71875c-3.63250733 26.26464843-10.22241211 78.89099121-10.22241211 78.89099121s-10.78497315-2.11730957-11.57250977-1.77783203c-.78759765.33935546-1.31799316 12.76867675-1.31799316 12.76867675s-40.90570069-6.65917968-57.68585205-8.00061035c3.18243408-25.9576416 11.34753418-90.05957031 12.24761963-90.4798584 1.42181396-.66210937 21.30072021 2.16223145 39.60467529 4.76293946 12.52697754 1.77978515 24.31622314 3.45483398 28.94647217 3.83569336zm-18.48388672 81.07299804-.49829102 9.81091309s10.527771-5.5600586 10.10986328-6.51367188c-.43395996-.95361328-9.61157226-3.29724121-9.61157226-3.29724121z" fill="#eaeced" fill-rule="evenodd"/><ellipse cx="50.25321" cy="44.324392" fill="#50c5dc" rx="10.147535" ry="10.127245"/><path d="m44.1466292 40.90183955c.79419166 1.86840934 3.53278357 8.95331726 4.66929922 9.36712604 1.90332138.67714165 9.05104629-8.21347732 9.05104629-8.21347732l-3.38216102-1.95618697-4.29958931 4.20078612-2.46473273-4.91554674c0 .01253966-4.84730769-1.5047592-3.57386245 1.51729887z" fill="#2b6c78" fill-rule="evenodd"/><path d="m95.56011596 52.60888556s1.74075687-5.65660121.41659139-6.15134767c-1.32416548-.49474647-29.29530146-3.43024214-29.29530146-3.43024214s-2.93101797 4.10639563-1.04147846 5.11238011c3.13931366 1.68213797 29.92018853 4.4692097 29.92018853 4.4692097z" fill="#eaeced" fill-rule="evenodd"/><path d="m87.58240061 76.82278124s-23.77790701-3.9579717-24.55727822-3.08391961c-.77937121.87405208-.66600812 5.68958431-.66600812 5.68958431s22.78598002 3.84253085 25.01073056 3.11690271c3.03246251-1.00598448.21255578-5.72256741.21255578-5.72256741z" fill="#eaeced" fill-rule="evenodd"/><ellipse cx="42.965636" cy="99.662142" fill="#50c5dc" rx="10.147535" ry="10.127245"/><ellipse cx="46.563197" cy="71.944151" fill="#ff4143" rx="10.147535" ry="10.127245"/><g fill-rule="evenodd"><path d="m46.90778154 96.34116132-4.50191673 3.83632097-2.45074757-5.21686555s-2.86364526.38495955-3.46301287 1.44691691c-.99894602 1.76550412 5.08796506 9.54434181 5.08796506 9.54434181l9.01715275-7.18148668z" fill="#2b6c78"/><path d="m53.92116089 70.77822725s-13.99733352-1.09340721-14.5356925-.72893814-.53835898 2.91575257-.53835898 2.91575257 14.43332224 1.57287811 14.64108839 1.09340722c.20776615-.4794709.43296309-3.28022165.43296309-3.28022165z" fill="#8b0f26" transform="matrix(.71933961 .69465857 -.69465857 .71933961 63.076774 -11.996148)"/><path d="m54.16149507 70.77822725s-13.99733352-1.09340721-14.5356925-.72893814-.53835898 2.91575257-.53835898 2.91575257 14.43332224 1.57287811 14.64108839 1.09340722c.20776615-.4794709.43296309-3.28022165.43296309-3.28022165z" fill="#8b0f26" transform="matrix(-.79863605 .60181431 -.60181431 -.79863605 127.22848 101.554294)"/><path d="m81.16693723 101.01803429c-2.04497481-.51123801-22.59367331-2.37478301-22.59367331-2.37478301s-.94002874 4.91448152-.03298346 5.62361811c.89055354.72562815 22.97298315 2.65513935 23.7645863 2.40776612.82458662-.23088169.90704528-5.12887166-1.13792953-5.65660122z" fill="#eaeced"/></g></g></svg>