<svg viewBox="0 0 371.1 230.72" xmlns="http://www.w3.org/2000/svg"><path d="m116.62 152.51-50.2-5.51c-5.73-.63-7.46 8.21-1.7 8.84l50.21 5.52c5.72.63 7.45-8.2 1.69-8.84z" fill="#eaebec"/><path d="m156.68 134.71a178.45 178.45 0 0 1 -21.33-63.56c-.8-6-10.75-6.1-9.93 0a190.88 190.88 0 0 0 22.69 68.39c3 5.42 11.61.59 8.57-4.83z" fill="#eaebec"/><path d="m230.3 150.14q14.87-37.14 30.7-73.88c2.42-5.62-7.44-8.05-9.84-2.5q-15.81 36.78-30.68 73.89c-2.27 5.67 7.59 8.12 9.84 2.49z" fill="#eaebec"/><path d="m245 163.17c17.81.65 36.47.26 53.7-2.75 7-1.22 5-10.19-2.05-9-16.26 2.85-33.85 3.38-50.66 2.76-7.22-.26-8.27 8.68-1 8.95z" fill="#eaebec"/><path d="m301.65 34.36c-.9-17.87-20-28-31.06-29.47-11.77-1.55-26.4 6.16-31.76 21.14-6 16.63-.59 35.19 11.71 42.51 8 4.77 19.44 7.83 28.22 4.49 5.8-2.21 11.66-3 15.88-9.92 4.54-7.44 7.49-19.11 7.01-28.75z" fill="#55c6da"/><path d="m286 27.68c0-14.26-33-13.73-33-.8s11.35 30.63 14.79 36.44c3.96-5.32 18.21-21.38 18.21-35.64zm-13.31 0c3.87 6.58-5.93 11.17-8 5.1s6.99-6.78 8.01-5.08z" fill="#3292a0"/><path d="m112.86 7.77a3.24 3.24 0 0 0 -.49.13m-17.19 42.52c4.7 6.35 14.19 20.12 32.86 20.18s34.05-27.41 29.81-40.6-22.44-31.37-45-22.24-22.27 36.46-17.67 42.66z" fill="#ed474d"/><path d="m145 27.26c-2.49-5.07-15.27-14.28-27.82-8-29.9 15.63-1.5 54.27 21.92 34.41 6.9-5.88 9.9-18.21 5.9-26.41zm-1.18 10.27c-2 14.47-18.26 25.09-30.52 13.47a17.76 17.76 0 0 1 -5-17.68 22.74 22.74 0 0 1 4.4-7.57c9.11-11.43 32.84-1.17 31.08 11.78z" fill="#8b0f26"/><path d="m131.39 36c-1.28.21-2.93.32-4.2.53.06-1.31-1.62-14.47-4.15-11.1-1.37 1.81.71 15.06 2.71 15 2.22-.14 4.44-.58 6.64-.94 2.82-.55 1.8-3.98-1-3.49z" fill="#8b0f26"/><path d="m47.76 110.2c-10.27-1.83-20.48.32-28.56 7.12-36.66 16.86-5.54 63.51 26.37 60 36.36-4 38.67-60.62 2.19-67.1z" fill="#fcb415"/><path d="m34.13 157.32c3.08 3.17 8.16 3.68 10.87-.32 1.49-2.16-2-4.2-3.51-2-1.17 1.7-3.37.58-4.47-.54-1.83-1.88-4.7 1-2.87 2.87z" fill="#be8635"/><path d="m63.87 134.61a5.77 5.77 0 0 0 .94-3.13c.12-7.5-11.36-10.33-16.74-7.31a13 13 0 0 0 -21.07 2.59 9.16 9.16 0 0 0 -9.86 14.62c-5.92 5.5-.82 14.91 7 13.56a18.49 18.49 0 0 0 .61 2.52c2.7 8.24 10 10.65 18 10.2 8.43-.46 11.19-6.59 13.54-14.08a2.76 2.76 0 0 0 .51 0c9.82-.16 14.56-12.36 7.07-18.97zm-12.21 19.89c-1.34 3.42-2.53 7.72-6.38 8.9a18.93 18.93 0 0 1 -10.59-.59c-8.29-3.15-7.24-13.12-5.62-20.08a12.26 12.26 0 0 0 10.31-2.68c3.65 2.73 8.56 4.91 12.86 2.1 1.93 3.78.9 8.54-.58 12.35zm11.87-10.5a7 7 0 0 1 -6.35 5.55c.28-2.34-2.47-16.84-6.33-11.47s-10.43-5.26-13.09-2.15a8.39 8.39 0 0 1 -6.83 2.9c-1.65 0-4.76-1.75-5 1.17-2 1.59-2.1 8.59-2.13 10.94a2.59 2.59 0 0 0 -.47.05 4.2 4.2 0 0 1 -4.65-2.6c-.95-3 1.73-3.26 2.78-5.17 2.18-4-5-5.85-1.84-10.61 2.71-4.14 9.19.89 10.35-2.57 2.1-6.3 9.63-7.65 14.48-3.76 4 3.21 2.16 2.17 6.89 1 2.67-.68 7.72.26 9.14 3 .34.68.48 2.22-.44 2.59-3.81 1.49 4.09 7.56 3.49 11.13zm-27.79.72a1.13 1.13 0 0 0 -.36.14 2.51 2.51 0 0 0 -.46.16 1.41 1.41 0 0 0 -.46.35 3 3 0 0 0 -.61 1 3 3 0 0 0 -.11 1.88 1.88 1.88 0 0 0 .76 1.14 2 2 0 0 0 .58.23.87.87 0 0 0 .23 0 1.4 1.4 0 0 0 .58 0 2.24 2.24 0 0 0 .81-.45 2.15 2.15 0 0 0 .45-.58c.09-.18.21-.4.29-.6a3.56 3.56 0 0 0 .21-1.17 2.18 2.18 0 0 0 -.56-1.58 1.57 1.57 0 0 0 -1-.49 1.12 1.12 0 0 0 -.31 0m8.38 1.09a2.84 2.84 0 0 0 -.86.83 3.23 3.23 0 0 0 -.51 1.19 2.53 2.53 0 0 0 .17 1.69 1.52 1.52 0 0 0 1 .84 1.92 1.92 0 0 0 1.08-.2 2 2 0 0 0 .81-.74 2.65 2.65 0 0 0 .46-1.32 2.6 2.6 0 0 0 0-.4 2.25 2.25 0 0 0 -.51-1.45.43.43 0 0 0 -.09-.1l-.08-.09a1.21 1.21 0 0 0 -.69-.4h-.18a1.59 1.59 0 0 0 -.66.18" fill="#be8635"/><path d="m331.26 119.69c-10.58 1.33-19.39 6.88-25.72 15.63-21.88 30.22 13.89 63.69 44 50.55 34.27-15 19.33-70.94-18.26-66.18z" fill="#d4b9c8"/><path d="m349 137.62c.37-7.29-8.27-7.28-10.1-1-2-.15-4-.29-6-.4.72-7.15-8.87-5.37-10.85-.4-1.78 0-6.74-2.52-7.33 2.33-1.3 10.8-2.1 24.19-3.22 35.36-.31 3.09 5.43 1.59 10.91 1.82 5.05.21 23 1.08 27 1.19 4.28.12 4.11 2.09 4.79-1.9 1.8-10.55 3-25.12 3.71-35.79 0-.72-6.22-.9-8.91-1.21zm-24.3 6.93c.13-1.58.25-3.17.44-4.74q6.43.18 12.87.66c-.35 1.5-.7 3-1 4.51q-6.19-.12-12.35-.43zm16.17.5c.26-1.16.61-2.32.86-3.41.06-.27.12-.56.18-.85q6.36.56 12.69 1.41c-.06.92-.12 1.84-.19 2.75q-6.82.17-13.58.1zm2.13-8.55c.29-.57.61-1.11 1.32-.8a1.5 1.5 0 0 1 .73 1.51l-2.28-.21c.11-.17.23-.34.23-.5zm-16.53-.66c.7-.74 2.75-1.14 2.44.23l-2.55-.1zm-5.29 3.89c0 .28-.06.56-.08.84-.12 1.23-.31 2.5-.41 3.76l-3.51-.23c.14-1.47.27-2.93.4-4.4zm32 18q-.71 6.41-1.63 12.79a29.48 29.48 0 0 1 -.37 3.3c-.47 0-1-.09-1.37-.11l-35.26-1.48q1.2-12.12 2.32-24.25c1.46.1 2.92.2 4.38.28 1.08 1.84 7 3.94 7.05.36q4.17.16 8.34.26a4.17 4.17 0 0 0 .74 1.79c2.12 2.9 11.51 2 9-1.71 2.55 0 5.09 0 7.64-.1-.23 2.95-.52 5.9-.84 8.86z" fill="#741948"/><path d="m335.91 165.83h-.27c.52-2.29 2.79-7.4 1.88-9.73-1.33-3.41-5-1.08-7.65-.24-1.63.51-5.72 1.21-4.17 3.84 1.32 2.25 5.92-.32 7.6-.85-.56 2.3-1.1 4.59-1.62 6.9-.38 0-.75-.07-1.12-.12a1.94 1.94 0 0 0 -1.85 3.29c1.16 1 6.5 1 7.92.92 2.49-.14 1.78-4.17-.72-4.01z" fill="#741948"/><path d="m233.33 112.91c-12.72-12.66-28.88-19.5-46.57-19-16 .41-31-.83-45.36 7.56-32.75 19.16-36.82 66.79-15.16 97.18 23.65 33.16 68.51 35.16 96.89 9.86 25.21-22.48 38.08-67.82 10.2-95.55z" fill="#eaeced"/><g fill="#9ea0a5"><path d="m142.15 110.63c1-.4 71 1.41 71 1.41l8.31 16.28s-.94 70.17-1.9 71.94-76.34-1.26-77.66-1.26-.73-88 .25-88.37zm71.2 83.86c2-19 2.11-62.58 2.11-62.58s-12.71 3.7-14.32 2.38 2.33-10.13 3.19-17c-11.71.08-56.12-2.15-56.34-.84s-1.6 75.27-1.06 76.34 61.96 1.47 66.42 1.7zm1.87-67.12-5.77-9.29-3 10.89z"/><path d="m155.15 159.46s-1-5.21.29-5.51 51.5-.1 51.5-.1.91 5.39-.21 5.87-51.58-.26-51.58-.26z"/><path d="m204.33 186.16c-3.79.43-50.3-.64-50.3-.64s-.16-6.43.85-6.45c2.77 0 42.45 1.47 48.65 1.32.76-.02 1.74 5.66.8 5.77z"/><path d="m175.79 128.79c1.23-1.32 2.41-2.73 3.74-4 2.18-2.08 4.36-1.7 5.82.9.35.62.71 1.22 1.22 2.1l5.7-5.11c2.35 2 2.41 4.91.15 6.81a20 20 0 0 1 -3.8 2.8c-2.32 1.12-3.81.38-4.84-2a8.59 8.59 0 0 0 -1.37-1.91c-.93 1.13-3.37 4.17-3.72 4.48-2.17 2-4.09 1.57-5.28-1.12-.63-1.43-1.12-2.93-1.68-4.44l-6.73 5.7-3.42-5.08a79.08 79.08 0 0 1 -5.62 7c-.41-.61-.81-1.23-1.23-1.84-1.69-2.42.49-4 1.41-5.7a40.73 40.73 0 0 1 3-4.43c.92-1.31 2.3-1.35 3.36 0 .87 1.08 1.62 2.25 2.48 3.46 1.49-1.32 3-2.74 4.58-4s3.27-.92 4.16 1.06c.8 1.65 1.36 3.44 2.07 5.32z"/><path d="m155.31 147.23c-1.55-.18-1.32-3.54-.52-4.86.26-.43 34.68-.67 38.81-.75 3.38-.06 1.4 5.45 1.12 5.61-.57.32-37.9.18-39.41 0z"/><path d="m174.9 172.09c-.42-1.15 0-4.94.68-5.11 3.07-.77 25.22-.32 26-.42 1.11-.14 1.31 5.85-1.1 5.92-.8.02-25.55-.3-25.58-.39z"/><path d="m169.89 172.22c-1.12.48-15.38-.64-15.38-.64s-1-4.14-.11-5 15.65.14 15.65.14.95 5.02-.16 5.5z"/><path d="m200.48 142.11c2.46.5 5.31-.12 7.69.64 1.6.5 1.46 5.43-1 5-1.55-.3-6.75-.06-8.33-.16-1.77-.11-1.76-4.6.26-5.21.45-.16 1.37-.23 1.38-.27z"/></g></svg>