<svg width="157" height="140" viewBox="0 0 157 140" fill="none" xmlns="http://www.w3.org/2000/svg">
<path d="M-0.000244141 36.5L4.99976 41.5L9.99976 36.5H-0.000244141Z" fill="white"/>
<path fill-rule="evenodd" clip-rule="evenodd" d="M93.8618 114.913C121.347 84.5449 113.51 44.1868 92.9414 12.3041C92.5892 11.7558 92.7488 11.02 93.3005 10.6641C93.8523 10.3082 94.5878 10.4619 94.94 11.0102C116.087 43.7847 123.871 85.2771 95.6157 116.495C95.1765 116.982 94.4261 117.023 93.9396 116.586C93.455 116.151 93.4203 115.402 93.8618 114.913Z" fill="#9A9CA1"/>
<path fill-rule="evenodd" clip-rule="evenodd" d="M94.3272 12.2547C94.4438 14.3329 94.6192 16.9392 94.6304 17.2356C94.9355 25.2681 93.9759 32.9268 91.8633 40.7191C91.6926 41.3518 91.0386 41.7303 90.4063 41.5647C89.774 41.399 89.3999 40.7489 89.5706 40.1162C91.6217 32.5606 92.5543 25.1332 92.2575 17.3415C92.2405 16.8874 91.8427 11.0288 91.8514 9.83746C91.8527 9.34882 92.0055 9.07159 92.0478 9.00954C92.2596 8.67173 92.5363 8.53952 92.7676 8.47972C93.0292 8.41416 93.4867 8.4109 93.9829 8.72784C94.5009 9.06162 95.3982 10.0142 95.6443 10.2362C99.3669 13.576 103.228 17.6295 107.561 20.6421C111.693 23.5153 116.26 25.4441 121.593 24.6924C122.242 24.6003 122.84 25.0539 122.927 25.7015C123.015 26.349 122.556 26.9493 121.907 27.0413C115.944 27.8805 110.813 25.8028 106.195 22.5924C101.888 19.597 98.0316 15.6056 94.3272 12.2547Z" fill="#9A9CA1"/>
<path d="M123.069 59.4889C134.815 68.2025 125.024 87.2633 111.02 85.4439C95.0652 83.3478 96.3222 69.4476 98.3434 65.2538C103.7 54.0033 116.834 54.8807 123.069 59.4889Z" fill="#50C5DC"/>
<g clip-path="url(#clip0_701_81)">
<path fill-rule="evenodd" clip-rule="evenodd" d="M122.497 73.0102C114.869 77.4287 106.847 76.0341 102.546 68.2492C102.403 67.99 101.688 67.8091 101.43 67.9495C101.17 68.0939 100.688 69.9213 100.831 70.1805C105.439 78.5285 114.816 80.3809 122.99 75.6475C123.245 75.5003 123.651 73.5372 123.503 73.2804C123.353 73.0275 122.752 72.863 122.497 73.0102Z" fill="#237682"/>
<path d="M108.27 68.4579C109.168 69.011 110.344 68.7319 110.897 67.8345C111.45 66.9372 111.171 65.7614 110.273 65.2084C109.376 64.6554 108.2 64.9345 107.647 65.8318C107.094 66.7291 107.373 67.9049 108.27 68.4579Z" fill="#237682"/>
<path d="M116.019 71.2239C116.905 71.7696 118.065 71.4942 118.61 70.6089C119.156 69.7235 118.881 68.5634 117.995 68.0178C117.11 67.4721 115.95 67.7475 115.404 68.6329C114.858 69.5182 115.134 70.6783 116.019 71.2239Z" fill="#237682"/>
</g>
<path d="M31.7905 96.7701C37.8668 109.444 49.6758 117.536 65.1714 114.999C77.525 112.967 86.1885 107.183 90.5136 96.0632C95.0345 84.4974 91.8097 70.372 83.0513 61.711C72.3522 51.1768 57.2904 48.5541 43.593 55.9461C27.9094 64.4293 24.5691 81.7658 31.7905 96.7701Z" fill="#D4B9C8"/>
<ellipse cx="60.8254" cy="84.4508" rx="21.9545" ry="22.5478" transform="rotate(11.3967 60.8254 84.4508)" fill="white"/>
<path d="M64.8532 59.84C51.5284 57.154 38.4685 66.2393 35.8145 79.4055C33.1605 92.5716 41.7967 105.432 55.1215 108.118C69.6872 111.054 81.4387 102.303 84.0926 89.1372C86.2939 78.2171 78.2021 62.5308 64.8532 59.84ZM56.1072 103.353C45.4377 101.202 38.5172 90.9211 40.6423 80.3786C42.7674 69.8362 52.5488 62.922 63.2183 65.0727C73.8877 67.2234 81.3899 77.6215 79.2648 88.164C77.1397 98.7065 66.7767 105.503 56.1072 103.353Z" fill="#741448"/>
<path d="M62.314 55.6736L61.3413 59.7935L68.9878 61.7021L70.0683 57.0471L74.9736 58.1307L76.7269 53.7511L57.8533 50.2251L57.4086 54.59L62.314 55.6736Z" fill="#741448"/>
<path d="M47.2515 60.5249L48.5989 62.4276L45.1098 65.5333L43.463 63.2078L42.0423 64.2139L39.1814 60.8434L46.4346 56.0244L48.6722 59.5188L47.2515 60.5249Z" fill="#741448"/>
<path d="M63.1656 75.8427L59.094 75.022L56.9931 85.4443L69.5342 96.7987L71.8054 94.1645L61.8662 84.5412L63.1656 75.8427Z" fill="#741448"/>
<rect x="62.1382" y="62.9243" width="4.74691" height="4.15355" transform="rotate(11.3967 62.1382 62.9243)" fill="#741448"/>
<rect x="81.6528" y="86.228" width="4.74691" height="4.15355" transform="rotate(101.397 81.6528 86.228)" fill="#741448"/>
<rect x="54.5171" y="100.732" width="4.74691" height="4.15355" transform="rotate(11.3967 54.5171 100.732)" fill="#741448"/>
<rect x="43.8445" y="78.6064" width="4.74691" height="4.15355" transform="rotate(101.397 43.8445 78.6064)" fill="#741448"/>
<defs>
<clipPath id="clip0_701_81">
<rect width="22.2448" height="22.2448" fill="white" transform="translate(108.433 56.375) rotate(31.6458)"/>
</clipPath>
</defs>
</svg>
