<svg width="162" height="125" viewBox="0 0 162 125" fill="none" xmlns="http://www.w3.org/2000/svg">
<path d="M161.093 32.5014V32.5688C160.891 27.5843 160.824 22.5998 160.891 17.6153C160.958 14.7189 161.43 9.33032 157.188 9.53239C150.591 8.11788 119.757 6.23186 116.054 11.4184C114.708 15.7293 115.516 20.5791 115.112 25.0247C115.246 29.2682 114.304 33.9833 116.256 37.8901C120.969 39.7761 126.691 38.9678 131.74 39.5066C130.461 43.5481 129.384 47.3202 127.836 51.2269C126.624 52.3046 128.307 54.7295 129.586 53.5171C133.289 48.9367 137.059 44.2217 140.694 39.574C140.963 39.574 141.165 39.574 141.435 39.5066H141.367C147.359 38.2268 163.113 42.7398 161.093 32.5014Z" fill="#50C5DC"/>
<path d="M140.425 15.5275C143.589 15.797 143.858 21.8592 140.223 21.1182C137.732 20.512 137.261 15.1907 140.425 15.5275Z" fill="#237682"/>
<path d="M133.49 16.2009C135.914 17.2787 135.712 22.6673 132.413 21.2528C130.057 20.3098 130.528 15.0559 133.49 16.2009Z" fill="#237682"/>
<path d="M130.529 24.486C132.952 28.5275 139.55 29.6725 142.647 25.9005C146.753 22.6673 148.773 33.1752 137.126 33.1752C127.836 32.9057 125.075 21.9937 130.529 24.486Z" fill="#237682"/>
<path fill-rule="evenodd" clip-rule="evenodd" d="M19.4597 33.2059C20.5566 33.0326 21.5006 32.8778 21.9991 32.7933C25.0313 32.2724 32.713 31.8851 37.9709 29.8115C41.9828 28.2308 44.6 25.6668 43.7479 21.7189C42.9734 18.1307 39.423 15.8667 34.4773 14.7447C23.8332 12.33 6.70836 14.943 1.7288 17.058C1.18531 17.2892 0.929355 17.9106 1.15748 18.4486C1.38443 18.9842 2.00768 19.2333 2.55118 19.0021C7.33024 16.9736 23.7685 14.4899 33.9872 16.8078C37.9811 17.7143 41.0396 19.2819 41.6647 22.1806C42.2829 25.0411 40.1089 26.6991 37.2005 27.8449C32.0838 29.864 24.6058 30.2018 21.6531 30.7074C19.8023 31.0254 12.7106 32.0402 12.1226 32.2725C11.3862 32.5628 11.3947 33.1789 11.4128 33.3808C11.4266 33.5373 11.5462 34.3125 12.5131 34.3573C26.3001 35.0035 46.9257 45.4801 60.5797 60.7235C74.1139 75.8329 80.7908 95.6977 66.7203 115.392C66.3795 115.871 66.4908 116.531 66.9677 116.867C67.4469 117.202 68.1128 117.086 68.4537 116.607C83.1961 95.9713 76.3561 75.1388 62.1777 59.3098C50.2287 45.9689 33.0604 36.235 19.4597 33.2059Z" fill="#9A9CA1"/>
<path fill-rule="evenodd" clip-rule="evenodd" d="M68.1787 114.879C68.0189 112.39 67.9394 109.906 67.5847 107.43C66.6408 100.832 64.2516 94.1869 60.2891 88.8038C59.9412 88.3335 59.2752 88.2359 58.8001 88.5819C58.3238 88.9315 58.22 89.594 58.5643 90.0631C62.3281 95.1697 64.5793 101.485 65.4743 107.745C65.879 110.579 65.9181 113.427 66.1387 116.278C66.1515 116.42 66.2092 117.662 66.2939 117.921C66.4876 118.523 66.9561 118.646 67.1805 118.676C67.3677 118.703 67.5987 118.69 67.8584 118.571C68.0711 118.473 68.4312 118.192 68.8334 117.716C70.1261 116.194 72.6322 112.218 73.1128 111.608C78.6199 104.616 84.9173 99.019 91.4003 92.9633C91.8292 92.5598 91.8538 91.8888 91.4537 91.4649C91.0536 91.041 90.3795 91.0246 89.9494 91.4257C83.3838 97.5575 77.0147 103.234 71.4416 110.312C71.1099 110.73 69.4006 113.145 68.1787 114.879Z" fill="#9A9CA1"/>
<path d="M82.8727 16.2771C68.1485 13.2454 51.4276 15.9756 43.4839 31.0829C37.158 43.1327 38.577 56.654 45.203 67.6929C52.08 79.1936 66.1787 85.6505 79.2427 83.7259C95.1623 81.3445 107.206 69.9942 109.854 53.266C112.87 34.0994 100.323 19.8421 82.8727 16.2771Z" fill="#E0E0E0"/>
<path d="M101.101 26.063L58.4606 18.765L51.44 69.5936L87.4385 76.6932L94.6279 71.5679L101.101 26.063Z" fill="white"/>
<path d="M93.9102 74.6196L102.608 25.3141C102.608 25.3141 69.0987 18.815 57.6714 17.4243L49.0555 72.3462L88.5658 79.6516L93.9102 74.6196ZM97.8584 28.1465C95.3291 42.3205 91.1264 68.7594 91.1264 68.7594C91.1264 68.7594 84.7682 67.2411 84.175 68.0598C83.8889 67.5722 82.793 73.9383 82.793 73.9383C82.793 73.9383 61.8662 70.0246 52.8073 68.9711C55.0772 54.9693 60.3843 22.327 60.8614 22.1265C62.1831 21.5572 91.6758 27.4148 97.8584 28.1465ZM85.9644 75.7289L86.4211 70.4095C86.4211 70.4095 91.3485 71.8581 91.5454 72.3734C91.777 72.9263 85.9644 75.7289 85.9644 75.7289Z" fill="#9A9CA1"/>
<path d="M90.1803 36.1203C89.6186 35.7007 77.5724 33.4502 77.0815 34.0133C76.5905 34.5763 76.7248 36.7228 76.7248 36.7228L89.8832 39.1586C89.8111 39.156 90.7405 36.5761 90.1803 36.1203Z" fill="#9A9CA1"/>
<path d="M60.6857 43.8742L64.1432 51.4257L70.3798 45.0125L67.6683 43.9559L64.8154 46.7929L63.4057 42.9538L60.6857 43.8742Z" fill="#9A9CA1"/>
<path d="M88.2094 52.5459C88.2094 52.5459 89.3344 49.5738 88.5869 49.2927C87.8033 49.0103 73.9945 47.0805 73.9945 47.0805C73.9945 47.0805 72.1803 49.1928 73.2773 49.777C75.0829 50.7134 88.2094 52.5459 88.2094 52.5459Z" fill="#9A9CA1"/>
<path d="M87.0813 60.9555C87.0813 60.9555 72.5222 58.3238 72.0354 58.7781C71.5485 59.2324 71.5234 61.7724 71.5234 61.7724L86.8564 63.9965L87.0813 60.9555Z" fill="#9A9CA1"/>
<path d="M67.1445 55.2249L63.4043 58.0707L61.8724 53.9855L59.1201 55.0438L62.3546 62.5358L68.8131 57.3224L67.1445 55.2249Z" fill="#9A9CA1"/>
<path d="M65.4825 29.8358L67.4332 33.8809L70.8272 30.4735L73.3978 32.1749L66.8273 37.995L62.2399 30.7271L65.4825 29.8358Z" fill="#9A9CA1"/>
</svg>
