<svg id="Layer_1" data-name="Layer 1" xmlns="http://www.w3.org/2000/svg" viewBox="0 0 139 208"><defs><style>.cls-1{fill:#caccce;}</style></defs><path class="cls-1" d="M28.3,17.87A5.05,5.05,0,0,1,33.15,23c-.15,2.56-.35,5.12-.47,7.68-.1,2.4,0,4.82-.07,7.22,0,4.54,0,9.09.37,13.62a99.13,99.13,0,0,0,5.94,23A234.5,234.5,0,0,0,49.66,98.58a216.66,216.66,0,0,0,14.52,23.94,199.9,199.9,0,0,0,20.24,23.91c2.34,2.38,4.7,4.75,7.17,7l5.92,5.37c5.25,4.75,10.64,9.33,16,13.92,3.24,2.7,6.47,5.42,9.79,8a5.36,5.36,0,0,1,2.19,3.1,5,5,0,0,1-3.76,6,4.87,4.87,0,0,1-3.86-.66c-4.87-3.8-9.59-7.8-14.3-11.81-3.75-3.19-7.52-6.37-11.17-9.69l-8-7.28c-4.22-3.83-8.22-7.93-12.07-12.11a204.43,204.43,0,0,1-14.78-17.95,220.56,220.56,0,0,1-12.75-19.78A218.19,218.19,0,0,1,34.56,90.06a190.4,190.4,0,0,1-8.15-21.43,102.74,102.74,0,0,1-2.56-10.38,79.82,79.82,0,0,1-1.17-11.77c-.15-3.83-.09-7.68-.06-11.52,0-1.85,0-3.69.1-5.53.09-2.24.29-4.48.42-6.71a4.76,4.76,0,0,1,.23-1.26,5,5,0,0,1,4.93-3.59Z"/><path class="cls-1" d="M66.75,172.7h0a4.85,4.85,0,0,0-2,6.54,4.69,4.69,0,0,0,1.67,1.81l1.17.55A63.44,63.44,0,0,0,76.48,185c2.81.79,5.65,1.4,8.51,2,5.56,1.17,11.21,1.85,16.85,2.51a158.65,158.65,0,0,0,15.85,1.26c.49,0,1,0,1.49,0l2-.19.5-.07a6.73,6.73,0,0,0,2.65-1.31,6.17,6.17,0,0,0,1.63-2.49,7,7,0,0,0-.77-5.27c-.3-.53-.61-1.07-.9-1.61-1.17-2.24-2.28-4.52-3.24-6.86-4-9.8-7.73-19.71-11.44-29.63-.46-1.23-.91-2.47-1.37-3.7a5,5,0,0,0-1.14-2.17l-1-.81a4.85,4.85,0,0,0-6.68,1.47,4.62,4.62,0,0,0-.64,3.7q4.67,12.62,9.5,25.18c1.32,3.44,2.7,6.85,4.09,10.26.48,1.18,1,2.34,1.54,3.49l-1.31-.1c-2.61-.21-5.21-.46-7.82-.72-4.21-.42-8.41-1-12.59-1.61-3.55-.66-7.09-1.35-10.6-2.17a65.85,65.85,0,0,1-11.2-3.77,4.66,4.66,0,0,0-3.69.34Zm43.07-28.85h0l.15.42-.15-.42Z"/></svg>