<svg viewBox="0 0 248.37 151.93" xmlns="http://www.w3.org/2000/svg"><path d="m22.82 67.26a31.32 31.32 0 0 0 -16 19.84c-8.82 30.39 29.31 46.83 49.54 27.71 23.04-21.81-4.93-62.12-33.54-47.55z" fill="#d4b9c8"/><path d="m42.08 73.9c-1.9-6.24-9.76-3.47-9.39 2.4-1.73.47-2.83.86-4.54 1.37-1.55-6.23-11.38-1.91-9.34 2.58-2.09.56-3.22.74-6.09 1.67 2.18 9.49 7.37 28.88 8.8 34 1.86.34 32.74-7.59 37-9-1.69-9.42-5.9-25.28-8.52-34.47-.2-.65-5.53.88-7.92 1.45zm-18.43 12.87c-.37-1.37-.93-3.44-1.25-4.82 3.37-.85 6.87-1.74 10.57-2.77.17 1.37.85 3.67 1.05 5-3.47 1.2-6.86 1.53-10.37 2.59zm13.35-3.47c-.12-1.06-1-4.08-1.12-5.06 0-.26 8.52-1.75 12.25-2.55.22.79.89 3.58 1.11 4.37-3.91 1.04-8.36 2.48-12.24 3.24zm.44-10.3c1.73-.43 2 1 2.17 1.52l-4.27 1.08a3.18 3.18 0 0 1 2.1-2.6zm-12.06 5.47a27.12 27.12 0 0 1 -3.8.85c-.73-1.42 2.71-4.95 3.8-.85zm-5.62 4.53c.06.25.93 3.54 1.23 4.63l-3.74 1c-.33-1.27-.92-3.59-1.26-4.87 1.01-.35 2.76-.44 3.77-.76zm35.47 22c-.4.14-22 5.85-31.72 8.1q-2.66-10.55-5.39-21.1c1.26-.35 2.52-.71 3.77-1.08 1.47 1.22 8.66.8 7.61-2.23 2.37-.74 3.19-.89 5.64-1.5 5.08 4.17 8.49-1.92 8.49-1.92l6.55-1.76s4.97 20.56 5.05 21.49z" fill="#741948"/><path d="m39.55 101.28-.22.08c-.26-2.08.1-7.07-1.37-8.75-2.15-2.47-4.53.61-6.51 2.11-1.21.92-4.44 2.75-2.34 4.5 1.79 1.49 4.89-2.06 6.14-3 .22 2.11.46 4.2.72 6.3l-1 .23a1.74 1.74 0 0 0 -.56 3.33c1.29.52 5.77-1.12 6.94-1.62 2.07-.9.26-4.07-1.8-3.18z" fill="#741948"/><path d="m158.83 67c4.29-2.16 43.48-4.29 46 2.35 2.75.41 1.43 23.71 1.45 24.53v-.1c.24 5.29-1.65 7.52-6.88 7.42-1.2.2-16 .73-16.32.74-4.15 5.12-12.64 15.94-12.81 16.1-1 1.28-2.66-.9-2.44-1.86 0-.3 3.66-10.38 4.92-14.35-2.77 0-16.16 1.28-17.56-1.13s-3.44-30.14 3.64-33.7z" fill="#fbb331"/><path d="m186 73.16a1.37 1.37 0 0 1 .49.18c3.07.59 3.18 6.7-.3 6.34s-3.19-7.68-.19-6.52" fill="#be8635"/><path d="m174.3 74c5.72 2.82-2.14 10-2.94 3.09a3.27 3.27 0 0 1 0-.54 6.78 6.78 0 0 1 .8-2.12 1.64 1.64 0 0 1 2.14-.43" fill="#be8635"/><path d="m179.48 88.77a9.2 9.2 0 0 0 6.13-1.58l.32-.26c.17-.24.67-.77.72-.83 2.22-3.13 4.68 2.83 2.43 5.25-.15.18-4.7 3.84-13.84 1.66-5.92-1.41-4.63-10.92-2.48-8.54 0 0 3.02 4.12 6.72 4.3z" fill="#be8635"/><path d="m61.17 3.42c-4.71-1.42-10.88-.65-15.77-.42h-.22.13a151.43 151.43 0 0 0 -17.31-.08c-10.37.23-22.38 1.33-24.27 13.48q-.44 2.94-.66 5.9c-1.34 13.81.15 23.17 15.78 24.58 6 .59 12.12.32 18.17.32 2 2.11 7.38 11.26 10.32 11 3.23-.26 2.23-8.8 2.21-11.31h.3a57 57 0 0 0 6.89-1 11.57 11.57 0 0 0 5.82-2.3c10-2.63 8.6-37.08-1.44-40.13" fill="#ff4143"/><path d="m28.14 22.17c-1.38-1-2.74-2-1.82-3.83a7.56 7.56 0 0 1 2-3.27c2.58-3 8.32-4.89 12.24-4.63 2.63.12 5.18 1.13 5.8 4a6.31 6.31 0 0 1 -.36 4.34v.08c-.85 3.16-3.31 5.41-5.7 7.47l-.19.19a9.47 9.47 0 0 0 -.31.95c-.29 1.65 0 5.52-2.81 5.17a3.06 3.06 0 0 1 -2.94-2c-1.18-3.26 2.07-6.61 4.23-8.54.84-.87 1.72-1.71 2.63-2.52.08-.22.15-.42.2-.61a6.14 6.14 0 0 0 .07-.83 6 6 0 0 0 -.07-.66 1.72 1.72 0 0 0 -.07-.21 4.63 4.63 0 0 0 -.39-.59 4.72 4.72 0 0 0 -.76-.62 3 3 0 0 0 -.78-.25 16 16 0 0 0 -3.27.17l-.31.08c-1.17.94-2.35 1.94-3.53 2.94-.29.29-2.95 4.06-3.9 3.21z" fill="#8b0f26"/><path d="m36.71 39.89a2.07 2.07 0 0 1 -1.57-3 2.65 2.65 0 0 1 .86-1.33 2 2 0 0 1 1-.56 1.61 1.61 0 0 1 2.4 1.11 2.8 2.8 0 0 1 -.16 1.76 2.6 2.6 0 0 1 -.62 1.13 2 2 0 0 1 -1 .76 1.49 1.49 0 0 1 -.91.16" fill="#8b0f26"/><path d="m101.83 8.76c-29 14.19-15.6 59.86 15.54 61.66 35.47 2 38.45-28.94 35.81-38.87-7.12-26.85-35.93-30.32-51.35-22.79z" fill="#50c5dc"/><g fill="#3292a0"><path d="m142.37 17.49c-.45-.72-10.32-2.3-10.32-2.3s-.38-3.7-1.05-3.86-13.76-2-14.56-2-1.75 2.75-1.75 2.75-9.64-1.61-10.6-1.21-8.86 46.54-8.39 47 38.73 6.88 39.54 6.27 7.58-45.92 7.13-46.65zm-7.22 4.34c-1.73 10.11-5 30.36-5 30.36a36.37 36.37 0 0 0 -4.27-.79c-.3.12-.68 4.91-.68 4.91s-15.1-3-21.32-3.63c1.57-10 5.54-34.66 5.88-34.82.95-.4 21.17 3.5 25.39 3.97zm-8.39 34.91.33-3.78s3.37 1 3.52 1.36-3.85 2.42-3.85 2.42zm-9.11-45c1-.19 11 1.31 11.54 1.77s.69 5.23.09 5.5-13.13-1.79-13.85-2.17 1.16-4.92 2.22-5.11zm-19.38 44.2c-.68-.39 7.66-42.47 7.66-42.47l7.32 1-.17 1.89-5.5-.89-6.64 38.92 25.29 4.61 5.83-3.29 5.94-34.88-5.79-1v-1.69l7.88 1.08s-6.22 42.15-6.68 42.63-34.41-5.51-35.14-5.91z"/><path d="m111.46 23.81 7.39.86.07-2s-5.92-1.23-7.11-1c-.81.27-.35 2.14-.35 2.14z"/><path d="m131.36 24.78c-.39-.31-8.64-1.81-9-1.41s-.26 1.94-.26 1.94l9 1.63s.64-1.86.26-2.16z"/><path d="m110.26 30c.31.93 1.37 4.49 1.86 4.71.82.36 4.1-4 4.1-4l-1.44-1-2 2.05-1-2.47s-2.02-.77-1.52.71z"/><path d="m129.61 35.81s.78-2.12.26-2.32-11.72-1.6-11.72-1.6-1.23 1.52-.49 1.92c1.24.67 11.95 2 11.95 2z"/><path d="m108.71 39.17c.29.36 5 .64 5 .64s.6-2 0-2.27a32.26 32.26 0 0 0 -4.5-.39s-.78 1.66-.5 2.02z"/><path d="m127.08 39.62s-10-1.75-10.31-1.43-.36 2.15-.36 2.15 9.55 1.7 10.5 1.44c1.29-.35.17-2.16.17-2.16z"/><path d="m112.35 46.17-2.08 1.75-1-2.48s-1.29.15-1.58.64c-.48.82 2.11 4.55 2.11 4.55l4.2-3.28z"/><path d="m124.22 49.25c-.73-.21-8.15-1.1-8.15-1.1s-.41 1.85-.09 2.13a68.45 68.45 0 0 0 8.57 1.13c.3-.09.45-1.94-.33-2.16z"/></g><path d="m79.91 114.21c-2.53 0-5.22-.15-8.49-.47a1.2 1.2 0 0 1 -1.08-1.31.86.86 0 0 1 .87-.91h.13c2.4.23 5.56.5 8.76.5 7.4 0 12.94-1.41 17.42-4.43a21 21 0 0 0 4.46-4.1l.36-.44-.55-.16a14.72 14.72 0 0 1 -4.23-1.89c-3.56-2.37-5.65-6.08-5.56-9.71a8.32 8.32 0 0 1 8.21-8.06 7 7 0 0 1 6 3.38c1.52 2.35 3.55 7.34 0 14.38l-.25.51h.56 1.61a42.17 42.17 0 0 0 11.12-1.73 48.66 48.66 0 0 0 19.64-10.77 1.1 1.1 0 0 1 .74-.3 1.29 1.29 0 0 1 1.14.8.88.88 0 0 1 -.29 1 51 51 0 0 1 -28.87 13c-1.25.12-2.46.19-3.59.19a25.31 25.31 0 0 1 -3.09-.18h-.23l-.12.18a22.55 22.55 0 0 1 -4.5 4.78c-4.95 3.85-11.55 5.74-20.17 5.74zm20.09-28.83a5.61 5.61 0 0 0 -4.21 2.06c-2.73 3.14-1.44 7.36.92 9.94a12.59 12.59 0 0 0 6.66 3.71l.27.06.14-.24c2.48-4.27 2.85-8.63 1-12.29a5.42 5.42 0 0 0 -4.78-3.24z" fill="#eaeced"/><path d="m219.76 50.39a1.55 1.55 0 0 1 -.94-.3 1.48 1.48 0 0 1 -.58-1 1.14 1.14 0 0 1 .29-.91c1.83-1.92 3.68-3.83 5.53-5.75l1.58-1.64a1.57 1.57 0 0 1 1-.54h.19.2a1.57 1.57 0 0 1 .71.27 1.41 1.41 0 0 1 .56 1 1.16 1.16 0 0 1 -.29.92c-2 2.18-4.08 4.36-6.1 6.47l-.92 1a1.64 1.64 0 0 1 -1 .56z" fill="#eaebec"/><path d="m176.83 47.56a2 2 0 0 1 -1.18-.38 1.66 1.66 0 0 1 -.72-1.09v-.25c-.07-2.2-.14-4.4-.19-6.61v-.4c-.05-1.71-.09-3.49-.23-5.24a1.68 1.68 0 0 1 .36-1.31 1.86 1.86 0 0 1 1.19-.63h.23.23a1.78 1.78 0 0 1 1.58 1.44c.26 1.92.36 3.9.43 5.76q.12 3.3.22 6.61a1.86 1.86 0 0 1 -.38 1.41 2 2 0 0 1 -1.26.68z" fill="#eaebec"/><path d="m166.57 145.66a1.58 1.58 0 0 1 -1.61-1.28c-.28-2.53-.49-5.12-.7-7.62l-.07-.77a1.52 1.52 0 0 1 .33-1.17 1.64 1.64 0 0 1 1.06-.57h.4a1.6 1.6 0 0 1 1.42 1.26l.08 1c.2 2.45.41 5 .67 7.48a1.56 1.56 0 0 1 -1.38 1.71z" fill="#eaebec"/><path d="m213.56 128.58a.9.9 0 0 1 -.4-.09c-2.55-1.2-5.16-2.34-7.46-3.35a1.13 1.13 0 0 1 -.67-1.5 1.32 1.32 0 0 1 1.15-.7h.14a1.38 1.38 0 0 1 .29.08c2.52 1.11 5 2.2 7.41 3.35a1.27 1.27 0 0 1 .69.63 1.06 1.06 0 0 1 0 .87 1.3 1.3 0 0 1 -1.14.7z" fill="#eaebec"/><path d="m233.83 92.93h-.25l-10.84-2-2.88-.53a1.88 1.88 0 0 1 -1.21-.64 1.59 1.59 0 0 1 -.35-1.22 1.8 1.8 0 0 1 1.7-1.41h.18.08c4.28.77 8.76 1.61 13.71 2.54a2 2 0 0 1 1.2.63 1.56 1.56 0 0 1 .33 1.19 1.73 1.73 0 0 1 -1.66 1.41z" fill="#eaebec"/></svg>