<svg viewBox="0 0 507.61 205.45" xmlns="http://www.w3.org/2000/svg"><g fill="#eaebec"><path d="m359.09 52.75c-5.68-1.81 4-8 5.29-10.59.68-.61 2.16-2.88 3.17-2.89 6.2 1.47-4.53 8.8-5.82 11.44-.66.67-1.59 2.16-2.64 2z"/><path d="m170.43 177.35c-5.68-1.81 3.95-8 5.29-10.59.69-.61 2.17-2.88 3.17-2.89 6.2 1.47-4.53 8.8-5.82 11.44-.66.67-1.58 2.16-2.64 2z"/><path d="m257.83 43.86c-4.52.13-1.77-14.76-2.88-18.5-.45-3 4.05-3.49 4.42-.66-.37 3.96 3.25 18.74-1.54 19.16z"/><path d="m161.24 45.81c-.8-.31-1.31-1.48-1.82-2.11-1.25-2.58-9.11-9.85-2.76-10.35 1.74 1.78 12.17 13.42 4.58 12.46z"/><path d="m93.89 109.2c-2.93-.6-13.44 1.26-13.49-2.42 2.35-3.63 9.29-.55 13.2-1.17a1.86 1.86 0 0 1 .29 3.59z"/><path d="m266 184.92c-4-1.4-1.77-8.35-2.86-11.78-.37-1.56.23-3.55 2.12-3.32 1.46.12 1.91 1.66 1.85 2.92-.61 3.32 3 11-1.11 12.18z"/><path d="m350 173.53c-2.11-1.35-14.9-5.09-9.09-7.46 1.94 1.12 14.89 5.11 9.09 7.46z"/><path d="m425.71 112.39c-6.21-.8-13.23-.09-19-1.94-3.89-7 14.53-1.74 18.7-2.32 2.67 0 2.82 3.91.35 4.26z"/><path d="m91.58 161.86v.14c-.27-7.4-.43-14.82-.26-22.2.06-4.4.74-12.37-5.52-12.12-9.82-2.1-55.66-4.86-61.17 2.86-2 6.39-.79 13.61-1.38 20.21.22 6.25-1.25 13.25 1.67 19.06 7 2.77 15.5 1.61 23 2.39-1.85 6-3.55 11.57-5.8 17.38-1.76 1.58.72 5.24 2.6 3.44 5.52-6.83 11.1-13.78 16.54-20.68l1.08-.06h-.1c8.94-1.92 32.37 4.72 29.34-10.42z"/></g><g fill="#fff"><path d="m60.92 136.59c4.67.44 5.12 9.35-.26 8.34-3.77-.9-4.47-8.84.26-8.34"/><path d="m50.62 137.61c3.59 1.64 3.34 9.56-1.59 7.54-3.51-1.4-2.82-9.24 1.59-7.54"/><path d="m46.17 149.91c3.62 6 13.35 7.66 18 2.07 6.06-4.82 9.13 10.77-8.2 10.79-13.82-.34-17.91-16.57-9.83-12.88"/></g><path d="m480.24 55.1c.93-10.11.8-37.9-1.92-39.11s-41.94-2.33-57.94-1.21c-.74 18.48-1.59 22.65 1.08 40.69 1.58 1.3 17.75.37 17.75.37s1.28 11.09 3.17 11.09 8.08-10.16 8.08-10.16 24.76.93 29.78-1.67zm-29.37-7c-.7 3-5.35 1.77-3.85-1.15.98-2.95 5.47-2.05 3.85 1.17zm7.78-17.95c-.85 3.67-4.84 5.11-6.54 8 .41 3.63-3.61 7.27-5.75 2.72-1.14-5.1 5.26-7.49 7.57-10.84-.93-8.72-9.48 1.26-12.75 2.28-8.52-9.92 23.59-16.75 17.47-2.14z" fill="#eaebec"/></svg>