<svg viewBox="0 0 62.44 58.44" xmlns="http://www.w3.org/2000/svg"><path d="m38.33 1.15c-13-2.9-27.7-.8-34.7 11.8-5.63 10.1-4.4 21.6 1.37 31.1 6.1 9.9 18.5 15.5 30 14.2 14.1-1.7 24.7-11.1 27-25.2 2.7-16.2-8.3-28.5-23.7-31.9z" fill="#d4b9c8"/><path d="m30.93 44.25a1.56 1.56 0 0 0 -.6.8 5.27 5.27 0 0 0 -.3 1.2c-.1.4-.3.8-.4 1.3v.1a7 7 0 0 1 -.8 1.4 5.72 5.72 0 0 0 -.7.8c-.2.1-.4.4-.6.5 0 .1-.1 0-.2.1a2.09 2.09 0 0 0 -.6.4 2.35 2.35 0 0 1 -.8.2 2.39 2.39 0 0 1 -.9.2c-.2 0-.5.1-.7.1a2.35 2.35 0 0 1 -.8-.2 5.36 5.36 0 0 0 -1.1-.5c-.1 0-.2-.2-.3-.3s-.2-.2-.3-.4-.1-.2-.3-.4-.2-.7-.3-1a6.05 6.05 0 0 1 0-1.9c0-.3.1-.6.1-.9 0-.1 0-.1.1-.2s0-.2 0-.3c.1-.6.3-1.2.4-1.7a1.55 1.55 0 0 0 -1-1.7 1.55 1.55 0 0 0 -1.7 1c-.1.4-.2.9-.3 1.3-.1.2 0 .3-.1.5v.8s-.1.4 0 .5a6.6 6.6 0 0 0 -.1 1.4 4 4 0 0 0 0 1.1c0 .4.1.8.1 1.3l.27 1.25a1.79 1.79 0 0 0 .5.7 4.3 4.3 0 0 0 .9 1 5.67 5.67 0 0 0 1.3.8c.2.1.3.1.4.2a2.39 2.39 0 0 0 .9.3c.2.1.3 0 .5.1s.7.1 1.1.1a11.08 11.08 0 0 0 2.5-.5 3.7 3.7 0 0 0 1.1-.5c.1 0 .2-.1.3-.2a1.79 1.79 0 0 0 .7-.5c.2-.2.5-.4.8-.7a1 1 0 0 0 .4-.5 3.51 3.51 0 0 0 .7-.9 8.26 8.26 0 0 0 .7-1.3 9.62 9.62 0 0 0 .7-1.8c.1-.5.3-1 .4-1.5a1.45 1.45 0 0 0 -1-1.7 1.8 1.8 0 0 0 -1 .2" fill="#741448"/><path d="m34.63 13.15a7.49 7.49 0 0 0 -2.1-.2 7.57 7.57 0 0 0 -1.5.1c-.6.1-1.3.1-1.8.2a23.88 23.88 0 0 0 -5.7 1.9 2.59 2.59 0 0 0 -1.1.7 13.44 13.44 0 0 0 -1.43 1.15 17.11 17.11 0 0 0 -1.8 2 12.13 12.13 0 0 0 -1 1.4c-.2.4-.5.8-.7 1.2-.4.9-.9 1.9-1.3 2.8a2.66 2.66 0 0 0 -.3 1.2c-.1.4-.2.9-.3 1.3-.1.6-.1 1.2-.2 1.7v1.4a23 23 0 0 0 .3 2.6c0 .4.1.8.1 1.3a6.52 6.52 0 0 0 .3 1.6 13.83 13.83 0 0 0 1.4 2.7c.4.8.9 1.6 1.3 2.3a14.8 14.8 0 0 1 .8 1.3 1 1 0 0 0 .5.9 5.26 5.26 0 0 0 1.4 1.1c.4.2.9.3 1.3.5.8.3 1.4.6 2.1.9a7.58 7.58 0 0 0 1.6.6l1.3.3a15.14 15.14 0 0 0 3 .2 28.25 28.25 0 0 0 2.9-.2l1.7-.3a5 5 0 0 0 1.3-.4c.9-.3 1.8-.7 2.7-1.1.4-.2.8-.5 1.2-.7l1.1-.8a22.91 22.91 0 0 0 2.3-2.1 7 7 0 0 0 .8-1c.3-.4.6-.8 1-1.3.2-.4.5-.9.7-1.3a6.71 6.71 0 0 0 .6-1.5c.3-.9.6-1.7.8-2.5 0-.2.1-.5.1-.7a2.35 2.35 0 0 1 .2-.8c0-.2.1-.4.1-.6s.1-.7.1-1.1v-1.4a7.08 7.08 0 0 0 -.1-1.4 15.47 15.47 0 0 0 -.6-3.1 12.64 12.64 0 0 0 -1.3-2.6c-.3-.5-.7-.9-1-1.4s-.6-.8-1-1.2-.7-.7-.9-1a12.84 12.84 0 0 0 -2.6-2 16.18 16.18 0 0 0 -1.8-1c-.5-.3-1.1-.4-1.7-.7-.8-.3-1.7-.5-2.4-.7a.4.4 0 0 0 -.4-.2m1 3.8a8.8 8.8 0 0 1 1.5.5c.3.1.6.3.9.4a17.39 17.39 0 0 1 1.8 1.1c.2.2.4.3.6.5a7.64 7.64 0 0 1 .9.9 9 9 0 0 1 .9 1 2.65 2.65 0 0 0 .5.6 2.18 2.18 0 0 1 .5.8c.3.5.5.9.8 1.4a8.23 8.23 0 0 1 .7 2.8 6.6 6.6 0 0 1 .1 1.4 4.88 4.88 0 0 1 -.1 1.7 4.4 4.4 0 0 1 -.2 1l-.3 1.2a15.46 15.46 0 0 1 -.7 2.3 15.57 15.57 0 0 1 -1.6 2.8c-.4.5-.8.9-1.2 1.4a8.64 8.64 0 0 1 -1.4 1.3 16.89 16.89 0 0 1 -3.2 1.9 14.67 14.67 0 0 0 -1.4.6 10.46 10.46 0 0 1 -1.7.4 15 15 0 0 1 -2.2.2 17.63 17.63 0 0 1 -2.3 0 3.53 3.53 0 0 1 -1.4-.3 15.43 15.43 0 0 1 -1.7-.5 17.08 17.08 0 0 0 -1.8-.7 10.37 10.37 0 0 1 -1-.4v-.1a13 13 0 0 0 -1-1.5 7.54 7.54 0 0 1 -1-1.7c-.5-.9-1.1-2-1.6-3 0-.1-.1-.3-.1-.4-.1-.3-.1-.5-.2-.8-.2-1-.2-2-.3-2.9a10.28 10.28 0 0 1 -.1-1.7c0-.4.1-.9.1-1.3.2-1 .4-1.9.7-2.9a23.17 23.17 0 0 1 2.1-3.8c.3-.3.5-.6.8-.9a5.73 5.73 0 0 1 1.1-1.1 3.33 3.33 0 0 1 1-.6 4.33 4.33 0 0 1 1.2-.5 19.1 19.1 0 0 1 4.5-1.3 2.49 2.49 0 0 1 .8-.1 10.44 10.44 0 0 1 2.5 0 6.61 6.61 0 0 1 2.5.3" fill="#741448"/><path d="m27.93 22.25a1.72 1.72 0 0 0 -1.2.2c-.4 0-.6.3-.8.5a2.18 2.18 0 0 0 -.5.8c0 .1-.1.2-.2.4a2.39 2.39 0 0 0 -.3.9v.95a.86.86 0 0 0 .3.6c.1 0 0 .1.1.2a1.47 1.47 0 0 0 .6.5.76.76 0 0 1 .4.2 2.2 2.2 0 0 0 .8-.1c.4 0 .6-.4.9-.7a6.37 6.37 0 0 0 1-1.8 1.51 1.51 0 0 0 -.2-1.7 1.21 1.21 0 0 0 -.5-.5c0-.2-.2-.3-.4-.4" fill="#741448"/><path d="m37.73 24.85a2.85 2.85 0 0 0 -1.5 1 2.18 2.18 0 0 0 -.5.8l-.3.6a1.68 1.68 0 0 0 -.3 1.2 1.85 1.85 0 0 0 .2.7.7.7 0 0 0 .4.5 1.68 1.68 0 0 0 2.1.2 3.48 3.48 0 0 0 1.3-1.4l.3-.6a2.39 2.39 0 0 0 .3-.9c.1-.2 0-.3 0-.5s0-.4-.2-.5a2.18 2.18 0 0 0 -.5-.8.71.71 0 0 0 -.6-.3c-.2 0-.5-.1-.7 0" fill="#741448"/><path d="m24.63 31.15c-.3.2-.6.5-.6.8-.1.6-.1 1.2-.2 1.8v1.25a7 7 0 0 0 .8 2.9 3.45 3.45 0 0 0 .9 1.2c.2.2.5.4.7.6s.6.3.9.4a6.47 6.47 0 0 0 1.3.4 7.57 7.57 0 0 0 1.5.1 5 5 0 0 0 1.2-.2 6.37 6.37 0 0 0 .7-.2 3.13 3.13 0 0 0 1-.5 3.45 3.45 0 0 0 .9-.8l.6-.6c.3-.3.5-.6.8-.9.1-.3.3-.4.4-.7a7.93 7.93 0 0 0 .4-.9.76.76 0 0 1 .2-.4 2.2 2.2 0 0 0 -.1-.8 1.27 1.27 0 0 0 -.7-.9 1.49 1.49 0 0 0 -2 .6 7 7 0 0 1 -.8 1.4c-.2.1-.3.4-.5.5s-.3.4-.5.6a5.58 5.58 0 0 1 -.8.5 4.33 4.33 0 0 1 -.5.1 4.33 4.33 0 0 1 -.5.1h-.8l-1.2-.3c-.2-.1-.3-.1-.4-.2h-.1a2.09 2.09 0 0 0 -.4-.6 3.81 3.81 0 0 1 -.3-1c0-.4-.1-.7-.1-1.2v-1.6a1.85 1.85 0 0 0 -.2-.7c-.2-.3-.5-.6-.8-.6-.1-.3-.5-.2-.8-.1" fill="#741448"/><g fill="#fff"><path d="m37.33 4.65a1.6 1.6 0 0 0 -.7.9c-.3 1.1-.7 2.1-1.1 3.2 0 .1-.1.2-.1.3s-.1.2-.2.4v.7c0 .4.4.6.6.8a1.42 1.42 0 0 0 1.1.1c.3-.1.7-.3.8-.6.6-1.4 1.1-2.8 1.7-4.1a1.38 1.38 0 0 0 -.1-1.1 1.32 1.32 0 0 0 -.9-.7 2.08 2.08 0 0 0 -1.1.1"/><path d="m53.73 16.85c-1.2.9-2.5 1.7-3.7 2.5a1.24 1.24 0 0 0 -.6.8 1.8 1.8 0 0 0 .2 1 1.32 1.32 0 0 0 1.8.4 14.79 14.79 0 0 1 2.1-1.3 15.05 15.05 0 0 1 1.7-1 1.54 1.54 0 0 0 .5-1.9 1.6 1.6 0 0 0 -.9-.7 3.09 3.09 0 0 0 -1.1.2"/><path d="m16.13 9.55a1.27 1.27 0 0 0 -.9.7 1.88 1.88 0 0 0 -.2.8 3.09 3.09 0 0 0 .2.8 8.88 8.88 0 0 0 1.6 2.2c.5.4.9.9 1.4 1.3a1.52 1.52 0 0 0 2 0 1.52 1.52 0 0 0 0-2c-.5-.5-1.1-1.1-1.6-1.7a7.46 7.46 0 0 1 -.7-1.2v-.1c-.1-.2-.4-.4-.5-.5a.76.76 0 0 1 -.4-.2 1.53 1.53 0 0 0 -.9-.1"/><path d="m48.83 36.85c-.4 0-.6.4-.8.6a1.42 1.42 0 0 0 -.1 1.1c.1.3.3.7.6.8 1.2.6 2.3 1.1 3.5 1.7a1.29 1.29 0 0 0 1.2.1 1.27 1.27 0 0 0 .9-.7 1.47 1.47 0 0 0 -.3-1.8 1.61 1.61 0 0 0 -.7-.4c-.1 0-.1 0-.2-.1-1-.4-2-.9-3.1-1.3a.76.76 0 0 1 -.4-.2c-.1.2-.3.2-.6.2"/><path d="m12.63 26.75a15.94 15.94 0 0 0 -3-.6 1.78 1.78 0 0 0 -1 .4 1.43 1.43 0 0 0 -.4 1 1.59 1.59 0 0 0 1.4 1.45h.37a11.27 11.27 0 0 0 1.8.3 1.38 1.38 0 0 0 1.6-1 1.1 1.1 0 0 0 -.77-1.55z"/><path d="m14.23 38.55c-.8.6-1.6 1.3-2.5 1.9a1.24 1.24 0 0 0 -.6.8 4.1 4.1 0 0 0 .1 1.1 1 1 0 0 0 .8.6h.7a1.14 1.14 0 0 0 .6-.3c.7-.5 1.6-1.1 2.3-1.7 0-.1.2-.1.2-.2a.71.71 0 0 0 .3-.6c0-.3 0-.8-.2-1s-.5-.6-.8-.6a1.35 1.35 0 0 0 -.9 0"/><path d="m39.53 47.15c-.3.2-.6.5-.6.8s0 .8.2 1c.6.8 1.2 1.7 1.8 2.5.2.3.5.6.8.6s.8 0 1-.2.6-.5.6-.8 0-.8-.2-1c-.6-.8-1.2-1.7-1.8-2.5a1.24 1.24 0 0 0 -.8-.6 1.16 1.16 0 0 0 -1 .2"/></g><path d="m20.93 45.65a1 1 0 0 0 .1.3c.1 0 0 .1.1.2h.1v-.1s-.1 0 0-.1h-.1c0-.2 0-.2-.2-.3z" fill="#9e6418"/><path d="m25.13 44.15c-.6.3-1.2.5-1.7.8a10.41 10.41 0 0 0 -1.2.5 13.36 13.36 0 0 1 -1.8.7c-.1 0-.3.1-.3.2s-.1.3-.1.4a.45.45 0 0 0 .6.3l1.5-.6a4.18 4.18 0 0 1 1-.4c.1 0 .3-.2.5-.2s.4-.2.7-.3a5.3 5.3 0 0 0 1-.6c0-.1.1 0 .2-.1s.1-.2 0-.3a.22.22 0 0 0 -.2-.2h-.1c0-.3-.1-.2-.1-.2" fill="#741448"/><path d="m30.73 44.85c-.8.5-1.6 1-2.5 1.5a6.72 6.72 0 0 1 -1.23.65 3.13 3.13 0 0 1 -1 .5c-.1 0-.3.2-.5.2-.6.3-1.3.6-1.9.9h-.1s0-.1.1 0c-.8.4-1.7.7-2.6 1.1-.1 0-.2.1-.3.2s-.1.3-.1.4.1.2.2.3.3.1.4.1c.7-.2 1.4-.6 2-.8a13.92 13.92 0 0 0 1.3-.6 4.18 4.18 0 0 1 1-.4c.1 0 .3-.2.4-.2.6-.3 1.2-.5 1.7-.8.1 0 .1 0 .3-.1a2.09 2.09 0 0 0 .6-.4c.3-.1.5-.3.8-.4.6-.4 1.2-.7 1.8-1.1a.22.22 0 0 0 .2-.2v-.4c0-.2-.1-.2-.3-.3s-.2-.2-.3-.1" fill="#741448"/><path d="m39.93 21.55a6.15 6.15 0 0 1 2.3 4.2" fill="#9e6418"/><path d="m39.43 22.05a5.61 5.61 0 0 1 2.1 3.8c.1.8 1.4.8 1.3-.1a7.07 7.07 0 0 0 -2.5-4.7c-.7-.6-1.6.5-.9 1z" fill="#fff"/></svg>