<svg viewBox="0 0 192.46 98.57" xmlns="http://www.w3.org/2000/svg" xmlns:xlink="http://www.w3.org/1999/xlink"><clipPath id="a" transform="translate(0 .01)"><path d="m107.66 15.37h76.08v91.57h-76.08z" transform="matrix(.08663412 -.9962402 .9962402 .08663412 72.15 201)"/></clipPath><clipPath id="b" transform="translate(0 .01)"><path d="m0 0h77v73h-77z"/></clipPath><g clip-path="url(#a)"><path d="m186.75 29c-9.69-3.94-64.42-9.59-79.13-4.67-5.8 5.14-11.67 48.34-3.79 53.9 1.93 3.38 25 4.94 28.33 5.12 1.33 5.32 2.22 13 4.7 15.24.23-.09 6-8.89 9.11-13.71.77-1.15 24.1 1.32 35.12-1 6.56.24 8.72-5.33 9.37-11.58.69-6.64 5.82-42.6-3.71-43.3z" fill="#d4b9c8" transform="translate(0 .01)"/><g fill="#741448"><path d="m130 44.07c3.37 4.84 13.65-.47 9-6-3.43-4.14-11.4-1.07-9 6z" transform="translate(0 .01)"/><path d="m165.79 41.76c-2.84-5.89-11.23-3.07-9.48 2.5 2.02 6.26 12.3 3.5 9.48-2.5z" transform="translate(0 .01)"/><path d="m134.73 59c-3.52-.63-3.6 6.77-1.25 7.86 8.2 5.81 20.25 5.75 23.85 1.63 2.3-.79 5.1-7.41.12-7.84-5.52 4.48-12.28 6.55-22.72-1.65z" transform="translate(0 .01)"/></g></g><g clip-path="url(#b)"><path d="m76.14 30.44c-8.95-49.35-76.21-33.83-76.14 11.79 4.13 48.08 86.28 36.55 76.14-11.79z" fill="#50c5dc" transform="translate(0 .01)"/><path d="m62.72 28.76c-3.72-22.23-30.55-21.49-42.84-6.76-9.88 13.4-2.11 34.51 15.86 34.29.19 11.86 17.77 15.89 20.25 3a19.16 19.16 0 0 0 -.11-8.62c4.89-5.98 7.97-14.08 6.84-21.91zm-15.41 10.74a5.4 5.4 0 0 1 -.6 3.32 5.9 5.9 0 0 1 .6-3.32zm-.45 10.5a42.17 42.17 0 0 0 -4.4 1 28.8 28.8 0 0 0 .83-4.78 5.51 5.51 0 0 0 2.07-.37 17 17 0 0 0 1.5 4.15zm-3.86 5.69 1.5-.45c-1.28 1.2-2.63 2.28-4 3.36a7.76 7.76 0 0 1 -.64-2.27 17.79 17.79 0 0 0 3.14-.64zm-1.51 4.44c3.39-2.35 5.68-6.34 10.11-6.42-2 3-5.59 5.38-8.3 7.95a6.5 6.5 0 0 1 -1.78-1.53zm10-2.46c-.26 3.13-3.19 6.08-6.46 4.81 2.25-1.94 4.47-3.88 6.58-6a5.43 5.43 0 0 1 -.13 1.19zm6.51-22.12c-1.51 5.11-3.65 12.68-9.29 14.06-3.75-5.26 2-6.26 0-11.34-3.27-2.57-4.17 3.69-3.6 5.9a4 4 0 0 1 -1.73.41c-.61-10.11-9.44-3.14-1.73 1.38a29.88 29.88 0 0 1 -1 5.63c-16.97 2.27-25.81-13.43-16.52-27.16 12.4-13.5 36.49-10.52 33.87 11.12zm-17.7 5.52c1 .11 1.16 2 1.35 2.91a3.2 3.2 0 0 1 -1.4-2.91z" fill="#2b6c78" transform="translate(0 .01)"/><g fill="#fff"><path d="m57.53 9.1c-2.7 2.17-1.16 7.46 2.18 4.33 2.71-2.16 1.21-7.43-2.18-4.33z" transform="translate(0 .01)"/><path d="m29.27 4.63c-3.15.82-.67 7.83 2.15 7.31 3.12-.86.67-7.87-2.15-7.31z" transform="translate(0 .01)"/><path d="m7 27.64c0 3.06 7.33 3.84 7.48.52.03-3.06-7.3-3.88-7.48-.52z" transform="translate(0 .01)"/><path d="m18.87 54c-2.33.94-5.08 7.35-.61 6.9 2.33-.9 5.04-7.33.61-6.9z" transform="translate(0 .01)"/><path d="m62.53 42.15c-2.89 3.77 4.25 4.63 6.65 4.07 4.25-3.58-4.28-5.67-6.65-4.07z" transform="translate(0 .01)"/><path d="m44.46 20.67a2.11 2.11 0 0 0 1.39 2.61c.79.26 1.58.52 2.33.85a4.07 4.07 0 0 1 .6.38 2.12 2.12 0 0 0 .26.26c.11.15.19.3.3.45a2.17 2.17 0 0 0 2.9.85 2.13 2.13 0 0 0 .86-2.87 13.45 13.45 0 0 0 -1-1.49 5.78 5.78 0 0 0 -1.51-1.12c-.34-.15-.68-.3-1-.45-.82-.33-1.65-.59-2.48-.85a1.57 1.57 0 0 0 -.6-.12 2.13 2.13 0 0 0 -2.05 1.5z" transform="translate(0 .01)"/></g></g></svg>