<svg fill="none" height="73" viewBox="0 0 86 73" width="86"
  xmlns="http://www.w3.org/2000/svg">
  <path d="m12.7122.599662c-13.197377 3.102688-17.99043 47.725438-5.26837 51.999938 1.82876 1.831 4.77327 2.9762 7.30187 3.4889 2.885.8189 5.8163 1.4914 8.7806 1.9508l.3961.0533c-.2376 3.2625-2.2512 14.2683 1.8882 14.8876 3.7632.5592 11.5205-10.8661 14.2273-13.4361 7.797.5126 15.6204 1.3982 23.4306 1.1385h.066c20.2417-.4927 22.9618-12.5239 22.4006-30.5808-.0198-2.5767-.1387-5.1467-.3499-7.7167-1.4062-15.95292-16.7757-18.40311-30.0788-19.58826h-.0396c-7.4536-.68578-14.8083-1.50473-22.3082-1.31831l.1783-.03329c-.0924 0-.1915 0-.2839 0-6.2785-.752364-14.1613-2.29705-20.3408-.845578z" fill="#50c5dc"/>
  <path d="m58.7755 25.4694c-.6168.079-1.1965.1951-1.7484.3484-1.702-3.9016-3.2557-7.8822-4.8742-11.8163-.2365-.562-.8255-3.2467-2.3838-2.8194-.051.014-4.6609-.5573-6.0569.2555-.3292.1904-.5379 1.83.0743 1.988 1.702.4412 2.9542.5155 5.5095.5852.2876 1.3052.8534 2.8983 1.4841 4.4543-4.8.0883-16.8256.2973-18.254.3205.5936-2.4478-.0835-3.9109-4.0116-3.818-4.9624.1301-3.7195 4.092 1.0852 3.2792-.9646 2.536-1.9432 5.0628-2.8986 7.5988-1.2985-.2276-2.7269-.2276-4.2852.0604-13.134 2.4106-10.0824 23.5257 3.5246 21.9836 6.2146-.706 9.2013-5.2346 9.4563-10.0187.3989-.0186 6.2841.6596 6.9937-.4691.0742-.1161 7.3137-9.2477 8.7143-11.231.1437-.2044 1.2104-1.4213 1.9107-2.6336.1948.4227.3385.7478.4127.9289.2829.7246.5705 1.5932.8766 2.5268-8.7978 5.4204-5.556 22.4016 7.0771 20.9153 14.4511-1.7 11.8308-24.2688-2.6064-22.4388zm-30.2749 3.9388c2.4023 1.203 3.7704 3.3349 4.2249 5.6619-1.8041.0093-3.6081.0279-5.4122.0836-.2922.0093-.6214.0372-.9646.0836.1298-.339.2272-.627.2875-.7896.6122-1.686 1.2336-3.3628 1.8644-5.0395zm-5.5885 15.9268c-9.7067-2.2248-7.8284-17.8683 2.7966-16.7954-.32.8778-3.3021 9.2105-3.1676 9.3917.0278.1161 7.425.3809 10.2864.1347-.5518 4.4357-4.16 8.5881-9.9154 7.269zm18.0964-10.3717c-1.9247.0557-3.8493.0743-5.774.0882-.5843-3.4464-2.5507-6.6559-5.7229-8.2723.6353-1.6396 2.0823-5.2532 2.1519-5.425.64.0882 19.1723-.2927 19.8633-.2648-2.0313 2.4896-10.4905 13.7717-10.5183 13.8739zm18.0453 10.2835c-7.7496-1.1798-9.025-11.1707-3.6963-15.1001.858 2.4153 1.8969 4.7887 3.3021 6.145 2.2725 2.1877 2.7409.432 2.2168-1.8161-.4452-1.9044-1.6186-3.8691-2.4997-5.6805.8997-.1951 1.8829-.2602 2.9542-.1533 10.6157 1.7418 8.3201 18.2214-2.2771 16.605z" fill="#128197"/>
</svg>
