<svg fill="none" height="67" viewBox="0 0 84 67" width="84"
  xmlns="http://www.w3.org/2000/svg">
  <path d="m72.1884 1.38393c-1.8316 0-75.15235-8.24033-72.0954163 15.49417.1759853 7.8405.7691223 3.2561.5605463 22.548-.208575 19.2919 8.4082 11.2451 31.84037 14.1143.554-.2063.4823 5.5903-2.894 12.2703 2.8549 1.7602 15.0239-8.9303 17.0901-13.0182 8.6038-.5481 33.5611.5481 34.7996-8.0469.1955-1.3283 6.8243-43.36167-9.3012-43.36167z" fill="#ff4143"/>
  <path d="m44.8715 23.2099c-.1499 0-.2803.0645-.4236.0773-.0587 0-.1109 0-.1695.0065-.2477.0903-.4954.1805-.7496.2708-.5214.2966-.9451.6964-1.2645 1.1993-.567.8447-.8408 1.9086-.8147 2.9144.026.8898.2802 1.8505.8929 2.5276.4889.5416 1.3558.9994 2.1184.7673.2803-.0839.5345-.1935.7952-.3095.0521.0322.0978.0644.1564.0967 1.4861.9091 2.9918-.5481 3.5067-1.8312.5801-1.4508.4628-3.5721-1.0038-4.4812-.1108-.071-.2281-.129-.3389-.1935-.0326-.0387-.0717-.0774-.1043-.116-.5149-.5417-.8539-.6577-1.5513-.8898-.1434-.0452-.3259-.0645-.5019-.0645-.2151.0064-.4171.0258-.5475.0258z" fill="#fff"/>
  <path d="m57.8684 19.8441c.1434-10.23266-11.2044-8.7303-15.6497-2.0181l-.0391.058-.0391.058c-27.6688-19.45952-11.1457 20.1044.2021 23.5991 0 .0064 15.3759-13.2761 15.5258-21.697z" fill="#8b0f26"/>
</svg>
