<svg fill="none" height="74" viewBox="0 0 89 74" width="89"
  xmlns="http://www.w3.org/2000/svg">
  <path d="m73.0719.078672c-9.7318-1.001789-60.0852 7.747708-71.8869 15.762028-3.83097 5.9703 2.13666 45.0724 10.5915 47.9404 2.6374 2.4722 24.8887-2.2217 27.9685-2.9084.1503 4.9443 3.9979 11.0601 6.8357 12.4093.1586-.1778 2.7793-10.4219 4.3902-15.3581.3839-1.1715 22.0927-3.7082 31.3321-8.6041 5.9509-1.438 6.4183-6.8752 5.3249-12.4496-1.1518-5.8653-5.8674-38.5285-14.556-36.791528z" fill="#d4b9c8"/>
  <g fill="#741448">
    <path d="m26.0571 26.2463c2.2451 1.8259 5.3166.5494 7.3948-1.43 2.0699-1.9793.9181-4.613-.868-6.0349s-5.2081-.7918-7.0193 1.1068c.0084 0-1.7443 4.5323.4925 6.3581z"/>
    <path d="m56.7799 14.4673c-4.0146-4.48377-10.8085.1455-7.8038 4.5323 3.422 4.9928 11.8518-.0081 7.8038-4.5323z"/>
    <path d="m60.0267 32.1601c-.3339 2.1652-1.0934 4.4354-2.0699 6.4066-.5092.9129-1.1268 1.737-1.8028 2.5368-.9265.9372-1.9197 1.8097-2.963 2.6176-1.8028 1.0098-3.8643 1.5754-5.8675 2.0843-1.4606.2828-2.9295.3313-4.4152.1859-1.1184-.1697-2.2368-.3636-3.3552-.5171.0918.0081.1753.0243.2671.0323-1.5858-.2747-3.1132-.7352-4.5738-1.3653-1.1435-.6302-2.1867-1.3896-3.1215-2.2864-7.3531-7.3114-2.4121 8.3618 7.52 9.5898 9.1226 1.4057 17.8194-1.1796 22.243-9.7594-.0084.0161-.0167.0242-.0167.0404 3.2718-6.3905-1.6609-14.8976-1.8445-9.5655z"/>
  </g>
</svg>
