<svg fill="none" height="86" viewBox="0 0 85 86" width="85"
  xmlns="http://www.w3.org/2000/svg">
  <path d="m76.322 3.40183c-6.8615-3.4551746-69.42465-6.86149-73.52898 3.74136-4.39052.65614-2.282509 37.86731-2.31741 39.17961 0-.0558 0-.1047.00698-.1605-.376928 8.4529 2.6385 12.0058 10.97981 11.8453 1.9265.328 25.6102 1.1657 26.0569 1.1866 6.6311 8.1668 20.1936 25.4497 20.4588 25.7009 1.6264 2.0452 4.244-1.4309 3.8949-2.9665-.0698-.4747-5.8423-16.5779-7.8526-22.9159 4.4324-.0488 25.7986 2.0382 28.0393-1.7939 2.2406-3.8321 5.5562-48.12116-5.7377-53.81697z" fill="#fab334"/>
  <g fill="#be8634">
    <path d="m33.5947 43.4849c3.1384 3.1654 8.3015 3.6332 11.04-.2788 1.5135-2.16-2.0703-4.1956-3.5686-2.0505-1.1946 1.7071-3.432.5773-4.5456-.5425-1.8628-1.8814-4.7835.9954-2.9258 2.8718z"/>
    <path d="m64.2545 20.7713c.5986-.8945.9335-1.959.9538-3.1433.1217-7.531-11.5727-10.36449-17.052-7.3411-6.1948-6.67644-17.118-5.36214-21.4762 2.6036-8.9699-2.8835-16.1235 7.511-10.0506 14.6772-6.0374 5.522-.8371 14.962 7.0928 13.6127.1471.8495.3501 1.6891.624 2.5236 2.7549 8.2706 10.1825 10.6943 18.3712 10.2445 8.5945-.4697 11.4001-6.6164 13.7999-14.1374.1623.035.3348.055.5225.05 10.0151-.2099 14.84-12.4584 7.2146-19.0898zm-12.4504 19.9593c-1.3597 3.4382-2.5723 7.7559-6.4941 8.9402-3.039.9195-7.8487.5048-10.7913-.5946-8.4474-3.1634-7.3819-13.168-5.728-20.1543 3.6885.7446 7.6509-.2798 10.5072-2.6935 3.7138 2.7435 8.7214 4.9373 13.0998 2.1088 1.9634 3.793.9183 8.5755-.5936 12.3934zm12.1003-10.5593c-.5277 3.0783-3.3993 5.3421-6.4738 5.582.2943-2.3538-2.5114-16.911-6.4484-11.5189-3.9979 5.4771-10.629-5.2771-13.3382-2.1488-1.791 2.0689-4.2567 2.9634-6.9558 2.9134-1.6895-.03-4.8553-1.754-5.1039 1.1744-1.999 1.5892-2.1309 8.6204-2.1664 10.9791-.1522 0-.3146.015-.482.05-1.8721.3898-4.1501-.7846-4.7386-2.6136-.9691-2.9984 1.7706-3.2683 2.8411-5.1872 2.2222-3.9879-5.0532-5.8669-1.8772-10.6493 2.76-4.1528 9.3657.9045 10.5478-2.5787 2.136-6.33157 9.8071-7.68584 14.7487-3.7779 4.0689 3.2182 2.2069 2.1738 7.0217.9744 2.7245-.6796 7.8741.2649 9.3099 3.0634.35.6846.4972 2.2338-.4414 2.5986-3.8813 1.4892 4.1704 7.576 3.5565 11.1391zm-28.3152.7296c-.137.025-.2587.0649-.3754.1299-.1624.03-.3095.1049-.4617.1649-.1776.065-.3399.2199-.4719.3598-.2841.2949-.4515.5747-.6139.9495-.2435.5597-.279 1.3043-.1166 1.894.1268.4648.3653.8745.7813 1.1394.1725.1099.3906.1799.5834.2249.0761.02.1573.015.2334.02.2131 0 .3957.0249.5936-.045.3907-.1349.4921-.1899.827-.4548.1877-.1499.3399-.3698.4566-.5847.1015-.1799.2182-.3897.2993-.5946.1675-.4348.1878-.7197.2182-1.1744.0304-.5397-.1725-1.1994-.5682-1.5892-.2639-.2598-.6647-.4897-1.0604-.4897-.1167 0-.2232.015-.3247.05zm8.5336 1.0944c-.3754.1799-.6139.5247-.8726.8345-.2892.3449-.4059.7746-.5175 1.1944-.137.5047-.0964 1.2243.1725 1.6891.2537.4398.5429.7296 1.0502.8396.3907.0849.7407-.065 1.0959-.1899.3551-.13.6088-.4748.827-.7496.2993-.3698.4109-.8546.4616-1.3243.0203-.13.0356-.2649.0356-.3948v-.025c.0355-.5297-.2182-1.0495-.5226-1.4592-.0254-.035-.0558-.07-.0913-.1-.0254-.03-.0558-.0599-.0812-.0849-.2435-.2099-.3704-.3449-.7002-.3998-.0608-.01-.1217-.015-.1826-.015-.2334 0-.4515.0749-.6748.1849z"/>
  </g>
</svg>
