<svg enable-background="new 0 0 87.5 81.7" viewBox="0 0 87.5 81.7" xmlns="http://www.w3.org/2000/svg" xmlns:xlink="http://www.w3.org/1999/xlink"><mask id="a" height="81.7" maskUnits="userSpaceOnUse" width="87.5" x="0" y="0"><path d="m-21.4-3.6h116.8v87h-116.8z"/><path d="m0 0h87.5v81.6h-87.5z" fill="#fff"/></mask><g clip-rule="evenodd" fill-rule="evenodd" mask="url(#a)"><path d="m54 .2c-43.7-3.8-75.4 42-36.3 70.4 9.1 8 20.9 12.8 33.4 10.5 14.2-1 24.8-10.7 30.5-22.6 13.9-22.5 2.1-46.5-21.9-56.8" fill="#d4b9c8"/><path d="m31.6 51.1c-.5-.4-1.1-.7-1.7-1.2 1.9-2.4.1-5.4-2.2-7.1.8-.9 1.2-2.1 1.4-3.2 3-3.3-1.3-8.1-5.1-6.2-3.4 1.8-8.5 3.8-9.7 8-5 .7-4.8 8.8.4 8.1 4.2 2.9 8.5 5.6 12.7 8.6 4.4 3.1 8.5-4 4.2-7z" fill="#fff"/><path d="m71 38.2c-.9-1.2-2-1.6-3-1.4-1.3-9.8-10.6-6.9-8.5-.1 2.3 4.7.9 9.9-2 13.9-2.1 2.9 1.4 7.1 4.6 6 4.4-1.5 8.7-3.3 11.5-7.1 3.1-4.6.3-7.6-2.6-11.3z" fill="#fff"/><g fill="#741448"><path d="m44.8 37.6c-4 0-6.2 5.4-3.8 8.4 1.8 3.3 7 1.9 8.4-1.2 2.1-3.3-.4-8.3-4.6-7.2z"/><path d="m59.8 25.9c8.3 3.6 13 11.6 17.9 18.8-.8 7-8.7 12.3-14.6 15.2-12.4 8-28 5.2-40.2-1.9.1.1.1.1.2.1-.7-.4-1.4-.8-2.2-1.1-9.9-5.1-18.5-9.6-5.5-19.7 11.8-10.2 28.5-20.1 43.8-11.8h.1.1c.2.1.5.3.7.4-.1.1-.2.1-.3 0zm-28.2 20.3c6 21 31.3 14.5 26.4-8-7.2-16.7-31.5-12-26.4 8zm28.6 9.5c3.9-2 7.8-4.1 10.8-7.4.6-.6 1.1-1.3 1.7-1.8-3.6-5.2-6.7-10.9-12.1-14.3 4 6.8 3.5 16.6-.4 23.5zm-35.3-2.7c-4-2.2-8.8-3.9-11.4-7.8 4-4.7 8.9-8.4 14.1-11.6-2.6 7.1-1.5 15.5 2.4 21.9-1.8-.8-3.5-1.6-5.1-2.5z"/><path d="m10.5 34.5c1.8 2.2 4.9-1 3.3-3-1.2-1.2-1.8-3.6-3.7-3.9-4.3.6-1.3 5 .4 6.9z"/><path d="m43.4 19.6c4 4 5.2-8.2 1.8-8.1-3.2.5-2.4 5.9-1.8 8.1z"/><path d="m82.1 31.6c-1.2-3.6-9.9 1.8-8.3 4.7 1.1 2.6 3.6.8 5.2-.3 1.7-.8 4-2.1 3.1-4.4z"/><path d="m61.3 24.8c3.2 1.6 4.6-3.9 6.5-5.8.6-1 .5-2.3-.4-3.1-3.2-1.5-4.6 3.9-6.5 5.7-.6 1.1-.5 2.5.4 3.2z"/><path d="m25.3 23.5c.3 1.1 1.7 1.6 2.7 1 2.4-1.4.5-4.2-.1-6.2-.7-1.4-.8-3.9-2.8-3.9-1.5 0-2.5 1.8-2 3.2.8 2 1.4 4 2.2 5.9z"/></g><path d="m48 58.7c-17.2 2.9-24.5-27.2-7-30.7 8.3-.5 17.9 5 17.3 14.4.7 7-2.7 15.3-10.3 16.3zm1-13c2.7-3.3.6-9.2-4.2-8.1-4 0-6.2 5.4-3.8 8.4 1.7 3.1 6.1 2.1 8-.3z" fill="#d4b9c8"/></g></svg>