<svg viewBox="0 0 122.81 121.76" xmlns="http://www.w3.org/2000/svg"><path d="m43.58 9.28c-8.23 2.94-19.7 7.37-27 14.66a53.13 53.13 0 0 0 -9.66 13.54 58.57 58.57 0 0 0 -6.92 26.12c-.16 20.75 13.85 40 32.25 49.62a78.67 78.67 0 0 0 39.62 8.43c10.13-.42 20.34-2.65 29.19-7.65s16.25-12.88 19.53-22.48c2.84-8.33 2.49-17.4 1.5-26.14-.77-6.78-1.93-13.58-4.49-19.89-6.2-15.24-26.74-31.87-34.37-34s-31.41-5.15-39.65-2.21z" fill="#eaeced"/><g fill="#9c9ea3"><path d="m98.43 93.73c-.76-4.25-1.55-8.48-2.32-12.73l-2.11-11.66c-.64-3.47-.71-7.93-2.67-11-1.26-2-3-3-5-4.16a94.12 94.12 0 0 1 -9.33-6.27c-5.26-4.19-8.39-9.49-10.37-15.86-2.06-6.6-3.12-13.49-5.5-20-1-2.7-2-5.69-4.26-7.62a6.3 6.3 0 0 0 -8.51.12c-2.87 2.71-2.79 6.91-2 10.45.94 4.12 1.83 8.22 2.63 12.37a94.16 94.16 0 0 0 2.86 12.3 15.91 15.91 0 0 0 2.81 5.2 41.43 41.43 0 0 1 2.7 3.3l-.14.72q-2.64 8.11-4.78 16.33c-3.58-3.18-6-7.71-10-10.51-2.75-1.94-6.49-3.3-9.59-1.36a40.66 40.66 0 0 0 -3.28 2.71 20.13 20.13 0 0 0 -2.31 2c-5.15 5.42-9.15 12.86-12.12 19.66-1.3 3-2 7 .95 9.33s6.41-.05 8.71-2.11c2.71-2.38 4.63-5.52 6.68-8.45a28.11 28.11 0 0 1 3.2-3.94c.34-.32.58-.55.79-.72q4.77 5.63 9.73 11.07c-7.61 2.83-15.3 5.43-22.89 8.34-3.41 1.32-7 2.6-10 4.72-2.31 1.6-5.31 4.83-3.66 7.87 2.11 3.76 7.92 4.5 11.7 4 5.22-.77 10.24-3.46 15.09-5.43l14.81-6c4.33-1.85 8.91-3.4 12.75-6.14 4.12-2.94 7.64-6.78 11.59-10 2-1.61 4-3.23 5.82-5 1 5.88 2 11.81 3.52 17.52 1.35 5 6 14.6 12.64 9.7 2.92-2.1 2.43-5.59 1.86-8.75z"/><path d="m73.27 34.59c.34 3.38 1.59 6.25 4.51 8.2a11.09 11.09 0 0 0 15.35-3.3 10.86 10.86 0 0 0 -3.89-15.14c-5.33-2.94-12.1-.92-14.42 4.66a6.89 6.89 0 0 0 -1.55 5.58z"/></g></svg>