<svg viewBox="0 0 121.32 124.38" xmlns="http://www.w3.org/2000/svg"><path d="m54.22.91c-18.31.48-35.41 15.24-45.31 30-9.03 18.79-10.91 43.52-.1 61.67 12.19 18.26 34 30.24 55.77 31.71 36.59 3.56 65-32.83 55-67.76-8.06-30.76-41.88-61.53-75.05-54.07" fill="#eaeced"/><g fill="#9ea0a5"><path d="m47.34 53.15c5.37-10.94 10.89-19.85 15.72-31 4.1 10.11 8.57 18.51 12.57 28.66 1.72 4.39 8.9 2.48 7.15-2-5-12.74-10.8-23.62-15.64-36.44-1.35-3.33-6.46-3.73-8-.15-5.2 13.43-11.85 24.26-18.2 37.18-2.1 4.27 4.29 8.03 6.4 3.75z"/><path d="m105.49 59.22c-10.49.2-22.29 1.18-32.8 1.18-3 0-3.2 5.86-4.39 8.27-2.68-4.74-5.82-28.92-14.15-20.6a128.55 128.55 0 0 1 -7.83 12.26c-8.65-.49-17.31.88-26 0-4.75-.46-4.71 7 0 7.42 9.07.89 18.14-.66 27.21 0a3.05 3.05 0 0 0 3.07-1.49c2.66-2.13 4.2-5.58 6.2-8.32 6.64 16.73 8 40.1 20.36 9.06a173.53 173.53 0 0 1 28.29-.43c4.8.43 4.78-7.03.04-7.35z"/><path d="m83.26 76.23c0 .3.25 1.51.29 1 1.45 12.94-10.92 26.77-24.2 25.46-11.64-.64-24.73-13.27-19-25.24 1.51-4.54-5.66-6.49-7.15-2-3.34 7.62-1.42 16 3.68 22.4 10.95 15.32 35.38 16.69 46.6 1 16.6-20.27 2.09-35.68-.22-22.62z"/></g></svg>