<svg viewBox="0 0 130.67 134.37" xmlns="http://www.w3.org/2000/svg"><path d="m80.48 5.18c-65.12-6.18-112.32 66.63-54.11 111.72 13.5 12.59 31.21 20.38 49.77 16.7 21.23-1.63 37-17 45.46-35.85 20.56-35.75 3.07-73.94-32.7-90.42" fill="#eaeced"/><g fill="#9d9fa4"><path d="m95 66.16c-.58 11.31-7.42 14.84-14.82 20.7-1.3 8.74.33 18.5-.92 27.56a125.23 125.23 0 0 0 -30.57 1.5c4-26.13-13.1-4.15-19-19.7-3.49-9 7.68-17.75-8-15.92 13.64-23.3 13.39-56.72 50.57-50.76 2.78.59 4-3.68 1.18-4.27-27.44-5.67-42.5 14.47-48.65 38.49-2.68 13.68-20.28 22.41.71 21-3.6 13.62 4 25.5 18.9 21.52 1.07 3.15-1.91 12 1.18 12.89a2.28 2.28 0 0 0 2.54 1.34 121 121 0 0 1 33.18-1.51c5-.66 2.32-25 2.76-30 16.12-6 18.82-33 10.94-22.84z"/><path d="m73.64 60.8c-7.65 5.42 3.9 16.29 10.27 8.12 5.64-6.92-5.09-15.12-10.27-8.12zm6.43 5.79c-1.58 1.45-4.34.56-4.39-1.25a2 2 0 0 0 1.66-2.08c1.87-2.12 5.4.94 2.73 3.33z"/><path d="m60.16 52c7.74 3.53 14.41-9 5.44-11.89-3.76-1.73-11-.4-9.56 5-1.04 2.64 1.68 5.89 4.12 6.89zm3.84-7.77c4.59 1.53-2 6.26-3.57 2.38a2 2 0 0 0 0-2.51c.7-.84 2.57-.18 3.57.13z"/><path d="m78.28 50.75c8.33 4.86 16.72-8.12 8-13.1-3.77-2.51-10.79-.28-10.82 4.54-1.68 3.02-.25 6.81 2.82 8.56zm6.88-5.21c-1.18 2.85-7.09 1.89-5.83-1.35a2.19 2.19 0 0 0 .51-2c2.3-2.63 7.39.04 5.32 3.35z"/><path d="m79.26 21.57c.68 7.1 11.79 7.37 13.23.34 3.51-12.15-18.62-8.4-13.23-.34zm7.09-3.17c3.23-.2 2.23 3.89-.08 4.35-.69.08-2.83-.43-2.5-1.43a1.9 1.9 0 0 0 -.49-2.09 3.84 3.84 0 0 1 3.07-.83z"/><path d="m113.86 15c-2.84-3.3-11.11-2.93-12 1.6-6.02 14.57 20.68 11.17 12-1.6zm-3.86 6.34c-3.24 1.95-6.39-.92-3.22-3.76 2.58-1.51 6.22 1.57 3.22 3.76z"/><path d="m100.69 45.59c-10-3-11.88 15.21-.33 14.18 9.02-1.12 8.4-11.96.33-14.18zm-.92 9.8c-3.57.36-4.15-5-.85-5.78 3.49.68 5.59 5.2.85 5.78z"/><path d="m109.37 30.21c-3.16-2.41-10-.24-9.58 4-1.24 5.7 8.67 9.93 11.9 4.79 1.9-2.95.41-7-2.32-8.79zm-2.67 6.68a4.58 4.58 0 0 1 -2.28-1.33 2.07 2.07 0 0 0 .62-1.85c2.03-1.08 4.78 3.23 1.66 3.18z"/></g></svg>