<svg enable-background="new 0 0 86.9 84.5" viewBox="0 0 86.9 84.5" xmlns="http://www.w3.org/2000/svg" xmlns:xlink="http://www.w3.org/1999/xlink"><mask id="a" height="84.3" maskUnits="userSpaceOnUse" width="86.9" x="-.2" y="0"><path d="m0 0h86.9v84.5h-86.9z"/><path d="m0 0h86.9v84.5h-86.9z" fill="#fff"/></mask><g mask="url(#a)"><path clip-rule="evenodd" d="m36.6 0c14.8.1 30.1 4.6 40.2 16.1 18.8 19.5 9 54.5-14.3 65.7-10.1 4.6-21.6 1.8-31.8-1-10.9-4.4-23.4-9.8-28.3-21.5-9.9-25.1 10-53.2 34.2-59.3zm-25.6 61.3.1.1c-.1 0-.1-.1-.1-.1z" fill="#50c5dc" fill-rule="evenodd"/><path clip-rule="evenodd" d="m32 45.9c-5.2 5 6.3 11.5 11 10.5 4.3 1.3 18.1-7.2 10.8-10.5-1.6-.1-2.3 1.7-3.4 2.6-1.5 1.5-3.4 2.4-5.7 2.7-10.6 1.1-8.7-7.2-12.7-5.3z" fill="#2b6c78" fill-rule="evenodd"/><path clip-rule="evenodd" d="m33.8 31.9c-3.7.6-2.6 7.2 1 5.9 3.6-1.2 3-6.4-1-5.9z" fill="#2b6c78" fill-rule="evenodd"/><path clip-rule="evenodd" d="m50.9 32.3c-4.1-.3-4.8 6.3-.4 6.2 3 .2 4.6-4.9 1.7-6.1-.3-.2-.8-.1-1.3-.1z" fill="#2b6c78" fill-rule="evenodd"/><g fill="none"><path d="m67 35.4c3.4-.4 7.3.3 9.2 3.5-3.3-6.1-9.9-1.8-10.9-5.1.1.8.8 1.6 1.7 1.6z"/><path d="m59 19.2c1.1 0 2.3 0 3.5-.1-3.4.1-7.3 0-10.5.2 2.1-.1 4.4-.1 7-.1z"/><path d="m65.1 19h-.1z"/><path d="m63.9 19.1h-.1z"/><path d="m63.6 19.1h.1z"/><path d="m27.7 19.5h9.4c.1 2.4-.6 4.9.4 7.2 2.6 5 10.4 4.5 12.6-.6-2.2 5-10 5.5-12.6.5-1-2.2-.4-4.8-.4-7.2-5.1 0-10.5.1-15.6.1 2 0 4.1.1 6.2 0z"/><path d="m20.2 34.9s.1 0 .1-.1c0 .1 0 .1-.1.1z"/><path d="m51.3 54.1c2.4-1.5 7.5-6.8 2.5-8.2-2.1.1-2.8 2.6-4.4 3.6-3.9 2.6-9.7 2.4-13.4-.8-.9-1.1-1.2-3.2-3-3.1-4.5.6-1.7 6.3.9 7.8 4.8 3.9 12.3 4 17.4.7z"/><path d="m16.8 35.2c1-.1 2.2.3 3.2-.2-1.4.5-2.8-.3-4.1.4.3-.1.6-.2.9-.2z"/><path d="m46.1 63.9c-.3.8 0 1.5.3 2.3.4 1.5-.5 2.9-1.3 4.2 3-3.8-.2-5 1.5-7.7-.2.3-.5.7-.5 1.2z"/><path d="m32.4 37.1c2.4 3.2 7-2.6 3.8-4.6-2.9-2.3-6.4 2.2-3.8 4.6z"/><path d="m48.6 37.9c3.5 2.9 7.7-3.5 3.7-5.5-3.1-1.1-6.5 3.1-3.7 5.5z"/></g><path d="m81.1 40.3c.3-5.8-5.3-9.8-10.7-10-.2.4-1 .1-1.4.2-.6-3.4 1.7-13.7-1.3-15.1-.4-.6-1.2-.7-2-.7-5.1.6-11-.6-15.9.9-4.8.4-.8 12.6-8 8.4-1.5-2.3 1.3-7-2-8.2-2.4-2.2-13.6-.4-17.6-.9-7.8-1.1-3.5 10.8-4.5 15.5-13-.7-14.3 24 0 21.2.6 4.1-1.1 9.4 1.2 12.8 1.6 2.9 11.6 0 15.2.8-3.9 15.2 17.9 14.4 17.1.4 17-1 17.7 5.7 17.8-13.8 6.6.4 12.4-4.9 12.1-11.5zm-4.8 1.6c-1.5 6.4-5.6 3.2-8.9 5.7-4.1 1.3-2.2 10.3-3 13.8-5.2.4-10.4-.6-15.5.2-2.1-.4-3.4 2.3-2.5 4 .7 1.5-.3 3.4-1.2 4.7-2.2 1.5-7 1.4-6.8-2.1-.2-2.5 2.5-8.7-2.4-7.2-4.8 0-9 0-13.8.4-.2-3.7-.5-7.4-.6-11.1 0-1.1.3-2.5-.8-3.1-1.5-2-4.3-.2-6.4-1-3.9-2.1-2.5-9.6 1.6-11 1.9-.7 5.1.8 5.4-2.4 1.2-4.2-.1-9 0-13.5h.1c5.1 0 10.5-.1 15.6-.1-.3 3.9-.6 9.1 4.2 10.2 6.5 2.4 10.6-4.8 10.6-10.3 4.1-.2 8.9-.1 13.2-.3.4 4.5-.4 9 .1 13.4-.8 3.5 2.9 2.7 5.1 2.8 3.4.6 6.9 3.3 6 6.9z" fill="#2b6c78"/><path d="m76.1 38.9c-3.6-6.4-11.8-.7-10.9-6.5-.5-4.4.3-9-.1-13.4-4.3.2-9.2 0-13.3.3 0 5.6-4.1 12.9-10.7 10.4-4.8-1.3-4.5-6.3-4.2-10.3-5.1 0-10.5.1-15.6.1-.1 4.4 1.1 9.3 0 13.5-.3 3.1-3.4 1.8-5.4 2.4-4 1.3-5.4 8.9-1.6 11 2.1.7 4.9-1 6.4 1 1.1.6.8 2 .8 3.1.1 3.7.4 7.4.6 11.1 4.7-.5 9-.4 13.8-.4 4.9-1.5 2.2 4.7 2.4 7.2-.2 3.5 4.7 3.6 6.8 2.1.8-1.5 1.8-3 1.1-4.6-.9-1.8.5-4.4 2.6-4.1 5.1-.8 10.3.2 15.5-.2.8-3.6-1.1-12.6 3-13.8 1.1-1.4 3.1-.7 4.6-1.2 3.6-.7 5.1-4.5 4.2-7.7zm-27.8-5.2c2-2.8 6.9-1.2 5.4 2.5-1.4 4.7-8.4 1.5-5.4-2.5zm-16.6.1c.9-2.7 5.1-2.5 5.6.5.1 5-7 4.7-5.6-.5zm11.3 22.6c-5 .3-10.3-2.4-12.3-7.1-1.2-2.4 2.5-5.2 4.1-2.6 1.2 3 4.6 4.6 7.7 4.6 4 .4 7.5-1.5 9.7-4.6.7-.7 2-.8 2.8-.2 4 4.7-7.7 10.8-12 9.9z" fill="#fff"/></g></svg>