<svg enable-background="new 0 0 133.4 124.2" viewBox="0 0 133.4 124.2" xmlns="http://www.w3.org/2000/svg"><path d="m8.7 73.3c3.7 62 114.7 59.3 116.1-6.3 1.5-72.3-120.9-77.1-116.1 6.3z" fill="#ff4143"/><path d="m97.4 54c-2.2-15.6-23.7-12.4-30.9-2.3-11.3-14.3-40.6-11.3-33 11.3 4.6 8.4 14.7 11.7 20 19.7 3.9 2.8 4.9 16 10.4 13.1 2.9 2.3 4.6-1.5 6.1-3.6 2.4-2.9 5.2-5.5 7.5-8.5 7.7-8.9 21.6-16.1 19.9-29.7zm-5.4 3.3c-3.9 13.8-20.5 21.1-27.8 33.5-3.7-14.1-17.8-20.2-25.9-30.7-3.7-18.8 21-11.9 27.2-1.6 4.2 1.8 5-4.6 8.1-6.1 5.9-5 19.8-5.9 18.4 4.9z" fill="#8b0f26"/><path d="m84.4 52.2c-2.3 1.6 1.2 5-1.4 6.8-1.9 2.2 1.7 4.5 3.2 2.1 2.1-2.2 2.6-10.1-1.8-8.9z" fill="#fff"/></svg>