<svg enable-background="new 0 0 81.5 78.2" viewBox="0 0 81.5 78.2" xmlns="http://www.w3.org/2000/svg"><g clip-rule="evenodd" fill-rule="evenodd"><path d="m8.5 63.1c45.9 45.8 106.8-20.9 52.5-56.5-33.5-22-76.9 14.8-55.7 52" fill="#fcb415"/><path d="m51.6 19.2c-.5 0-1 .3-1.4.7-9.2.3-18.2 1.2-27.4.9-5.3-3.9-2.1 17.8-2.7 20.6 0 2.5 0 6.5.1 8.9.3 1.9-.8 5.8 1.3 6.9 0 .1.1.1.1.1 1.9 1.4 4.8.9 7 1.3 5.6.2 11.3.7 16.9.8 3.2-.4 13.7 1.5 14.9-1.2 1.3 0 2-1.2 2.1-2.5l-.1.3c.5-9 2.4-28-1.6-35.5-2.3-2.5-6-1-9-1.4-.1.1-.2.1-.2.1z" fill="#fff"/><g fill="#9e6418"><path d="m60.4 17.6c-1 0-1.8.9-2.3 1.8-6.2 8.5-12 17.4-17.6 26.3l.1-.1c-2.5-3.5-4.9-7-7.2-10.7v-.1c-1.7-1.8-1.8-6.7-5-5.7-3.8 3.7 6 13.9 7.9 17.8v.1c2.6 3.9 4.7 6.5 7.5.9 4.1-6.8 8.6-13.7 13.1-20 1.1-2.6 8.8-9.1 3.5-10.3z"/><path d="m51.5 16.4c-9.3.3-18.7.6-28.1.5-1.8.1-4.5-.8-5.6 1.1-2.1 9.9-.6 20.4-.5 30.5.5 3.1-1.5 11.7 2.1 12.7 7.3.9 15.2.1 22.4.4 4 .2 8.8 0 13 .3 1.7-.4 8 1 9-1.2 2.1-8.6 1.6-17.9 1.9-26.8.1-.5-.1-2.2 0-2.7-.3-2.5-3.9-1.9-3.9.4 0 8.6-.1 17.6-1 26.1-13.1-.1-26.3 0-39.3-.4.1-12.1-1.2-23.8-.2-35.9 8.3.4 17-.1 25.3-.3 1.9-.3 4.3.3 5.9-.8 1.5-1.1.9-3.7-1-3.9z"/></g></g></svg>