<svg enable-background="new 0 0 133.4 124.2" viewBox="0 0 133.4 124.2" xmlns="http://www.w3.org/2000/svg"><path d="m67.9 13.9c-93.2.6-62.7 127.8 19.1 102.1 57.4-19.7 43.7-106.6-19.1-102.1z" fill="#fcb415"/><path d="m76.6 75.2c-1-4.2 2.1-22.5-2.9-22-4.8.7-1.1 19.4-1.9 24-1.7-1.4-3.1-3.7-5.3-4.4-1.3-1.1-3.2-.5-4 .9l.1-.1c-.9 1.2-2 2.2-3 3.3-1.4-4.3 1.1-25.7-3.6-24.9-5 1.2-1.1 8.7-2.1 12.4.9 4.2-1.1 17.7 2.5 19.2v.1c3.7 2.7 6.3-3.7 8.9-5.6 2 1.7 3.8 3.6 5.5 5.6 6.9 5.4 6.1-4.3 5.8-8.5z" fill="#fff"/><path d="m105.3 49.2c-1.4-3.2 1.7-12.4-4.2-10.7-2.6-1.7-6.1-.5-9.1-1.1-12.6.3-25.5-1-38.1.2-7.3.9-18.3-3-24.3 1.4 0 .1 0 .1-.1.2-2.4.7-2 12.6 1 12.5 1.4 1.1 3.3-.1 4.9.3 1.3 13.5 1 27.1 1 40.6-.2 6.6 8.9 5.3 13.4 5.5 5.8-.7 50 3 46.9-4.8 3.2-1.5 1.1-6.9 1.7-9.8-.1-10.5.4-20.9.1-31.4 1.4-.2 3 .2 4.3-.4 1.4-.1 2.5-1.2 2.5-2.5zm-16.1-6.9c3.5 0 7.1.1 10.6.4 0 1.4.2 2.9.4 4.3-5.9 0-11.8.5-17.7.8-.1-1.8-.2-3.8-.1-5.6zm-30.4-.2c6.2-.5 12.3 0 18.5.1 0 1.9 0 3.8.1 5.7-7 0-14.3.1-21.2 0 0-1.8-.3-3.8-.4-5.5zm-24.8 4.8c-.2 0-.5 0-.7 0-.1-1.6-.2-3.1-.2-4.7 5.8-1.2 12 .3 17.9.2.1 1.7.4 3.6.4 5.3-5.8-.2-11.6-.4-17.4-.8zm59.4 35.3c.1 2.8-.2 6.5.1 9.3-9.3 2.4-20.2 1.4-29.9 1.7-7.2-.3-15.1.4-22.1-.6.1-13.5.2-27-1-40.4 17.7.6 35.5 1.3 53.1-.1.2 10-.3 20.1-.2 30.1z" fill="#be8635"/></svg>