<svg enable-background="new 0 0 85.6 85.2" viewBox="0 0 85.6 85.2" xmlns="http://www.w3.org/2000/svg"><g clip-rule="evenodd" fill-rule="evenodd"><path d="m45.5.3c-4.8-.3-24.2 5.5-29.1 8.7-28.6 25.9-18.2 66.7 18.7 75.7 59.9 8.2 70.5-76.6 10.4-84.4z" fill="#ff4143"/><path d="m57.6 35.9c.1.1.1.1 0 0 0 .1 0 .1 0 0z" fill="#ff4143"/><g fill="#8b0f26"><path d="m62.5 13c-2.3 0-4.1 2-5.9 3-4.3 3.5-8.8 7.3-12.4 11.5-5.6-.6-11.3-.6-16.9-.9-13.8-2.4-20.3 24.4-3 28v13.1c-.1.2-.1.4-.1.7-.2 3.4 4.4 2.4 6.6 2.6 2.3-.1 4.5 0 6.6-.4 3.6-.8 1-12.5 1.3-15.9 1.7-.2 4.3-.5 6.1-.8 1.3 1.1 3 1.7 4.5 2.7 1.6.6 3 1.7 4.4 2.7h.1c2.7 1.4 8.6 6.9 10.6 2.2 1.9-10.1.4-20.9.9-31.8.1-3.6.2-7.7.2-11.3 0-2.4-.1-4.5-2.7-5.5zm-2.9 43.3c-.8-.6-1.6-1.1-2.5-1.7h-.1c-2.7-2.2-6.2-3.2-9-5.3-.3-6.2-.1-12.5-.7-18.6 3.9-4.1 8.1-7.5 12.3-11.2.3 0 .6-.1.8-.3h.1c-.2 7.7-.3 29.8-.2 37.8-.2-.4-.4-.6-.7-.7zm-39-10.3c1.2 1.1 2.2 1.8 3.7 2.4 0-5.3.1-11.7.1-16.9-5.1 2.1-7.7 10.2-3.8 14.5zm7.7 3.5c-.1-6-.1-11.9-.1-17.9 4.8.5 10.1.3 15 .7.5 5-.1 11.1.4 16-5.1.7-10.1 1.1-15.3 1.4zm.1 16.2c1.9.3 4 0 6.1-.2.1-3.6-.6-7.3-.4-10.8-2 .1-3.8.3-5.9.4v10.6z"/><path d="m78.1 18.5c-4 1.8-5.7 6.8-8.8 10.5-1 1.3-.3 4 1.6 3.9 2.8-.4 3.7-4.3 5.5-6.1 1.5-2.2 6.3-6.8 1.7-8.3z"/><path d="m74.4 39.3c-2.5 0-3.1 4.4-.4 4.5 3-.3 6.8 1.5 9.5 0 3.7-5.6-6.2-4-9.1-4.5z"/><path d="m72.3 53c-.1 0-.3 0-.4.1-2.8.9-2 4.5.5 5.2 1.8.9 3.5 3.2 5.5 2.9 1.8-.4 2.5-3.2 1-4.3-1.7-.9-4.8-3.6-6.6-3.9z"/></g><path d="m60.5 19.1c-4.8 3.3-8.9 7.3-13.1 11.5.7 6.2.4 12.4.7 18.6 2.9 1.7 6.4 3.3 9.1 5.2h.1c1.1.8 2.1 1.4 3.2 2.2 0-12.1 0-25.2.2-37.3z" fill="#fff"/><path d="m28.2 31.6c-.1 6 .1 11.9.1 17.9 5.1-.3 10.2-.5 15.2-1.4-.4-5.1 0-10.9-.4-16.1-4.7-.3-9.8-.2-14.5-.7z" fill="#fff"/><path d="m24.5 31.4c-6.8 2.7-8.1 14.7-.1 16.8 0-5.6-.1-11 .1-16.8z" fill="#fff"/><path d="m34.2 54.7c-2 .1-3.8.4-5.9.3v10.7c1.9 0 4 0 6-.3 0-3.2-.2-6.6-.5-9.7.2-.3.2-.7.4-1z" fill="#fff"/></g></svg>