<svg viewBox="0 0 133.43 124.18" xmlns="http://www.w3.org/2000/svg"><path d="m69.62 12.33c-24.1.67-50.14 12.18-57 37.58-5.48 20.25 1.72 39.94 16.14 54.14 15 14.76 41.34 19.1 60.9 11.25 28-11.24 36.89-29.63 34.88-55.56-2.3-29.72-26.3-48.19-54.9-47.41z" fill="#d4b9c8"/><g fill="#741948"><path d="m64.26 53.61c-2.34-3.29-4.77-6.53-7-9.89a5.87 5.87 0 0 0 1.08-2.18 7.22 7.22 0 0 0 -10.9-7.87c-2.47 1.61-3.84 4.84-2.25 7.5.15 2.41 3.53 4.16 5.53 4.53a9.43 9.43 0 0 0 2.17.12c2.33 3.5 4.86 6.87 7.3 10.29a13.91 13.91 0 0 1 2.11-1.53 16.48 16.48 0 0 1 1.96-.97z"/><path d="m56.4 73.05c-3.17 3.61-6.25 7.3-9.2 11.1a7 7 0 0 0 -6.8 2c-2 2.31-1.23 5.73 1 7.57 2.06 1.71 5.32 2.66 7.87 1.63a6.83 6.83 0 0 0 3.91-6.35 4.24 4.24 0 0 0 -1.28-3.14q3.85-4.92 8-9.6a13.14 13.14 0 0 1 -3.5-3.21z"/><path d="m82.51 73.07q5.58 2.54 11.12 5.18c-.94 3.38 1.71 7.46 5.84 6.56s9.63-8.67 3.58-10.88a7.23 7.23 0 0 0 -6 .65c-4.27-2-8.56-4-12.86-6a14.42 14.42 0 0 1 -.57 2.24 9.88 9.88 0 0 1 -1.11 2.25z"/><path d="m79.63 41.38a2.75 2.75 0 0 0 .41 0 5.15 5.15 0 0 0 5.55-4.24 4.71 4.71 0 0 0 -.36-5.47 6.39 6.39 0 0 0 -5.6-1.72 6.52 6.52 0 0 0 -5.07 3 4.74 4.74 0 0 0 -.34 3.82v.24a2.34 2.34 0 0 0 .94 2.37 101.21 101.21 0 0 1 -4 13 14.36 14.36 0 0 1 4.74 1 103.76 103.76 0 0 0 3.73-12z"/><path d="m70.76 78.69c1.13 4 2.12 8.1 3 12.19a5.21 5.21 0 0 0 -1.38 1.83 4.64 4.64 0 0 0 1 6.68 6.89 6.89 0 0 0 7 .37 5.73 5.73 0 0 0 2.72-6.13 5.39 5.39 0 0 0 -4.76-4q-1.12-5.2-2.51-10.36c-.14-.51-.29-1-.44-1.52a24.74 24.74 0 0 1 -4.74.81.65.65 0 0 0 .11.13z"/><path d="m42.11 60.5a6.49 6.49 0 0 0 -.37-.6c-.07-.12-.12-.24-.2-.36a5.33 5.33 0 0 0 -1.48-1.4 8.34 8.34 0 0 0 -2.9-1.51c-2.56-.7-5.53.76-6 3.42a4.59 4.59 0 0 0 -.46 3.45c.71 2.72 3.57 4.16 6.22 3.9a8.3 8.3 0 0 0 1.59-.32 5.37 5.37 0 0 0 2-.81 4 4 0 0 0 1-1l12.53.42a11.19 11.19 0 0 1 1.34-4.76z"/><path d="m97.87 60a3.93 3.93 0 0 0 4.34.5 7.15 7.15 0 0 0 3.7-2 6 6 0 0 0 1.33-6.5 5.55 5.55 0 0 0 -5.47-2.89c-2.37.18-5.57 1.41-6.17 4a2.93 2.93 0 0 0 0 1.38v.07c-4.43 1.29-8.82 2.68-13.19 4.13a14 14 0 0 1 1.73 4.47c4.21-1.39 8.45-2.72 12.7-4a5 5 0 0 0 1.03.84z"/></g><path d="m86.28 65.61c-2.19-8.9-11.19-15.15-20.45-14.47a2.3 2.3 0 0 0 -.9.24h-.28c-8.31 1.66-14.3 11.48-11.55 19.68 3 9 11.91 12.32 20.68 11.1 9.4-1.28 14.84-7.03 12.5-16.55zm-4.61 6.6c-1.12 3.26-4.18 4.41-7.47 5.08-5.7 1.18-11.94 0-15.23-5.16-3.85-6.09 0-14.7 7-16.09a1.9 1.9 0 0 0 .36-.12c5-.18 11.27 2.56 13.74 6.86 1.55 2.75 2.65 6.37 1.6 9.43z" fill="#fff"/></svg>