<svg enable-background="new 0 0 133.4 124.2" viewBox="0 0 133.4 124.2" xmlns="http://www.w3.org/2000/svg"><path d="m125.4 56.5c-3.7-62-114.7-59.3-116.1 6.3-1.6 72.4 120.9 77.1 116.1-6.3z" fill="#55c6da"/><g fill="#fff"><path d="m51.4 67.4c-.6-2.6 1.2-7.7-2.7-7.9-1.2.1-2.2 1-2.2 2.2.9 3.6-1.8 11.6 2.8 12.6 3.4-.2 1.9-4.6 2.1-6.9z"/><path d="m71.1 67.2c0-6-.5-11.9-.6-17.9-.4-2.8-4.6-2.8-5 0 .3 7.7.4 15.4.8 23.1.2 2.9 4.8 2.9 5 0 0-1.7-.2-3.4-.2-5.2z"/><path d="m86.9 67.7c-.4-2.6 1.6-7.6-2.3-8-1.3 0-2.4 1.1-2.4 2.4.3 3.9-1.1 8.6.7 12.1 4.7 3 4.1-3.7 4-6.5z"/></g><path d="m28.8 51.6c.6 6.9.4 14.1.6 21.1 0 3.2 5.1 3.1 5-.1.5-10.3-1.6-20.7-.4-30.9 8.9-1.9 18.3-.8 27.3-.5 12.7 1 25.9.3 38.7.8-.1 10.6-.3 21.9-.2 32.5.9 4.8 6.3 2 5-2.1.1-8.1-.2-17 .1-25.1.5-8-1.2-11-9.6-10.6-15.6.2-30.8-.1-46.1-1-4.6.2-9.4.1-13.9.8-8 .2-6.7 9.6-6.5 15.1z" fill="#3292a0"/><path d="m108.1 81.7c-.7-1.3-2.3-1.3-3.6-1-4.5-.7-10.1.1-14.5-.5-19.8-.9-38.7-.8-58.4-.6-11.9-1.9 0 11.3 2 15.6.6 3.3 6 1.8 8.4 1.9 12.5-.7 25.6-.5 38.1-.1 3.8.2 12 0 15.9.1 1.1.3 2.3-.2 2.8-1.1 2.2-3.5 5.5-6.5 7.3-10.2 1.1-1 3.1-2.4 2-4.1zm-7.2 4c-1.7 2.4-3.7 4.6-5.4 7.1-19.2.1-38.7-1.1-57.9-.1-1.6-2.6-3.1-5.4-4.7-8 22.7-.2 45.5 0 68.2.8-.1 0-.1.1-.2.2z" fill="#3292a0"/></svg>