<svg xmlns="http://www.w3.org/2000/svg" xmlns:xlink="http://www.w3.org/1999/xlink" viewBox="0 0 225.62 279.82"><defs><style>.cls-1,.cls-5{fill:#fff;}.cls-2{mask:url(#mask);}.cls-3{fill:#ff4143;}.cls-3,.cls-4,.cls-5,.cls-6{fill-rule:evenodd;}.cls-4,.cls-8{fill:#9e6418;}.cls-6{fill:#8b0f26;}.cls-7{fill:#fcb415;}.cls-9{fill:#50c5dc;}.cls-10{fill:#193b3f;}.cls-11{fill:#eaeced;}</style><mask id="mask" x="103.46" y="120.15" width="104.18" height="98.67" maskUnits="userSpaceOnUse"><g id="a"><path d="M103.46,120.15H207.64v98.67H103.46Z"/><path class="cls-1" d="M104.52,126h96.79v91.52H104.52Z"/></g></mask></defs><g id="Draw_Layer-11" data-name="Draw Layer"><rect class="cls-1" width="224.3" height="279.82"/><g class="cls-2"><path class="cls-3" d="M120.26,205.9c3.64,3.59,24.28,10.59,30.55,11.42,41.38-.42,61.49-40.67,37.64-74.07C145.14,94,76.58,156.89,120.26,205.9Z"/><path class="cls-4" d="M168.17,164.24c.05,0,.09.09.14.09S168.22,164.28,168.17,164.24Z"/><path class="cls-5" d="M110.57,186.12l7.2,2.07,15.28,1.38,6.44,14.23,4.2-2.39,6.9-10.78,32.31.51s8.58-2.58,8.58-3.92,1.39-13.36,1.39-13.36l-3.74-23-57.7-7.27-16.71,1.93s-6.23,6.35-6.93,7-1.75,10-1.75,10Z"/><path class="cls-6" d="M195.83,163.64c-1.25-6.73-3.31-15.25-10.44-17.92-8.07.38-75.1-9.57-80.5,6.26-1.43,3.55,1.25,33.45,4,36.32,5.21,5.09,17,3.19,23.59,4.42,8.4,21.44,9.9,17,20.12-.14C177.63,193.05,203.34,199.13,195.83,163.64Zm-20,24.18c5.68.14,14.35-1.25,15.28-8.24.66-9.09.2-20.71-6-27.92-2.55-1.84-6.28-1.75-9.25-2-20.38-.62-42.69-6.68-62.27.82-6.21,3.19-4,11.4-4.1,17.14,1,5.5-.07,14.23,4.76,17.78,5.45,2.64,18.3-.57,22.07,3.59,2.77,3.16,2.95,8.46,5.44,12.07,4.41-2.55,5.2-15,9.33-14C159.71,187.34,167.5,187.85,175.84,187.82Zm-33.23,14.83c.11.1.15.16.15.18S142.7,202.79,142.61,202.65Z"/><path class="cls-6" d="M158.11,157.14Q140,156.66,122,155.35c-3.51-.23-3.3,5.25.23,5.48q18.08,1.32,36.14,1.8C161.85,162.72,161.64,157.24,158.11,157.14Z"/><path class="cls-6" d="M167.62,162.44c3,.17,9.61,1,8.63-3.73-1.18-3.3-4.95-1-7.43-1.57C165.36,156.43,164.14,161.7,167.62,162.44Z"/><path class="cls-6" d="M148.55,169.53q-13.43-.14-26.76.83c-3.51.24-3.31,5.72.23,5.48,8.9-.66,17.86-.92,26.77-.83C152.34,175,152.09,169.53,148.55,169.53Z"/><path class="cls-6" d="M181.38,171.1c-7.93-.37-15.85-.6-23.73-.74-3.56,0-3.3,5.44.23,5.48,7.92.14,15.85.37,23.72.74C185.16,176.72,184.9,171.24,181.38,171.1Z"/></g><path class="cls-7" d="M167.67,11.2c-18.35,4.13-36.12,15.52-37.57,36-1.16,16.33,7.31,30.32,20.48,39,13.68,9.06,33.1,9,47,.31,17-10.61,25.06-29.06,19.63-48.61C211,15.52,189.45,6.31,167.67,11.2Z"/><path class="cls-1" d="M168.19,14.94a2.23,2.23,0,0,0-.33,1.61c.24,1.65.37,3.31.48,5,0,.16,0,.31,0,.47l0,.54a2.08,2.08,0,0,0,.48,1,2,2,0,0,0,1.37.69,2.08,2.08,0,0,0,1.51-.51,2,2,0,0,0,.69-1.38q-.12-3.28-.35-6.57a2.09,2.09,0,0,0-.91-1.37,2.2,2.2,0,0,0-1.62-.33,2.15,2.15,0,0,0-1.37.92"/><path class="cls-1" d="M197.74,21q-1.69,2.82-3.4,5.64a2,2,0,0,0-.3,1.47,2,2,0,0,0,3.57.72c.63-1,1.26-2.05,1.91-3.07.54-.82,1.06-1.66,1.64-2.46a2.07,2.07,0,0,0-.56-2.86,2.1,2.1,0,0,0-1.58-.3,1.88,1.88,0,0,0-1.28.86"/><path class="cls-1" d="M142.76,34.62a2.18,2.18,0,0,0-.51,2.6,2.3,2.3,0,0,0,.74.84A12.39,12.39,0,0,0,146.55,40c.89.32,1.77.63,2.66.93A2,2,0,1,0,150.56,37c-1.09-.38-2.19-.76-3.23-1.24a10.47,10.47,0,0,1-1.7-1.17l-.22-.18a2,2,0,0,0-1-.37,2.16,2.16,0,0,0-.57,0,2.12,2.12,0,0,0-1,.5"/><path class="cls-1" d="M203.72,50.88a2,2,0,0,0-.69,1.38,2.07,2.07,0,0,0,.5,1.51,2,2,0,0,0,1.39.69c1.94,0,3.87,0,5.81,0a2.27,2.27,0,0,0,1.6-.53,2.21,2.21,0,0,0,.73-1.47,2.19,2.19,0,0,0-.54-1.6,2.1,2.1,0,0,0-.91-.61,2.07,2.07,0,0,0-1.13-.08h-.27c-1.66.09-3.32.12-5,.14a2.65,2.65,0,0,0-.58.06,1.84,1.84,0,0,0-.93.45"/><path class="cls-1" d="M148.83,59.82a28.45,28.45,0,0,0-4.3,1.07,2.06,2.06,0,0,0-.93,2.78,2.09,2.09,0,0,0,2.78.93,4.4,4.4,0,0,1,.5-.21c.89-.27,1.8-.47,2.71-.68a2,2,0,0,0-.72-3.9h0"/><path class="cls-1" d="M158.42,74.78c-.73,1.35-1.43,2.72-2.21,4a2.08,2.08,0,0,0-.3,1.5,2,2,0,0,0,.85,1.27,2,2,0,0,0,1.5.31,2,2,0,0,0,.93-.47,1.92,1.92,0,0,0,.55-.8c.65-1.22,1.3-2.44,2-3.66.07-.15.15-.3.23-.45a2,2,0,0,0-.77-2.29,2,2,0,0,0-1.48-.3,1.9,1.9,0,0,0-1.26.84"/><path class="cls-1" d="M196.87,69a2,2,0,0,0-.3,1.49,1.9,1.9,0,0,0,.84,1.26c1.3.76,2.6,1.51,3.89,2.28a2.09,2.09,0,0,0,1.5.31,2.06,2.06,0,0,0,1.27-.85,2,2,0,0,0,.3-1.49,1.94,1.94,0,0,0-.85-1.27c-1.31-.74-2.6-1.51-3.9-2.27a2.12,2.12,0,0,0-1.49-.3,2,2,0,0,0-1.26.84"/><path class="cls-8" d="M171.72,80a.11.11,0,0,0,0,.08.08.08,0,0,0,0,.06l.28.16.28.16a.1.1,0,0,0,.14,0,.1.1,0,0,0,0-.14l-.16-.09-.11-.07-.29-.15a.1.1,0,0,0-.07,0l-.07,0"/><path class="cls-8" d="M182.07,35.86a9.19,9.19,0,0,1,5.76,4.26"/><path class="cls-1" d="M181.71,36.9a8.28,8.28,0,0,1,5.13,3.71c.73,1.19,2.71.23,2-1a10.49,10.49,0,0,0-6.38-4.81c-1.36-.35-2.09,1.73-.72,2.08Z"/><path class="cls-8" d="M199.3,44.15c-.08-.39-.21-.77-.31-1.15s-.2-.62-.3-.93c-.16-.49-.33-1-.51-1.45-.25-.65-.52-1.28-.82-1.91a20,20,0,0,0-1-1.74,28,28,0,0,0-2.78-3.71,16,16,0,0,0-3.35-2.79,21.62,21.62,0,0,0-2.16-1.2c-.66-.32-1.31-.64-2-.92s-1.26-.49-1.89-.72a30.1,30.1,0,0,0-4.68-1.13,15.44,15.44,0,0,0-3.12-.19c-.86,0-1.74.05-2.6.16-1.24.16-2.49.34-3.72.58l-.63.13a18.23,18.23,0,0,0-3,1,16.36,16.36,0,0,0-2,1,25.77,25.77,0,0,0-2.29,1.43,36,36,0,0,0-6.41,6.1,10.79,10.79,0,0,0-1.06,1.54,21.15,21.15,0,0,0-1.15,2.28,22.14,22.14,0,0,0-1.16,3.82c-.17.82-.37,1.65-.47,2.48s-.16,1.37-.21,2.06a31,31,0,0,0,.07,4.62c.05.61.14,1.22.25,1.82a18.67,18.67,0,0,0,.43,2c.24.81.51,1.63.82,2.42a15.6,15.6,0,0,0,.9,1.89c.62,1.14,1.32,2.24,2,3.33.33.53.64,1.06,1,1.58a11.06,11.06,0,0,0,1.48,2,26,26,0,0,0,3.49,2.79c1.07.76,2.14,1.53,3.23,2.26.63.41,1.28.79,1.93,1.17a1.66,1.66,0,0,0,.22.32,1.88,1.88,0,0,0-.07,1c.13.65.25,1.3.37,1.94a6.6,6.6,0,0,0,.17.77,3.94,3.94,0,0,0,.43,1.1c.07.27.15.53.22.8.2.67.44,1.33.7,2a16.29,16.29,0,0,0,.7,1.53,11.44,11.44,0,0,0,1.07,1.6,8.69,8.69,0,0,0,1.21,1.29,7.18,7.18,0,0,0,1,.63,7.54,7.54,0,0,0,1.69.82,8.33,8.33,0,0,0,2.16.35c.25,0,.51,0,.76,0a13,13,0,0,0,1.4-.09,5.07,5.07,0,0,0,.76-.14,6.46,6.46,0,0,0,1.47-.53,15.24,15.24,0,0,0,3-2.16,10.31,10.31,0,0,0,1.23-1.33c.12-.15.22-.31.33-.46a8.55,8.55,0,0,0,.59-1.07l0-.07c.22-.47.44-.94.63-1.43.11-.28.23-.55.33-.83a9.63,9.63,0,0,0,.4-1.58,11.46,11.46,0,0,0,.13-2.19,24.21,24.21,0,0,0-.25-2.82c-.09-.63-.17-1.26-.27-1.88.32-.2.65-.38,1-.59.71-.45,1.39-.94,2.06-1.44a19.71,19.71,0,0,0,1.54-1.36,21,21,0,0,0,2.83-3.27c.4-.57.79-1.14,1.17-1.73a15.7,15.7,0,0,0,.95-1.7A30.15,30.15,0,0,0,199,58c.21-.63.35-1.28.51-1.92a19.94,19.94,0,0,0,.41-2.31c.09-.72.16-1.44.2-2.17a19.73,19.73,0,0,0-.08-2.43,30.27,30.27,0,0,0-.53-3.92ZM178.81,79l-2,2.31h0v0h0c-.7.76-1.41,1.52-2.13,2.27-.28-.31-.55-.65-.8-1a12.46,12.46,0,0,1-1-2.18l.78-.82c.38-.4.74-.81,1.1-1.22.19-.21.38-.42.56-.64s.49-.58.73-.87a9.93,9.93,0,0,0,.63-.86c.78,0,1.55-.14,2.32-.26a16.32,16.32,0,0,0,1.95-.48c.36-.1.73-.22,1.09-.34l-.39.55c-.41.56-.82,1.12-1.25,1.65s-.68.83-1,1.25c-.18.21-.35.44-.53.65Zm-2.13,2.44.09-.11-.05.06Zm.1-.12h0l0,0Zm-2.61-4.61c-.41.47-.82,1-1.25,1.4l-.65.69a1.09,1.09,0,0,1-.05-.17c0-.1,0-.21,0-.31a2.46,2.46,0,0,0-.16-.48c-.15-.53-.27-1.06-.39-1.59L173,76.2l1.72-.07C174.53,76.34,174.35,76.54,174.17,76.75Zm9.91-.41v.08a11.16,11.16,0,0,1-.12,2.31,10.64,10.64,0,0,1-.52,1.43c-.15.36-.3.72-.46,1.07-.06.1-.11.2-.16.3a7.1,7.1,0,0,1-.6.87c-.27.27-.55.52-.83.77a11,11,0,0,1-1,.79,6,6,0,0,1-1,.53,7.09,7.09,0,0,1-1.22.22,10,10,0,0,1-1.73-.07,5.37,5.37,0,0,1-.56-.21h0l1.29-1.37c.47-.51.93-1,1.38-1.54s.71-.8,1.06-1.21c.17-.18.33-.37.49-.56l1.75-2.14.23-.31.63-.85c.26-.35.52-.7.78-1.07l.41-.61C184,75.29,184,75.81,184.08,76.34Zm10.71-30c.2,1.2.39,2.38.49,3.59a23,23,0,0,1-.34,4.68,23.27,23.27,0,0,1-.78,2.71c-.34.89-.69,1.78-1.1,2.64a28.65,28.65,0,0,1-3,4.54,17.44,17.44,0,0,1-1.55,1.55c-.66.57-1.33,1.09-2,1.59-.9.59-1.82,1.14-2.78,1.65a28.28,28.28,0,0,1-3.14,1.39,19.06,19.06,0,0,1-2.05.59,15.58,15.58,0,0,1-2.45.37c-.92,0-1.83.09-2.75.16-.55,0-1.1.11-1.65.17l-.19-.13c-.75-.47-1.52-.89-2.27-1.35s-1.69-1.08-2.51-1.65c-1.38-1-2.77-1.92-4.07-3a4.89,4.89,0,0,1-.5-.52c-.24-.28-.46-.57-.67-.86q-1.2-1.86-2.31-3.76c-.41-.71-.81-1.43-1.16-2.17a13.69,13.69,0,0,1-.69-1.74,23.13,23.13,0,0,1-.77-4.37,34.3,34.3,0,0,1,.48-6.4c.12-.57.25-1.13.41-1.68a18.15,18.15,0,0,1,.81-2.28A10.36,10.36,0,0,1,159,40.7c.36-.5.75-1,1.14-1.44a45.69,45.69,0,0,1,5.24-4.7c.34-.22.69-.43,1-.64a19.68,19.68,0,0,1,3.2-1.55,28.74,28.74,0,0,1,3.56-.71c.77-.13,1.55-.21,2.33-.28.52,0,1,0,1.55,0a19,19,0,0,1,3.09.35c.39.09.77.17,1.15.28.6.18,1.21.36,1.8.57s1.25.47,1.87.73c.33.13.65.29,1,.45s.83.44,1.22.69a21.87,21.87,0,0,1,1.94,1.37A23.75,23.75,0,0,1,191.9,39c.37.61.75,1.22,1.07,1.86s.7,1.54,1,2.33c.15.47.3,1,.43,1.43S194.68,45.8,194.79,46.38Z"/><path class="cls-8" d="M166.63,51.2a2.66,2.66,0,0,0,.63,0,2.56,2.56,0,0,0,1.1-.59,2.79,2.79,0,0,0,.81-1.47,9.59,9.59,0,0,0,.15-3.16,2.57,2.57,0,0,0-1.24-2.12,2.06,2.06,0,0,0-1-.34,3,3,0,0,0-.73,0l-.08,0a2.79,2.79,0,0,0-1.48.93,2.57,2.57,0,0,0-.8,1.19,3.16,3.16,0,0,0-.17,1.26,5.11,5.11,0,0,0-.05.55,4.55,4.55,0,0,0,.16,1.37,3.16,3.16,0,0,0,.59,1.17,3.52,3.52,0,0,0,.67.61,1.75,1.75,0,0,0,.29.18A2.42,2.42,0,0,0,166.63,51.2Z"/><path class="cls-8" d="M184.27,41.33l-.06-.06a2.47,2.47,0,0,0-1.12-.72,2,2,0,0,0-1.06-.08,2.56,2.56,0,0,0-1.11.54,4.18,4.18,0,0,0-1.32,2.2,7.25,7.25,0,0,0-.24,1.38,6.71,6.71,0,0,0,0,1,3.2,3.2,0,0,0,.3,1.75,1.83,1.83,0,0,0,.69.8,2.19,2.19,0,0,0,.83.53,2.67,2.67,0,0,0,3-1.08,6,6,0,0,0,.94-2.63,7.75,7.75,0,0,0,.07-1,4.12,4.12,0,0,0-.14-1.31,2.61,2.61,0,0,0-.27-.69A2.13,2.13,0,0,0,184.27,41.33Z"/><path class="cls-8" d="M183.17,54.24a2.17,2.17,0,0,0-2.32,2c-.06.77,0,1.54-.16,2.3-.08.34-.17.67-.27,1s-.24.75-.39,1.11a8.49,8.49,0,0,1-.73,1.14l-.56.5c-.17.16-.35.31-.54.46a6.23,6.23,0,0,1-1,.48,10,10,0,0,1-1.81.33,5.17,5.17,0,0,1-.68,0l-.15,0a8.62,8.62,0,0,1-.87-.62,8.9,8.9,0,0,1-1.07-1.22,16.59,16.59,0,0,1-.86-1.47,18.55,18.55,0,0,1-.83-2c0-.12-.08-.23-.11-.35a2.17,2.17,0,0,0-.69-.78,2.05,2.05,0,0,0-2.84.55,2,2,0,0,0-.31,1.54c.25.83.53,1.65.86,2.46a12.61,12.61,0,0,0,.77,1.62,11.7,11.7,0,0,0,2.87,3.39,6,6,0,0,0,1.88,1.07,8.14,8.14,0,0,0,1.29.24,7.49,7.49,0,0,0,1.42,0,10.16,10.16,0,0,0,1.9-.3,10.73,10.73,0,0,0,2.12-.83,7.76,7.76,0,0,0,1.43-1,8.73,8.73,0,0,0,.76-.73,8.34,8.34,0,0,0,1.09-1.36,11,11,0,0,0,.79-1.57c.15-.4.3-.79.43-1.2a13,13,0,0,0,.42-1.74,8.29,8.29,0,0,0,.13-1.21c0-.46.05-.94,0-1.4l0-.58a2.19,2.19,0,0,0-.51-1A2.16,2.16,0,0,0,183.17,54.24Z"/><path class="cls-9" d="M101.09,14.43C93,10.34,18.87,6.3,14,18.87c-5.2.78-2.71,44.89-2.74,46.45v-.19c-.45,10,3.12,14.23,13,14,2.29.39,30.33,1.38,30.86,1.41C63,90.25,79.05,110.74,79.37,111c1.92,2.42,5-1.7,4.61-3.52-.08-.56-6.92-19.65-9.3-27.17,5.25,0,30.55,2.42,33.2-2.12S114.46,21.18,101.09,14.43Z"/><path class="cls-10" d="M49.67,26.11a2.46,2.46,0,0,0-.93.33c-5.81,1.12-6,12.69.56,12,6.84-.71,6.16-14.47.37-12.34"/><path class="cls-10" d="M71.82,27.61C61,32.94,75.88,46.55,77.38,33.45a7,7,0,0,0,.09-1c-.25-.91-.84-3.34-1.53-4a3.08,3.08,0,0,0-4.12-.81"/><path class="cls-10" d="M62,55.66c-7,.35-10.82-2.41-11.6-3l-.59-.51c-.32-.45-1.28-1.44-1.36-1.56l0,0v0c-4.2-5.91-8.85,5.38-4.6,9.95.29.34,8.89,7.26,26.18,3.14C81.25,61,78.8,43,74.74,47.52,74.74,47.52,69,55.32,62,55.66Z"/><path class="cls-11" d="M96.52,263.28a3.35,3.35,0,0,0,2.58-1.06,3.77,3.77,0,0,0,2.66-4.07,132.27,132.27,0,0,1-1-21c.07-2.16-2.42-3.73-4.35-3.56-2.37.21-3.5,2.22-3.56,4.36-.12,3.65-.08,7.29.1,10.93-32.39-32-39.86-80.34-41.42-124.26-.19-5.11-8.1-4.3-7.92.8C45,164.86,50.81,206.05,74.25,239A117,117,0,0,0,88,255.11a107,107,0,0,1-12.06-1.57c-5-.93-6.37,6.91-1.33,7.85A115.81,115.81,0,0,0,96.52,263.28Z"/></g></svg>