<svg viewBox="0 0 460.17 143.66" xmlns="http://www.w3.org/2000/svg"><path d="m427.67 72.83c-13.67-4.2-29.67-3.38-38.37 9.58-6.92 10.34-6.61 22.76-1.21 33.48 5.61 11.13 18.44 18.43 30.93 18 15.24-.58 27.49-9.72 31.29-24.67 4.34-17.14-6.42-31.35-22.64-36.34z" fill="#fbb331"/><g fill="#be8635"><path d="m418.16 81.75a10.05 10.05 0 0 0 2.68.06 16.84 16.84 0 0 0 -.66-4.54c-.22-.19-2.19-.21-2.33.07a16.52 16.52 0 0 0 .31 4.41z"/><path d="m430.74 86.14a27.37 27.37 0 0 0 3.47-3.43c.1-.22-1.6-1.33-2-1.29a16.37 16.37 0 0 0 -3.32 2.83 8.66 8.66 0 0 0 1.85 1.89z"/><path d="m423.56 82.23a5.89 5.89 0 0 0 2.47.83 18.65 18.65 0 0 0 1.45-4.79 5 5 0 0 0 -2.45-.71 23.07 23.07 0 0 0 -1.47 4.67z"/><path d="m410 102.18c-1.42 9.37 15.61 9.8 13.44-.23-1.44-6.61-11.87-5.83-13.44.23z"/><path d="m397.25 91.15c4.22 1.8 13.19 4.5 13.19 4.5s3.79-2.76 10.07-.9 7.06 6.68 7.06 6.68l13 4.47s3.47-8.1.13-9.3l-10.88-4s.55-3.34-1.1-4.85c-2.33-2.14-7.87-3.45-10-3.59-1.5-.1-3.86 3.47-3.86 3.47l-3.14-1s-.27-1.36-.81-1.71a8.59 8.59 0 0 0 -3.91-1.43c-.67.09-1.76 1.23-1.76 1.23s-1.66-.59-2.68-1c-3.49-.19-5.56 6.28-5.31 7.43zm22.55-3.85c.77-.3 5.61 1.88 6.06 2.18s-.12 1.51-.46 1.84-5.81-1.9-6.15-2.07.55-1.95.55-1.95z"/><path d="m414.34 111.67c-5.08-1.71-10.2-4.51-5.69-14.21l-12.21-4.07a24.76 24.76 0 0 0 -2.5 6.16c-1 3.18-3.49 7.89-2.16 11.21 1.2 3 2.75 3 5.48 4 8.44 3.25 16.79 5.71 25.36 8.63 2.7.91 6 2 8.91 1.61 4.21-.56 5.23-6.24 6.25-9.87 1.24-4.45 2-7.25 2-7.25s-8.92-3.36-12.68-4.35c-1.72 7.88-8.04 10.13-12.76 8.14z"/></g><path d="m229.51 74.77c-7.7 3.91-15.1 9.08-18.57 17.3-10.22-2.58-46.31 8.54-39 21.66a2.82 2.82 0 0 0 3.6-1.65c6.38-10.64 21.72-15 33.61-14.42-4.7 15.2 7.15 39.12 25.22 33 20-11.92.43-36.12-17-37.51.34-6.37 26.78-16.59 12.12-18.37zm-4 27.27c34.19 26.16-18.85 35.36-10.2-3.46a39.88 39.88 0 0 1 10.2 3.46z" fill="#eaeced"/><path d="m120.42 18.48c-97.88 7-64.47 146 25.55 119.74 68.2-19.87 41.65-126.85-25.55-119.74z" fill="#d4b9c8"/><path d="m136.93 44.79c-5.41.49-4 6.45-.44 8.58a12.24 12.24 0 0 1 3.21 8.91c0 5 7.65 4.84 7.58 0 .06-6.77-3.52-15.44-10.35-17.49z" fill="#fff"/><path d="m125.76 27.24c-34.7-2.06-48.62 47.76-17.06 63.39-.72 1.53-1.34 3-2 4.58-9.6-5-11.8 8.05-15.48 14.28-7.59 12-12.63 34.63 9.41 29.14 8.35-6.67 11.61-18 16.7-27 2.9-6.65 5.23-9.4-2.25-13.58a26 26 0 0 0 2.35-4.89c17.72 3 41-5 42-25.52 4.18-19.76-14.81-39-33.69-40.41zm-1.84 58.76c-29.85.15-33.47-39.14-8.21-50.25 38.32-8 54.42 50.95 8.21 50.25z" fill="#741448"/><path d="m307.58 3.17c-72.9 1-75.82 112.23-5.09 121.77 91 13.8 96.55-128 5.09-121.77z" fill="#ff4143"/><g fill="#8b0f26"><path d="m351.6 13c-1.69 0-4.38.45-5 2.44-3 .33-6.63-.31-9.43 1.42-2.37.23-4.9-.46-7.32 1-3.21.08-7.18 0-10.21 2-3.06-1.19-6.41 1.11-9.15 1.46a10.13 10.13 0 0 0 -6.62 1.12c-1.54-.89-3.41-.66-5.09-.43-2.86.05-4.94 1.84-7.75 1.18-3.45-.22-5.95 2.3-9.24 1.31a13.25 13.25 0 0 0 -6.9 2.5 7.94 7.94 0 0 0 -6.81 1.9c-2.55 2.42-7.06-.86-10 2.23-5.18 2.88-6.31 12.57-.13 14.7-1.38 3.17 1.13 5.73.56 8.55-1.14 3.26 1.67 5.92 1.15 8.85-.5 2.59.54 5.06 1.93 7.29.2 3.21-.88 7.29 2.27 10-2.23 3.19 1 6.21.42 9.06-1.47 4 2.27 6.77 1.78 10.41 3.16 5.31-.59 12.51 5.52 15 4.47 1.45 8-2 12.54-.41 1.79.06 3.47-1.28 4.76-2.5a9 9 0 0 0 7.56-.85c1.21-1.18 2.2-1.19 3.79-.89a14 14 0 0 0 6.7-2.27 16.8 16.8 0 0 0 5.86.22c1.46-.09 2.44-1.44 3.88-.91a13.15 13.15 0 0 0 8.13-1.16c4.2 1.42 7.78-1.54 11.78-1.12 2.9.41 5.12-2.27 7.82-1.87 6.63-.83 12.79-2.54 19.65-2.59 5.66.23 12.73-8.21 8-13.1.69-2.47 2.13-5.74-.14-7.83-.29-1.59.89-3.45.18-5.33-1.75-3.15-1.56-6.78-3.59-9.79a7.53 7.53 0 0 0 -.75-6 9.57 9.57 0 0 0 -.87-7c1.49-3-.88-5.94-1-8.53a8.53 8.53 0 0 0 -1-7.12 7.87 7.87 0 0 0 -.38-4.83c-.23-.75-1.16-1.2-.82-2 1-3.05-2.17-4.48-2.72-6.79a9.2 9.2 0 0 0 -9.36-9.32zm-7 8.07a5.48 5.48 0 0 0 3.66-2c5.27.31 7-.59 7.31 5.89 5 5.14.14 3.82 3.34 7.8 1.15.6.65 1.89.34 2.9-.59 2.88 3 4.5.5 7.19-.59 1.77.71 3 1.6 4.39 1.2 2.16-1.34 4.44.4 6.5s-.73 5.12.81 7.2c1.56 1.33-.2 3 .31 4.61 3.28 4.19.34 6.8 3.63 9.41.71 2.85-2.79 6.13.93 8.12-.15 1.8-1.75 4.3.42 5.72.84 6.65-3.88 6.24-8.9 6.77-1.78.82-3.84-1.16-5.5.28-2.12 1.75-5.59-.82-7.34 1.81a2.83 2.83 0 0 1 -1 .08c-2.4-.29-4.44-.13-6.4 1.41-2.44 1.2-5.11-.62-7.39 1.1-3.21 1.93-6.35-.65-9.39 1.15-2.64 1.88-5.74-.74-8.34.43-2 1.93-4.69.82-7.16.7-2.56.24-4.62 3.28-7.39 2.15-5-1.78-4 4.73-10.87 1.65-3.1 1.53-4.91 3.87-8.8 2.22-1.93-.41-5.63 2.73-6.18 0 .5-3.43 1-6.27-1.63-8.87.31-2.51.68-5-1.77-6.67-.58-5.8 2.9-2.93-1.21-9.58 2.48-3.75-1.16-6-1.78-9.35 1.71-3.07.29-5.62-1.48-8.09-1.15-5.69 2.39-2.39-1.62-9.39.29-3.11 1.85-5-.81-7.71-.14-2.19 2.17-5.37-.65-6.75-2.86-2.37-4-5.37.62-7 3.18.9 6.13.45 8.27-2.26h-.06c1.21-1.34 2.71-.87 4.25-.64 2.38-.24 4-2.91 6.59-2.79a3.15 3.15 0 0 0 4.61.11c1.77-1.81 4.77-1.52 7-1.18 2.16-.2 3.9-1.74 6.15-1.63 4.61.3 3.28 1.89 8.22-.66 5.2 1.35 5.12-1.22 9.79-1.64 4 1.64 7.37-3.31 11.72-1.21 4.2-1.53 3.48-1.73 7.93-1 2.28-1.47 4.58-2.34 7.22-1.3z"/><path d="m350.13 22.27c-16.06 3.64-33.33 6.66-49.42 9.11-5.13 1.78-37.78 3.24-34.11 10.64 4 19.93 4.83 41 10.13 60.83 2.64 2.58 4.26 2.3 7.5.84 5.6-1.82 11.7-2.75 17.54-3.71h-.11c19.35-2.15 38.1-5.89 57.43-8.79 5-.6 7.12-3.9 5.39-9.08a147.67 147.67 0 0 1 -2.59-14.92c-1.53-14.21-5.38-27.92-8.12-41.83.06-2-1.93-3-3.64-3.1zm-68.44 76.73c-3.07-19-6.59-37.81-9.29-56.8 25.2-6 51.3-7.6 76.48-13.87 2.93 13.94 6.17 28 7.75 42v.22-.2c.17 1.38.38 2.78.56 4.15v-.37c.7 10.83 6.48 11.47-4.79 12.5-3.4-32.63-27.11-34.63-31.23-1.19-9.17-34.13-39.04-19.62-29.17 10.89a78.23 78.23 0 0 0 -10.31 2.67z"/><path d="m337 37.69c-17.35.59-17.87 24 1.1 21.24 11.49-1.93 10.9-20.77-1.1-21.24z"/><path d="m298.74 41c-13.62 1.55-14.44 22.41.89 22.3 15.06-.27 14.58-22.7-.89-22.3z"/></g><path d="m62 16.43c-39.7-27.94-86.51 35.85-39.36 59.57 34.8 20 70.84-35.27 39.36-59.57z" fill="#50c5dc"/><path d="m35.55 24.58a12.44 12.44 0 0 0 -1.89.66 21.7 21.7 0 0 0 -2.09 1.2c-.43.27-.87.54-1.29.82a4.18 4.18 0 0 0 -.44.4c-.28.26-.56.52-.83.8a11.21 11.21 0 0 0 -1.78 2.95 2.62 2.62 0 1 0 4.77 2.17c.18-.38.36-.76.56-1.12a5.46 5.46 0 0 1 .43-.55 15.59 15.59 0 0 1 2.26-1.46 7.62 7.62 0 0 1 1.07-.45q.49-.15 1-.27a18.55 18.55 0 0 1 2.95-.5 8.89 8.89 0 0 1 .88.13l.45.22a5.85 5.85 0 0 1 .69.54 6.49 6.49 0 0 1 .41.61l-.23-.4c.22.38.43.76.64 1.14a9.06 9.06 0 0 1 .56 1.45 4.46 4.46 0 0 1 .07.51v.66a12 12 0 0 1 -.35 2 4.47 4.47 0 0 1 -.25.6 5.76 5.76 0 0 1 -.33.6 13.6 13.6 0 0 1 -1.81 2.14l-.53.5.07-.07-1.35 1.14a22.5 22.5 0 0 0 -2.08 2.29c-.31.41-.63.79-.93 1.2a11.37 11.37 0 0 0 -1 1.7 8.69 8.69 0 0 0 -.69 2.05 4.62 4.62 0 0 0 -.08.65 10.67 10.67 0 0 0 0 1.6 8 8 0 0 0 .47 2.17 3.85 3.85 0 0 0 .22.52 7.18 7.18 0 0 0 .64 1.15 3 3 0 0 0 5.42-1.29v-.81a3 3 0 0 0 -.45-1.23c-.1-.22-.19-.43-.27-.66s0-.43-.06-.64a3.54 3.54 0 0 1 .07-.47 6.21 6.21 0 0 1 .31-.7c.37-.53.79-1 1.19-1.55a19.54 19.54 0 0 1 1.48-1.68l.9-.81-.1.09.12-.11.31-.29c.75-.71 1.5-1.42 2.19-2.19a12.64 12.64 0 0 0 1.48-2.2 6.07 6.07 0 0 0 .4-.76 13.63 13.63 0 0 0 .53-1.56 9.35 9.35 0 0 0 .4-1.89 14.72 14.72 0 0 0 .07-2.58 11 11 0 0 0 -.62-2.71 11.11 11.11 0 0 0 -1.23-2.29 11.89 11.89 0 0 0 -.88-1.43 8.37 8.37 0 0 0 -1.54-1.38 8.14 8.14 0 0 0 -2.09-1.13 8.33 8.33 0 0 0 -1.55-.37 12.22 12.22 0 0 0 -1.6-.05 9.87 9.87 0 0 0 -2 .31l-1.5.34-1.1.29zm3.45 16.68.23-.22.11-.1zm.34-.32.22-.22z" fill="#fff"/><path d="m39.91 59.26a3.05 3.05 0 0 0 -1.4 1 3.33 3.33 0 0 0 -.72 1.64 2.83 2.83 0 0 0 .49 2.1 2.76 2.76 0 0 0 1.72 1 2.29 2.29 0 0 0 .64 0 3.82 3.82 0 0 0 1.53-.25 3 3 0 0 0 1.68-1.59 2.88 2.88 0 0 0 -.3-2.85 3.16 3.16 0 0 0 -1.32-1.05 4.91 4.91 0 0 0 -.8-.23 2.72 2.72 0 0 0 -1.2.07l-.35.09z" fill="#fff"/></svg>