<svg width="402" height="182" viewBox="0 0 402 182" fill="none" xmlns="http://www.w3.org/2000/svg">
<path d="M90.7196 16.0625C142.985 36.6875 125.652 117.17 71.88 124.376C10.5908 132.499 1.40153 79.6707 4.72143 62.0957C13.3856 15.0123 62.9912 5.17838 90.7196 16.0625Z" fill="#50C5DC"/>
<path d="M13.6567 36.3219C14.5103 34.905 33.2018 30.3939 33.2018 30.3939C33.2018 30.3939 33.4263 23.2306 34.7352 22.7448C36.0442 22.259 61.0148 16.8842 62.5441 16.768C64.0734 16.6517 66.3937 21.8833 66.3937 21.8833C66.3937 21.8833 84.894 17.3866 86.6729 18.024C88.6429 18.6468 110.666 106.011 109.783 107.044C108.9 108.076 35.8545 125.99 34.2376 124.954C32.6207 123.918 12.8031 37.7388 13.6567 36.3219ZM28.2392 43.5184C33.1545 62.6521 42.2351 101.169 42.2351 101.169C42.2351 101.169 49.7502 98.8599 50.3383 99.0083C50.9264 99.1567 52.3917 108.316 52.3917 108.316C52.3917 108.316 81.2015 100.332 93.1572 98.2641C88.6388 79.2934 77.3866 32.4429 76.7985 32.2945C74.8139 31.4797 36.195 41.9479 28.2392 43.5184ZM49.5827 109.302L48.4545 102.049C48.4545 102.049 42.1009 104.463 41.777 105.26C41.4531 106.057 49.5827 109.302 49.5827 109.302ZM60.6005 21.5511C58.4685 21.3269 39.3801 25.6751 38.4973 26.7079C37.6145 27.7407 37.9183 36.7953 39.109 37.2842C40.2998 37.7731 64.2708 31.8949 65.5505 31.025C66.8303 30.1552 62.5413 21.7899 60.6005 21.5511ZM104.521 103.581C105.8 102.711 83.4057 23.1009 83.4057 23.1009L69.4057 26.0966L70.0654 29.7161L80.6391 27.174L99.1256 100.901L50.8742 113.646L39.114 108.167L22.5495 42.0196L33.6821 39.2419L33.4339 35.9773L18.3016 39.2522C18.3016 39.2522 36.4905 119.182 37.5193 120.069C38.1512 120.794 103.241 104.451 104.521 103.581Z" fill="#3292A0"/>
<path d="M74.2189 43.8861L60.1896 46.4977L59.7065 42.6716C59.7065 42.6716 71.0011 39.4953 73.3388 39.897C74.8973 40.1648 74.2189 43.8861 74.2189 43.8861Z" fill="#3292A0"/>
<path d="M35.9268 48.5351C36.6476 47.9008 52.2951 43.8142 53.1181 44.5242C53.9412 45.2342 53.969 48.1292 53.969 48.1292L36.6302 52.7307C36.6302 52.7307 35.2059 49.1693 35.9268 48.5351Z" fill="#3292A0"/>
<path d="M77.4177 55.6175C76.9756 57.3894 75.3984 64.4624 74.4718 64.9191C73.0009 65.8035 66.0502 57.8336 66.0502 57.8336L68.7717 55.6953L72.8869 59.2453L74.4335 54.2992C74.257 54.5058 78.1546 52.6644 77.4177 55.6175Z" fill="white"/>
<path d="M40.9878 69.5895C40.9878 69.5895 39.152 65.6731 40.0786 65.2163C41.0052 64.7596 62.5933 60.4145 62.5933 60.4145C62.5933 60.4145 65.1062 63.1206 63.8265 63.9905C61.4435 65.5236 40.9878 69.5895 40.9878 69.5895Z" fill="#3292A0"/>
<path d="M81.8046 72.8602C81.2895 73.6719 72.1429 74.7535 72.1429 74.7535C72.1429 74.7535 70.704 71.0001 71.8072 70.3368C72.9103 69.6735 80.3511 68.9147 80.3511 68.9147C80.3511 68.9147 82.3343 72.2405 81.8046 72.8602Z" fill="#3292A0"/>
<path d="M46.3217 76.5228C46.3217 76.5228 65.3663 71.5985 65.9982 72.323C66.6155 72.8555 67.0694 76.2976 67.0694 76.2976C67.0694 76.2976 48.7749 80.9717 47.0106 80.5264C44.4817 80.1392 46.3217 76.5228 46.3217 76.5228Z" fill="#3292A0"/>
<path d="M75.7537 86.8396L80.0163 89.799L81.563 84.8529C81.563 84.8529 84.0627 84.856 84.7092 85.7726C85.7818 87.2362 81.3517 94.7192 81.3517 94.7192L72.8411 88.9925L75.7537 86.8396Z" fill="white"/>
<path d="M53.2667 94.5362C54.5756 94.0504 68.7814 91.2323 68.7814 91.2323C68.7814 91.2323 69.8234 94.8227 69.2791 95.2504C68.7494 95.8701 53.3967 98.7754 52.8086 98.627C52.4263 98.656 51.9577 95.022 53.2667 94.5362Z" fill="#3292A0"/>
<path d="M372.466 145.375V145.475C372.166 138.075 372.066 130.675 372.166 123.275C372.266 118.975 372.966 110.975 366.666 111.275C356.866 109.175 311.066 106.375 305.566 114.075C303.566 120.475 304.766 127.675 304.166 134.275C304.366 140.575 302.966 147.575 305.866 153.375C312.866 156.175 321.366 154.975 328.866 155.775C326.966 161.775 325.366 167.375 323.066 173.175C321.266 174.775 323.766 178.375 325.666 176.575C331.166 169.775 336.766 162.775 342.166 155.875C342.566 155.875 342.866 155.875 343.266 155.775H343.166C352.066 153.875 375.466 160.575 372.466 145.375Z" fill="#FF4143"/>
<path d="M341.766 120.175C346.466 120.575 346.866 129.575 341.466 128.475C337.766 127.575 337.066 119.675 341.766 120.175Z" fill="#8B0F26"/>
<path d="M331.466 121.175C335.066 122.775 334.766 130.775 329.866 128.675C326.366 127.275 327.066 119.475 331.466 121.175Z" fill="#8B0F26"/>
<path d="M327.066 133.475C330.666 139.475 340.466 141.175 345.066 135.575C351.166 130.775 354.166 146.375 336.866 146.375C323.066 145.975 318.966 129.775 327.066 133.475Z" fill="#8B0F26"/>
<path d="M302.7 33.8999C297 32.0999 306.6 25.8999 308 23.2999C308.7 22.6999 310.2 20.3999 311.2 20.3999C317.4 21.8999 306.7 29.1999 305.4 31.7999C304.7 32.4999 303.7 33.9999 302.7 33.8999Z" fill="#EAEBEC"/>
<path d="M114 158.5C108.3 156.7 117.9 150.5 119.3 147.9C120 147.3 121.5 145 122.5 145C128.7 146.5 118 153.8 116.7 156.4C116 157.1 115.1 158.6 114 158.5Z" fill="#EAEBEC"/>
<path d="M201.4 25.0001C196.9 25.1001 199.6 10.2001 198.5 6.50007C198.1 3.50007 202.6 3.00007 202.9 5.80007C202.6 9.80007 206.2 24.6001 201.4 25.0001Z" fill="#EAEBEC"/>
<path d="M209.6 166.1C205.6 164.7 207.8 157.8 206.7 154.3C206.3 152.7 206.9 150.8 208.8 151C210.3 151.1 210.7 152.7 210.6 153.9C210.1 157.2 213.8 164.9 209.6 166.1Z" fill="#EAEBEC"/>
<path d="M293.6 154.7C291.5 153.3 278.7 149.6 284.5 147.2C286.5 148.4 299.4 152.3 293.6 154.7Z" fill="#EAEBEC"/>
<path d="M369.3 93.5001C363.1 92.7001 356.1 93.4001 350.3 91.6001C346.4 84.6001 364.8 89.9001 369 89.3001C371.6 89.3001 371.8 93.2001 369.3 93.5001Z" fill="#EAEBEC"/>
<g clip-path="url(#clip0)">
<path d="M146.985 139.654C146.88 139.679 146.775 139.705 146.67 139.731L146.985 139.654ZM135.757 165.017C139.115 172.842 144.755 176.975 156.612 177.001C168.444 177.026 178.281 162.692 175.527 152.877C172.772 143.037 161.282 134.23 146.985 139.654C132.687 145.077 132.425 157.191 135.757 165.017Z" fill="#FCB415"/>
<path d="M159.315 150.243C159.788 150.682 160.443 151.276 161.257 151.534C161.335 151.56 161.414 151.56 161.493 151.56C162.778 151.56 165.507 147.427 165.664 146.885C165.743 146.627 165.743 146.213 165.375 145.749C165.034 145.309 164.379 144.87 163.854 144.87C163.775 144.87 163.696 144.87 163.644 144.896C163.041 145.051 159.315 148.59 159.079 149.545C158.974 149.907 159.184 150.139 159.263 150.217L159.315 150.243Z" fill="#9E6418"/>
<path d="M147.353 164.06C146.566 164.189 144.441 167.521 144.152 168.141C144.021 168.425 143.89 168.761 144.048 169.045C144.31 169.536 145.49 170.44 146.435 170.44C146.513 170.44 146.592 170.44 146.645 170.414C147.799 170.233 149.688 166.281 149.714 165.817C149.74 165.532 149.609 165.274 149.373 164.99C148.953 164.551 148.087 164.06 147.51 164.06C147.458 164.034 147.405 164.06 147.353 164.06Z" fill="#9E6418"/>
<path d="M163.801 160.961H163.749C163.618 160.961 163.303 160.961 162.647 161.684C162.28 162.097 161.886 162.691 161.939 163.156C162.044 163.802 165.454 167.108 166.241 167.108H166.372L166.477 167.082C166.923 166.901 168.497 165.429 168.602 164.809C168.655 164.525 168.471 164.319 168.419 164.267C167.999 163.725 164.379 161.013 163.801 160.961Z" fill="#9E6418"/>
<path d="M146.199 153.239H146.251H146.277C146.933 153.161 147.537 152.309 147.747 151.741C147.851 151.431 147.747 151.095 147.327 150.475C146.986 149.984 144.362 146.859 143.497 146.859H143.418L143.366 146.885C142.552 147.092 141.739 149.209 141.687 149.339C141.608 149.649 141.818 149.881 141.896 149.984C142.342 150.553 145.49 153.239 146.199 153.239Z" fill="#9E6418"/>
<path d="M152.783 149.184C153.15 149.184 153.649 149.106 154.042 149.054C154.2 149.029 154.357 149.003 154.436 149.003C154.593 149.003 154.882 148.899 155.039 148.46C155.223 147.892 155.485 143.837 154.751 143.243C154.331 142.882 153.413 142.856 153.046 142.856C152.154 142.856 151.891 143.062 151.76 143.243C151.524 143.605 151.498 148.512 152.049 148.977C152.285 149.158 152.573 149.184 152.783 149.184Z" fill="#9E6418"/>
<path d="M139.168 160.909L139.588 160.884C145.071 160.651 145.254 160.47 145.438 160.315C145.543 160.212 145.805 159.954 145.569 158.714C145.333 157.448 144.966 157.293 144.808 157.242C144.677 157.19 144.52 157.164 144.179 157.164C144.126 157.164 139.194 157.319 138.722 158.042C138.617 158.197 138.381 158.559 139.011 160.522L139.168 160.909Z" fill="#9E6418"/>
<path d="M162.962 155.021C162.962 155.046 162.883 156.932 163.46 157.345C163.644 157.474 163.854 157.5 164.457 157.5C164.982 157.5 169.074 157.345 169.573 156.984C170.124 156.57 170.019 155.072 169.992 154.891C169.94 154.22 169.783 153.858 169.442 153.703C169.31 153.626 169.127 153.6 168.759 153.6C167.841 153.6 163.696 153.988 163.303 154.194C163.041 154.375 162.988 154.711 162.962 155.021Z" fill="#9E6418"/>
<path d="M157.243 165.61C156.64 165.61 155.433 166.101 155.171 166.669C154.908 167.237 156.299 171.318 156.849 171.628C156.981 171.705 157.112 171.731 157.322 171.731C157.82 171.731 159.525 171.395 159.945 170.853C160.627 170.001 157.873 165.842 157.846 165.816C157.689 165.687 157.479 165.61 157.243 165.61Z" fill="#9E6418"/>
<path d="M148.796 162.201C150.108 163.621 152.154 164.474 154.252 164.474C156.955 164.474 159.316 163.131 160.549 160.858C161.781 158.585 161.781 156.183 160.522 154.117C159.237 151.999 156.85 150.63 154.462 150.63C153.675 150.63 152.941 150.785 152.259 151.069C149.137 152.386 147.484 154.375 147.196 157.19C146.986 159.127 147.563 160.858 148.796 162.201ZM151.891 155.615C152.495 154.943 153.492 154.556 154.489 154.556C155.433 154.556 156.299 154.891 156.902 155.511C157.505 156.131 157.82 157.009 157.794 158.068C157.4 159.695 155.59 160.574 154.043 160.574C153.413 160.574 151.341 160.393 151.131 158.068C151.052 157.087 151.314 156.26 151.891 155.615Z" fill="#9E6418"/>
</g>
<defs>
<clipPath id="clip0">
<rect width="42" height="39" fill="white" transform="translate(134 138)"/>
</clipPath>
</defs>
</svg>
