<svg xmlns="http://www.w3.org/2000/svg" viewBox="0 0 710.83 1108.7"><defs><style>.cls-1{fill:#caccce;}</style></defs><g id="Draw_Layer-20" data-name="Draw Layer"><path class="cls-1" d="M354.22,47.3a38.38,38.38,0,0,0-5,1.16A44.29,44.29,0,0,0,344,50.74c-3.76,1.73-7,4.81-9.68,7.87-4.74,5.38-7.41,12.1-9.47,18.87a124.34,124.34,0,0,0-4.13,22.42,244.66,244.66,0,0,0,0,48.48c1,11,2.63,21.83,4.39,32.68a153.74,153.74,0,0,1-15.7,5.68,157.16,157.16,0,0,1-19.17,4.33,228.14,228.14,0,0,1-29.89,2.31,278.38,278.38,0,0,1-31.5-1.28,172.94,172.94,0,0,1-22.89-4.23,208,208,0,0,1-22.39-7.39A208.46,208.46,0,0,1,163,170.23l-11.89-6.54c-3.57-1.95-7.32-3.65-11-5.46q-9.31-4.66-18.76-9c-4.66-2.14-9.44-4-14.28-5.75-5.36-1.87-10.72-3.77-16.14-5.44a77.31,77.31,0,0,0-16.68-3.33,62.93,62.93,0,0,0-15.62.91A74.29,74.29,0,0,0,44,139.69a49,49,0,0,0-13.28,7.54c-3.9,3.22-6.84,7.21-9.72,11.33-1.28,1.81-2.47,3.67-3.69,5.51-1.68,2.51-3.1,5.11-4.54,7.76a7.84,7.84,0,1,0,13.73,7.57c1.44-2.65,2.84-5.27,4.53-7.76s3.15-4.74,4.8-7.07A44.29,44.29,0,0,1,41,159a50.91,50.91,0,0,1,6.87-4,71.68,71.68,0,0,1,14.2-4.19A59.08,59.08,0,0,1,74,150.34a92.12,92.12,0,0,1,15,3.5c5.87,1.83,11.69,3.89,17.44,6,9.49,3.83,18.64,8.49,27.77,13.1,4.94,2.49,9.83,5,14.67,7.68,9,5,18,10.25,27.62,14.17,7.16,2.92,14.48,5.46,21.89,7.66a158.38,158.38,0,0,0,24.21,5,269.91,269.91,0,0,0,47.89,1.84,187.26,187.26,0,0,0,47.28-8c3.42-1.06,6.77-2.31,10.08-3.67.7,5.48,1.49,10.94,2,16.44a91.73,91.73,0,0,1-.14,17.3c-.3,2.39-.67,4.75-1.13,7.09l-1.45-.63c-5.65-2.47-11.3-4.91-17-7.24-7.14-2.92-14.3-5.78-21.54-8.42-7.75-2.84-15.67-5.21-23.61-7.42a160.21,160.21,0,0,0-47.44-6.19,103.87,103.87,0,0,0-22.16,3.34,89.86,89.86,0,0,0-21.9,8.95A75.28,75.28,0,0,0,143,252.74a56.88,56.88,0,0,0-5.7,20.82,50.78,50.78,0,0,0,2.95,22.36,55.61,55.61,0,0,0,10.84,17.65,46.1,46.1,0,0,0,7.66,6.84,73.16,73.16,0,0,0,10.83,6.71,70.42,70.42,0,0,0,20.07,6.3c3.63.63,7.32,1,11,1.4,4.39.46,8.78.85,13.19,1.1a127.41,127.41,0,0,0,47.1-6.34,137.51,137.51,0,0,0,39.92-21.34A152.07,152.07,0,0,0,317.07,294a128.46,128.46,0,0,0,14.56-18.16,92.1,92.1,0,0,0,7.53-13.29c18.74,8.12,37.71,15.77,57.39,21.26,31.35,8.75,64.3,12.59,96.77,9.68A301.58,301.58,0,0,0,541.1,285a292,292,0,0,0,28.69-9.08c5.58,4.15,11.06,8.42,16.26,13.05a156.63,156.63,0,0,1,16,16.64,116.89,116.89,0,0,1,13.78,22.23A96.08,96.08,0,0,1,622,348.43a88.82,88.82,0,0,1,.55,18.22A55.9,55.9,0,0,1,620,377.56,80.29,80.29,0,0,1,611.65,392a128.29,128.29,0,0,1-9.81,11.54,135.45,135.45,0,0,1-11.16,10.12A216,216,0,0,1,568,429.56a263,263,0,0,1-27.24,14.38,239.36,239.36,0,0,1-56.26,17.49,182.69,182.69,0,0,1-44.32,1.5,259.34,259.34,0,0,1-27.11-4.8c-5.11-1.18-10.15-2.68-15.17-4.21-3.83-1.17-7.71-2.3-11.49-3.61-7-2.44-14-4.88-21-7.31-4.38-1.76-8.79-3.45-13.13-5.31-6.79-2.91-13.55-5.84-20.45-8.49a191.63,191.63,0,0,0-21.32-6.84,73.2,73.2,0,0,0-11.88-1.65,99.3,99.3,0,0,0-13.25,0,123,123,0,0,0-22.89,3.6,91.54,91.54,0,0,0-22.77,9.17,99,99,0,0,0-17.86,13.23c-5.78,5.22-10.44,11.63-15.14,17.8-4.52,5.92-8.91,11.93-12.87,18.24-4.21,6.71-8,13.69-10.35,21.29a62.83,62.83,0,0,0-1.92,10.2c-.51,3.87-.9,7.76-1.21,11.65s-.33,8-.26,12c0,1.69.05,3.39.09,5.08a54.09,54.09,0,0,0,.92,7.5c.58,3.53,2.49,7,4.06,10.18a77.4,77.4,0,0,0,5.56,9,131.2,131.2,0,0,0,15.06,18,103.39,103.39,0,0,0,17,14,80.94,80.94,0,0,0,8.92,4.86c3.88,1.91,7.84,3.63,11.86,5.22a134.58,134.58,0,0,0,17.15,5.8l10.8,2.61c10.11,2.44,20.38,4.31,30.65,5.93,11,1.75,22.09,3.14,33.15,4.56,10.78,1.38,21.52,3,32.25,4.71,6.21,1,12.35,2.08,18.52,3.3,3.91.77,7.81,1.55,11.71,2.39a166.62,166.62,0,0,1,23.58,7.22q6,2.46,11.79,5.41A142.28,142.28,0,0,1,446,661.29c2.67,1.74,5.26,3.63,7.86,5.47l5.28,4c1.08.82,2.07,1.77,3.1,2.65,1.44,1.24,2.9,2.45,4.22,3.81.24.39.47.8.69,1.22a92.18,92.18,0,0,1,4.71,16.65c.71,3.46,1.43,6.91,2.09,10.37a54.25,54.25,0,0,1,0,11.18,138,138,0,0,1-5.9,27.12,46,46,0,0,1-4.16,7.16c-7.38,9.51-15.9,18.08-24.67,26.31-7.86,7.39-16.2,14.22-24.24,21.41-8.44,7.53-16.76,15.11-24.62,23.23a98.65,98.65,0,0,0-10.61,13.17,34.25,34.25,0,0,0-4.19,8.57,50.36,50.36,0,0,0-2.07,11,63.32,63.32,0,0,0-.15,10.12c.22,3.33.75,6.66,1.29,9.95.74,4.51,1.5,9,2.41,13.48a101.53,101.53,0,0,0,3.44,12.33c.6,1.78,1.37,3.51,2.07,5.25.92,2.29,1.85,4.56,2.63,6.9.9,2.68,1.6,5.4,2.31,8.12,1.07,4.06,1.87,8.22,2.79,12.32q.76,5.16,1.52,10.33c.51,3.38.7,6.8,1,10.2.3,3.56.55,7.11.77,10.67.1,1.75.21,3.51.32,5.27a104.21,104.21,0,0,1-.62,16.37,175.63,175.63,0,0,1-3.59,20.49c-1.06,4.38-2.31,8.7-3.54,13-1.49,5.16-3,10.32-4.46,15.48s-3,10.49-4.59,15.71a130.52,130.52,0,0,0-3.65,16.93,10.62,10.62,0,0,0,1.2,7.72,10.06,10.06,0,0,0,13.85,3.26,9.76,9.76,0,0,0,4.47-6.12c1-5.61,2.2-11.14,3.69-16.64,1.38-5,2.94-10,4.39-15s3-10.32,4.45-15.48c1-3.5,2-7,2.93-10.52a175.79,175.79,0,0,0,4.39-23.34c.91-7.4,1.69-15,1.24-22.47-.19-3.32-.4-6.64-.6-10-.15-2.27-.38-4.54-.58-6.82-.21-2.55-.29-5.15-.67-7.68q-.72-4.86-1.43-9.73c-.41-2.77-.76-5.58-1.37-8.32-.78-3.38-1.54-6.77-2.31-10.15a101.47,101.47,0,0,0-5.18-16.14c-.95-2.3-1.88-4.59-2.68-7-1-2.81-1.72-5.64-2.48-8.51-.64-2.4-1.12-4.93-1.53-7.38q-.57-3.43-1.15-6.88c-.34-2.61-.64-5.23-.83-7.86a48.89,48.89,0,0,1,.14-7.16,43.07,43.07,0,0,1,1.33-6.14,46.88,46.88,0,0,1,3.42-5.9c6.59-8.29,14.25-15.55,21.95-22.81s16.05-14.19,24.08-21.27c4.38-3.86,8.63-7.81,12.89-11.82,1.57-1.47,3.07-3,4.6-4.57,1.75-1.76,3.59-3.47,5.24-5.33,6.32-7.08,13-14.08,17.53-22.5a52.56,52.56,0,0,0,4.18-11.33c.71-2.61,1.33-5.23,1.93-7.86a135.46,135.46,0,0,0,3.2-23.7c.25-5.48-.8-10.85-1.91-16.19-.83-4-1.67-8-2.56-12a78.48,78.48,0,0,0-2.9-9.63,31.78,31.78,0,0,0-5.44-10c-2.45-2.86-5.57-5.19-8.44-7.63-2-1.73-4.29-3.24-6.42-4.85-3-2.3-6.23-4.4-9.37-6.58a140.5,140.5,0,0,0-14.18-8.65,160,160,0,0,0-22.73-9.45,173.7,173.7,0,0,0-21.17-5.75c-3.26-.67-6.53-1.3-9.8-1.94-10.89-2.14-21.86-3.77-32.83-5.38-16.38-2.39-32.84-4.15-49.18-6.73-7.85-1.23-15.64-2.67-23.42-4.33q-6.09-1.29-12.15-2.74l-6.62-1.59A109.36,109.36,0,0,1,250.33,594a110.81,110.81,0,0,1-20.8-10.7,118.88,118.88,0,0,1-18.36-17.8,96,96,0,0,1-10.38-15.79,31.62,31.62,0,0,1-1.56-4.86c-.32-3.81-.31-7.66-.32-11.48a120.06,120.06,0,0,1,.73-12.86A72.06,72.06,0,0,1,202.56,506a117.21,117.21,0,0,1,6.78-12.7c2.47-4.18,5.23-8.19,8.07-12.13,3.11-4.17,6.27-8.31,9.53-12.37a87.73,87.73,0,0,1,11.61-12,93.34,93.34,0,0,1,16.4-10.3,101,101,0,0,1,21.36-6.16,108.66,108.66,0,0,1,24.71-.82,110.44,110.44,0,0,1,16.15,4.19c4.44,1.38,8.8,3,13.14,4.68,4.57,2,9.1,4,13.7,5.84l9.51,3.82c2.44,1,4.9,2.07,7.4,2.94l19.45,6.73A283,283,0,0,0,418,478.09c7.71,1.52,15.47,2.61,23.27,3.41a159.6,159.6,0,0,0,25.12.4,209.68,209.68,0,0,0,47.65-8.44,274.52,274.52,0,0,0,44.21-17.54,227,227,0,0,0,39-24.11,194.15,194.15,0,0,0,16.66-14.33,126.39,126.39,0,0,0,15-18.26,72.33,72.33,0,0,0,9.68-19.47,55.37,55.37,0,0,0,2-11,91.8,91.8,0,0,0,.46-12.3A96.59,96.59,0,0,0,637.49,334a104.23,104.23,0,0,0-9.34-22.26C621,298.56,610.86,287.18,600,277c-3.36-3.16-6.93-6.1-10.57-8.94a184.23,184.23,0,0,0,37.84-21.74,106.7,106.7,0,0,0,8.43-7.17,66.06,66.06,0,0,0,6.87-7.89,111.46,111.46,0,0,0,19.37-41.4c1.84-8,2.6-16.31,3.38-24.5a141.77,141.77,0,0,0,.56-23.22,110.75,110.75,0,0,0-1.55-11.32A71,71,0,0,0,661.16,119,80.16,80.16,0,0,0,651,100.06a115.53,115.53,0,0,0-15.27-17.42,131,131,0,0,0-16.85-13.21A117.12,117.12,0,0,0,598.51,58.7a134.8,134.8,0,0,0-20.91-6.83,147.17,147.17,0,0,0-24.46-3.45c-15.61-1-31.28,1.35-46.4,5.1s-29.56,10.07-43.6,17a213.57,213.57,0,0,0-39.08,24.31l-1.08.87c0-.3,0-.61-.05-.91a34.34,34.34,0,0,0-2.61-10.46,36.61,36.61,0,0,0-6.61-10.88c-4.67-5.2-10.72-9-16.52-12.82a94.85,94.85,0,0,0-9.78-5.4,117.17,117.17,0,0,0-11.67-5.07,67.93,67.93,0,0,0-10.1-2.85,27.94,27.94,0,0,0-6.29-.52,37.42,37.42,0,0,0-5.13.5Zm7.07,16.4A57.8,57.8,0,0,1,372,66.64q6.28,2.63,12.3,5.84a105.69,105.69,0,0,1,12,7.67,47.07,47.07,0,0,1,5.36,4.8,36.23,36.23,0,0,1,3,4.93A40.76,40.76,0,0,1,406.22,95a28.84,28.84,0,0,1,.09,4.36,70.7,70.7,0,0,1-3.64,13.31,96.61,96.61,0,0,1-10.21,18.25,135.94,135.94,0,0,1-21.34,22.28,222.06,222.06,0,0,1-20.23,14.08q-4.74,3-9.6,5.69-.63-3.88-1.27-7.77c-1.38-11-2.63-22-3-33a229.62,229.62,0,0,1,.77-30.7,115.63,115.63,0,0,1,5.15-24,41.86,41.86,0,0,1,3.42-6.49,38.42,38.42,0,0,1,3.36-3.63,29.37,29.37,0,0,1,3.63-2.22,31,31,0,0,1,4.36-1.27,33.58,33.58,0,0,1,3.61-.12ZM542.5,65.89a124.84,124.84,0,0,1,16.74.65,133.07,133.07,0,0,1,30.09,7.33,123.72,123.72,0,0,1,24.42,13.36,118.55,118.55,0,0,1,19,17.82,92.79,92.79,0,0,1,10.67,16.79,73.13,73.13,0,0,1,4.13,14.61,105.9,105.9,0,0,1,1,15.83c0,5.89-.64,11.77-1.26,17.62-.54,4.64-1.2,9.25-2.1,13.84A89.21,89.21,0,0,1,641,198.15a110.48,110.48,0,0,1-11.2,20.75c-1.44,1.89-2.94,3.73-4.52,5.51a61.84,61.84,0,0,1-6.45,6.08,170.4,170.4,0,0,1-33.3,19.94q-6.25,2.77-12.61,5.29l-1.66-1.14L554.5,243.31q-12.59-8.51-25.14-17.07-36.41-25-72.6-50.2c-6.18-4.55-12.4-9-18.29-14-3.09-2.59-6-5.41-8.86-8.22-2.61-2.52-5.12-5.13-7.49-7.87a50.87,50.87,0,0,1-5.37-8.59,38.91,38.91,0,0,1-1.82-5.73c0-.57-.06-1.12-.06-1.68.1-.17.2-.34.31-.51,2.65-3.49,5.46-6.89,8.39-10.14a103.4,103.4,0,0,1,10.75-10.07c14.9-11.81,31.7-20.91,48.94-28.81a184.28,184.28,0,0,1,21.48-8,180.24,180.24,0,0,1,21.77-5,145.06,145.06,0,0,1,16-1.48ZM359.57,181.27c12.82-7.89,24.91-16.91,35.39-27.74q3.3-3.42,6.28-7.1l1,2a46.05,46.05,0,0,0,5.48,8.14,112.8,112.8,0,0,0,8.32,9.17,174.09,174.09,0,0,0,15.58,13.9c2.8,2.2,5.68,4.31,8.55,6.43,2.59,1.9,5.13,3.87,7.76,5.71l16.25,11.41c9.5,6.66,19.05,13.24,28.59,19.85q18.4,12.74,36.9,25.37c7.35,5,14.81,9.92,22.2,14.9l-2.69.86a298.09,298.09,0,0,1-40.55,9.54,254.17,254.17,0,0,1-31,2.88A254.37,254.37,0,0,1,444,275.12,286.84,286.84,0,0,1,406.55,268,330.1,330.1,0,0,1,369,255.71c-6.77-2.69-13.5-5.43-20.17-8.34L345,245.68a103.77,103.77,0,0,0,1.87-11.31c.43-3.74.73-7.48.85-11.25a86.29,86.29,0,0,0-.58-11.36c-.59-6-1.43-12.11-2.41-18.09-.2-1.18-.4-2.37-.59-3.55,5.27-2.74,10.4-5.74,15.45-8.85Zm-31.71,16.6V198a1.85,1.85,0,0,1,0,.23c0-.11,0-.22-.05-.34ZM236,227.18a185,185,0,0,1,28.37,6q14.32,4.1,28.2,9.5c7.2,2.85,14.37,5.78,21.47,8.88l9.08,4A108.66,108.66,0,0,1,314,270.61a129.51,129.51,0,0,1-20.17,20.9,140.29,140.29,0,0,1-27.18,17,131,131,0,0,1-29.17,8.83c-12,1.65-24,1.16-36-.06a93.34,93.34,0,0,1-19.86-4.1,67.55,67.55,0,0,1-11.73-6.44,51.27,51.27,0,0,1-6.9-6.44,54,54,0,0,1-5.4-8.76,46.66,46.66,0,0,1-2.36-7.59,52.7,52.7,0,0,1-.2-9.81,53.56,53.56,0,0,1,2.54-10.44,67.5,67.5,0,0,1,6.38-11.3,69.57,69.57,0,0,1,9.56-10,83.33,83.33,0,0,1,14.7-9.1,95.44,95.44,0,0,1,20.08-5.9,117.47,117.47,0,0,1,27.67-.19Zm274,46.31-.66.1.66-.1ZM200.21,317.12l.66.07-.66-.07Zm-.69,204.39c0,.23-.05.46-.07.68,0-.22.05-.45.07-.68Z"/><path class="cls-1" d="M322.26,988.62a9.55,9.55,0,0,0-2.61,6.77,10,10,0,0,0,3,6.63c5.68,6.31,11.11,12.83,16.59,19.32,4.59,6,9.22,12,13.72,18.12,4.87,6.62,10,13.3,13.68,20.7a75.21,75.21,0,0,1,3.06,9.8c.42,1.71.73,3.44,1,5.17.79,4.32,2.57,8.59,6.61,10.82,6.6,3.65,13-1.55,17.83-5.57,2-1.66,3.9-3.45,5.82-5.21q4.51-4.14,8.92-8.39c6.64-6.42,13.41-12.67,20.21-18.92,5.57-5.11,11.48-9.85,17.29-14.69,7.26-5.83,14.51-11.66,22-17.25,3.6-2.71,7.29-5.29,11-7.8a129.32,129.32,0,0,1,12.69-7.11,9.61,9.61,0,0,0,4.41-6,9.92,9.92,0,0,0-7.24-12,10.53,10.53,0,0,0-7.62,1.19,126.71,126.71,0,0,0-12.86,7.23c-4.44,3-8.75,6.09-13,9.3-8.26,6.22-16.36,12.71-24.28,19.36l-13.77,11.58c-1.42,1.19-2.74,2.52-4.1,3.77l-8.71,8.05c-3.71,3.41-7.28,6.95-10.89,10.46-2.57,2.51-5.18,5-7.8,7.41-.3-1.14-.62-2.27-1-3.4a63.66,63.66,0,0,0-3.51-8.19,76.18,76.18,0,0,0-6.85-10.94c-2.22-3.13-4.45-6.23-6.74-9.32-4.68-6.31-9.5-12.53-14.29-18.76-2.66-3.47-5.63-6.73-8.44-10.07-3.52-4.16-7.06-8.27-10.71-12.32a9.24,9.24,0,0,0-6.77-2.61,9.56,9.56,0,0,0-6.63,3Z"/></g></svg>