<svg viewBox="0 0 397.5 93.08" xmlns="http://www.w3.org/2000/svg" xmlns:xlink="http://www.w3.org/1999/xlink"><clipPath id="a" transform="translate(-3.53 -5.23)"><path d="m314 9.69h82.39v91.06h-82.39z" transform="matrix(.21183654 -.97730511 .97730511 .21183654 225.98 390.66)"/></clipPath><clipPath id="b" transform="translate(-3.53 -5.23)"><path d="m162.23 36.31h68v62h-68z"/></clipPath><clipPath id="c" transform="translate(-3.53 -5.23)"><path d="m5.23 5.32h71v70h-71z" transform="matrix(.98665754 -.16280937 .16280937 .98665754 -6.02 7.17)"/></clipPath><mask id="d" height="86.92" maskUnits="userSpaceOnUse" width="89.77" x="-4.97" y="-10.26"><g transform="translate(-3.53 -5.23)"><path d="m-1.43 7.78 77.53-12.78 12.24 74.1-77.54 12.8z"/><path d="m.08 12 72.02-11.87 11.34 68.72-72 11.89z" fill="#fff"/></g></mask><g clip-path="url(#a)"><path d="m309.08 58.88c1.48 28.26 42.53 42.53 59.71 37.73s42.37-32.44 28-56.52c-30.09-50.16-89.67-18.24-87.71 18.79z" fill="#50c5dc" transform="translate(-3.53 -5.23)"/><g fill="#2b6c78"><path d="m366.87 30.06c-2.45.65-2.31 3.55-3.27 5.43-3.38 10.73-13.94 6-9.71-4.2 1.26-3.56-1.12-3.87-3.95-4.34-3.14-.34-6.47-2.38-9.57-1.59-3.78-1.24-5.25 10.67-5.7 12.45-15.07-3.61-23.67 17.36-5.23 18.63-1.71 18.84-9.21 18 10.06 22.23 4.17 2 5-3.32 7.7-5.24 2.83-2.11 7.85-.75 8.74 2.87.73 1.76 0 4.54 2 5.6 3.87 1.47 7.93 1.72 12.06 3 7.55 3.53 6.06-9.58 7.65-14 12.76.74 16.7-15.52 3.32-18.56.94-4.34 2.08-8.63 2.75-13 .59-2 1.13-5.84.31-5.94l-4-.87c.05.04-8.78-2.08-13.16-2.47zm12.22 7.39c-.81 5.07-2.1 10-3.2 15.1-.8 3 .33 4.61 3.39 5 4.76.61 7.46 6.51 1.64 7.9-2.22.91-5.09-.69-7 1-2.16 3.86-1.69 9.06-2.89 13.34-2.91-.77-6.74-1.46-9.78-2.26-.81-11.42-15.05-13.39-20.51-4-3-.78-6-1.43-9-2.3.13-3.53 5.09-18.66.69-19.61-2.85-.41-6.71-.34-8.51-3-.05-10.41 12.17-2.66 14.39-8 .81-3.74 1.26-7.13 2.26-11.1 2.87.62 5.79 1.32 8.66 1.94-3.51 7.83 1.36 16.29 10.4 14.55 4.91-1.38 7.22-6.26 8.89-10.72 3.87.85 7.11 1.41 10.57 2.16z" transform="translate(-3.53 -5.23)"/><path d="m346.48 45.19c-3.12.86-1.88 6.09 1.33 4.48 2.44-1.29 1.61-5.17-1.33-4.48z" transform="translate(-3.53 -5.23)"/><path d="m347.06 55.38c-2.31.68-1.86 3.43-1 5.23 2.43 4.58 9 6.27 13.52 4h-.06c2.47-.79 5.07-5 1.73-6.4-2.68-.51-3.34 3.19-6.76 2.52-6.61-1.06-3.49-5.91-7.43-5.35z" transform="translate(-3.53 -5.23)"/><path d="m364.1 48.94c-2.86.64-2.72 5.49.55 4.87s3.12-5.68-.55-4.87z" transform="translate(-3.53 -5.23)"/></g><path d="m379.09 37.45c-3.55-.69-6.76-1.32-10.51-2.07-1.72 4.38-3.9 9.29-8.89 10.72-9 1.76-13.83-6.77-10.32-14.6-2.86-.62-5.78-1.32-8.65-1.95-.94 4-1.38 7.32-2.27 11.11-2.22 5.38-14.52-2.31-14.39 8.05 1.74 2.62 5.61 2.48 8.51 3 4.4 1-.55 16.08-.69 19.61 3 .93 6 1.58 9 2.3 5.47-9.43 19.64-7.47 20.51 4 3.06.73 6.89 1.42 9.78 2.26 1.14-4.29.73-9.48 2.89-13.34 1.9-1.69 4.77-.09 7-1 5.82-1.39 3.12-7.29-1.64-7.9-3.06-.38-4.25-2-3.38-5 1-5.09 2.25-10 3.06-15.12zm-15.48 16.34c-3.16-.89-1.14-5.69 1.68-4.87 3.36.94 1.31 5.59-1.68 4.87zm-17.46-3.85c-3.28-1-.72-6.37 2.21-4.41 2.15 1.37.17 5-2.21 4.41zm7 15.55c-12.21-2.93-7.09-14.67-3.66-8.55a5.49 5.49 0 0 0 1.43 2.41c2 1.47 5.22 2 7.29.53 1-2.5 4.89-1.94 4.63.86a5.34 5.34 0 0 1 -3.37 3.95h.07a11.5 11.5 0 0 1 -6.43.8z" fill="#fff" transform="translate(-3.53 -5.23)"/></g><g clip-path="url(#b)"><path d="m229.8 61c-5.55-39.88-76.12-28-66.72 11.62 8.98 40.84 73.04 30.06 66.72-11.62zm-14.31 32.28s0 0 .06 0-.06-.03-.06 0z" fill="#ff4143" transform="translate(-3.53 -5.23)"/><g fill="#50c5dc"><path d="m203.31 84.29a1.43 1.43 0 0 0 -.43 1 7.13 7.13 0 0 0 2.6-1.22 1.67 1.67 0 0 0 -2.17.22z" transform="translate(-3.53 -5.23)"/><path d="m197.78 44.11c.12 1.36-.62 3.1.28 4.25 2.93 2.09 3-2.37 3-4.28.07-2.08-3.29-2.08-3.28.03z" transform="translate(-3.53 -5.23)"/><path d="m178 49.06c-1.32 1.35.22 2.63 1.37 3.34 1.27 1.49 3.84 1.27 3.45-1.09-.33-.8-1.16-1.19-1.8-1.7-.82-.81-2.08-1.53-3.02-.55z" transform="translate(-3.53 -5.23)"/><path d="m218.26 55.62c-2.47.17-7.29 2.53-2.77 4.28 1.68-.64 5.45-.45 4.91-3.1a1.71 1.71 0 0 0 -2.14-1.18z" transform="translate(-3.53 -5.23)"/><path d="m174.47 66.72c-2.16.51-7.59 3.58-3.12 5 1.81-.89 4.55-1.36 5.59-3.09a1.71 1.71 0 0 0 -2.47-1.91z" transform="translate(-3.53 -5.23)"/><path d="m213.62 74.55c-.59 3.94 8.58 2.71 4-.6-1.33-.38-3.47-1.3-4 .6z" transform="translate(-3.53 -5.23)"/><path d="m180.85 83.84c-1.19 1.49-2.63 5.08.61 4.7 1.3-.36 1.47-2.08 2.25-3 1.13-1.89-1.86-3.54-2.86-1.7z" transform="translate(-3.53 -5.23)"/><path d="m203.31 84.29c-.87 1.33-.67 5.79 1.89 5.19s1.03-7.85-1.89-5.19z" transform="translate(-3.53 -5.23)"/><path d="m178 49.06c-1.32 1.35.22 2.63 1.37 3.34 1.27 1.49 3.84 1.27 3.45-1.09-.33-.8-1.16-1.19-1.8-1.7-.82-.81-2.08-1.53-3.02-.55z" transform="translate(-3.53 -5.23)"/><path d="m198.33 48.64a1.58 1.58 0 0 0 1.71.09 5 5 0 0 0 -1.71-.09z" transform="translate(-3.53 -5.23)"/><path d="m215 56.5a1.73 1.73 0 0 0 .46 3.39c1.5-.56 3.69-.38 4.73-1.76a15.34 15.34 0 0 0 -2.38-2.45c-.81.24-1.74.48-2.81.82z" transform="translate(-3.53 -5.23)"/><path d="m174.47 66.72c-2.16.51-7.59 3.58-3.12 5 1.81-.89 4.55-1.36 5.59-3.09a1.71 1.71 0 0 0 -2.47-1.91z" transform="translate(-3.53 -5.23)"/><path d="m213.62 74.55c-.59 3.94 8.58 2.71 4-.6-1.33-.38-3.47-1.3-4 .6z" transform="translate(-3.53 -5.23)"/><path d="m180.85 83.84c-1.19 1.49-2.63 5.08.61 4.7 1.3-.36 1.47-2.08 2.25-3 1.13-1.89-1.86-3.54-2.86-1.7z" transform="translate(-3.53 -5.23)"/><path d="m203.31 84.29c-.87 1.33-.67 5.79 1.89 5.19s1.03-7.85-1.89-5.19z" transform="translate(-3.53 -5.23)"/></g><path d="m195.83 52.46c-21 1.43-18.62 34.35 3.69 29.5 19.48-2.55 16.48-32.32-3.69-29.5zm-4.83 5.13c12.6-6.86 24.72 9.28 13.67 18.36-14.03 9.8-28.1-9.11-13.67-18.36z" fill="#8b0f26" transform="translate(-3.53 -5.23)"/><path d="m190.7 64c0 2.43 3.82 2.43 3.79 0s-3.82-2.41-3.79 0z" fill="#8b0f26" transform="translate(-3.53 -5.23)"/><path d="m200.23 64c0 2.31 3.63 2.31 3.6 0s-3.63-2.38-3.6 0z" fill="#8b0f26" transform="translate(-3.53 -5.23)"/><path d="m201.51 68.79c-5.65 8.46-9.31-5-10.84 2.18.86 3.8 3.67 4.25 6.05 4.68 5.06.91 10.53-6.13 4.27-7zm-7.17 2.15s0 .09.06.12-.06-.06-.06-.12z" fill="#8b0f26" transform="translate(-3.53 -5.23)"/><path d="m197.78 44.11c.12 1.36-.62 3.1.28 4.25 2.93 2.09 3-2.37 3-4.28.07-2.08-3.29-2.08-3.28.03z" fill="#fff" transform="translate(-3.53 -5.23)"/><path d="m178 49.06c-1.32 1.35.22 2.63 1.37 3.34 1.27 1.49 3.84 1.27 3.45-1.09-.33-.8-1.16-1.19-1.8-1.7-.82-.81-2.08-1.53-3.02-.55z" fill="#fff" transform="translate(-3.53 -5.23)"/><path d="m174.47 66.72c-2.16.51-7.59 3.58-3.12 5 1.81-.89 4.55-1.36 5.59-3.09a1.71 1.71 0 0 0 -2.47-1.91z" fill="#fff" transform="translate(-3.53 -5.23)"/><path d="m180.85 83.84c-1.19 1.49-2.63 5.08.61 4.7 1.3-.36 1.47-2.08 2.25-3 1.13-1.89-1.86-3.54-2.86-1.7z" fill="#fff" transform="translate(-3.53 -5.23)"/><path d="m203.31 84.29c-.87 1.33-.67 5.79 1.89 5.19s1.03-7.85-1.89-5.19z" fill="#fff" transform="translate(-3.53 -5.23)"/><path d="m213.62 74.55c-.59 3.94 8.58 2.71 4-.6-1.33-.38-3.47-1.3-4 .6z" fill="#fff" transform="translate(-3.53 -5.23)"/><path d="m218.26 55.62c-2.47.17-7.29 2.53-2.77 4.28 1.68-.64 5.45-.45 4.91-3.1a1.71 1.71 0 0 0 -2.14-1.18z" fill="#fff" transform="translate(-3.53 -5.23)"/></g><g clip-path="url(#c)"><g fill-rule="evenodd" mask="url(#d)"><path d="m21.69 70.12c3.15 2.28 19.37 5 24.15 4.82 30.72-5.42 40.7-38.1 18.83-60.28-38.29-31.66-81.52 24.02-42.98 55.46z" fill="#fcb415" transform="translate(-3.53 -5.23)"/><path d="m52.2 32.94a.15.15 0 0 0 .12 0c-.05.06-.06.06-.12 0z" fill="#9e6418" transform="translate(-3.53 -5.23)"/><path d="m12 56.49 5.6.65 11.53-.86 6.55 9.89 2.85-2.34 3.84-8.92 24.1-3.56s6.09-3 5.92-4-.64-10.22-.64-10.22l-5.57-16.83-43.83 1.64-12.2 3.47s-3.83 5.53-4.31 6.14 0 7.71 0 7.71z" fill="#fff" transform="translate(-3.53 -5.23)"/><g fill="#9e6418"><path d="m72.71 29.08c-1.79-4.89-4.37-11.06-10-12.18-5.96 1.28-57.04 2.1-59.13 14.61-.58 2.85 5.1 24.95 7.42 26.78 4.51 3.16 13 .31 18.1.4 8.91 15.1 9.47 11.5 15-2.59 18.7-2.68 38.59-1.24 28.61-27.02zm-11.85 20.63c4.24-.58 10.53-2.71 10.34-8.07-.61-6.9-2.4-15.59-7.9-20.22-2.14-1.05-4.89-.54-7.12-.4-15.27 2.05-32.61.25-46.2 8.27-4.22 3.15-1.57 9.07-.91 13.39 1.41 4 1.7 10.69 5.75 12.76 4.38 1.32 13.54-2.7 16.88 0 2.47 2 3.24 6 5.55 8.42 2.94-2.47 2-12 5.18-11.65 6.33-.85 12.19-1.41 18.43-2.5zm-22.92 15.22.13.09c.01.06-.07-.02-.13-.09z" transform="translate(-3.53 -5.23)"/><path d="m43.84 28.89c-9 1.19-18.07 2.23-27.12 3.08-2.62.25-1.83 4.33.84 4.06 9.06-.8 18.14-1.83 27.12-3.08 2.66-.38 1.81-4.44-.84-4.06z" transform="translate(-3.53 -5.23)"/><path d="m51.59 31.7c2.27-.26 7.27-.39 5.95-3.85-1.31-2.35-3.83-.12-5.71-.28-2.68-.14-2.93 3.99-.24 4.13z" transform="translate(-3.53 -5.23)"/><path d="m38.28 39.32c-6.65 1-13.26 2.3-19.82 3.91-2.56.6-1.76 4.73.85 4.06 6.55-1.6 13.16-2.87 19.81-3.91 2.66-.38 1.75-4.49-.84-4.06z" transform="translate(-3.53 -5.23)"/><path d="m62.9 36.48c-6 .69-11.9 1.5-17.77 2.35-2.65.38-1.8 4.5.85 4.06 5.93-.86 11.86-1.67 17.76-2.35 2.66-.32 1.76-4.37-.84-4.06z" transform="translate(-3.53 -5.23)"/></g></g></g></svg>