<svg viewBox="0 0 263.44 129.51" xmlns="http://www.w3.org/2000/svg"><g fill-rule="evenodd"><g fill="#eaeced"><path d="m263.42 6.44c-.2-1.1-.3-5-1.2-5.8-1.6-1.5-1.9-.1-2 1.5 0 .9.3 4.1 1.1 4.8.6.5 2.3.9 2.1-.5z"/><path d="m262.42 21.14c.2-1.4 1.2-5.4.5-6.7-1.1-2.1-1.9-.5-2.3 1-.3.9-.9 4.9-.3 5.7.3.5 1.9 1.5 2.1 0z"/><path d="m259 31c.4-1.1.7-4.4-1.4-3.5-.8.4-1.2 2.8-1.4 3.6-.2 1-1.3 2.8.9 2.6.9.04 1.72-2.06 1.9-2.7z"/><path d="m252.32 39.54c-1.4-1.3-7.7 4.8-5.3 6 1.2.6 6.9-4.54 5.3-6z"/><path d="m232.32 53.54c.3-.6 9-5.2 9.9-3.8 1.4 2.26-11.8 8.26-9.9 3.8z"/><path d="m224.12 54.54c-.6-2.1-8 .9-7.7 2.9.5 2.2 8.3-.9 7.7-2.9z"/><path d="m209.72 58.54c-.9-1.5-9.9 3.1-8.8 4.8.9 1.6 9.9-2.9 8.8-4.8z"/><path d="m191.82 65.64c-.9-1.4-10.7 3.1-10.3 4.7.48 2.2 11.8-2.5 10.3-4.7z"/><path d="m173.92 73.84c-1-1.7-12.4 4.3-10 6.1 1.3 1 11.2-4.2 10-6.1z"/><path d="m160.92 86.24c-.1-2.8-3 .3-3.6 1-.7.9-3.4 3.8-3.3 4.9.5 3.7 6.9-4.1 6.9-5.9z"/><path d="m155 109.74c-.2-2.2.1-5.1-.5-7.2-.5-1.4-1.4-2.9-2.4-.7-.6 1.2.2 5 .5 6.4.1.8-.2 2.3.9 2.5.62.1 1.62-.2 1.5-1z"/><path d="m164.22 123.84c0-1.7-6.9-8.9-6.8-4.7 0 1.4 7 7.86 6.8 4.7z"/><path d="m183.92 126c-.1-1.7-12.2-1.2-11.3 1.5.38 1.24 11.38.64 11.3-1.5z"/><path d="m197.92 119.54c.7-3.2-8 1.2-7.7 3.4.4 2.7 7.4-1.94 7.7-3.4z"/><path d="m206.12 107.44c.6-1.2 2.3-5 .7-5.9-2.4-1.4-2.6 3.4-3.3 4.7s-3.6 3.5-2.2 5.1c1.6 1.8 4.3-2.9 4.8-3.9z"/><path d="m204.22 90.84a16.69 16.69 0 0 0 -1.6-7c-.9-2-2.8-3.3-2.7-.1a26.81 26.81 0 0 0 1.8 6.3c.3.8-.3 2.2 1.3 2.1a1.38 1.38 0 0 0 1.2-1.3z"/><path d="m196.92 74.94c-.6-1.3-4.1-7.9-4.2-2.9 0 .2 1.5 3.5 1.6 3.7.8.6 3.5 1.2 2.6-.8z"/><path d="m187.92 60.34c.4-1.6-3.5-4.9-4.8-5.5-2-.8-3.1-.2-1.9 1.7.5.9 6.1 6.7 6.7 3.8z"/><path d="m173.12 50.74c.5-2.1-6.5-2.5-7.9-2.7-.9-.2-9.1-2.4-8.3.1.6 1.8 15.7 4.4 16.2 2.6z"/><path d="m151.72 46.64c.8-3.4-9.5-1.7-10.9-1.4s-4.3.6-3 2.6c.8 1.1 3.3 0 4.3-.2 1.6-.3 9.2.6 9.6-1z"/><path d="m131.92 48.14c-.9-1.5-10.8 3.1-10.2 4.9.8 2.2 11.6-2.7 10.2-4.9z"/><path d="m116.72 57c1.5-1.1 0-2.4-1.4-2.2a7.83 7.83 0 0 0 -2 1.6c-1.1 1.7-.7.9.4 2.9 1-.76 2.1-1.56 3-2.3z"/></g><path d="m61.52 100.74v.1c-.3-6.19-.34-12.44-.3-18.6a41.79 41.79 0 0 0 -.4-9.1c-.71-1.62-2.49-3.5-4.3-3.6a137.39 137.39 0 0 0 -29.7-1.54c-6.65.51-20.51-.94-25.1 4.4-1.87 4.22-2.72 32.6.1 35.74 3 2.12 7.41 1.34 10.9 1.5a43.56 43.56 0 0 0 9.4.7c-1.63 5.35-3.06 10.65-5.1 15.8a6.7 6.7 0 0 0 -.6 1.1c-.26 1.52 1.72 3.07 2.9 1.8.45-.47.89-1.34 1.4-1.8 4.36-5.67 9.13-11.09 13.4-16.8 6.17-.42 12.78-.35 18.9-1.1 6.4.82 9.27-2.14 8.5-8.6z" fill="#50c5dc"/><path d="m34.12 77.74c.2.1.4.1.6.2a4.88 4.88 0 0 1 .7.3 1.34 1.34 0 0 1 .7.6 3.77 3.77 0 0 1 .9 1.5 5.09 5.09 0 0 1 .2 3 2.79 2.79 0 0 1 -1.2 1.8 1.61 1.61 0 0 1 -.9.3c-.1.1-.2 0-.4 0s-.6.1-.9-.1a2.4 2.4 0 0 1 -1.2-.7 3.11 3.11 0 0 1 -.7-.9 3.55 3.55 0 0 1 -.4-.9 3.81 3.81 0 0 1 -.3-1.8 3.38 3.38 0 0 1 .9-2.5 2.47 2.47 0 0 1 1.6-.8z" fill="#fff"/><path d="m25 78.74a5.71 5.71 0 0 1 1.4 1.3 6.39 6.39 0 0 1 .8 1.9 3.66 3.66 0 0 1 -.3 2.7 2.11 2.11 0 0 1 -1.6 1.3 3.42 3.42 0 0 1 -1.7-.3 3.45 3.45 0 0 1 -1.2-1.2 3.77 3.77 0 0 1 -.7-2.1 1.27 1.27 0 0 1 -.1-.6v-.1a3.24 3.24 0 0 1 .8-2.3l.2-.2.1-.1c.4-.3.5-.6 1.1-.6h.3a1.9 1.9 0 0 1 .9.3" fill="#fff"/><path d="m21 89.84c.4.5.8 1.1 1.1 1.5a12 12 0 0 0 1.2 1.1 23.92 23.92 0 0 0 2.1 1.3 7.74 7.74 0 0 0 1.6.7 4.67 4.67 0 0 0 1.7.3 22.75 22.75 0 0 0 2.6-.2 14.35 14.35 0 0 0 2.2-.4c.2-.1.5-.2.7-.3a12.9 12.9 0 0 0 1.6-.9 1.38 1.38 0 0 1 .4-.3l.3-.3c.1-.1.2-.2.3-.2l.2-.2c.1-.1.1-.2.2-.2a2.07 2.07 0 0 1 1.3-.9 2.28 2.28 0 0 1 1.9.7 3.86 3.86 0 0 1 1.1 2.2 4.35 4.35 0 0 1 -.3 2.5 14.8 14.8 0 0 0 -.8 1.3c-.1.1-.2.2-.2.3s-.1.1-.1.2a2.65 2.65 0 0 1 -.6.5l-.1.1a12.55 12.55 0 0 1 -1.7 1.3 10.09 10.09 0 0 1 -1.5.7c-.6.2-1.2.5-1.8.7a16.21 16.21 0 0 1 -2 .3 19.42 19.42 0 0 1 -2.4.2 7.84 7.84 0 0 1 -2.2-.2 8.26 8.26 0 0 1 -2.2-.8 14.59 14.59 0 0 1 -3-1.6 12.11 12.11 0 0 1 -3-2.5 7.55 7.55 0 0 1 -1.1-1.4l-.3-.6a4.28 4.28 0 0 1 -.3-4.1 2.17 2.17 0 0 1 1.5-1.3h.3a1.55 1.55 0 0 1 1.3.5" fill="#fff"/></g></svg>