<svg viewBox="0 0 355.2 166.82" xmlns="http://www.w3.org/2000/svg"><g fill="#eaeced"><path d="m292.8 41.15-87.61 35.64 23.64 17.52.32 19.49 10.74-10.91 20 14.87zm-71.38 43.58c1.18-.79 60.06-34 63.15-35.43 5.9-.1-41.5 46.8-41.18 48.63-.09 0-5.75-2-5.83-2-1.16-2 41.4-39.63 40.69-40.48s-49.36 31-50.95 32.39c-.63-.34-5.73-2.99-5.88-3.11z"/><path d="m19.42 134.81c.75.17-13.8-2-11-3.89 17.89 2.27 134.24 35.14 157.72 15-17.33-2.3-24.51-28.09-4.53-30.12 12.09 1.57 15.22 14.61 7.86 28.68 18.93 1.62 39.61-7.5 54.13-20.05.75 0 1.69 1 .88 1.68-15.3 13.63-35.86 22-56.17 20.13-15.26 23.91-149.64-11.61-148.89-11.43zm141.8-17c-17.85 3-8.05 25.4 6.07 26.32 6.11-9.01 5.92-25.13-6.07-26.37z"/><path d="m315.65 24.83c-5.69-1.81 4-8 5.29-10.59.68-.61 2.16-2.88 3.16-2.89 6.2 1.47-4.52 8.8-5.81 11.44-.66.67-1.59 2.16-2.64 2z"/><path d="m262.81 21.08c-4.52.13-1.77-14.76-2.89-18.49-.44-3 4.06-3.5 4.42-.67-.34 3.97 3.26 18.75-1.53 19.16z"/><path d="m212.16 31.38c-.85 0-1.79-.83-2.52-1.19-2.18-1.86-12.31-5.32-6.71-8.35 3.75 1.05 7.06 4.15 10.6 5.9a2.1 2.1 0 0 1 -1.37 3.64z"/><path d="m184.54 82.65c-2.65-1.4-13.25-2.6-12.26-6.15 3.29-2.81 9.06 2.11 13 2.63a1.86 1.86 0 0 1 -.73 3.52z"/><path d="m250.18 150.92c-4-1.39-1.77-8.34-2.85-11.78-.37-1.56.23-3.55 2.12-3.31 1.46.12 1.91 1.65 1.84 2.91-.6 3.33 3.05 11-1.11 12.18z"/><path d="m308 128.31c-2.11-1.35-14.9-5.08-9.09-7.45 1.97 1.14 14.92 5.14 9.09 7.45z"/><path d="m333 81.13c-6.08-1.51-13.13-1.63-18.69-4.15-3-7.43 14.64 0 18.84-.12 2.65.29 2.34 4.22-.15 4.27z"/></g></svg>