<svg viewBox="0 0 260.68 166.82" xmlns="http://www.w3.org/2000/svg"><g fill="#caccce"><path d="m177.55 41.15-87.61 35.64 23.64 17.52.32 19.49 10.74-10.91 20 14.87zm-71.38 43.58c1.18-.79 60.06-34 63.15-35.43 5.9-.1-41.5 46.8-41.18 48.63-.09 0-5.75-2-5.83-2-1.16-2 41.4-39.63 40.69-40.48s-49.36 31-50.95 32.39c-.63-.34-5.73-2.99-5.88-3.11z"/><path d="m14.36 163.13c-.95-.33-17.83.73-13.55-2.82 17.89 2.26 39.77.69 50.06-14.41-17.33-2.3-24.51-28.09-4.53-30.12 12.09 1.57 15.22 14.61 7.86 28.68 18.93 1.62 39.61-7.5 54.13-20.05.75 0 1.69 1 .88 1.68-15.3 13.63-35.86 22-56.17 20.13-8.93 12.61-20.82 16.62-38.68 16.91zm31.64-45.37c-17.86 3-8 25.4 6.07 26.32 6.08-8.96 5.93-25.08-6.07-26.32z"/><path d="m200.4 24.83c-5.69-1.81 3.95-8 5.28-10.59.69-.61 2.17-2.88 3.17-2.89 6.2 1.47-4.52 8.8-5.81 11.44-.67.67-1.59 2.16-2.64 2z"/><path d="m147.56 21.08c-4.53.13-1.77-14.76-2.89-18.49-.45-3 4.06-3.5 4.42-.67-.34 3.97 3.26 18.75-1.53 19.16z"/><path d="m96.91 31.38c-.85 0-1.79-.83-2.52-1.19-2.18-1.86-12.31-5.32-6.71-8.35 3.75 1.05 7.06 4.15 10.6 5.9a2.1 2.1 0 0 1 -1.37 3.64z"/><path d="m69.28 82.65c-2.64-1.4-13.28-2.6-12.28-6.15 3.29-2.81 9.06 2.11 13 2.63a1.86 1.86 0 0 1 -.73 3.52z"/><path d="m134.93 150.92c-4-1.39-1.77-8.34-2.85-11.78-.37-1.56.23-3.55 2.12-3.31 1.45.12 1.91 1.65 1.84 2.91-.6 3.33 3.05 11-1.11 12.18z"/><path d="m192.77 128.31c-2.11-1.35-14.9-5.08-9.09-7.45 1.95 1.14 14.9 5.14 9.09 7.45z"/><path d="m217.72 81.13c-6.08-1.51-13.13-1.63-18.72-4.13-3.05-7.43 14.64 0 18.84-.12 2.65.29 2.34 4.22-.15 4.27z"/></g></svg>