<svg enable-background="new 0 0 1517.4 691.8" viewBox="0 0 1517.4 691.8" xmlns="http://www.w3.org/2000/svg"><path d="m254.7 92.1c6 3.9 13.3-11.1 17.8-14.6 1.8-2.3.4-5.9-2.5-6.2-6.7 1.7-10.6 10.8-15.9 15.2-1.4 1.8-1.1 4.2.6 5.6z" fill="#eaebec"/><path d="m177.8 70.8c.9 5.1-1.5 11.8 2.1 15.9 3.2 2.6 8.1-.3 7.5-4.3-.3-7.7-.2-15.5-1.1-23.2-.4-3.8-5.6-5.2-8-2.2-2.1 4.1 0 9.4-.5 13.8z" fill="#eaebec"/><path d="m96.4 93.4c5.1 2.8 10 7.8 15.8 8.7 11.6-5.4-6.3-11.8-10.6-15.2-4.3-3.3-9.4 3.3-5.2 6.5z" fill="#eaebec"/><path d="m74.1 166.9c-5.9-1.5-11.8-5.5-17.9-5-9.2 7.6 10.3 9.6 14.7 12.2 4.8 2 7.9-5.3 3.2-7.2z" fill="#eaebec"/><path d="m91.7 232c-5.9-3.3-10.6 8.3-14.7 11.5-1.2 1.7-.9 4 .8 5.3 5.9 3.1 10.3-8.4 14.5-11.5 1.3-1.6 1-4-.6-5.3z" fill="#eaebec"/><path d="m167.8 250.2c-.3-2.2-2.4-3.8-4.6-3.6-7.2 2.1-1.6 14.7-2.2 20.3.6 5.3 9 4.2 8.2-1.1-.6-5.1-1-10.3-1.4-15.6z" fill="#eaebec"/><path d="m247.8 232.1c-4.8-1.2-13.8-10.1-17.4-4.5-1.7 6.1 10.9 7.6 14.7 10.8 4.1 1.9 6.8-4.5 2.7-6.3z" fill="#eaebec"/><path d="m284.9 165.3c-7.7-4.3-18-3.9-26.6-6.4-2.4-.2-4.6 1.4-4.9 3.8-1.3 7.7 21.8 7.2 27.5 9.6 3.6.5 6.3-4 4-7z" fill="#eaebec"/><path d="m237.1 117.5c1.4-3.3-.4-7.2-3.8-8.2-3.4-4.4-21.7-.6-27.4-.2-12.5.8-25.3.7-37.8 2.8-4.7.8-9.5 1.2-13.9 3-2.3-.6-4.7.6-5.6 2.8-6.8 17.3-13 34.7-20.4 51.8-.7-.2-1.2-.7-1.8-1-4.5-3.5-10.5-4.7-15.9-2.6-4 .5-9.3.5-10.9 5-23.2 24.7 19.3 51.4 33.4 20.1 5.5-12.5 10-25.7 15.2-38.4 20.5-2.6 41.1-4.2 61.7-6.4-4.2 9.7-8.4 19.3-12 29.2-12.9-8-31.1.4-34.6 14.8-2.3 25.5 36.1 26.8 42.9 4.8 8.6-26.4 21.4-51.5 30.9-77.5zm-78.1 8.1c20.9-4.2 42.8-2.9 63.9-6.5-2.6 4.6-5 9.3-7.2 14.1-20.6.2-42.3 1.8-62.6 5.6 1.6-4.5 3.6-8.9 5.9-13.2zm-45.1 64.1c-11.3-.8-3.9-10.1 3.7-9.7 3.9 2.8-.5 8.4-3.7 9.7zm68.9 6.4c-2.4-.2-5.3-1.3-6.1-3.8 1.4-6.1 10.9-8.9 16-5.8-2.6 3.8-5.5 8-9.9 9.6z" fill="#eaebec"/><g fill="#eaeced"><path d="m1161.3 535.2c-.4 2.5-2.8 10.7-1.5 12.9 2.3 4.2 3.9 1.7 5-1.8.6-1.9 2-8.8 1-10.7-.8-1.4-4.1-3.5-4.5-.4z"/><path d="m1173.1 505c-1.3 2.9-6.1 10.7-5.6 13.7 2.3 9.7 10.6-9.3 9.9-12.1-.4-1.5-2.9-4.7-4.3-1.6z"/><path d="m1186.7 486.6c-6.2 10.1 2.2 11.2 5.9 1.6 1.2-2.1 4.6-4.9-.2-6.1-1.8-.5-4.8 3.3-5.7 4.5z"/><path d="m1206.4 473.1c2.1 3.8 19.2-4.8 14.9-9-2.1-2-17.2 4.8-14.9 9z"/><path d="m1234.1 458.5c.9 3.5 21.9 0 22.9-1.2 6.9-8-24.3-4.4-22.9 1.2z"/><path d="m1274.5 460.9c-.1 4.9 17 3.5 17.7-.8.8-5-17.6-3.7-17.7.8z"/><path d="m1307.1 462.3c.9 3.9 22.5.2 21.5-4-1-4-22.6-.8-21.5 4z"/><path d="m1348.6 459.7c.9 3.7 24 .8 24.5-2.8.5-5-25.9-2.9-24.5 2.8z"/><path d="m1391.2 454.6c1.1 4.3 28.5-.4 24.6-6-2-2.9-25.8 1.2-24.6 6z"/><path d="m1426.4 437.4c-2.2 8.9 17.9-5 18.1-7.8 1.3-8-17.1 4-18.1 7.8z"/><path d="m1454.3 392.1c-1.1 3-8.3 26.2.7 18.6 2-2.2 2.8-10.8 3.4-13.8.3-1.8 1.9-4.8-.2-6-1.2-.7-3.5-.7-3.9 1.2z"/><path d="m1444.7 356.1c-1 3.6 8.4 23.4 10.9 14.5.9-3-9-21.4-10.9-14.5z"/><path d="m1405.5 338.1c-1 3.7 24.4 10.8 24.4 4.6-.1-3.1-23.2-9.2-24.4-4.6z"/><path d="m1372.3 342.1c-3.6 6.2 17.4 2.9 18.2-2 .9-5.9-16.5-.9-18.2 2z"/><path d="m1347.3 361.9c-2.1 2.1-8.1 9-5.5 12 4 4.7 7.6-5.2 10-7.6s9.7-4.9 8-9.1c-2-5.1-10.7 2.9-12.5 4.7z"/><path d="m1340 398.2c-3 3.4-1.6 31.7 4.1 18 .9-3.3.9-11.1.6-14.6-.2-1.8 2.1-4.5-1.3-5.3-1.4-.3-2.9.5-3.4 1.9z"/><path d="m1344.4 436.7c.3 3.2 3.2 19.4 6.6 9-.1-3-.5-6-1-8.9-1-1.8-6.1-5-5.6-.1z"/><path d="m1353.1 473.4c-3.4 4.3 12.7 26 11.5 12.6-.5-2.1-8.2-18.2-11.5-12.6z"/><path d="m1377.5 503.9c-2.4 4.2 11.8 9.6 14.4 11 1.8 1 17.2 11.2 17.2 5.5 0-4.2-29.5-20.1-31.6-16.5z"/><path d="m1418.7 527c-3.8 6.5 18.5 10 21.6 10.3 2.9.3 9.4 1.5 8-3.3-.8-2.8-6.8-2.2-9-2.5-3.5-.5-18.7-7.6-20.6-4.5z"/><path d="m1460.6 537.4c.9 3.8 24.3.8 24.2-3.5 0-5-25.5-2.1-24.2 3.5z"/><path d="m1498 529.2c-3.8 1.4-1.7 5 1.4 5.5.8.1 4.6-1.4 5.3-2 3.4-2.7 2.1-1.5 1.1-6.4z"/></g><path d="m237.4 473.7c-5.9-5.4-18.5 11.2-22 15.8-.8 1.2-.5 2.8.7 3.6 3.7 1.9 5.1-3.8 7.5-5.6 2.2-2.7 4.8-5.2 7.6-7.4 2.2-2 7.8-2.6 6.2-6.4z" fill="#eaebec"/><path d="m208.4 501.3c-4.9-.8-6.9 12.9-9.8 16.5-1.5 1.9-.3 5.1 2.3 4.5 4.9-4.1 6-12.2 9.1-17.8.5-1.3-.3-2.8-1.6-3.2z" fill="#eaebec"/><path d="m196 532.5c-.9-2-4.2-1.8-4.8.4-.8 5.6-3.3 11.4-3 17 .9 2 4.1 1.8 4.7-.4.7-5.6 3.5-11.4 3.1-17z" fill="#eaebec"/><path d="m187.8 560.9c-6.3-4.4-5.2 13.3-7 16.7-.8 2.6-1.8 8 2.7 6.6 1.9-1.3 5.6-21.2 4.3-23.3z" fill="#eaebec"/><path d="m178.4 593.6c-5.4-7.2-10.4 15-13.1 18.2-1.2 3.3 4 5.1 5.1 1.7 2.2-6.5 7.8-13.1 8-19.9z" fill="#eaebec"/><path d="m156.9 623c-3.8-2.8-7.2 3.8-10.5 5.3-2.1 2.4-10.2 5.1-8.6 8.7 3.2 4 7.7-2.7 10.9-4.1 2.4-2.9 10.7-5.4 8.2-9.9z" fill="#eaebec"/><path d="m120.8 639.8c-3.6 2-22.8 0-16.8 7 5.8 1.1 12-1.2 17.9-1.9 3.7-.3 2.6-6.2-1.1-5.1z" fill="#eaebec"/><path d="m81.7 645.2c-3.1-2-6.2-4-9.3-6-1.2-.8-2.8-.4-3.5.8-1.5 5 7.1 6.7 9.9 9.6 2.8 2 5.7-2.5 2.9-4.4z" fill="#eaebec"/><path d="m55.4 630c-3.9-2.6-12-15.9-16.3-13-3.7 3.9 10.1 12.7 12.4 16.6 2.2 2.5 6.2-1.1 3.9-3.6z" fill="#eaebec"/><path d="m35.8 603c-2-4.6-2.4-10.2-5.2-14.2-9.1-2.4-1 11.4-.5 15.4.8 3.7 6.4 2.5 5.7-1.2z" fill="#eaebec"/><path d="m1465 111.7v.3c-.4-11.9-.7-23.9-.4-35.7-.8-6 2.3-14-3.3-18.2 0 0 0 0-.1 0-1.3-1.5-3.6-3.5-5.7-2.5-8.5-2-17.4-2.6-26.1-2.8-9.2-1-18.9-.8-28.3-.4-10.7.2-21.5-.3-32.1 1.7-16.7 1.5-15.7 9.7-15.9 23.7.7 15.6-3.6 32.4 2.3 47 5.8 3.6 13.7 2.3 20.3 2.7 5.8 1 11.7 1.3 17.5 1.2-3 9.8-5.8 19-9.5 28.5-3.4 3.5 2.9 9.6 5.3 4.4 8.8-10.8 17.5-21.8 26.1-32.7l1.8-.1h-.2c10.7-.6 22.4 0 33-1.4 11.4 1.1 17-4.1 15.3-15.7z" fill="#eaebec"/><path d="m1414.6 70.2c7.6.8 8.4 15.4-.5 13.6-6.2-1.5-7.4-14.5.5-13.6" fill="#fff"/><path d="m1397.6 71.9c5.9 2.7 5.5 15.7-2.7 12.4-5.7-2.4-4.5-15.3 2.7-12.4" fill="#fff"/><path d="m1390.3 92.1c5.9 9.9 21.9 12.6 29.6 3.5 8.2-7.7 15.9 14.3-9 17.4-10.1 1.8-20.9-3.9-26.3-12.4-3.4-4 .3-13.1 5.7-8.5" fill="#fff"/><path d="m940.8 401.1c-24.6 9.1-198.9 80-198.9 80l41.5 34.2 14.4 52.1 25-25.5s42.7 35.9 46.6 34.7c3.2-1.1 69.5-148.9 73.7-167.5.9-4.3 2.1-9.6-2.3-8zm-158.7 100.9c24.9-14.6 123.3-73.8 144.9-85 19.1.5-101.9 106.3-103.1 111.1-.2 0-6.4-2.3-6.6-2.3-2.7-4.7 5.7-10.2 8.6-12.8 26.5-27.2 69.3-60.6 93.3-86.3-1.7-2-124.5 76.9-128.2 80.2-1.3-.8-8.6-4.7-8.9-4.9z" fill="#eaebec"/><path d="m553.4 666.5c-9.3 0-19.2-.5-31.2-1.7-2.4-.2-4.2-2.4-4-4.8-.1-2 1.7-3.6 3.7-3.3 40 5 90.2 2 113.8-31.1-41.6-7.9-54.9-67.9-7.7-72.7 27.1 2.2 38 34 20.9 67.1 43.5 3.2 90.3-19.2 123.7-47 3.3-.1 6.2 4.4 3.2 6.8-32.8 29.6-75.6 47.5-119.2 48.2-4.1 0-8.1-.2-12.2-.7-21 29.1-49.3 38.6-91 39.2zm73.7-105.8c-23 1-26.6 30.8-12.1 44 6.3 6.9 15.1 11.7 25.4 13.8 13.2-19.8 12.8-54.8-13.3-57.8z" fill="#eaebec"/><path d="m999.5 359.9c-3.4.1-5.8-4.3-3.5-6.9 6.7-7.6 13.7-15.3 20.4-22.8 3.2-4.4 10.1.7 6.7 5-6.6 7.8-13.5 15.4-20.1 23-.8 1.1-2.1 1.8-3.5 1.7z" fill="#eaebec"/><path d="m876.3 351.2c-2.8.1-5.6-2.4-5.5-5.3-.5-12.6-.4-25.2-1.2-37.8-.5-3.3 2.4-6.5 5.8-6 8 2.1 4.4 16 5.8 22.2-1.2 6.9 5.1 26.4-4.9 26.9z" fill="#eaebec"/><path d="m758.2 375.2c-2 .1-4.2-1.9-5.9-2.8-4.6-4.2-23.8-10.1-18.7-17.7 5.4-5.5 14.9 5.9 20.6 7.8 2.9 2.3 8.1 3.2 8.7 7.3.4 2.8-1.9 5.4-4.7 5.4z" fill="#eaebec"/><path d="m693.7 494.8c-1.4.2-7.5-2.5-8.9-2.8-4.7-2.9-27.9-5.3-17.5-13.7 1.1-.5 2.5-.3 3.6.1 8.2 2.4 16.5 5.4 24.5 8.2 4 1.6 2.7 8.3-1.7 8.2z" fill="#eaebec"/><path d="m846.8 654c-8.1 0-4.9-21.4-6.6-27.5-.9-3.5.5-8.3 4.9-7.7 3.4.3 4.5 3.9 4.3 6.8-.9 6.1 6.4 28.5-2.6 28.4z" fill="#eaebec"/><path d="m981.7 601.3c-7.8-3.1-15.6-7.6-22.6-10.6-3.5-1.4-2.4-6.9 1.4-6.8 7.8 2.7 15.1 7.1 22.5 10.6 3.6 1.3 2.6 6.8-1.3 6.8z" fill="#eaebec"/><path d="m1039.9 491.2c-13.4-2.4-26.9-5.2-40.1-7.7-6.5-.8-5.4-10.8 1.1-10.2 12.3 2.4 25.1 5 39.3 7.9 6.1.6 5.8 9.7-.3 10z" fill="#eaebec"/></svg>