<svg viewBox="0 0 146.06 139.27" xmlns="http://www.w3.org/2000/svg" xmlns:xlink="http://www.w3.org/1999/xlink"><mask id="a" height="149.43" maskUnits="userSpaceOnUse" width="157.77" x="-1.56" y="-7.85"><path d="m-1.56-7.85h157.77v149.43h-157.77z"/><path d="m.04.94h146.59v138.61h-146.59z" fill="#fff"/></mask><g fill-rule="evenodd" mask="url(#a)"><path d="m27.31 122c5.52 5.45 36.77 16.05 46.27 17.3 62.67-.63 93.12-61.59 57-112.17-65.58-74.64-169.41 20.65-103.27 94.87z" fill="#fcb415"/><path d="m96.44 58.91c.07.07.14.14.21.14-.14 0-.14-.07-.21-.14z" fill="#9e6418"/><path d="m9.2 92.05 10.91 3.14 23.14 2.09 9.75 21.55 6.36-3.62 10.45-16.33 48.93.77s13-3.91 13-5.93 2.1-20.23 2.1-20.23l-5.66-34.81-87.38-11-25.31 2.91s-9.43 9.62-10.49 10.6-2.65 15.07-2.65 15.07z" fill="#fff"/><g fill="#9e6418"><path d="m138.32 58c-1.89-10.18-5-23.09-15.8-27.13-12.23.57-113.74-14.5-121.92 9.48-2.16 5.38 1.89 50.65 6 55 7.89 7.71 25.67 4.83 35.72 6.69 12.72 32.48 15 25.7 30.48-.21 37.96.72 76.9 9.92 65.52-43.83zm-30.27 36.63c8.6.21 21.74-1.89 23.14-12.49 1-13.76.3-31.35-9.09-42.28-3.85-2.79-9.51-2.65-14-3.06-30.87-.94-64.66-10.11-94.3 1.25-9.41 4.82-6.07 17.26-6.21 25.95 1.54 8.33-.11 21.55 7.2 26.93 8.25 4 27.71-.87 33.42 5.44 4.2 4.79 4.47 12.81 8.25 18.28 6.67-3.86 7.87-22.74 14.12-21.21 13.05.46 24.84 1.23 37.47 1.19zm-50.33 22.46c.17.14.24.24.23.26s-.09-.05-.23-.26z"/><path d="m81.2 48.17q-27.36-.73-54.73-2.72c-5.31-.35-5 7.95.35 8.3q27.36 2 54.73 2.72c5.32.14 5-8.16-.35-8.3z"/><path d="m95.6 56.19c4.56.25 14.55 1.55 13.08-5.65-1.79-5-7.51-1.5-11.26-2.37-5.24-1.08-7.08 6.9-1.82 8.02z"/><path d="m66.73 66.93q-20.34-.21-40.54 1.26c-5.31.35-5 8.65.35 8.3 13.49-1 27.05-1.4 40.54-1.26 5.39 0 5-8.3-.35-8.3z"/><path d="m116.44 69.3c-12-.55-24-.9-35.94-1.11-5.38-.07-5 8.23.35 8.3 12 .21 24 .56 35.93 1.12 5.39.21 5-8.1-.34-8.31z"/></g></g></svg>