<svg enable-background="new 0 0 829.7 696" viewBox="0 0 829.7 696" xmlns="http://www.w3.org/2000/svg"><path d="m448 .1c-26.2-.8-51.7 3.8-76.8 11.4-18.2 2.7-36.3 4.4-54.2 8-34.3 8.1-67 22.6-99.2 35.4h.1c-47.7 21.8-86.8 50.3-125.6 86.4-8.3 7.8-15.6 16.3-23.3 24.5s-15.5 16.9-20.5 26.7c-6.8 12.6-12 25-17.8 38.3-11.2 17.5-19.2 36.8-23.8 57-3.9 17.6-6.2 35.4-7 53.4-.4 27.6 1.5 55.3 3.4 82.8.5 21.1 8.1 40.7 14.9 60.1 7.5 30.9 28.6 57.7 53.6 77.4 3.3 2.4 5.8 6 8.4 9 9.3 13.4 28.5 20.8 41.7 29.2 12.4 10 26.2 20.7 40.7 27.1 3.5 1.6 7.3 3.3 11.7 5.2 2.2 1.5 6.6 4.9 8.8 6.4 8.6 6.3 17.7 11.7 27.3 16.2 26 12.2 53.4 21.2 81.6 26.9 35 6.2 70 11.2 105.4 14.4 35.4 1.2 72.7-2.2 107.7-7.3 21.2-3.8 42.5-6.5 62.4-14.4 13.6-5.5 26.8-12.7 39.9-19.2 12.6-5.7 26.5-13.2 37.1-21.2 21.4-10.3 45.2-20.3 58.3-40.4 2.5-3.8 5.5-6.5 8.4-9.7 22.3-23.3 42.6-48.7 64.8-72.3 4.6-17.1 16.5-30 24.6-45.2 6.8-19.3 14-38.5 19.6-58.1 8.1-21.9 9-45.5 9-68.9 1.8-28.6-.3-60.9-8-89.1-6.7-16.9-13.7-33.7-21.1-50.3-3.7-11.7-17-27.9-12-39.4-26-39.3-59.7-71.9-97-100.2-23-13.8-46.8-24.8-70.4-36.8-21.4-9-41-6.3-62.4-12.3-37.3-10.1-73.4-11.6-110.3-11zm-438.6 358.8c-.1-4.3-.3-8.8-.1-13.1-.3 3.6.8 9 .1 13.1z" fill="#d4b9c8"/><path d="m209.5 332.3c-.5-3.3.5-13.7-3.3-15.3-2.7-8.3-8.4-15.4-17.3-15.7-34.2 4.7-30.3 73.5 5.4 56.6 2.2 14.5 9.2 1.2 10.5-5.6 3.7-3.8 3.7-9.3 3.4-14.5.9-1.5 1.5-3.7 1.3-5.5z" fill="#fff"/><path d="m257.1 295.9c-11.9 3.6-20.5 16-23 27.8-3.7 14.2 3.4 42.5 22.9 34.4 25.2-7.9 34-63.5.1-62.2z" fill="#fff"/><path d="m325.5 350.4c6.2 1.1 11.5-.4 15.9-3.3.6.3 1.4.3 2.1-.1 2.7.6 4.1-3 5.8-4.5 4.5 1 5.9-13.3 3.8-20.3-.3-12.3-8.2-23.5-26.6-21.7h-.1c-24.1 1.7-20.5 24.3-19.9 41.6 1 9.3 11.7 10 19 8.3z" fill="#fff"/><path d="m356.2 416.9c-.8-3.2-1.3-12.2-6.2-11-2.7-9.2-8-20.4-18.5-22-24.6-9.9-37.7 35.5-46.3 51.5-6.9-18.1-3.9-51-29.2-53.5-13.9 2-21.6 20.1-26.8 31.9-5.2-2.5-5.4 7.2-6.2 10.5-1.2.2-2.3.2-3.5-.1-2.5-5.7-4.4-11.8-10.2-14.4-1.5-3.5-1.5-8.7-5-10.9.1-5.2-2.1-10.2-8.1-6.3-7.4.1-16.5 2.1-18 10.1-1.7.8-3.2 1.9-4.5 3.2-4.3 1.8-5.2 8.5-6.8 12.5-4.5 9-6.8 19.5-8.2 29.1-.1 7.6-9.1 49.5 0 50.6.3 1.2 1.2 2.2 2.4 2.7-.8 16.1-.6 32-.1 47.7-1.8 6-5.2 19.7 3.8 20.7 27.9-1.4 54.7-7.4 82.8-6.2 22.1.7 44.2-2 66.2.7 10 1.9 20 4 30.2 6.4 8.5 3.1 14.8 3.9 13.6-7.5 2.3-3.9 2.2-8.7-.3-12.5-.1-16.4 1.2-32.6 2.1-49.1 1.5-16-.1-32.1.5-48.1-.5-7.8 3.8-33.6-3.7-36z" fill="#fff"/><path d="m780 396.4c-.7-12.7-1.2-22.9-1.8-36.7-.3-11.3-1.2-20.5-.7-30.6-.3-9.2 3-19.5-.4-28.3.5-13.2 0-26.7-.2-39.9 3.3-21.7-.5-45.1 2.7-67.1-.1-9.1 8.2-62.4-2.7-61.8 1.8-4.3 4.7-7.7 4.4-12.8 0-2.7-1-8.7-4.9-7-5.8 3.5-9.6 9.7-14 14.7-8.1 9.2-17.7 17-25.8 26.8-10.4 11.7-20.9 25.1-31.9 36.3-6.1 5.6-12.9 10.5-18.9 16.2-22.5-2.6-44.9.8-67.6-.1-35.5 1.3-72 2.4-106.9 3.7-4.6-13.8-9.5 2.2-7.8 8.7-2 10.9-.5 22.3-1.3 33.5-.3 14.3-.4 28.7-.9 42.9.1 5.7-1.6 12.7 2.3 17.4.3 9.6.7 19.2.9 28.7-1.9 9.7-1.9 21.5-1.6 31 1.6 29.9 3.7 59.8 3.9 89.7-1.7 3.4-1.9 7.4-.7 11 .9.1 1.8.3 2.7.6-2.5 2.4-3.7 6.1-3.7 9.7-.7 7.9-1 15.9-.9 23.8-1.5-.2-3-.4-4.5-.5.2-1.9.2-3.9-.3-5.9 2.9-12.2-9.1-20.1-19.4-22.6.5-8-7.8-13.2-15.1-11.4-2.9-1.1-6.3-2.1-9.3-1v-.1c-5.8 1.5-9.1 8.2-7 13.7-6.2 2.7-15.6 1.8-18 9.6-5.5 3.6-10.9 10.7-12.2 17.6-12-1.9-25.2 10.9-13.7 21-3.3 4.2-2.1 10.8 1.5 14.3-4.2 4.4-4.6 8.6-2.8 12 0 .5.1 1 .2 1.5 1.5 7.9 11.9 11.2 17.4 5.7.4-.1.8-.1 1.2-.2-.5 20.3 26.6 9.1 38.8 10.6 10 .6 20 .3 29.9.3 9.1 1.5 21-3.2 17-13.9 4.3 1.9 9.4 1 12.9-2.5-.4-.9-.6-1.8-.7-2.8 0 0 0 0 .1-.1-.3-1.9-.2-3.9.5-5.7 0 0 0-.1 0-.2.1-.3.2-.6.3-.9.1-.1.1-.3.2-.4.1-.3.3-.5.4-.8 0-.1.1-.2.2-.2.2-.3.3-.5.5-.8-.4-1.6-1.2-3.1-2.4-4.4.1-1.1.1-2.3-.2-3.3.4-.1.8-.2 1.2-.3.1 0 .3-.1.4-.1 14.3 1.6 29.4-2.4 43.7-2.3 21.7-.6 43.4-.3 65.1-1.3 6.2.2 12.4.4 18.6.5 16.6.8 33.2.7 49.8-.3 2.1 0 3.9-.5 5.3-1.4 3.8 4.4 9 7.9 12.7 12.4 5 4.2 18.9 37.8 24.8 31.3 4.7 5.4 9.5 10.8 14.4 16.1 2.6 5.3 5.6 10.3 9.1 15.1.4 1.8 1.1 4.6 3.3 4.6 5.4-2 5.1-19.3 5.7-24.1 4-10.8 1.1-21 2-34.4 4-41.8.4-84.1 2.9-126 3.8-8.4 1.1-19.4 1.3-28.8z" fill="#fff"/><path d="m180 211c.2 5 3 21 10.1 13.2 4.4-8.8 4.8-19.1 7-28.7 8.2-6.3 25.8-13 30.2-21.2 8.4-5.9 15.7-11.7 19.2-14.4 10.4-8.5 22.4-16.9 27.4-29.8 1.1-4.4 2.1-8.9 2.8-13.5 1.6-3.7 1.8-8.2.9-12.3 0-1.2 0-2.3-.1-3.5.2-.2.4-.4.7-.6 3.7-6.6 4-20.8-4.6-23.4-1.3 0-2.7.1-4 .2-15.1-20.6-35.3-42.2-63.4-36.2-2.1.5-4.2 1-6.3 1.6-2.6.4-5.1.9-7.6 1.5-6.9-1.4-14.2-.9-20.4 2.2-5.4 1.7-10.5 3.9-15.5 6.4-5.9-.5-17.7 9-23.2 11.6-6.4 3.8-22.6 4.2-20.3 14.2-3.9 3.5-10.1 6.8-8.7 12.9-10.3 12.2-16.9 30.7-13.1 46.7-.2 1.2-.3 2.3-.4 3.5-.1 3.3 1.2 8.9 4.2 11 1.2 3 3.4 5.9 4.3 9.1 1.5 2.8.8 10.2 4.8 10.1 3.1 8.4 8.1 16 16 20.6 15.5 5.6 32.3 10.5 48.7 5.2.1 7.5 6.5 9.4 11.3 13.6zm-13.2-96.7c2 1.2 4 2.4 6 3.7 1 .7 1.9 1.3 2.9 2l.3-.2c0-.3 0-.5 0-.8 0-.3 0-.5 0-.8 0-.9 0-1.7.1-2.5l.1-.1c0-.2 0-.4 0-.6.2-1.7.7-3.4 1.3-5 1-2.3 2.4-4.8 4.2-7.1 1.2-1.6 2.6-3 4.1-4.4.9-.9 2-1.9 3.1-2.8 2.2-1.3 4.3-1.8 6-.8.3-.2.6-.3.9-.4 1.7-.7 3.5-.8 5.3-.9 5.2.4 9 4.9 10.3 10.4.4 2.3.5 5.2.1 7.8-.1.5-.2.9-.4 1.4h.1c-.8 3.2-2.5 5.5-5.8 5-.8 1.4-1.5 2.7-2.3 4.1h-.1c-1.3 2.5-3.8 7.3-6.9 12.4-.2.3-.3.6-.5.8-5.4 8.9-12.4 18.7-18 19.8-1.2.1-2.4-.1-3.7-.9-1.8-1.3-3.2-4.2-4.3-9.1 0-.2-.1-.4-.1-.6-2.3-.5-4.9-.9-7.5-1.4-.7-.2-1.4-.4-2.1-.6-.1 0-.2.1-.2.1-2.3-.5-4.6-1.1-6.7-1.9h.1c-2.4-.9-4.5-2.3-6.3-4-2.2-2.6-4-5.4-5.3-8.6l-.1.2c-.1-.4-.3-.8-.4-1.2 0 0 0 0 .1-.1-.7-2.1-1.3-4.7-1.5-7.5 0-.4 0-.7 0-1.1 0-.3 0-.6 0-.9s0-.6 0-.9c0-.1 0-.2 0-.3 0-.7.1-1.4.2-2.1.1 0 .1-.1.2-.1.6-3 1.3-6.6 3.4-8.8.7-.6 1.5-1.1 2.4-1.5.2-.1.4-.1.6-.2.5.1 1 .3 1.5.4.1 0 .2 0 .2.1 1.3.4 2.6 1 3.9 1.5h.1c.4.2.8.3 1.3.5.2.1.5.2.7.4.5.3 1.1.7 1.6 1 .8.7 1.6 1.5 2.5 2.1.1.1.2.2.3.4 0 0 .1 0 .1-.1.4.3.8.5 1.3.7.3.1.6.3.8.4" fill="#fff"/><path d="m201.5 93.5c-2.3.1-4.6.2-6.7 1.3-3.3-2.3-6.8 1.5-9.1 3.7-5.9 5.3-10.6 12.9-9.7 21.3 0 0-.2.1-.3.2-4.9-3.6-10.1-6.7-15.7-9.1-2.8-1.3-4.4-4.4-7.6-5-1.9-.8-3.9-1.5-5.9-2.1-10.2 3.7-7.6 23.1-1.7 30.3 4.7 8.3 16.2 8.7 24.7 10.5 6.4 32.1 30.5-17.1 35.8-26.6 7.7 1.2 7-13.7 5-17.4-1.5-3.2-5.1-7-8.8-7.1z" fill="#d4b9c8"/><g fill="#741448"><path d="m324.5 371.7c-18.7.3-29 20.3-35 35.3-12.1-46.2-53.9-29.8-65.6 6.9-13.8-43.9-54.9-34.1-68 4.5-10.6 32-8.1 65.8-6.1 98.5-33 .4-65.8 3.5-98.9 4.4-4.5-.2-7.2 5.6-4.6 9.1 3 3.5 8.4 1.1 12.1 1.5 7.1-.3 14.9-.5 22.2-.9 23.2-1.3 46.6-1.9 69.6-3.7 1.5 11.8-1.8 24.9 1.3 36.8 3.1 4.3 9.9 1.2 10-3.8 0-6.1.1-12.1.2-18.1 1.8-41.5-13.7-104 15.1-137.6 3 7.5 7.5 32.8 15.3 34.1 10 2.4 12.1-25.9 14.7-33.1 5 6.8 7.7 15.9 9.2 24.3 1.3 4.6.8 14.1 7.9 12.8 13.8-1.6-.3-20.5 20.5-43.8 1.5 7 4.7 12.8 7.6 18.8 1.9 5.8 6.8 12 13 6.8 5.3-6.5 7.4-14.1 10.4-22 4.6 10.4 6.6 21.4 8.3 32.1.4 7.4 10.6 7 11.2-.2 1.5-10.5 2.5-20 7.2-29.9 3 11.6 6.8 22.9 11.5 33.9 2.8 6 3.7 17.5 12.8 15.6 9.4-4.2 10.4-17.1 14.4-25.5 2.4-6.4 4.7-12.9 6.9-19.4 8 19.3 8.8 42.3 9.2 62.8 1.1 32-2.6 65.3-1.2 97.2.8 7.1 11.1 5.8 11.3-1 0-12.2-.1-24.2.4-36.4 10.6-1.3 21.9-1.2 32.4-2.2.1 7.3.5 14.6.7 21.9.2 3.8-.9 8.7 2.3 11.4 3.8 2.8 9-1.3 8.2-5.8-.2-1.1-.3-2.2-.2-3.4-.9-14 0-29.4-2.3-43-5.5-5.5-10.2 2.4-8.9 7.9-10.4 1-21 1-31.5 1.3.5-38.9 4.9-79.5-9.3-116.8-6.7-14.6-16.7-30.6-34.3-31.3zm-9.1 36.9c-2.1-5.5-3.5-11.3-4.2-17.2 2.3-2.3 4.8-4.4 7.6-6.1-1.3 7.8-2.1 15.6-3.4 23.3zm20.3-2.6c-1.5-7-3.2-13-4.7-19.5.7.3 1.5.7 2.1 1.1-.1 0-.2.1-.2.2 2.6 2 4.9 4.5 6.8 7.3-2.3 3.2-2.4 7.6-4 10.9zm-74.4 2.8c-2.9-5.3-5.1-10.9-6.6-16.7 4.4-2 9.4-2.7 13.3.5-3 5-4.2 10.9-6.7 16.2zm-68.4 10.1c-2.5-6.8-4.3-13.4-6.9-21 4-1.6 9-2 12.8.2-3.5 6.1-3.7 14.4-5.9 20.8z"/><path d="m255.2 291.9c-5.2.4-12.5.6-15.1 6.1-13.1 10.3-14.4 31-11.3 46.1 2.9 18.2 24.8 24.4 39.6 16.1 18.7-9.4 23.2-34.8 16.6-53.3-3.9-11.9-18.7-14.9-29.8-15zm1.2 58.7c-12.9 1.7-18.7-9.6-18.1-21.2.4-9.6 1.8-24.1 14.3-24.3 7.2.2 15.1.4 20.6 5.6 6.7 14.2 1.8 38.6-16.8 39.9z"/><path d="m186.1 294.5c-7.2-.2-22.3 6.5-22.1 14.6-6.9 6.6-9.8 16.1-9.9 25.5-.4 5.8-1.1 13.2 2.2 18.5 9.9 18 36.1 23.9 52.1 10.5 8.8-7 10.4-20.5 11-31.1 3.4-22.1-11.4-37.8-33.3-38zm4.5 63c-12.7 1.1-28.4-8-25.4-22.3.3-6.9.5-12.5 5.5-17.7 2.5-2.2 6.6-3 6.6-7.1 11.1-7 30.7.6 30.4 14.6.3 13.4 0 31.6-17.1 32.5z"/><path d="m191 274c-26.5-.2-53.5 19.9-57.8 47.3-2.7 12.2-5.8 24.7-15.1 34.1-7.5 4.5-20.8 6-22.6-5.4-3.2-10.2 2.5-11.5 3.4-19.2-.4-5.2-7.3-6.4-9.8-2.1-10 11.9-7.4 34.4 7.3 41.4 28.9 9 43.5-21.2 47.4-45.3 3.8-30.1 41.8-48.3 67.7-32.8 4.1 3 9.5-1.8 8.7-6.4-3.4-9-20.6-11.2-29.2-11.6z"/><path d="m200.4 32.4c-29.5.8-61.3 10.6-84.3 30.6-32.8 27.7-47.3 77.5-20.3 113.9 17.4 22.3 46.1 39.6 74.6 30.6 5.1 11.8 7.2 23.5 14.8 32.8 6.7 3.1 8.1-6.7 9.4-11 3-10.9 6.1-21.8 8.5-32.9 35.8-16.1 78.1-41.2 83.5-83.8 3.7-46.7-42.2-81.4-86.2-80.2zm-44.7 167.2c-38.3-2.2-70.7-42-62.2-80.3 10.2-47.2 61.1-75.8 107.5-75.7 49.2-1.9 98.7 50.5 63.5 96.1-11.1 17.5-30.5 27.5-47.6 37.7-5.3 3.9-18.2 6.2-19.4 12.9-4.9 2.7-4 10-6 14.7-1.5 5.8-3.1 11.7-4.7 17.5-14.4-32-2.4-26.5-31.1-22.9z"/><path d="m201.4 86.9c-12.8.6-26.5 7.1-29.3 20.8-30.4-20.3-54.8-1.6-30.2 29.8 5.3 6.7 12.9 11.6 20.7 15.7 5.8 2.2 9.9 10.5 16.2 8 6.8 4 10.5-8 15.2-11 10.2-11.6 22.8-26 24.2-42.2 1.3-10.4-5.8-21.2-16.8-21.1zm-25.7 36.5c10.4-1.5 1.4-18.5 13.2-22.5 14.9-7.4 23.7.3 16.7 15.7-6.5 13-17 23.5-26.2 34.4-7.9-7.1-17.7-10.4-25.6-17.6-9.1-8.5-21-30.8 2.3-21 4.9 1.9 9.5 4.4 13.7 7.5 1.9 1.4 3.4 3.6 5.9 3.5z"/><path d="m334.3 290.1c-7.2.6-15.5 2.4-20.6 7.8-16.2 7.2-19.4 37.1-9.1 50.4 7.9 13.7 31.9 15.4 44.1 6.9 27.7-14.6 18.9-65.8-14.4-65.1zm-16.8 18.5c8.1-2.9 17.5-7.4 26.1-2.4 11.6 8.2 13.9 29 .9 36.8-13.2 9.8-37.7 1.8-34.5-17 .7-5.6.9-15.9 7.5-17.4z"/><path d="m774.3 104c-4.5.3-6.7 5.4-9.8 8-6.5 6.8-11.9 12.5-19.1 19.7-20.8 21.3-41.8 41.9-61 64.8-39 1-76.7 2.5-115.8 4-18.5.4-36.9.6-55.4 1.7-4.8.6-10.2 0-14.8 1.8-3.9 1.1-5.2 6.9-2 9.5-1.6 82.5 3.9 164.5.7 246.9-1.8 2.4-.5 5.6-.5 8.2-.1 4.2.1 8.5.2 12.6-4.2-4.5-10.2-7-16.2-8.2-.5-7.7-4.9-13.6-13.2-12.7-7-1.1-14.4-.8-20.9 2.3l.5-.2c-6.5 1.5-8.5 7.4-7.4 13.4-26.7 3.9-27 36.4-26.1 57.5.2 12.7-.7 25.1 1.8 37.6 1.8 9 8.3 8.7 15.9 8.2 10.1.8 20.2.5 30.4.4 13.9-.1 28 .6 41.5-1.1 9.4-1.1 7.1-13.5 7.2-20.1v.1c-.2-15.6-1-31.2-1.2-46.8v.6c.3-4.7-1-9.9-2.2-14.6 2.9-4.7.6-18.8 1.3-25.1v.2c0-.3 0-.5 0-.8v.1c.1-.5 0-1.3 0-1.9h.2c1.7-45.9 1.6-91.4.1-137.5 33.3-27.5 63.4-57 95.8-84.9 8.6 12.2 11.2 29.3 22.8 38.8 6.8 1.7 13.8-7.2 19.2-10.7 4.8-3.9 10-7.6 14.6-11.8 4.9 2.6 9.5 5.8 13.6 9.6 3 2.1 5.4 6.3 9.5 6.1 0 50.1 1.8 100.8 5.9 151.1 1.3 32.5 2.1 63.9 2.4 96.2 4.3 12.7 16.4 23.2 24.6 35.3 9.3 11.7 18.9 23.2 28.5 34.5 4.7 5.4 9.2 11.6 13.8 18 5.2 5.2 12.2 25.6 20 12.2 7.5-3.7 3.5-16.8 4.8-23.8 1-27 4.4-53.4 5-79.8 2.1-77.3.5-154 .6-231.6v.1c-1-28.5-.2-55.8-1.4-84.4v.8c-.1-20.7-1.5-41.6-2.2-62.6v.4c0-9-.6-15.2-.8-23-.9-5.2 2.1-16.1-5.8-16.4-.9-1.7-2.7-2.8-4.6-2.8zm-79.4 203.2c-.4-34.4-1.9-68.9-2-103.5 25.6-30.1 54.7-56.6 81.4-85.8 3.6 107.3 3.2 218.8 3.1 325-.1 27.6.4 55.3-1.2 82.8-.6 27.5-4.8 57-5.1 84.3-21.2-29.3-46.9-54.8-67.7-84.5 1.1-72.7-7.4-145-8.4-217.3v.1c0-.3 0-.7-.1-1.1zm-187.3 12.2c-1.5-35.4-.7-70.7-1.2-106.1 57.7-2.1 113.8-3.7 171.6-5.6.1 2.7 2.2 4.8 4.9 5-.1 17 1 33.6.8 50.8-5.2-4.3-11-7.9-17.3-10.7-3.8-2.9-8.6-2-11.9 1.2-7.8 6.4-15.5 12.3-23.5 18.6-.8-1.3-1.7-2.7-2.6-4.2v.1c-5.8-7-16-42.8-28.2-31.6l.5-.3c-32 26.8-61.3 55.7-93.1 82.8zm-57.8 154.4c0-.2 0-.5 0-.7 6.6-2.7 13-1 19.7-.9 0 .2.1.7.1.8-6.6.1-13.2-.2-19.8.8zm15.3 10.6c5.7.3 11.5-1.2 17 .8 12.3 4.1 16.6 19.4 16 31.2.4 17.2 1 34 1.7 51.1-24.6 1.4-49.3.4-74 .9-.2-.1-.3-.2-.5-.2-2.1-6.9-1.2-14.3-1.8-21.5 1.4-18-6.1-46.5 11-58.4 9.9-3.1 20.2-4.4 30.6-3.9z"/><path d="m489.3 513.3c-1.1 0-2.2.4-3.1 1.1-12.2-.3-25 .6-37 .6-6.4.8-16.2-2.6-20.4 3.6-5.4 4.2-1.1 12.6-1.8 18.5.8 5.4-.8 13.2 2 17.8-.7 5.2 4.6 6.5 8.6 5h-.5c12.8-1.7 25.7-.7 38.6-1.3 4.2-.8 10 1 13.4-1.6 3.6.2 6.4-3.7 5.8-7.1v.6c-.6-7.3-1-14.7-.9-22-.9-5 2.8-14.6-4.7-15.2zm-41 12.5c11.9-.5 23.6.1 35.5-.9.2 7.4-.5 15.3.1 22.6-15.4 1.1-30.9 0-46.2 1.9-.4-7.9-.7-15.9-1.4-23.8 4 .1 8 .2 12 .2z"/><path d="m465.6 531c-6.4.5-21.9-1.6-16.7 9.3 2.1 3 7.2 1.2 9.9 1.6 2.6-.1 5.5.2 8-.4 5.9-1.3 5.3-11-1.2-10.5z"/><path d="m517 507.1c-7.9.7-5.1 11-5.6 16.2 0 11 .5 22.2 1.5 33 1.7 7.8 13.4 6.1 10.1-8.2-1.1-9.6-1.2-19.2-1.3-28.8-.2-4.3 1.7-11.9-4.7-12.2z"/><path d="m601.7 259.9c-5 .1-5.6 6.5-8.3 9.8-4.2 6.6-9.8 11.9-15.9 16.6-13.3 11.3-27.3 22-34.8 37.5-7.2 14.4 1.2 27 17.4 24.7 20.2-3.5 38.8-10.6 59.6-10.3 18.1-.5 30.7 9.7 9.1 21-26.4 19.2-57.7 28.3-84.5 46.7-13 7.8-30.7 34.9-9.1 43 21.3 3.8 44.7-2.7 65.7 4.6-.8 10.9-13.9 24.4-21.7 31.5-12.3 11.7-23.2 24.2-35.1 36.2-.4 4.7-1 9.3-1.5 13.7 7.5 2.5 31.2-29.6 38.7-35.3 12-11.1 24.2-23.5 30-39.2 4.5-14.4-4-19.9-17.4-21.2-12.4-2.7-23.9-1.4-36.6-1.6-6.5-.6-15 2-20.5-2.1 3-18.6 25.6-26.4 40.2-34.4-7.1 6.6-17.2 11.1-21.8 20-5.1 13.3 21.4 10.1 28.3 11.1 18.2.5 66.5 1.4 51 30.9-11.5 18.1-25.9 33.8-39.2 50.4-3.8 6.1-11.3 11.6-11.2 18.4 4.2 12.1 12.9-.2 17-6.2 3.9-5.3 8.1-10.4 12.3-15.3 12.3-16.5 28.4-31.8 34.7-51.4 7.1-41.4-50.9-37.2-77.7-39.1 19.8-17 40.3-30 59.8-47.7 6.3-4.1 12.5-8 17.1-13.8 7.5-8.1 4.2-20.3-4.2-26.4s-20.7-5.5-30.9-5.1c-11.5 1.2-22.9 3.2-34.2 6-6.6 1.8-13.5 4.3-20.4 4.4-22.1-1.6 15.7-34 22.3-39.6 5.3-4.4 10.5-8.4 14.9-13.7 4.1-5.2 18.9-21.5 6.9-24.1z"/></g></svg>