<svg enable-background="new 0 0 205.4 203.1" viewBox="0 0 205.4 203.1" xmlns="http://www.w3.org/2000/svg"><path d="m204.1 86c-2.7-17.4-14.5-36.7-27.9-49.6-24.6-23.5-60.3-41.1-95-35-39.9 5.8-65.5 42.9-76.6 79-6.4 22.1-7.9 48.7 5.8 68.4 18.4 31.3 48 50.4 84.1 53.6 35.7 4.4 75.2-7.1 95.2-38.8 13.2-23.1 18-51.3 14.4-77.6z" fill="#d4b9c8"/><path d="m189.9 129.4c-1.5-16.1-1.4-32-.2-48.1 0-4.7 0-11.2-5.3-13.1-16.3-7.6-34.1-12.3-51.9-14.5-13.9 2.8-27.6 7.3-41.4 10.3-11.3 4.1-18.3 3.1-29.8.7-10.2-2.5-19.1-6.4-29.3-7.5-12.5-7-10.8 10-10.7 17.5 0 4.2-.1 9.8.1 14 .7 14.1 2.6 28.3 3.9 42.3.8 4.7-.5 10.9 3.7 14 1.7 3.4 5.8 4.4 9.1 5.6 5.1 1.8 11.3 4.4 16.3 6 8.4 2.2 17.8 9.3 27 6.5 19.9-9.2 39.6-15 59.8-23.9 11.2 5 22 9.6 32.9 15.1 5.7 3.5 16.3 8.5 17.5-2-1.8-7.6-1.4-15.2-1.7-22.9z" fill="#fff"/><path d="m192.2 155.6c.6-1 .9-2.2.7-3.7-.8-13-.6-26.1-.5-39.1 0-8.2.1-16.5.1-24.6-.9-4.7 2.9-20.8-2.6-22.2-.8-.8-1.9-1.5-3.4-2-13.8-5.4-27.9-9.8-41.7-15.3-3.9-.9-7.9-4.9-11.9-3.9-.6-.2-1.4-.2-2.2 0h.1c-15 5.2-30.1 11.2-45.1 16.3-2.1 1-5.1 1.5-7.8 2.3-4.5-3.2-14.4-3.1-18.6-5.2-11.9-2.5-23.6-6.6-35.6-8.4-2.8-.1-4.6 2-5 4.4-.5.7-.9 1.6-.9 2.6l-.2-.1c-.3 16.7.3 33.6 1 50.2.1 11.1.4 22.2 1 33.2-.1 2.2.1 5.1 1.2 6.9-.2 4.8 5.5 4.6 9.1 5.3 15.7 4.7 30.6 11.8 46.4 16.5.2.1.3.1.5.2 1 .8 2.4 1.1 4.1.5 16.7-9 34.3-16.2 51.1-25 2.4 1 5.1 1.8 7 2.3 9.2 3.3 18.8 6.3 28 9.4 6.6 2.2 13.4 3.7 19.9 6.4 1.1.4 2.4.3 3.4-.3 3.1-2.6 3.2-4.9 1.9-6.7zm-43.1-15.5c-4.3-.9-17-7.6-20.2-4.9 0 0-.1 0-.1.1l-.1.1h-.1c-13.7 6.9-27.8 13-41.5 20.1-2.8 1.4-5.2 2.7-7.7 4-4.4-1.6-8.8-2.6-13.2-4.3-7.4-2.8-15-5.3-22.5-8.3-3.1-.9-9.2-3.6-14.4-4.3.1-2.4-.3-5.1-.3-7.2-.9-19.5-1.5-39.2-2.3-58.6-.4-5.2.3-10.7.1-15.9 7.7 1.6 15.2 4.1 23 5.8 4.4 1.1 8.7 2.1 13.3 3.4 2.7.3 6.5 2.1 9.9 2.7 1.3 1.6 3.5 2.2 5.5 1.1 10.9-3.2 22.2-7.3 33.1-11.3 7.2-2.5 14.5-5.3 21.7-8.1 0 0 .1 0 .1-.1.4.2.9.4 1.4.5 15.3 6.9 31.6 12.2 46.8 18.1.6.4 1.2.7 1.8 1 0 2.3.3 4.7 0 6.9-.2 6.2-.3 13.3-.5 19.7 0 16.5-1.3 33.6-.1 50.3-.3-.1-.7-.2-1-.3-10.9-3.7-21.9-6.9-32.7-10.5z" fill="#741448"/><path d="m76.6 73.2c-6.1.4-4.8 8-5 12.3 0 2.5-.1 5.2-.1 7.7-.2 13.3.3 26.8.8 40.1 1.2 6.1-3.9 30.3 8.2 22.9 2.6-2.3 1.5-6.2 1.6-9.2.1-9.9-.3-20.5-1.2-29.9-.4-7.7-.4-14.8-.4-22.4-1.1-5.5 3.9-21-3.9-21.5z" fill="#d4b9c8"/><path d="m132.7 55.7c-6.2.4-4.8 7.7-4.8 12 0 4.7-.1 8.5.1 13.7 0 8.5-.1 17.6.1 26.1v-.5c-.1 2.8.1 6.2.1 8.9.3 5.2-.8 10.3 1 15.8 1.5 2.4 5 2.6 6.9.6 3-3.2 1.2-7.8 1.6-11.9.1-7.8-.3-15.5-.3-23.3.1-9-.1-17.9-.3-26.9-.7-4.6 2.3-13.9-4.4-14.5z" fill="#d4b9c8"/><path d="m26.5 68.6c0-.1 0-.1 0-.2v-.1z" fill="#fff"/><path d="m157.4 73.2v.1c-.5.3-1 .6-1.4 1-2 .2-3.7 1.1-5 2.3-.5-.6-1.1-1.1-1.9-1.5-8.7-3.8-18.4-6.1-28-5.9-27.4.4-37 20.6-17.9 41 4.7 7.2-1.9 17.8-10.5 16.5-5.5-1.5-9-6.8-14.6-8.1-4.2-.7-11.6-2.2-16.9-.9-2.2-5.1-7.3-8.5-15-6.4-1.7.5-3.3 1.6-4.1 3.3-12.7 5.2-7.6 26.7 6.4 25.4 7.7-.3 12.2-5.6 13.6-11.6 3.5-.2 7.7-1.2 10.5.2 11.1 4.2 17.5 15.1 31 7.2 9.7-5.2 14.7-17.5 11.4-28.1-.7-6.7-15.4-17.8-7.6-22.3 11.2-6 24.9-2.6 36.2 1.4 1 .4 2 .6 2.9.5-.1 1.1-.2 2.2-.2 3.2 1.1 8.6 11.7 13 19.2 9.4 13.9-5.9 7.6-31-8.1-26.7zm-112.1 51.3c.8-.3 1.6-.7 2.5-.8v-.1c.5-.2 1.1-.3 1.6-.4.9.3 1.5 1.1 2.1 1.9.2 3.9-7.2 3.1-6.2-.6zm116.6-35.4c-1.8.8-4.1.3-5.5-1.1.1-1.1.1-2.4.6-3.4 2.3.6 6.2 1.2 4.9 4.5z" fill="#741448"/></svg>