<svg enable-background="new 0 0 770.2 749.5" viewBox="0 0 770.2 749.5" xmlns="http://www.w3.org/2000/svg"><path d="m403.9 104.7c-13.9-.1-28.2.2-42 1.4-9.8.3-19.8 3.1-29.6 3.2-34.4-.4-69.1 2-102.8 9.3-20.1 3.6-39.2 10.8-57.4 20.2-9.6 5.4-20.4 8.4-30.3 13.4-13.1 6.5-25.3 13.6-38 20.4-28.6 14.1-53 40.3-69.2 68.8-11.7 19.4-23.1 37.7-28.2 60-7.8 36.9-6.6 77.8-5.7 115.4 2.9 37.6 10.6 75.1 20.6 111.6 11.9 48.5 44.8 92 84.8 122.2 26.7 21.9 58 39 90.4 50.7 16.5 6.3 34.2 11.1 50.8 16.9 15.4 5.3 31 10.7 46.7 15.2 29.6 8.3 60.6 12 91.1 14.2 65 5 101.7.2 162-25.6 46.5-19.7 88.2-49.1 122.5-86.1 23.2-23.2 42.1-50.3 57-79.2 12.9-25.9 25.4-53.6 32.3-81.8 4.7-19.1 5.3-41.5 5.4-61.5 1.2-27.4-2.6-56.5-14.8-80.4-8.9-20.2-19.4-39.7-31.3-58.3-21.9-32-45.7-63.4-74.9-89-26.3-21.3-53.9-40.3-85.7-53.2-48.5-19.7-101.5-26.9-153.7-27.8z" fill="#50c5dc"/><path d="m297.8 292c-1.1-9.2-8.7-15.8-14.8-5.6l-1.6-.5c-.4-12.6-4.8-22.9-18.3-19.4-.1-1.3-.2-2.6-.4-3.9-5.5 1.1-11.3-.3-15.7-3.7-1 2.8-1.7 5.7-2.2 8.6-4.5-4.9-9.6-11.4-17.2-9.5-7 1-14.2 4.3-16.5 11.6-8.8 1.2-21.2.7-24.1 11.2-5.3 16.5 2.2 44 21.5 46.8-5.3 24 24.2 47.3 41.4 25.2 5.6-1.8 10.1-17.8 10.9-32.7 3.9 9 14.3 13.4 22.5 4.8 13.1 2.2 15.3-23.9 14.5-32.9z" fill="#fff"/><path d="m500.3 292.5c-2.7-2.5-6.5-4.1-11.4-4.3-2-1.3-4.1-.7-5.7 1-15.3 3.6-27.8 14.2-30.7 29.3-4.5 18.3 8.7 37.1 28 37.2 35.1 4.5 36.9-63.3 19.8-63.2z" fill="#fff"/><path d="m761.9 291.7c-6.1.7-15.2-4-19.1 2.1-.4 0-.8 0-1.3 0 5.9-11.5 11.7-23.4 9.6-36.6-4.4 1.6-9.3 1.4-13.5-.6 0 .1-.1.1-.1.2-11-5.1-16.7-19.8-8.5-30.3-16.1-16.6-19.4-3-30.7 8.4-2.8-.7-5.8-1-8.7-1-2.4-8.4-8-19.6-15.3-11-1.3 2.2-2.2 4.6-2.9 6.9-18.1-14.1-17.6 37.8-.9 49.4-.9 1.8-1.6 3.7-2.2 5.6-.6.3-1.1.6-1.7.8-18.6-6.3-29.8-2.9-27.4 18.9 2.9 15.5 9.8 20.9 21.5 15.3.5.5 1 1.1 1.5 1.7-6.7 10.9-8.7 25.2-8.5 38.7-5.5-3.4-9.6-8.6-13.9-2.6h.1c-5.6 9.9-3.8 22.4-8.9 32.5-8.5 13.3-17.6 26.7-28.3 38.2-13.8-4.4-24.7-15.1-37.6-21.5-4.3-2.5-7 2.1-8.2 6-7.9-16.5-18.7-31.5-24.2-13-1-1.3-2-2.7-3.1-4 .3-9.4-3.3-17.1-13.9-14.8-3-1.4-7.4-3-10.4-1.2v.1c-9 13.1-27.3 34.1-18.2 50.3.5 14.2 1 29.1.4 42.6.1 18 6.5 35 9.7 52.4 2.7 6.8 2.8 38.4 10.4 44.9 1.4 17.8-.4 36 3.7 53.5-3.9 2.5-5.8 7-4.5 15.1 14.8-.8 29.7-1.6 44.6-2.2l6.6-.3v.1c6.8-.4 13.6-.6 20.4-.9.7-2.7.8-6.3 0-9.3 19-40.4 3.1-139.1-12-188.5 9.9 4.5 18 13.8 28 17.7.8 9.9 6.5 19.6 19.1 13.3 13.3-6.1 19.6-20.8 26.2-33 6.4-15 21.4-28.5 12.3-46.1 26.7 10.3 29.7-13.9 25.2-27 2.1-10.3 8-15.4 10.7-26.1 3.4.3 6.9.5 10.2.5 2.7 6.7 6.4 5.1 12.2 2.3 8.9 12.5 13.6-13.7 17.4-19.6 9.5 2.5 20.3 5.7 25-.4 5.1.7 10.8 2.1 13.9-2 3.8-6.9 4.6-22.4-4.7-25.5z" fill="#fff"/><path d="m571.5 87.2c-2-6.6-14.2-55.1-25.7-42-.8-.8-1.7-1.5-2.7-2.1 1.4-15-5.4-15.2-17.9-13.3-.8-1.5-2-2.9-3.7-2.9-5.6.2-11.2.8-16.7 1.8-6.1-4.4-22.8 4.3-30.2 6.3-13.5 4.3-48.6 11.3-53.9 24.6-7.9 6.5-20 15.1-18.5 26.3-10.4 22.8-2.8 60 25.9 65.6 12.1 16.9 31 25.9 50.9 16.3 1.6 4.8.8 10.7 4.1 14.7-.6 5.9 4.6 25 10.7 12 1.1-13.6 8.5-24.9 11.5-38.1 15.1-7.4 66-15.7 56-38.9 1.6-10.1 12.1-19.8 10.2-30.3z" fill="#fff"/><path d="m238.3 9.5c-7.6 2.4-21.8-3.6-24.6 6.1l-2.6.5c-4.3-2.6-9.6.8-14.2 1.3-7.3-14.5-67.7 22.8-74.8 33.1-17.5 2.4-64.8 63-44 78.5-4.4 8.7-2.5 21.4 7.8 24.6.7 2.1 2.8 4.7 5.1 3 2.8 1.9 3.5 10.6 6.8 11.4-.6 5.6 4.9 2.8 9.1 6.2-1.4 9.5 3.8 16.4 13.5 11.8 2.4 2.1 5.3 3.5 8.4 4.1 8.5 16.2 54 .8 68.3-3.7-.3 6.7 3.6 9.3 9.1 11.3 1.3 5.4 4.6 11.2 9.2 14.2 6.5 2.7 7.3-13.7 10.4-17.6 5.5-7.1 7.2-16.9 12.1-24.6 20.7-6.9 39.3-18.1 56.8-31.1 7.1-6.1 25.5-14.8 28.2-22.6 10.3-1.4 21.5-31.5 10.4-24.5 3.4-7.5 2.9-8.6 2-17.1 5-5.5-3.4-15.1-4.3-21.9 1.5-8.2-5-20.1-13.6-20.8-2.8-16.4-29.6-16.9-42.9-19-11.8-2.1-23.9-4.4-36.2-3.2zm-.6 70.6h-.1z" fill="#fff"/><path d="m202 91.7c1.2.1 2.4-.3 3.2-1.1z" fill="#fff"/><path d="m309.6 546.2c-1-3.2-3.8-5-6.9-3.8 1.3-23.8-4-46.5-2.3-70.4 2.9 2.3 5.3-2.3 6.6-4.7 8.8 26.2 24-29.2 3.5-25.9-.8-1.7-2.7-3.5-4.6-2.4-.5-1.2-1.5-2.1-2.7-2.5 2.8-10 7-27.3-3.6-34.2v-.1c-3 .5-4 3.5-4.9 6.5-10.6-5.7-8.1 13.8-14.9 17.2-9.8-.3-17.9-9.3-22.7-17.2h.3c-.3-1.2-.5-2.2-.8-3-4.8 0-9.4 0-14.3.2 0 .1-.1.2-.1.3-2.2.4-4.8.3-6.8 1.4-7-2.3-8.4 8-8 13-8.8 9.4-19.9 3.5-29.9 0 2-18-11.3-13.1-22.2-8.7-1.6-1.8-4-3.8-6.8-2.6-.3 1.9.9 3.5 1.2 5.5.9-.3 1.7-.6 2.5-.8-2.8 2.5-4.1 4.8-5.3 8.9-3.1-5.1-10.8 6.4-12.2 9.2-1.6 2.6-4.5 4.1-6.2 6.7-5.7-1.3-9.9 8.9-14 12.5-7.7 7.3-14.3 12.5-21.6 19.5-7-.2-7.3 10.1-5.5 14.5 1.5 5.8 9.1 4.2 13.4 2.8 3.3 11.9 16.9 12 26 16.5-5.5 4-10.1 8.9-14.8 13.8-5.3 5.8-2.9 22.2 7.5 16.7 11.3-4.7 19-15.1 31.7-16.8 1.1 5.3 2.6 12.3 4 19.3-5.7.6-10.4 4.9-14.2 8.7-8.1.5-9 10.7-6.9 17 2.7 7 12.3 5.4 18.4 4.8 1 7.3 4.8 13.4 5.4 20.7 1 10 12.6 8.8 19.9 8.7-.8 5.6.4 12.4 5.9 15.2 6.6 8.1 15.3 14.4 21.1 23.2 1.5 4.6 5.8 14.5 9.5 5.5 3.5-15-.5-30.5 1.6-45.6 4.7-.2 9.4-.5 14.1-.7-2.6 15.1-.2 31.4 1.8 46.3 8.9 18 18.2-28 22-33.4 1.8-4.6 4.3-9.6 5.1-14.6 4.1-.3 8.3-.5 12.4-.7 5.1 13.3 12.5-3.7 8.8-10.5 1.2-3.2 3-6.5 3-10 4.1-1.6 9.8.1 12-4.4 11 .1 9.9-26.9-5.5-21.6zm-128.2-75.2c-6.9 2.4-11.3 7.2-9.7 15.1-.9 1.6-1.6 3.3-2 5.1-11.9-1.1-21.6-7.2-32.6-10.5-.2-.6-.4-1.3-.6-1.9 6-8.1 17.1-14.3 17.1-25.3 5.1-4.5 7.9-10.5 12.6-15.3 4.3 13.3 15.2-7.3 21.8 26.2-1.7 2-5.2 3.8-6.6 6.6zm26.4 125.7h.2v.2c-.1 0-.2-.1-.2-.2z" fill="#fff"/><path d="m250.5 635.5c0-.6-.1-1.2-.1-1.8-.1.6 0 1.2.1 1.8z" fill="#fff"/><path d="m242.9 0c-42.9 1.6-88.7 10.4-122.6 38.8-44.5 28-81.3 95.8-31.2 135.9 19.4 17 25.7 23.7 52.9 25.2 21.3 3.4 29.6 3.9 51-2.7 28.9 39.4 29.3 36.9 41.4-9.1 9.9-2.6 19.2-7.4 27.2-13.9 10-6.8 20.5-11.9 30-19.2l-.2.1c93.2-59.5 63.4-160.2-48.5-155.1zm-76.2 188.3c-52.2 6.1-116.3-48-78.9-99.9 36.9-58.5 109.5-80.3 176.3-75.6 97 10.1 82.4 99.1 11.8 138.2-10.1 8.3-47.4 14.4-48.3 23.1-3.8.9-3.6 5.2-4.1 8.2-1.5 8.5-3.7 18-5.9 26.7-25.7-37-10.1-22.8-50.9-20.7z" fill="#2b6c78"/><path d="m232.8 52.3c-13.9 1.6-23.6 12.6-31.7 22.7-8.2-10.5-18.2-12.6-30.9-9.4-24.7 5.7-17 41.2.7 51 10.3 5.8 19.8 13.1 30.8 17.5 7.2 14.4 21.9-16.4 27.6-21.4 11.2-14 37.1-57.7 3.5-60.4zm-28.2 37.4c2.7-1.4 3.4-4.6 4.5-7.2 2.3-3.8 5.9-7.3 8.8-9.9 10.5-10.8 25.7-13.1 17.8 6.8-7.1 17.1-18.4 28.8-29.1 43-5.3-2-10.2-4.8-14.5-8.5-6.3-4.1-12.8-6.2-18.3-11.4-12.2-12.4-12.5-28.7 9.1-26.4 8.3 1.1 13.5 17.5 21.7 13.6z" fill="#2b6c78"/><path d="m495.6 22c-19.5 1.5-39.8 1.2-57.4 11.3-41.5 24-69.5 72.4-31.5 112.9 11.9 16.8 44.7 38.9 65.5 31.9 19 52.2 28.2 15.7 39.4-14.2 48.5-6.8 79.4-58 63.9-104.5-9.6-33.8-49.8-38.2-79.9-37.4zm-93.8 71.8c13.7-51.5 104.5-74.7 146.5-46.2 32.1 27.3 21.2 79.2-15.7 96.4-41 17.6-21.6-5.5-42 43.6-3-6.1-6-12.1-9-18.2-.9-4.9-6-9.1-10.2-4.6-33.2 4.3-76-37.7-69.6-71z" fill="#2b6c78"/><path d="m487 62.4c-8.3.2-16.3 2.6-23.4 7-5.4 3.6-24.3 18.4-11.1 22.2 6.4 4.4 13.2-15.4 33.2-17.2.2 6.3-6 10.9-9.1 15.9-6.7 7.9-14.2 26-.1 30.2 5.6 1.2 19.5-2.4 20-9.1 1.9-12.5-9.7-5.3-15.6-4.3 6.8-11.4 29.1-38.6 6.1-44.7z" fill="#2b6c78"/><path d="m233.3 64.2c-23.2 3.3-25 33.6-35 24.8-5.2-4.4-8.8-11-15.4-12.8-21.6-2.4-21.3 14-9.1 26.4 5.6 5.1 12 7.3 18.3 11.4 4.3 3.7 9.2 6.5 14.5 8.5 6.2-8.4 44.5-52 26.7-58.3z" fill="#50c5dc"/><g fill="#2b6c78"><path d="m232.9 250.4c-13.4 1.3-26.7 10.2-34.5 21.2-6.4-.4-14.7-.8-19.3 4.7-8.5 12.9-1.8 50.9 15.9 52.7.7 2.2 2.3 4.1 4.3 3.9 1.3 43.7 72.7 50 74.5 1.8 16.8-9.2 35.8-19.9 34.1-42.4-1.8-11-12.6-20.8-24-18.8-3.9-15.1-20.2-20.1-34-13.4-2.4-7.5-9.6-9.3-17-9.7zm-31.7 37.5c4 0 7.1-4.4 6.2-8.2 6.3-8.8 19.4-19 30.6-14.5 2.4 4 1.3 10.5 7.4 11 8.5-2.9 21.6-12 26.4 1.5-.9 2.5-3.3 4.1-3.4 6.9-.6 3.3 2 7.2 5.6 7 7.7-2.4 13-10.2 20.3.1 3.5 5.3-.3 11.9-3.6 16.3-2.5 3.6-9.2 6.5-10.9 11.1-2 1.1-3.9 2.4-5.8 3.7-.4-26-25.2-34.9-47.6-33.7-14.1 4.1-23.3 17.6-26 32 0-2.8-3.2-4.8-5.1-6.2-6.3-7.9-8.2-19.9-7.1-29.8 2.6-.5 5.3-.6 8-.3.9 1.8 2.8 3.1 5 3.1zm41.1 62.5c-11.6 1.1-26.4-6-27.9-19-.1-9.8 2.4-25.2 14.3-25.5 9.7 0 22.1 2.4 27.8 10.7 3.3 12.5 2.8 34.3-14.2 33.8z"/><path d="m268.4 368.9c-10.5-.6-13 17.4-1.9 18.1 10.5.6 13-17.3 1.9-18.1z"/><path d="m229.8 375.6c-8.9-.5-11.1 14.8-1.6 15.4 8.9.5 11-14.8 1.6-15.4z"/><path d="m198 366.5c-9.2-.5-11.4 15.2-1.7 15.9 9.3.5 11.4-15.2 1.7-15.9z"/><path d="m635 349.8c-11.1 1.5-9.9 18.6-14.4 26.6-5.5 14.7-12.9 29.2-23 41.5-8.9-7.3-19.8-10.1-28.9-16.2-6.9-4.3-13.6-7.8-20.3-11.4-4.1-2-7.7-6.6-12.6-6.1-6.1-4.7-12.3-9.1-20-9.3-12.4 1.6-25.8 4-33.4 14.3-29 44.1 20.3 142.8 13.9 199.3-53.6-7.9-110.9-19.2-164.5-19.4 0 .2.1.7.1.8-2-.1-3.9 0-5.9 0 6.1-10.8.8-27.7-12.7-29.7-1-22.8 1.6-41.4 0-62.9 24.3-.9 17.5-43.2-2.9-44 .4-6.3-.5-12.3-.1-18.6 1.5-10.4 1.3-14.7-10.8-13.4-19.6.9-21.8-3.7-23.5 18.2-.3 1.2-1 3.2-2.6 2.7-2.9-4.5-6.4-9.7-7.2-14.7-.2-4-2.5-7.6-6.7-7.7-10 .4-21.4-2.6-30.6 2.3-1.9.1-3.7.1-5.5.3.1.8.2 1.6.3 2.4-2.7 4-.4 10.1-4.2 13.8-7.2 8.8-15.8-1.6-15.4-9.9-.3-2.5-.2-6.1-3.3-7-7.4.5-15.2.4-22.6 1.7-5.8 1.1-15.7-.4-15.4 7.7-19.4 25.2-48.4 43-67.4 68.3-5.9 7.3 4.3 9.7 9.6 11 9 3.9 21.6 8.2 30.2 13.5-34.1 29.9-4.8 52.5 29.5 21.9.1 3 .1 6 .3 9.1-22.1 9.7-26.7 36.1 2.5 38.6.1 1.2.3 2.4.4 3.7-9.3-.8-114.7 29.5-96.1 43.9 5.2 5 28.6-11.8 37.6-12.8 19.5-7 39.1-13.3 59.6-16.9.2 2.5 0 5.6 1.6 7.8-.4 11.5 14.8 2.2 21.2 3.7 2.7 8 36.3 55.4 43.9 52.7 9.8-1.5 6.1-14.7 6.5-21.6-.6-10.6-.6-22-.9-33.1.3 0 3.4-.2 3.8-.2-3.5 92.1 13.5 51.5 41.6-.4 3.5.4 7.3.4 10.7.6 2.4 3.1 7.1 1.6 9.8-.4 4.4-4.2 1.4-11.4 2.1-16.7 8.2.8 16.8-.5 25-.7v.2c54.6 1 108.3 12.2 162.1 20.1 1.2 8.3-4 38.7 9.2 36.2 11.1-3 3-25.4 5.1-34.8-.2-24.1 1.5-48.9-4.2-72.6-6.7-37.7-19.1-74.6-19.3-113.2 6 9.9 13.1 17.3 19.3 26.7 22.3 20.8 15.3-40.9 16.9-51.2 58 43.1 45 168.7 51.7 235.7.6 6.5 8.8 9.7 13.5 4.9 6.3-6.6 2.2-19 3-26.4 29.2 7.1 54.7 15.1 83.7 22.8 3.7-4.2 7.6-8.4 10.9-12.1-33.3-8.4-62.2-17.7-95.4-25.4-2-46.6-3.9-90.3-13-136.3 49.5 43 68.7-13.8 78.5-54.9 22.3 12.2 40.3-12.9 28.8-32.9-6.2-10.8-20-1.1-12 13 2.4 9.2-8.9 6.6-13.2 2.9-8.7-7.9-17.2 1.3-17.4 10.7-5.4 16-14.6 68.6-38.4 58-9.9-5.3-20.5-13.6-33-21.9-1.5-4.8-3.6-9.4-6.1-13.8 27.1 11.4 30.7 31.5 51.5 0 10.8-16.1 18.3-33.9 23.3-52.3 2.2-5.7 4.5-16.1-4.8-16.7zm-126.9 73c-6.6-6.8-11.1-15-17.6-21.6 3.3-7.4 11.9-8.4 18.8-10.1-.8 10.7-.7 20.9-1.2 31.7zm-262.8 36.4c13.2-.8 4.7-34.7 6.1-44.2 1.6-.4 3.2-.9 4.8-1.3 5.6 26.7 28.2 29.9 33.8 1.6 2.8.2 6.5.4 9.5.3-4.2 53.4 13.4 12.3 17.2 46.8-4.8 5-16.4-.5-17.6 8.1.5 11 .5 21.8.2 32.8-2.4.7-4.8 1.2-7.3 1.5-4.5-30.8-32.3-19.6-31.2 6.5-2.8.1-5.6.4-8.3 1-1.4-10.9-.7-22.4-4.9-32.6.7-7.8-7.7-6.3-12.8-7.8-3.6-9.8-.6-16.1 10.5-12.7zm-35.7 61c-9.8-1.3-8.1-13.5-13.5-19.2-4.1-5.5-14.3-2-20.1-3.2-.1-4.6-.2-9.6-.4-14.8 9.6-.3 20.3-15.3 17.9-24.7-.7-10.2-10.9-14.7-19-18 .3-7.8 0-15.3-.1-23 4.8-3.8 12-3.1 18-3 7 25.7 37.6 32.8 42.3 1.9 1.7.1 3.1.2 4.6.3.5 9.2-.8 18.6-1.2 27.8-8.7 4.1-21.9 6.9-22.3 19 .2 12.1 10.1 21.5 20.9 25.6.1 2.4.4 4.8.5 7.2-36.6 1.8-11.6 8.4-27.6 24.1zm-73.5 7.9c-1.9 0-3.7 0-5-1.5 9.3-29.1 64.6-12.4-21.7-47.3 17.8-16.5 34.8-33.6 51.8-50.9-.4 5.2-.9 10.4-1 15.6-7.2 9.4-12.1 21-19.2 29.9-17.6 11.5 15.6 16.1 23.5 16.7 0 5.7-.2 13.9-.2 20.2-8.4 6.7-17.2 15.1-28.2 17.3zm28.3-46.3c-5.4-.4-10.8-1.6-15.9-3.4 6.8-8.7 11.5-18.9 18-27.9 7.3 1.4 15 5.8 15.3 14.2-.4.7-1 1.4-1.5 2.1-14.5 2.5-16-2.3-15.9 15zm79.1 75.1c2.9 0 4.6-2.6 5.8-4.9 11-2.2 3.7-19.2 4.5-28.1 6.1-2.1 14.8.8 17.8-6.5 1.7-4.1-.9-18.3 5.2-19 11.9 5.9-4.6 28.7 24.3 17.3-.2 8.3-.2 17.2 0 25.3-1.9 16.8 15.9 5.8 15.3 22.1-23.6 7.8-18-2.2-19.2 25.8-15.8-1.2-31.6-1.3-47.4-.1-.8-6-1.3-12.8-5.4-17.1-.7-6.7-7.5-5.3-12.4-6-.3-.4-.6-.9-.8-1.4 1.9-5.1 6.5-10 12.3-7.4zm-33.2-24.1c11.8-.5 14.9-12.8 16.4-22.5 3.5-.5 6.8-.5 10.3-1.5 1.2 11.2 2.4 22.3 2.2 33.6-17.2 4.9-30.9 18.9-16 35.1 4.3 2.9 8.8 4.1 12.9 7.4.1 1.6.2 3.2.3 4.9-18.6 1.3-37.2 1.8-55.9 3.2-2.7-8.5 2.4-36.3-12.2-32-14.1-3.6-7.9-13.3 3.6-13.6 10.2-3.8 3.2-27.8 4.4-36.4 3.9-.1 7.9 0 11.8.1.4 13.7 8.8 20.7 22.2 21.7zm47.2 96.3c-.9-9.2-1.6-19.8-1.6-29 7-.3 12.3-.3 18.9-.1-5.7 9.5-11.5 19.6-17.3 29.1zm-26.3 6.1c-9.6-10.1-18.3-21-25.9-32.6 8.3-.1 17.2-.5 25.4-1-.3 11.2 0 22.4.5 33.6z"/><path d="m485.9 124.6c-8.2 0-12 14.9-2 15.3 9.5.3 11.9-14.3 2-15.3z"/><path d="m493.5 250.9c-20.3.1-51.3 13.5-61 32.7-1.1 6.1 6.8 10.6 11.2 6 21.4-22.5 60.8-34.9 78.9-2.2 9.1 16.2.2 38.7 14.8 51.9 25.5 15.5 46.8-9.6 43.9-35.4-.7-6.3 2.5-15.3-3.3-20.1-19.6-7.5-11.6 22.3-14.5 33-1.2 5.4-6.1 10-11.9 8.3-2.5-.6-4.7-1.1-5.1-3.8-2.8-15-1.5-30.2-10-44.2-10.2-14.2-25-27-43-26.2z"/><path d="m485.2 278.4c-16.6.9-34 10.2-41.9 25.9-2.5 5.4-7.4 10.7-4.2 16.6-7.9 38.7 43.3 57.8 68.9 33.5 24.1-22.8 14-76-22.8-76zm-5.8 69c-41.7-1.4-29.3-48 4.2-50.8 28.6.7 29.2 52.1-4.2 50.8z"/><path d="m722.6 213.1c-9.3.2-19.4 4.9-25 11.9-11.8-3.2-22.9-10.8-35.1-10.4-8.9 2.4-8.7 12.3-12.9 19.7-4.2 12.7-18.3 28.5 4.2 29.9 1.6 3.6 5.4 7.6 3.6 11.8-4.3 2.3-9.1-.6-13.5-1-9.9.9-10.8 15.7-15.3 22.6-12.3 20.1 5.7 22.9 20.4 30.4-24 38.8 22.6 54.8 40.4 18.4 35.3 17.8 32.4 13.9 48.1-19.9 30.4 18.9 47-30 16.8-40.4 9.3-29 18.2-37.6-18.5-42.6 4.1-10.9 2.3-30.4-13.2-30.4zm-23.7 27.7c8.2-1.2 10.3-14.3 23.7-11.6 2.6 10.7-5.1 13.9-4.2 21 2 10.3 20.2 9.7 28.3 12.3-1.4 8.8-11.8 22.6-6.2 30.4-.7 5.3 4 9 9 7.7 6.5 1.1 10 14.1 1.3 14-5.7-.9-9.1-7.5-14.7-7.8-11 .2-13.1 18.9-18.6 26.8l.2-.2c-1 1.8-2 3.9-3 5.6-6.1-2.9-16.3-11.2-23-8.5-14.6-13.5-14.8 26.6-33.9 18.5-4.7-9.8 9.7-17.9 9.3-27.3-2.1-9.4-17.7-11.4-24.9-16.7 1.8-4.1 3.6-8.2 5.2-12.4 28.4 5.9 33.6-32.6 12.4-44.3 2.5-5.7 4.6-11.9 7-17.4 10 3.1 21.8 10.2 32.1 9.9z"/></g></svg>