<svg enable-background="new 0 0 209.7 200.3" viewBox="0 0 209.7 200.3" xmlns="http://www.w3.org/2000/svg"><path d="m199.9 92.1c-7-53.7-60.4-89.3-111.7-92.1h-.1c-13.6.7-26 6.5-38.7 11.2-6.7 7.4-18 12.8-20.7 23.1-14.3 16.2-25.4 36.6-27.3 58.6-3.1 24.7-2.5 51.3 14.2 71.3 25 30.1 68 40.1 105.4 34.7 49.8-11.6 85.9-54.7 78.9-106.8z" fill="#ff4143"/><path d="m197.9 93.9c-.7-2.4-2.4-4.4-4.7-5.4.4-10.9-18.6-19.5-21.2-5.7-10.4.8-20.8 1.1-31.1 2.4 4.3-16.5-1.1-29.4-20-26.3-20.4 1.8-40.8-1.2-61.2.9-4.3-5.5-13-.9-18.9.7-9.9 2.5-17.3 14.5-12.1 23.9-3.1 52.7-2.1 50.2 50.1 52.9.1 1 .4 1.9.8 2.8-4.5 6.5-10.3 12.4-13.9 19.3-1.8 6.1 4.3 12.1 10.3 10.3 9.4-5.8 14-17.8 21.6-25.8 8 .6 16-4.1 24-5.1 6-1.2 12.2-3 16.7-7.3 6.5-7.3 10.1-23.8-.5-29 11.6-1.5 23.3-2.1 35-2.8-2 7.2 4.9 14.1 12.1 12 6.5-2.7 14.3-10.3 13-17.8z" fill="#fff"/><path d="m209.7 90.4c-.1-1.7-1.3-3.2-2.5-4.2-3-3.1-5.3-6.8-8.6-9.5-6.5-5-11.8-17.1-21.5-14.2-6 3.3-4.2 10.4-4.4 16.1-1.9 0-4 0-5.9 0-5.5.2-11.1.5-16.6.4 6.5-31.2-18-26.5-39.7-26-23 .1-45.9-1.4-68.9-.5v-.1c-29.9 5.5-16.4 42-18.4 63.1-3.7 32.9 23 28 46.3 27.2-4.9 11-9.6 22-15.5 32.5-1.7 26.7 46.9-21.9 50.7-29.5 30.5-2.2 49.2 1.3 49-37.1 6.4 0 12.8-.4 19.2-.5.8 4.2-1.4 9.8 2 13 4.5 11.9 12.5-2.5 17-6.6 5.8-8 16.7-14.1 17.8-24.1zm-16.2 5.9c-3.6 3.8-7.1 7.9-10.8 11.7 0-3.9-.1-10.9-5.7-10.1-18.7 1.2-37.6-.2-56.3.9-3.4.7-5 5.3-2.9 8 3.5 3.4 17.6.2 23.5 1.5.6 7.2 1.5 17.4-4.8 22.3-11.7 3.3-24.5.5-36 4.3-9.6 10-18.2 21.4-29.5 29.9 2.6-8.9 9.9-17.5 9.7-26.6 2.4-8.6-7.9-8-13.5-7.4-8.7.3-17.3 1-25.8-.2-5.1-.4-7.1-3.8-6.6-8.7-.4-8.3 0-16.7-.8-25-1.9-22.9-5.9-38.5 24.1-34.4 23.2-.3 46.4.9 69.6-.2 2.3 2.4 6.2 1 9.1 1.7 7 1.2 2.5 10.2 4 14.9-6.8.8-34.6-3.5-25.6 10 1.6 1.3 4 .6 5.9.4 12.5-.9 25.8-.1 38.4-.5 6.5-1.7 20.8 3.7 21-6.3 1.6-1.3 2.1-3.3 1.9-5.3 4.3 5.8 9.8 10.4 14.2 16-1.2 1.1-2.2 2.1-3.1 3.1z" fill="#8b0f26"/></svg>