<svg enable-background="new 0 0 774.2 721.7" viewBox="0 0 774.2 721.7" xmlns="http://www.w3.org/2000/svg"><path d="m387.9 26.8c-71.4 2.3-145.3 30.6-203.7 68.7-47.7 35.4-93 75.8-127.2 124.1-46.7 66.7-67.5 153.1-51.8 232.6 8.8 53.5 24.1 118.8 61.8 162.3 4.1 4.6 7.1 10.4 10.8 15.3 23.8 35.1 62.1 59.3 101.5 69.8 28.5 8.4 53.1 18.5 87 20.7 23.9 2 47.6 1.6 71.3.3 47.4-.4 93.5-10.5 139.2-20.3 23-5.1 46.6-8.6 69.7-14.6 16.9-5 35.7-13.1 50.8-20.2 56.2-24.1 98.2-69.9 130.8-121.7 12.2-22.7 19.6-48.1 27.5-72.6 11.8-31.6 16.9-65.9 17.7-99 3.2-30.2-3.1-66.9-10.7-94.9-12.5-53.7-40.8-102.9-81.5-139.4-48.6-38.4-102.8-71.3-162.4-89.4-44.2-11.3-86.2-18.7-130.8-21.7z" fill="#50c5dc"/><path d="m497 240.2c-15.3 2.2-30.2 16.3-30.1 32.1-6.7 3.8-11.2 10-10.7 18 .1 4.7 1.4 10.8 5.9 13.2 2 7.2 8 7.5 9.6 0 2.2-.4 4.4-1 6.5-1.7 6 12.3 30.6 15.3 38.1 3.3.5 2 1.6 3.8 3.2 5.1.8 5.2 4.8 6.5 9.5 5.5 5.8-1.7 4.8-10 5.7-14.8 7.2-8.2 17-24.8 6.7-33.7-.2-.9-.5-1.7-.9-2.5 1.5-7.6-2.2-14.5-8.2-18.8-4.3-2.2-8.9.7-13.1 1.8-.3-.4-.6-.9-1-1.2-2.2.3-4.3.7-6.5 1.3-4.8.1-3.7-4.7.4-5.7-3.1-1.2-6.4-1.6-9.7-1.1-1.7-.6-3.5-.9-5.4-.8z" fill="#fff"/><path d="m488.7 405.4c3.6-13.6 14.8-31.1 3.3-43.3.3-3.7-1.2-13.5-6.7-10.3-3.5.3-5.8-2.3-8.8-3-2.2.1-3.4 2.5-4 4.3-5.2-4.9-12.7 10.2-19.7 29.6-.7.3-1.4 1-2.1 2-18.4 25.2-28.8 55.4-37.2 85.2-.6 1.8-.9 4.2-.7 6.8-9.7 19.8-17.6 44.7-18.6 60.2-3.2 9.1-7.6 20.5-2.5 29.5 8.2 8.7 10.1-14.7 13.2-19.1 5.7-20 13.8-39.5 28.9-54.3 4.3-3.5 8.4-9.7 14.4-9.5 1.1-.3 2-1 2.8-2 2.2-.3 4.7-1.5 7.4-3.1.5 5.3-.1 12.3 4.8 15.8 1.5 10.2 9.2 10 10.6-.1 1-.6 1.7-1.4 2.2-2.5 7.6-8.7 2.1-27.9 2.7-39.1-.9-4.4-3.7-14.6-7.4-14.5.1-.1.1-.2.2-.3 7-1.4 13.9-25.3 17.2-32.3zm-88.3 152.1c0-.2.1-.3.1-.5 0 .2-.1.4-.1.5z" fill="#fff"/><path d="m203 435.2c.7-10.4-4.2-18.5-17.9-14.7-11.1 3.8-20.3 13.9-20.2 26-.5 7.8 3 18 11.9 18.9 3.8.5 7.5-.5 10.7-2.5.5 2 1.5 4 3 5.8 4.1 2.1 5.6-4.1 7.7-6.5 3.3-3.2 6.5-7 6.8-11.8.7-3.2.5-11.8-2-15.2z" fill="#fff"/><path d="m318.7 486.2c-.3-1.4-.9-2.7-1.8-3.8 3.1-3.2 4.1-7.9 2.5-12-2-1.5-3.9-3.4-6.3-4l-.8.7v-.1c-.5.5-1 .9-1.5 1.3-.7 3-5.2 3.6-5.4.1-7.1 11.5-16.1 16.2-28.4 21-13.1 6-26.2 12.7-40.9 13.3-9.4 1.9-21.4-6.7-25 .8-1.9-.4-3.9.8-4.9 4.9-1-1.1-2.9-1.9-4.2-1.1-.3-.9-.6-1.9-1.1-2.9.1-4.8-1.6-9.7-5.4-10.8-6.7 2.9-17 6-22.8 11.7-20.3-2-16.5 90.5-14.7 103.1 0 13.6-3.9 28.4 1.7 41.3 0 4.8-1.2 10.2 1.9 14.5 11.3 8.8 31.7 1.2 45.2.8 3.9-.5 7.8-1.1 11.8-1.4 8.7-3.8 4.5-16.5 3.2-23.8 3.4-8.3-.2-17.1-.1-25.6 0-16.3-3.2-32.4-4.4-48.7-.3-10.1-.2-20.2-.4-30.3 27.2-3.4 76.1-20.8 81.1-27.6 3.7-.2 7.3-.6 10.9-1.1 1.1 3.9 5.3 5.5 9 5.3 9.8-3.8 6.5-19.4.8-25.6zm-158.9 164.6c0-.2.1-.5.1-.7.1.3 0 .5-.1.7z" fill="#fff"/><path d="m285.6 168.6c-1.5-7.5-1.1-16.5-7.2-22.3-1.6-9-6.3-16-14-20.5-.3-16.6-44.5-20.3-57.4-18.4h.1c-20.3 1.7-38.8 8.6-58.5 11.4-46 6.1-93.1 31.1-91.1 83.1-10.7 19.4-5.6 46.8 5.8 64.7 7.6 10.8 23.5 18.5 36.2 23.9 18.5 7.7 38.1 13.1 59.8 6.4 1.8 3.4 6 3.2 9 2 .1 6.8.6 20.6 9.4 21.9 5.8 17.5 11.2 1.8 13.2-7.2 2.8-10.2 6.9-20 9.8-30.1 18.7-9.7 37.4-23.6 52.6-37 14.7-14.8 27.4-33.7 31.3-54.2 5.1-6.9 1.9-16 1-23.7zm-145.4 70.3c-.4 4.9-7.5 5.7-8.5.7-2.5.6-4.5-1.8-5.2-3.9-3.2-9-5-18.8-6.9-28.4-1-4.6-4-21.6 6-15.8 3.1-2.2 6.2 1.2 6.5 4.3 2 2.2.9 5.6 1.7 8.2.9 4.7 1.7 9.5 2.7 14.2 1.5 6.8 4.1 13.3 3.7 20.7z" fill="#fff"/><path d="m122.9 190.2c-8.8.7-2.7 16.6-2.4 21.8 2.3 6.5 3.1 27.9 11.2 27.6 1 5 8.1 4.3 8.5-.7.4-7.4-2.2-13.9-3.8-20.8-1.1-4.7-1.9-9.4-2.7-14.2-.8-2.6.4-6.1-1.7-8.2-.3-3-3.3-6.4-6.5-4.3-.6-.7-1.6-1.1-2.6-1.2z" fill="#50c5dc"/><path d="m690 86.7c-2.1-18.9-3.7-43.9-19.9-56.2-5.1-5.6-13-10.6-20.7-8.9-.5-.4-1.1-.9-1.6-1.3-6.2-3.5-13.1-4.7-20.1-5-7.7-6.5-23.6-7.8-32.5-7.1-13.5 2.3-31.9 1.4-42.6 10.8-19.5 2.4-35.9 13.9-51.6 25.2-6.8 5-13 11-18.5 17.8-.6-.2-1.2-.3-1.9-.3-11 1-13.7 15.1-18.4 23.2-3.2 6.1-8.3 18.4-.8 21.5-1.3 7.2-1.8 14.5-1.1 21.8 1.9 22.7 24.4 32.6 43.7 38 1.2 1.4 2.7 2.5 4.3 3.2 5.2 10.5 28.8 4.8 38.2 3.1.7-.2 1.4-.4 2.2-.5 2.9 27.9 7 44.2 26 10.7 20 3.1 92.2-47.9 99.2-66.7 10 5.1 9.8-13.7 10.7-21.5 2.8-1.4 5.2-4 5.4-7.8z" fill="#fff"/><g fill="#2b6c78"><path d="m308.7 461.7c-6.1 1.7-9.6 8.6-14.9 12-3.7 3.1-7.5 5.7-11.3 8.5-16.8 11.3-36.5 18.8-56.8 16.3-6.8-1.1-14-5.2-20.9-4.6-11.5-10-28.9-4.6-39.4 4.3-4.6 4.4-7.1 10.8-9.3 16.5-5.6 17.1-5.6 35.2-5.5 53.1-.7 31 1.2 62.1 2.5 93.2 1.1 7.2 11.1 4.4 10-2.3-1.3-32.8-2.7-64.2-2.2-97.8.2-17.1.1-35.8 8.6-51.3 4.9 9.8 11.4 18.3 15.2 28.3 1 2.7 2.3 5.2 3.9 7.6 14.2 11.9 14.3-24.1 17.1-31.6 17.4 46.3 12.8 96.8 15 145.4.4 7.4 11.2 6.3 11.5-.7 0-40.6.4-81.1-7.2-121.3 24.6-2 49.8-8.1 67.9-25.2 10.7 4.7 24.3 7.6 34.4.1 6.1-4.6 9.3-14.8 3.4-21.2-2.6-2.7-6.3-6-10.2-6.8-4.2-.1-7.3 4.9-5.6 8.7 1.4 3.4 6.6 4 8.3 7.1-3.8 9.4-18.6 4.3-25.9 1.8-3-2.2-6.8-2.7-9.5.6-17.4 16.7-42.5 21.7-65.6 23.7-1.5-6.1-3.6-12-6.2-17.7 21.9 6.9 42.8.6 63.4-10.6 6.9-3.9 48.4-30.7 29.3-36.1zm-116.4 64.4c-3.9-8.4-10-15.4-13.6-23.7 5.7-2.5 13.5-3.9 18.6.4-2.2 7.6-3.7 15.5-5 23.3z"/><path d="m188.3 412.4c-9.3 0-17.8 6.1-25.3 10.3-3.8 1.7-7 5.7-5.2 10-12.6 28.2 21.9 54.4 45 33.5 18.6-16.9 16.3-55.4-14.5-53.8zm-2.7 48.1c-11.9 1.2-22.1-11.1-18.2-22.8 3.5-7.1 12.2-11 19.8-12.2 23.4-2.9 17.6 34.8-1.6 35z"/><path d="m184.2 395.7c-17-.2-33.6 9.2-41.3 24.6-4.9 15.3-19.5 41.9-31.1 14.9-3.1-7.1-13.1-1.2-10.2 5.4 9.5 27.3 36.2 21.8 46.1-3.6 6.8-27.7 33.2-36.9 57.8-25 3.3 0 5.9-3.4 5.5-6.7-3.9-9.4-17.6-8.8-26.8-9.6z"/><path d="m214.5 97.6c-44.2 1.5-90.3 11.4-126.7 37.4-49.8 37.1-70.8 104.8-16.8 149.1 13.6 11.6 34.5 21.1 52.2 23.5 13.3 2.6 26.9 3.5 39.7.1 5.7 11.7 13.4 24.8 17.7 37.8 11.6 15.6 15.5-20.7 17.5-27.3 1.4-7.2 3.6-15.6 4.9-22.8 16.3-14.3 35.2-25.1 51.3-39.5 19.7-19.3 38.7-41 42.9-69.5 5.7-47-34.6-91.5-82.7-88.8zm-.5 13c32.8-1.6 61.1 20.4 70.1 51.7 6.1 22.1-2.3 44.5-16.7 61.8-7.1 9.5-15.2 18.2-24.2 25.9-8.4 8.6-50.7 32.9-49.5 41.8-3.7 11.5-5.6 24.1-8.5 36-4.5-9.2-9.5-18.9-13.9-27.2-.4-11.8-17.4-.8-25-2.9-5.9.1-11.6-.9-17.3-1.6l.4.1c-43.7-5.5-87.9-44.8-77.2-92.1 5.5-18.8 17.9-37.6 32.2-50.7 33.5-30.3 85.6-41.7 129.6-42.8z"/><path d="m145.5 149c-14.4 2.5-13.7 21-10.1 31.8-4.3 2.1-7.7 3.9-12.2 4.9-4.7 1.8-15.3 2.5-12.8 10 1.5 13.6 6.3 25.6 9.6 39.3 1.8 4.9 1.8 16.9 9.8 13.1 3 4 7.9.5 11.9.1 4.1 3.8 8.9-1.3 13.3-2.2 6.1-2.5 12.4-3.1 18.5-5.6 15-6.4 38.9-12.2 43.3-30.2 1.3-6.3-1-14.1-8-15.5 3.1-5.8 1.4-14.6-5.8-16.4 4.1-10.2-6.5-18.7-16.1-16.9-9 .8-16.7 4.8-25.1 7.2-3.2-8-5.6-19.2-16.3-19.6zm-1.9 12.2c.5-.6 1.1-1.1 1.7-1.6 5.4 2.8 5.3 11.1 8.4 15.9.8 14.7 29.8-8.7 39.5-1.9-.9 7.8-19.7 7.8-18.5 17.6 4 12.2 17-4.2 25.2-1.9-2.1 8.9-23.9 10.4-15.1 21.7 7.5 4.4 13.8-8.1 21.4-5 1.8 14.1-45.5 24.9-56.4 29.2-4.8-14.1-10-29.1-13.4-43.4 17.7-5.7 3-18.3 7.2-30.6zm-11.9 78c-3.5-14-8.4-28-11.4-42 1.6-.5 5.1-1.5 6.7-2 3.5 14.5 7.8 27.9 12.3 42-2.7.3-5.2 1-7.6 2z"/><path d="m497.3 237.5c-16.9.3-37.8 14.7-36.7 33.3-23.5 9.5-9.2 53.1 16.2 42.4 8.8 9.2 25 13.1 36.3 6.5 10.9.4 30.1-4 28-18.4 12.3-8.1 17-26.2 5.8-37.5 3.6-17.9-20.7-27.9-34.9-20.6-3.2-4.4-9.4-5.3-14.7-5.7zm-25.7 38.1c.4-1.6 0-3.4-1.1-4.6-.5-1.7-.6-3.5-.2-5.2 4.6-12.4 21.3-21.7 33.9-16.1.2.1.3.3.4.5.2 2.2 1.8 3.9 4 4.2 10.4-2.9 24.1-7.1 29.1 6.5-.3.5-.6.9-1 1.3-7.9 2.6-4.1 14.9 3.8 9.8 6.2 7 2.4 16.4-4.9 21-3.5-2-8 .7-8.8 4.5 5.2-22-19.7-42.8-40-31.5-6.4-.9-11.9 4.6-15.2 9.6zm14.7 3.5c23.8-13 41.2 16.5 19.7 30.6-17.6 5.4-37.1-17.2-23-31.8 1 .8 2.1 1.2 3.3 1.2zm-19.6.8c1.2 0 2.4-.5 3.3-1.4-3.4 8.1-3.2 17.2.5 25.1-12.1 1.7-17.2-23.4-3.8-23.7zm57.1 27.6c1.5-3.1 2.5-6.4 3.1-9.9-.4 2.9 1.1 6.2 4.1 6.8-2.2 1.6-4.6 2.7-7.2 3.1z"/><path d="m469.5 321c-5.8-.4-7.2 9.6-1 10 5.8.4 7.2-9.6 1-10z"/><path d="m485.1 327.8c-5.8-.3-7.2 9.6-1.1 10 5.9.4 7.3-9.6 1.1-10z"/><path d="m502.9 328.7c-5.8-.4-7.2 9.6-1.1 10 5.9.4 7.3-9.6 1.1-10z"/><path d="m467.1 342.3c-7-.6-13.6 18-16.5 23.4-4.2 9-9.3 18.5-13.2 27.8-19.3 39-33.8 79.7-46.2 121.1-3.8 14.2-7.9 31.3-10.3 46.5-.5 8.5 2.2 14.5 11.4 15.9 1.4 5 8.6 3.8 9.4-1 2.6-10.1 5.9-20 10-29.6 7.5-16.7 22.5-52.6 38.5-60.7 3.1 4.9 4.5 10.8 6.3 16.3s3.8 11.6 4.2 17.5c.9 9.1 10.1 8.7 12.9.8 8.2-19.6 28.4-68.2 5-82.6 9.7-10.4 16-24 20.3-37.5 6.4-17.2 6.5-36.3-1.9-52.9-2.7-4-8.7-2.8-12.8-2.7-5.8.4-11.6-.4-17.1-2.3zm-72.7 223.6c-1-.3-2.1-.6-2.9-.9 1.6-23.4 9.7-47 16.8-69.8 15.1-49.2 36.5-95.5 59.5-141.1 6.9 2 14.4 1.6 21.4 1.2 6.1 15.1 4.3 31.2-2 45.7-4.2 12.6-11.6 23.7-20.8 33.2-5.2-.7-8.5 6.6-5.5 10.4 3.4 3.6 10.6 2 14 6.3 8.4 10.9-2.4 40.9-6.5 53-7-27.8-16.9-42.5-38.3-13.4-15.8 23.1-27.8 48.6-35.7 75.4z"/><path d="m627.6 401.4c-74 4.4-64.7-11-62.6 43l.1-.1c-.1.3-.1.7-.1 1l.1-.6c-.1 6.6.4 13.4.4 20.1-17.5.4-34.5 2.2-52.4 2.6-5.5.8-15.3-2.2-16.5 5.5 0 18.1.8 35.6.6 53.7-12.8.4-25.5.8-38.5 1.3-5.9 1.2-14.5-1-19.5 3.1-3 0-5.2 3.3-4.8 6.2l.4 14.7c.2 9.8.6 20.8.8 30.5.2 1.8-.5 6.7 1.1 8.1-19.8 1.1-40.5.1-60.4 2-11.6-5.4-7 13.6-7.7 20.7.2 12.3-.1 27.3-.1 40.3-12.7 1.2-24.6 1.8-37.8 2.2-8.3.8-18-.8-25.1 2.4-3.2 2.7-2.2 9 2.3 9.4 8.5-.6 15.1-.9 22.9-1 7.9-.7 39.3.2 43.1-4.5 7.4-1.9 3.8-11.9 4.6-17.5-.1-13.8-.4-28.5-.7-41.6 10.6-.8 21.5-1.2 32.2-1 7.4-.1 18.1.1 26.1-1 4.8.6 8.3-5 5.3-8.8 7.6-2.9 2.6-15.6 3.5-21.6-.4-10.4-.7-20.9-1-31.3 7.4-.6 15-1.1 22.4-1.2 6.8-1.2 35.6 2 36.2-4.7 2.6-.4 4.6-2.5 4.8-5.2.4-16.9-.8-33.2-1-49.9 15 .2 29.3-1.3 44.3-1.8 5.3-.8 19.3 1.3 22.1-4 6-3.7 1.8-14.7 2.6-20.6-.2-12.6-1.1-25.2-1.9-37.6l5.9-.3-.1-1.1c10.1 0 20.2-.4 30.2-.2 6.9-.8 15.2 1.2 21.5-1.8 3.7-3 1.8-10.1-3.3-9.4z"/><path d="m603.9 102.4c-5 0-5.6 5-7.3 8.9-2.1 4.5-4.7 8.8-7.7 12.7-13.1 16.1-37.9 2.7-42.6-14.4-1-7.7-12.3-4.8-11 2.5 9.7 36.5 55.4 44.4 70.4 6.2l-.1.1c3-4.6 6.7-15.1-1.7-16z"/><path d="m550 61.2c-9.8-.9-14 17.5-2.3 15.8 9.5 1.2 12.8-15.3 2.3-15.8z"/><path d="m591.4 57.8c-7.8.7-11 13.1-2.9 16.6 10.6 3.2 13.2-15.5 2.9-16.6z"/><path d="m603.2 0c-58.8-1-124.5 29.7-148.7 85-19.6 56.3 36 106.4 90.9 98.2 1.4 10 2.8 21 3.3 31.5.2 2.8 2.7 4.9 5.4 4.7 1.2-.1 2.3-.6 3.2-1.5 1.7-1.8 3-4.1 4.5-6.1 6.7-9.6 12-18.2 18-27.6 3.2.8 5-2.6 7.7-3.8 18.4-2.4 36.9-12 52.2-21.7 21.8-13.1 43.3-30.6 51.1-55.7 5.6-21.8 3.9-46-7.1-65.6-14.4-29-50.4-37.5-80.5-37.4zm-68.6 172.6c-17.1.2-33.3-6.6-46.7-16.9-16.4-11-26.1-29.7-25.5-49.5-.1-32.3 33.6-60 59.9-74.1 37-21.4 115.1-31.5 145.8 4.1 21.5 28.2 18.4 72.2-9.8 94.7-16.2 12.7-29.8 22.4-49.7 30.6-5.6 2-10.8 4.5-16.5 6.1-2.8.5-6.5 1.3-7.8 4-.7.4-1.4.8-2.1 1.2-5.4-5.5-9.6 3.4-12.1 7.2-4.2 6.4-8 12.8-12.3 19.1-.7-7.3-1.8-14.8-2.8-21.9.2-4.2-3.8-7.9-7.7-5.5-4.1.6-8.4.9-12.7.9z"/></g></svg>