<svg enable-background="new 0 0 208.2 201.2" viewBox="0 0 208.2 201.2" xmlns="http://www.w3.org/2000/svg"><path d="m93.9.4c-10.7.6-20.8 5.1-29.8 10.6-21.1 8.5-45.2 29.1-53.5 50.7-12.3 32-17.6 73.5 6.3 101.6 13.9 17.2 34.8 23.3 55.5 29.6 14.4 4.5 27.1 7.8 42.1 8.3 54.4 1.8 102.4-51.6 92.7-105.8-4.3-54.4-59.6-98.7-113.3-95z" fill="#fcb415"/><path d="m26.5 65.7h158.9v105.2h-158.9z" fill="#fff"/><g fill="#9e6418"><path d="m74.3 140.2c-8.3 3.8-1.1 15.4 5.8 9.8 5.5-4.3.7-13.4-5.8-9.8z"/><path d="m90.5 149.3c-7.5 3.6-2.9 16.2 4.8 10.5 5.2-3.8 1.9-13.6-4.8-10.5z"/><path d="m114 151.2c-9.9 4.4-2.5 15.3 5.7 9.6 4.8-3.9.2-12.6-5.7-9.6z"/><path d="m136.7 146.5c-7.5 2.3-4.3 14.6 3.4 11.2 7.6-2.7 5.1-15.4-3.4-11.2z"/><path d="m98.7 94.9c-6.7 1.2-6.1 13.2 1.4 11.6 6.4-1.4 5.9-12.8-1.4-11.6z"/><path d="m118.2 97.4c-10.4 5.9 4.1 16.5 6.8 4.9.5-3.6-3.5-6.9-6.8-4.9z"/><path d="m194.3 158.8c-1.2-21.6-1.2-43-1.3-64.6-1.4-9 3.6-29.4-7.6-32.6-19-3.2-39.5 1.9-59 .1-2.8-8.9-11.4-15.5-15.2-24.2-1.2-3.3-4.6-5.7-8-3.8l.1.1c-.2.1-.4 0-.6.1-2.8.6-20 22.9-19 25.6-4.8-.1-9.5-.4-14.3-.2h.1c-9.7.2-19.2 1.1-28.9 1.4-7.4.7-21.9-3.3-22.4 7.7.9 19.7 2.5 39.4 3.3 59.2 1.3 14.9-.3 30.6 3.6 44.8-.8 5.7 5.2 5.8 9.2 4.7 6.4-.4 12.8-.3 19.1-.7 19.3-.3 38.8-1 58.2-.8 19.2-.4 38.3 1.5 57.5 1.5 6.9-1.3 21.5 4.7 23.7-4.3 3.5-3.8 1.1-9.5 1.5-14zm-98.6-101.7c2.6-3.3 5.1-6.6 7.6-10 2.7 4.8 5.8 9.6 9.2 13.8-6.4-.2-12.7-.6-19-1.1.7-.8 1.4-1.8 2.2-2.7zm87.8 109.8c-10.8-.6-21.4-.1-32.2-.7-3-15.4-16.4-9.3-10.9-.5-9.4-.5-20.2-.5-29.8-.4l.1-.1c-12.1 0-24.1.1-36.3.6 6-6.3 1.7-15.9-5.4-9.1-1.6 2.9-4.2 5.8-4.6 9.2-10.2.2-20.5.6-30.6 1.3-1.4-32.5-4-64.9-6.4-97.3 21.5.7 43.2-2.5 64.7-.4 9.6 1 19.2.5 28.8.5 20.1 1.4 40 .7 60.1.1.3.4.8.8 1.3 1.1 2.1 31.7-1.4 63.8 1.4 95.7 0 0-.1 0-.2 0z"/><path d="m150.2 106.2c0-8-5.3-14.4-10.7-19.8-17.9-24.8-62.5-15.9-66.8 15.9-7.7 58.3 81.7 65.4 77.5 3.9zm-12.9 14.6c-4.4 18.5-30 21.2-43 10-13.4-9-16.2-30.1-4.6-41.7l-.7 1c6.6-7.6 17.7-8.7 27-6.5l-1.3-.3c17.2 2.2 27.4 21.5 22.6 37.5z"/><path d="m95.4 117.6c-9.2 13.4 19.8 19.5 26.9 10.3 4.7-3.1 3.4-12.2-3.1-10.9-2.3.3-3.3 2.8-5.5 3.4-10.7 3.7-11.6-8.1-18.3-2.8z"/></g></svg>