<svg enable-background="new 0 0 784.3 578.1" viewBox="0 0 784.3 578.1" xmlns="http://www.w3.org/2000/svg"><path d="m362.6 0c-127.2 5.7-269.2 55.3-339.6 167.7-38.9 69-21.2 151.7 4.9 221.5v-.1c60.4 143.1 179.6 177.4 323.1 186.5 101.8 10.9 215.8-1.8 288.8-81.9 95.7-92.1 186.1-278 50.9-375.1-83.9-91.9-207.6-122.6-328.1-118.6z" fill="#ff4143"/><path d="m96.8 232.1c-4.2.9-8 2.9-11.1 5.9-18.4-2.2-12.1 54.9 12.8 38.6 19.3-4.6 20.1-44.7-1.7-44.5z" fill="#fff"/><path d="m123.9 450.9c-9.6-23.8.4-125.6-23.7-133.3-1.8-5.5-7-10.8-13.2-9.1-9.9 3.5-15.7 10-19 18.1-.9-3.9-3.1-6.9-7.1-5.7-18.9 16.3-69.4 54.9-18.5 64.6-8.3 4.2-10.2 15-5.7 22.7 5 6.8 12.8-6.4 17.2-9.2 3.7-4.4 10.2-6.5 12.7-11.7.7 7.5 1.5 42.9 5.5 70.7-5.4 3.2-4.8 12.7-3.1 18 1 2.1 2.1 4.7 4.8 4.8 10.1-1.4 20.3-2.8 30.5-3.9 6.8-.6 14.2.2 20.3-3.2 5.1-3.7 5.8-20.4-.7-22.8zm-61.1-82c-6.6-3.1-14.3-3.8-21.6-5.4 7-7.6 15.2-14 23.1-20.6-.7 9-.1 18.6.7 27.7-.6-.7-1.3-1.3-2.2-1.7z" fill="#fff"/><path d="m297.2 197.2c-34 1-70 3.9-103.8 4.6-18.2-27.1-5.8 81.2-10.5 88.3-9.2-21.7-24.7 41.6-29 47.5-10.1-8-22.5-12.3-33.5-18.7-4.4-2.6-7.1 4-7.7 7.7-.7 5.2-.4 11.7 3.8 15.3 9.2 5.5 19.3 9.7 28.1 15.9 14.8 13.1 16.5-2 21.6-13.6 6.9 6 11.9-13.5 14.7-17.7.5 2.1 1.4 4.5 3.1 6.1 1.3 28.9.6 57.9 1.2 86.7 2.2 8.5-5.2 32 10 28 62.2-10.9 125.2-5.1 187.9-3.4 7.9-2.7 6.8-15.4 3.4-21.1-.7-25.8-3-51.5-3.5-77.3 2-2.5 2.5-6.7 2.4-8.8-1.1-27.3.3-70.5-5.4-102.3.4-42.5-53.4-35.5-82.8-37.2z" fill="#fff"/><path d="m521.3 255.1c-.1-2.7-2.2-6.8-4.8-8.1-5.9-17.9-34.2-3.5-35.1 11.2-1.5 18.5 9.3 30 26.2 17.8.3 3.3 1.8 6.2 5.2 7.6 6.6-1.6 9.3-22.5 8.5-28.5z" fill="#fff"/><path d="m574.8 240.4c-1.2.2-2.3.6-3.4 1.1-23.9-4.7-33.4 41.2-8.2 43.6 7.8-1.1 16.7-4.2 21.1-11.1 5.2-9.4 6.2-35.3-9.5-33.6z" fill="#fff"/><path d="m645.4 237.1c-9.2 1.2-19 5.1-23.5 13.6-6 10.7-4.5 29.5 10.7 30.2 35 8.1 42.8-46.2 12.8-43.8z" fill="#fff"/><path d="m690.8 238.4c-7.5-.5-11.4 3.4-11 10.9.1 8.6 3.1 11.2 11.4 9.7-1.1 7.5-6.7 20.8 2.8 24.7 6.9-2.5 5.8-13 7.6-19 2.8-9.3 3.5-28.4-10.8-26.3z" fill="#fff"/><path d="m753.8 265.1c.7-4.7-.4-22.6-8.7-19.9-6.3 4.4-6.7 30-4.7 37.3-3 12.6-12.4 22-17.7 33.6-3.6 5.8-5.8 19.9-15.1 16.7-18.2-5.4-39.6-2.5-57-9.9-8.8-35.2-37.3-4.6-51.5 8.7-6.2-7.8-9.5-20.2-17.8-25.6-19.6-9.5-38.4 22.2-49.6 34.5-5.3-12.9-7.3-33.9-24.1-37.2-13.2 1.3-26.1 11.2-28.6 24.6-8.7 43.5-12.2 88.8-10.4 133.4-2 5.2-2.1 15.4 4 17.1 43.3-5.4 87-6 130.6-4.4 16 .1 32 2.2 48.1 1.8 8.6-2.9 3.7-14.6 6.1-21.1h-1.4c2-16.9 2-35.1 3.8-52.5.5-8.8 6.8-29-3.6-33.3-1.1-7.2-2.1-14-2.5-20.9 16.9 5.6 31.9 18.8 50.1 13.4 6.5 2.3 13.1-.3 15.7-6.7 6-11.3 11.2-23 17.8-34 7-9.3 9.9-20.1 14.5-30.9 7.4-4.7 10.9-20 2-24.7z" fill="#fff"/><path d="m671.3 60.8c-10.1 2.1-20.5 2.4-30.8 1.1-26.3 3.4-50.4 30.7-54.8 57.4-2.5 9.3-2.5 39.6 13.6 30.1-1.6 14.1 9.8 24.3 23.1 26 1 9.6 11.9 6.4 18.6 7.5 4.5 15.7 9.8 29.9 17.1 5.2 10.2-4.7 18.8-12.6 26.8-20.3 25.5-5.2 59.2-30.4 50.8-58.9 2.3-12.6-2.2-27.9-14.1-33.8-13.2-6.9-34.9-17.5-50.3-14.3zm-76.8 66.3.2.2zm49.6 64.5v.1zm11.9.6c0 .2 0 .4-.1.6z" fill="#fff"/><path d="m549.8 65.8c3.1-69-95.5-60.6-128.2-21.3-7 6-16.6 19.3-6.5 26.5-6.8 13.6-12 28.7-7.8 44.1 4.9 16.8 19.8 36.1 38.5 35.8 8 3.9 16.8 6.2 25 6.9.6 3.3 2.3 8.5 6.6 8 5 19.7 16.4-5.9 17.3-14 19-8.8 42.9-20.2 48.7-42.1 10.6-12.8 9.6-26.5 6.4-43.9z" fill="#fff"/><path d="m510.7 69.8c-6.8 2.2-14.2 3.3-20.2 7.1-4.7 3.3-9.5 6.3-14.6 9-5.2-2-12.4-10.7-17.1-4.5-13.6-11.9-17.6 27.1 1.6 30.1 1 15.5 21.5 18.6 31.2 9.2s37.3-40.9 19.1-50.9z" fill="#ff4143"/><g fill="#8b0f26"><path d="m504.7 61.8c-9.8.3-20.6 4.9-25 14.3-61.3-27.3-43.1 56.3 5.3 57.3 3 1.3 6-.7 7.6-3.2 18.3-12.4 47.9-60.7 12.1-68.4zm-23.2 29.6c6.8-.6 5.6-9.2 10-13 20-13.4 22 5.6 13.4 20.7-4.7 9.2-12.7 15.6-19.9 22.5-37.3-8.7-49.1-60.1-3.5-30.2z"/><path d="m494 9c-57.3-2.6-109.3 56.8-90.2 112.8l.1-.1c10.1 26.4 39.2 44.6 67 45.1 15.6 35.8 20.4 22.7 26.2-6.7 75.7-17.5 93.3-152.8-3.1-151.1zm-23.9 147.3c-106.4-17-53.9-153.1 37.3-134.6 70.5 14.1 41.8 112.3-12.8 128.4-8.2-.3-7.5 15.2-9.9 21.2-2.1-4.1-4-7.9-5.8-11.6-.7-4.6-5.4-3.9-8.8-3.4z"/><path d="m669.7 52.8c-86.3-10.5-124.1 108.9-34.3 134.6 12.3 27.6 16.4 36.1 27.6 2 90.5-20.1 120.7-133.2 6.7-136.6zm-19 142.5c-3.6-5.1-4.4-13.5-9.5-17.3-14-4-24.9-11.8-35.7-20.9-15.3-15.4-13.1-42.1-5-60.6 65.9-91.1 223.8 18.7 64.5 79.7-9.2-7.4-11.1 14-14.3 19.1z"/><path d="m669.1 88.2c-29.8.3-19.3 6.5-21.2 29.6 1 5.6-4.5 25.9 4.7 23.8 4.6 4.1 10.4-1.6 10.1-6.7.6-5.8 2.4-11.4 4-16.8.4-7.3 15.9-29.9 2.4-29.9z"/><path d="m653.4 147.4c-8.7.6-11.4 17.3-.9 17 8.9-.8 11.5-16.3.9-17z"/><path d="m505.3 233c-13.4.9-27.6 9.9-31.3 23.4-.6 5.1-5.9 11.6-.7 15.7 4.1 16 25.3 20 38.7 14.5 12.9-8.4 24.4-26.5 13.6-41-4-7.4-11.7-12.8-20.3-12.6zm-5.6 43c-6.4-.1-16.6-3-15.8-11 3.1-9 9.4-17.7 19.5-18.9 21.9 1.1 15.5 30.4-3.7 29.9z"/><path d="m453.9 230.6c-8.2 1.4-9.2 17.3 3.2 15.2-1.6 3.1.5 7.1 4 7.1 11.2-3.9 11.8-18.6-2.8-17.6.1-2.6-1.9-4.6-4.4-4.7z"/><path d="m478.8 207c-4.3 0-6.8 5.6-4.2 8.9 1 1.2 1.7 2.5 2.1 4-.1 3.2-2 6 .2 8.9 11.9 9.2 12.8-21.1 1.9-21.8z"/><path d="m511.2 208.2c-11 3.3-4.1 10.2-6.4 14.7-1.5 12.6 13.7 6.1 9.8-6.6 2.4-2.9.6-8.1-3.4-8.1z"/><path d="m535.4 215.3c-4.4-.1-4.9 4.7-6.5 7.8-4 4.3-7.7 18 2.5 14.8 2.5-1 2.9-4.4 3.8-6.6 3.2-4.2 8.6-14.8.2-16z"/><path d="m745.5 245.1c-7.7.5-6.5 16.5-9.1 22.4-8.7 12.5-20.1 74-42.6 61.1-15.8-6.3-33.5-7.4-42.5-23.1-19.8-14.9-44.4 4.8-55.2 22.1-9.4-44.8-48.5-26.4-61.9 4.8-2-10.5-3.2-27.7-16.3-31.5-22.5-4.4-39.8 3-47.5 25.3-11.5 42.4-6 88-8 131.7.3 5.8-2.9 23.3 7.6 17.4 3.9-5.1.8-11.8 2-17.7.9-33.1.5-66 2.5-98.9.7-26.3 8.9-56.5 41.9-46.8 10.7 6.7 3.7 52.5 18.1 42.4 7.2-2.2 5.9-13.5 10.1-19.3 5.7-10.4 14.5-20.9 27-22.6 13.8 2 9.2 26.4 20.9 30.3 2.3 3.6 7.9 2.1 9-1.8 4.4-17.8 40.2-43.4 47.4-14.8 9.1 42.4 6.2 83.5 4.8 125.9.1 7.2-2.5 15.8.3 22.5 4.1 5.2 11.5.1 10.7-5.8 2.3-37.5 4-75.9 1-113.2 54.8 45.1 73.7-19.1 88.1-62.8 24.1-9.8 2.7-44.8-3.6-26.5-.2 5.4 9.5 10.4 2 15.3-3 1.8-6.3 2.5-7.7 6.2-12.7 26.6-19.8 87.5-60.5 65.5-6.4-3.1-12.3-13-19.9-11-.5-4.3-1-7.9-1.6-11.3 27.2 8.8 45.9 24.7 62.6-8.5 9.2-17.8 17.4-35.6 20.7-55.1.1-5.8 8.5-20.6-.3-22.2z"/><path d="m574.4 234.1c-8.2-2.4-45.4 19.4-30.8 27.5-9.5 25.4 25.8 40.6 43.2 24.6 19.5-14.8 16.4-51.8-12.4-52.1zm-13.6 18.8c2.6-.1 4.9-2 5.4-4.6 21.4-7.9 28.6 18.4 11.9 29.4-19.8 8.9-33.5-8.1-18.8-25.2.5.3 1 .5 1.5.4z"/><path d="m646.8 229.8c-21 1.7-44.9 27-33.4 48.4 17.3 20.4 57.2 10.8 60.6-17.2 2.7-.1 5.5-.1 7.7 1.6 1.8 11.1-2.8 22.9 2.1 33.7 3.2 8.1 22.3 10.8 19.6-1.6 1.8-2.3 1.3-5.1.5-7.7 1.3-9 5.8-18.2 7.6-28 5.3-31.2-23.2-31.2-41.2-15.3-5-8.1-14.1-13.7-23.5-13.9zm-6 46.8c-48.8-.4 7.8-58.2 21.3-21.6 2.4 11.9-10.2 22-21.3 21.6zm51.7 7.9c-.8-12 5.4-32.3-12.1-34.6 33.9-17.1 15.2 18.1 12.1 34.6z"/><path d="m726.3 215.4c-3.1-.1-5.6 3.3-5.1 6.3 1.1 4.1 5.1 5.8 7.7 8.8 3.3 4.8 10.2 1.7 9.5-3.9.2-2-10.1-11.8-12.1-11.2z"/><path d="m760.5 207.5c-3.7-.5-5.8 6.4-7.3 8.8-2.4 3.4-4.5 10 1.6 10.5 5.3-.7 6.1-8.1 9-11.9 2-2.8.5-7.5-3.3-7.4z"/><path d="m779.8 235.7c-5.9.8-27.5-.3-17.8 10.4 1.3.7 2.7.8 4.1.4 5.2-1.3 12.2.3 16.8-2.6 3-2.7.8-8.1-3.1-8.2z"/><path d="m348.8 192.6c-39 1.3-82.2 2.6-122.2 2.8-7.7.3-42.6-.1-45.4 5.2-2.6.8-4.3 3.5-3.9 6.2 1.4 18.7 1.8 33.9 2.3 51.6.4 5.5-1.8 21.5 8.3 15.3 4.1-5.1 1-14 1.5-20.3-.4-15.2-1.2-29.7-2.2-45.3 55.3-4.5 111-1.9 166.2-4.8 1 8.6.4 15.6 2.8 22.4-1.3 9.7 18 5.5 23.6 4.8 4.8 69.7 3.3 139.2 6.2 209-66.3-6-131.8-.7-198.4.7 0-23-.1-45.7-.9-69l-.1.6c-.6-6 1.2-13-1-18.8-2.7-3.6-8.4-1-8.6 3.2 0 20.1.8 35.6.5 57.2 0 5.6-.1 16.6-.1 22.2.3 4.9-2 17.1 6.6 14.7 66.6-1.1 133.6-5.9 200.4-.3 4 .9 9.6.8 10.1-4.4 5-5.5.8-15 1.5-21.9-1.3-60.3-1.6-121.2-6.3-181.5-.1-1.2-.3-4.1-.4-5.4-1.4-4.9 2.3-13.9-4.3-15.4-1.4-5.4-21-32.3-26.6-27.7-2.7-2-6.4-.8-9.6-1.1zm23.3 27.7c-2.4-.1-4.8-.1-7.1-.1-.4-3.5-.7-6.8-1-9.9 2.9 3.3 5.8 6.1 8.1 10z"/><path d="m293.9 254.6c-10.4 0-22.7 5.4-28.2 15.2-1-.4-2-.5-3.1-.4-2-3.3-1.9-9.3-6.7-9.7-5.5.8-10.9 2.6-16.2 3.9-17.7-1.8-46 7.7-59.2 20.7-2.6 16.9 22.3-5 29.8-5.5 1.6 5.4 3.8 10.6 6.6 15.5-7.2 3.4-22 2.4-16.5 13-5-5.1-13-.3-10.6 6.4.7 2.5 3.8 2.7 4.9 4.9.1 2.8.3 6.5-1.5 8.9-7.6 6.2-8.9 2.3-13-3.9-4.1-3-8.3 1.2-9.5 5.1-15.4 37.8-23.7 19-49.7 5.9-.3-2.3-.9-5.2-1.4-7 8.7 4.9 17.8 14.8 28.6 13.3 17.5-7.6 24-29.1 31.7-45 2.6-6.2-5.9-10.9-9.4-5.1-3.6 6.5-6.8 13.5-10.3 20-3.7 6.7-7.4 13.9-13.8 17.6-9.9-1.1-32.1-22.3-37.5-19.6-11.8-8-32.7-3.5-43 4.9-11.2 12.2-26 21.9-37.6 34.4-26.2 25.8-37.2 27.4 5.4 39.8-24.3 25.8 8.1 40.4 24.1 13.9.6 17.8 4.5 34.5 6.3 52.3 1.8 7.2-.8 16.1 3.3 21.9 3.6 2.8 8.5-1.5 7.7-5.5-.7-17.5-2.9-33.4-5.6-50.5-2.3-18.4-2.8-36.6-2.8-55.4.5-15.9-3.2-32.4 8.3-44.9l.9-.4c2.7 5.9 6.4 13.4 9.3 19.7 1.8 3.5 1.8 8.6 5.9 10.1 10.1 2.2 11.2-19.3 14.7-26.2 12.5 43.3 10.6 90.4 14.6 135.2.5 6.9 0 26 11 16 1.2-41.2-4.5-82.9-8.4-124v.1c25.1 18.9 40.7 20.7 54.6-10.5 18.3 12.5 38.1-17.8 23.5-32 8.9 3.1 33.3-9.2 39.8-15.5-1.9 4.6-.2 10.9 1.1 15.3-14.6 11.9-1.4 47.5 22.7 34 15.6 24.9 54.9 16.9 63.3-10.3 26.1 7.4 36-34.7 16.8-48 8.4-22.7-20-30-35.2-19-3.4-6.1-9-10-15.9-9.7zm-25.6 28.7c4.7-.1 5-4.9 5.1-8.4 6.1-9.8 24.8-15.5 29.9-1.8.9 5.1 7.4 6.8 9.7 1.6 8.9-10 34.8-3 17.7 10.3-3.8 5.1 2.6 11.9 7.7 7.5 7.6 4.1 6.3 16 4 23.2-2.6 3.9-8 4.2-12.2 5.1.3-17.8-14.9-34-33-33.8-10.1.5-32.5 6.3-33 18.2-5.3 8.1-8.5 17.6-4.7 26.8-10.1 4.5-13.6-6.9-12.6-15.1 1-.6 2-1.1 3.1-1.4 3.8 1.6 8-2.3 7.2-6.2-.3-4.3-5.6-3.5-6.1-7.5-4.1-7.9 7.9-12.1 1.1-18.2 2.3-1.1 4.7-2.2 6.9-3.3 1.2.4 2.5.4 3.6-.2 2.3 1.1 3.1 3.3 5.6 3.2zm-21.7-7.5c-.3-.8-.9-2.6-1.2-3.4 2.4-.5 4.9-1.2 7.2-1.8.2.6.4 1.2.7 1.8-2.2 1-4.4 2.2-6.7 3.4zm-20.1 14.3c-2.7-4.5-4.8-9.2-6.5-14.2 5.1-1 10.2-1.6 15.3-2 .8 2.5 1.7 5.1 2.6 7.7-3.4 3.2-7.3 6-11.4 8.5zm68.6 53.3c-37.4-2.1-31.9-47 5.6-42.8 26.7 6.1 19.7 43-5.6 42.8zm-202-13.4c-2.1-4.4-4.4-9-6.5-13.4 4.2-.4 7.1-1.3 11-.2-1.6 4.4-2.9 9.1-4.5 13.6zm-55.4 74.7c-.7.1-1.3-.1-1.9-.5.5-6.1 6.1-9 10.1-12.6 11.8-14.1-17.8-16.5-26.1-20.5 12.4-11.6 24.6-24.1 37.6-35.6-.4 3.1-.5 6.2-.5 9.3-19.2 13.9-38.3 23.9 0 26.8 0 5.1.1 10.1.2 15.1-7.6 4.6-9.4 16.4-19.4 18zm15.4-44.5c1.2-.9 2.5-1.9 3.7-2.8l-.1 3.2c-1.4-.1-2.7-.2-3.8-.4z"/><path d="m252.2 212.4c-12 1.2-24.8 2.7-37 4.1-4.1.8-5.6 7-2.2 9.4 7 2 14.9-1.2 22.7-1.3 4.8-1.2 17.9-.2 20-4 2.2-3.1.4-8.2-3.5-8.2z"/><path d="m245.6 227.6c-8.9.9-17.8 1.5-26.9 2.2-4.6-.7-8.4 4.6-5.5 8.5 3.5 4 24.8-.9 31.6-.5 6 .2 7.2-10.1.8-10.2z"/><path d="m322.8 213.9c-6.5 1.3-32.6-2.4-32.3 5.7-.1 9.5 15.5 3.4 21.5 4.5 5-.9 13.8 2.1 14.9-5 .2-2.4-1.5-5.3-4.1-5.2z"/><path d="m326.6 227c-7.2.7-27.4-.3-30.9 4.7-2.5 3.7.4 9.3 5.1 8 7.8-1.1 15.6-1.7 23.5-1.6 6.9 1.2 9.7-10.3 2.3-11.1z"/><path d="m243.3 382.3c-13.4.9-27.1 2.6-40.1 4.5-4.1.9-5.5 6.8-2.2 9.3 12.6 1.5 25.3-3.1 41.7-3.7 5.5-.3 6.4-9.6.6-10.1z"/><path d="m234.8 396.2c-6.2.9-30-.6-31.2 5.4-3.6 1.1-4.1 5.2-3.8 8.4l.1-.3c-.1 2 0 4.7 0 6.7l.1-.2c-1 27.6 8.1 10.2 33.8 12.6 8.7-3.2 6.6-15.5 6.9-22.8.5-4.3-1.4-9-5.9-9.8zm-24.8 23.5c-.1-3.9-.2-7.8-.2-11.7 6.8-.6 13.6-1.2 20.6-1.5.2 3.8.1 7.6-.3 11.4-6.8 0-13.5.6-20.1 1.8z"/><path d="m270.7 356c-9.1.5-10.4 15.8-1 17.3 9.1.4 10.6-17 1-17.3z"/><path d="m298.6 361.5c-6.3-.8-12 8.4-6.2 12.6 8.3 11.1 19.2-11.9 6.2-12.6z"/><path d="m325 353.3c-13.3-.1-13.2 20.9-1.4 14.9 9.1 1.1 10.9-14.5 1.4-14.9z"/><path d="m311.7 389.5c-9.3 0-18.9.1-28.1.3-4.4-.2-7 5.5-4.5 8.9 5.1 4 14.8.6 22 1.6 5.9 0 11.8 0 18.1-.2 4.5.1 7-5.8 4.1-9-3.3-2.8-7.1-1-11.6-1.6z"/><path d="m310.2 401c-8.5.1-16 .5-25 .5-7.8.7-6.3 11.9 1.8 10.1 6.4-1.2 26.7 3.4 27.3-5.2.4-2.6-1.6-5.4-4.1-5.4z"/><path d="m369.5 371.6c-6.9 1-24.1-.6-28.7 4.2-2.5 6.9.2 15 0 22.3.2 3.5.4 7.1.9 10.7.4 4.6 7.1 5.8 9 1.6 2.2 5.1 9.2 1.8 13.3 2.2 7.1.2 14.7-2.7 12.7-11.2-1.6-7 3.2-31-7.2-29.8zm-18.1 32.9c-.6-7.9-.9-13.6-1.4-21.5 5.5-.6 11-.9 16.5-1.1.1 6.5 0 12.9 0 19.5-4.9.8-11.6-.9-15.1 3.1z"/><path d="m94.9 216.5c-13.2-.5-25.8 5.4-33.9 15.8-6.6 9.5-6.8 23.6-16.7 31.1-4.4 3.5-13.2 4.3-13.4-2.9.6-2.9 2.8-5.5 2.4-8.5-.4-5.2-7.6-6.4-10-2.1-16.3 30.6 24.7 41 38 10.6 4.6-7.2 5.1-17.2 11.2-23.3-19.6 23.9 5.9 60.2 34.4 44.7 27.3-21.8 13.2-61.2-23.8-49.7-2.8-1.1-5.2 1-7.6 2.4 10.8-7.9 25.4-6.8 37.2-2.3 2.4-.1 4.5-1.7 5.3-4 3.2-10.3-16.2-11.7-23.1-11.8zm-14.7 28.7c8.4-3.6 19.6-5.2 27.4.9 5.2 7.6 1.6 20-5.6 25.4-16.9 7.6-33-10.1-23.3-26.5.5.2 1 .2 1.5.2z"/></g></svg>