<svg enable-background="new 0 0 206.8 204.4" viewBox="0 0 206.8 204.4" xmlns="http://www.w3.org/2000/svg"><path d="m206 73.8c-2.4-25.3-20.8-45.5-43.2-55.8-12.1-8.6-39.7-18.4-54.5-17.8-4 .6-8 1.1-12 1.8-34.7 4.2-65.6 27-84.2 56.1-3.9 9.8-7 20.8-9.4 31.1-4 21.6-4.6 45.3 4.2 65.8 9.7 21.7 51.3 54.2 75.6 47.6 26.9 4.8 56.6-1 79-16.8 13.6-8.9 27.7-18.6 35-33.6 7.9-14.4 10.6-31.5 8.7-47.7 1.7-10.2 2.1-20.5.8-30.7z" fill="#d4b9c8"/><path d="m186.6 161.7-149.8 7.4-3.8-120.6 144.7-3z" fill="#fff"/><g fill="#741448"><path d="m190.2 162.3c-.8-26.7-3.4-53.7-3.1-80.7-1.4-6.6 4.2-27.6-2.4-29.3-.7-4.6-13.3-14.3-17.8-15.3-.6-.5-1.4-.7-2.2-.9-42.1 3.6-84.9 2.6-126.9 6.3-12.5 2-10.1 16.7-10.4 26.2-.1 12.7 1.1 25.4 2.4 38 1.4 12.1 2.5 24.3 3.3 36.4 1 9.2-.6 18.9 2.4 27.6.3 7.3 9.4 3.6 14.1 4.2 11.8.1 23.6-.5 35.3-.2 14.8.9 29.8-.3 44.6-1.3 18.5-1.3 37.4-.4 55.8-3.4l-.2.1c3.7-.5 6.2-4.2 5.1-7.7zm-19.5-109.9c.6.5 1.9 1.6 2.4 2-1.9.8-3.9 1.7-5.9 2.4 0-1.9-.1-5.1.2-7.1 1.1 1 2.3 1.9 3.3 2.7zm6.9 107.9c-25.3 1.7-50.8 2.7-76.2 4.6-19.4-.3-38.5-.2-57.9.4 2.6-37.6-8.2-74.5-5.7-112.3 1.5-.4 3.1-.9 4.1-2.2 38.7-1.6 77.6-2.3 116.3-4.4-.9 21.7-3.9 28.7 20 16.9-1.3 31.6-.9 64.7 1.8 96.7-.9.1-1.6.2-2.4.3z"/><path d="m66.8 74.5c-1.5 1.6-3.1 3.4-4.6 4.9.6-7.2-9-7.7-10-.8-.1 5.5 2.8 17.5 10.4 14.2 4.3-2.9 7.4-7.3 10.9-11.2 3.7-4.5-2.1-11.3-6.7-7.1z"/><path d="m68.7 112.7c-2.1 2.1-4 4.1-6.2 6.2-.8-3.8-2.6-8.6-7.2-6.6-5.5 3.3-1.4 8.8-.5 13.9.3 4.7 5.4 8.5 9.1 4.2 3.7-3.7 7.2-6.8 10.9-10.9 3.8-4-1.6-10.7-6.1-6.8z"/></g><path d="m107.7 58c-6.8 2.2-2.7 11.2-3.4 16.4.4 10.2.8 20.5 1.2 30.7.7 14.7 1.6 30 2.7 44.6-.3 5.4 7.3 6.6 9 1.6.6-20.1-2.7-39.9-3-60.4-.3-6.5-.8-12.8-1-19.3-.8-4.5 1.6-14.2-5.5-13.6z" fill="#d4b9c8"/><path d="m140.3 72.2c-1 1-2 2.1-2.9 3.3 0-4.5-6-6-8.3-2.2-2.4 3.4.3 8 .6 11.4.1 4.2 3.7 9.4 8.2 6.1h.1c2.2-1.7 3-4.6 4.9-6.6 1.3-2.1 4.7-4.6 5.1-7.6.9-4.2-4.3-7.4-7.5-4.3z" fill="#741448"/><path d="m150.7 128.4c-.5-3.3-3.9-5-5.9-7.4 3.7-2.9 2.6-10.1-2.8-9.3-1.5.3-2.6 1.4-3.5 2.6-2-3-5.4-6.1-8.8-3.1v-.1c-4.3 3.7-.7 8.4 2.4 11.5-8.2 7.2-.2 17.4 6.4 6.8 4.1 5.4 11.5 8.2 12.2-1z" fill="#741448"/></svg>