<svg enable-background="new 0 0 721.8 754" viewBox="0 0 721.8 754" xmlns="http://www.w3.org/2000/svg"><path d="m410.1 81.8c-102.3-3.3-174.7 31.6-253.9 91.7-78.2 58.4-87.9 65.3-125.1 157.1-51 155.9 31.9 336.4 182.1 401.6 58 21.7 126.7 21.6 187.7 11.9 82.7-15.6 168.7-47.6 224.6-113.3 74.8-85.1 100.4-213 72.3-321.5-39.7-127-147.7-234.1-287.7-227.5z" fill="#ff4143"/><path d="m372.7 56.8c-54.3-5.8-99.8 38-110.2 89.1-2.6 19.4-10.5 46.5 2.9 63.1 3.7 10 9.2 24.1 20.5 26.6 26.3 50.1 102.3 43.6 140.7 11.3 45.1-38.5 22.4-120.6-7.1-162.4.3-26.1-26.7-28.4-46.8-27.7z" fill="#fff"/><path d="m594.7 295.7c-7.3 1.9-10.2 20.8-14 27.5-9.4 22.6-18.2 45.6-26.4 68.6-5.8 21.4-21.3 43.7-19.4 65.5.5 4.1 4.4 11.9 9.2 7.3 5.6 3.3 11.4-1.2 14.9-5.4 10.2-7.8 32.7-13.4 38.3 2.1-2.6 5.3-2.2 23.3 7 18.7 2.8 4.1 8.7 1.5 12.7 3.1 11.1 2.1 22.3 6 33.9 4.7 12.1 11.1 12.8-5.7 16.6-13.7 11.9-25.2 15.5-52.2 21.9-78.8 2.9-1.1 4-6.4 5.2-9.5 5.7-2.5 4.8-11 6.9-16.2 1.9-7.3 4-14.5 6-21.8 4.9-11.5.5-35.9-11.7-15-12.1-8.8-28.6-12-42.5-17.4-18.8-7.8-39-14.8-58.6-19.7zm16.2 106.3c-55-16.8 24.6-82.9 32.9-37.4 5.5 4.2 3 11.4 2.6 17.2 6.9 13.8-14.7 35.8-26.7 22-3 .1-6.2-.1-8.8-1.8z" fill="#fff"/><path d="m646.9 376.2c0-.1 0-.2 0-.3z" fill="#fff"/><path d="m275.5 403.6c-31.2 7.1-23.6 44.7-6.1 62.2 5 4.8 12.5 5.9 18.6 2.6 7.9.2 16.6-2.1 21.8-8.5 3.4 3.9 6.3-1.8 8.7-4 5.4-3.9 4.6-37.3-5.2-33.1-5.3-15.3-22.1-24.7-37.8-19.2z" fill="#fff"/><path d="m477.5 400.5c.7-4.6-.4-16.1-7.1-13.6-.1 0-.2 0-.2.1 1.3-20.7-7.6-15.5-21.3-8.7-8.6 4.1-17.2 8.5-25.5 13.2-9.6 6-25.8 9.7-22.1 24.2.4 2.4 1.9 7.1 4.7 7.4-.8 4.5 2 17.4 8.9 11.5-.2 15.5 13.3 12.5 23.5 8.6 1.1 15.7 19.5 10.2 28.7 5 12.3-6.2 23.4-10.5 16.8-26.7 10-5 7.4-32.4-6.4-21z" fill="#fff"/><path d="m581 443.8c-21.4 21-44.2 105.9-74.6 111-2.5-1.3-5.2-2.8-8.1-3.1-5-4-8.5-10.8-14.3-13.3-7.6 2.3-5 12.7-6 18.8.7 14.3 13.9 26 26.7 30.5.3 9.3 6.9 13.4 14.7 7.5 10 32.9 55.3-83.9 60.2-93.2 14.8-2 30.8-19.7 17.7-33 1.8-5-1.4-20.6-8.4-13.2 0-4.5-1.9-14.6-7.9-12z" fill="#fff"/><path d="m173.1 425.7c10.1-18.3-11.1-30.8-20.2-44.2-7.3-8.8-14.2-18-21.2-27.1-4.5-3.7-11.9-21.9-17.4-15.7-2.6-6.5-5-13.8-12.5-13.4-29 7.2-48.2 33.1-72.7 48.7-1-3.1-4.7-5.4-7.1-2-2.6-2.4-5.6 1-6.3 3.6-4.4 16.1 10.4 28.2 17.4 41.6 17.5 27.7 35 53 49.8 82.5 2.9 4.5 3.2 12.9 9.8 13.4 11.7-3 28.4-8.9 25.8-23.7 8.5-10.7 22.2-14.4 35.6-13.9 38.9 5 43.5-25.7 19-49.8z" fill="#fff"/><path d="m238.6 552.6c-6 18.2-41.6 33.6-49.7 10.8-6.8-20.2-12.5-40.7-19.2-60.9 1.1-6 0-13.3-5.4-15-.2 0-.3.1-.5.1-.9-1.2-2-2.1-3.4-2.6-6.2-.3-23-10.5-26.4-5.3-3.3 7.9-3 12.6-.1 15.9-12.1.6-15.5 15.8-7.9 23.8 9.7 0 20-6.2 30.1-7 6.6 26 12 45.6 17 70.5-.7 19.6 19.6 33.5 39.5 30.9 22.2-3.7 29-28.6 35.4-46.6 3.8-6.6-2-28.2-9.4-14.6z" fill="#fff"/><path d="m347.6 735.6c-.2-4.7.5-18.3-5.7-18.9-11.4-52 15.8-200.7-58-206.1-61.5 36.8-37.7 157.4-29.5 217.9-9.1 1.9-8.6 14.1-5.1 20.6 1.7 4 17.8 0 28-1.7 17.7 1.9 35.1 6.7 53 6.3 11.2 2.1 17.7-8.1 17.3-18.1z" fill="#fff"/><path d="m472.8 529.9c-1-7.5-2.9-29.1-13.2-28.6-4.1-9-13.7-8.4-22.1-9.3-75 7.2-54.7 172-57.3 227.4-11.5-1-13.2 11.4-9.8 19.5.6 14.3 21.3 10.5 35.1 4.7 6.8 2.7 24-1.8 32.7-7.9 5.6-.1 10.9.3 11.9-8 .6-4.6.3-10.3-3.2-13.8.4-3.3.9-7.5 1.3-10.8 6.3-9.1 1.8-21.9 4.1-32.4 2.1-12.7 3.8-24.2 5.2-38.5 8.9-3 9.2-17.2 3.6-23.5.1-.2.1-.4.2-.6 9.2 4 8.2-25.9 9.9-31.5.8-3.1 1.6-6.4 1-10 .3-6.3 1-12.4 1.2-18.8 2.6-5.9 2.7-12.2-.6-17.9z" fill="#fff"/><g fill="#8b0f26"><path d="m101.6 450.1c-.5 11.9 15.8 11.3 16.3.1.5-11.9-15.8-11.4-16.3-.1z"/><path d="m123.3 434.7c-.6 13.4 17.7 12.7 18.3.1.5-13.4-17.8-12.7-18.3-.1z"/><path d="m123.9 372c.9-11.2-14.5-18.2-23.4-12.2-9.6-15.7-30.1-.8-34.5 12-16.8-1.6-24.7 18.7-15.7 31.4-19.4 13.5 6.5 33.6 21.8 25.4 2.6 3.4 6 6.4 9.7 7.5-1.7 12.5 16 12.4 15.9.4 33.1-3.9 36-60.2-5.8-55.9-20.6-.6-33.2 23.6-23.9 41.2-7.2 4.4-23.6-5.8-13.4-12.2 9.9-3.1.6-10.4-.2-16.5-2.1-8.4 6-16.4 14.1-12.8 2.5 0 3.9-2.3 4.3-4.5 2.7-7.5 10.8-16.8 19.4-14.5 4.8 6.1 4.5 12.1 13 4.7 6.2-2.7 13.3 2.5 10.6 9.2.1 4 4.2 3.5 6.8 4.5 4.9 3.6 7.3 13.5 1.7 17.3-.8.5-1.4 1.4-1.6 2.3.6 10.1 10.9 1.3 11.9-4.2 1.6-8.7-1.8-19.7-10.7-23.1zm-24 16.6c8 .6 14.7 6.4 15 14.6 0-.1 0-.2 0-.3 2.3 10.4-4.2 22.7-14.8 25.2-4.9 1.8-9.9-.3-14.8 1-23.3-11.5-12.5-46.7 14.6-40.5z"/><path d="m125.1 397.9c-4.6.3-10.2 4-4.9 8.1 2.3 1.1 4.9-.5 7.2-.8 4.8-1.5 2.4-8.9-2.3-7.3z"/><path d="m576.6 413.3c-.5 11.9 15.8 11.3 16.3.1.5-11.9-15.8-11.3-16.3-.1z"/><path d="m600.8 430c-.6 13.5 18 12.9 18.5.1.6-13.5-17.9-12.9-18.5-.1z"/><path d="m633.4 428.5c-.5 12.5 16.5 11.9 17 .1.6-12.5-16.5-11.8-17-.1z"/><path d="m623.8 327.6c-10.8-.1-21.8 5.5-24.1 16.8-13.1-.3-20.4 6.6-19.8 19.8-.2 9 2 17.4 11.3 20.8 2.4 25.5 41.2 32.5 55.3 12.6 14.7 6.6 29-6.6 20.8-21.8 10-7.9 5.6-28.6-8.2-28.9.5-11.9-16-19.8-25.5-13.3-1.8-4.2-5.4-6.1-9.8-6zm-1.8 74c-16.8.4-31.1-16.7-19.3-31.4 5.9-2.8 9-9.2 14.9-11.3 7.2-2.8 17.5-4.7 23.4 1.4 11.6 14.7 1.5 42.4-19 41.3z"/><path d="m279.9 384.9c-9.5 2-30.2 6.5-29.2 18.8-37.2 33.3.1 95.1 47.2 81.6 59.6-17.6 41.7-102.2-18-100.4zm6.6 21c16 3.9 34.7 21 28.7 38.8-5.3 12.3-15.7 22.8-30.1 21-15 1.5-27-12.2-30.5-25.6-2.5-19.7 13.4-34.4 31.9-34.2z"/><path d="m434.4 367.7c-9.9 3.7-35.1 12.7-31.3 26.1-29.3 52.2 44.7 91.3 83.3 56.9 33.7-38.7-2-96.3-52-83zm18.7 19.7c38.1 6.5 35.8 61.1-6.3 55.2-46.7-6.4-39.9-59.5 6.3-55.2z"/><path d="m361.9 381.5c-2.1 11.6 1.1 20.5 14.6 17.8.1 5 4.3 9.5 9.4 8 6.9-2 6.8-9.7 5.4-15.4-.1-7.4-7.2-10.9-13.9-9.8 1.1-11.8-14.9-11.8-15.5-.6zm17.9 17.6.4.2z"/><path d="m402 331.8c-4.7 2.5-4.1 8.4-5.5 12.8-2.5 6-.7 13 4.5 16.9.5 20.2 26.5 4.1 10.3-13.2 2.7-7.6 2.2-21.5-9.3-16.5z"/><path d="m462.4 336.6c-3.3 5.7-13.2 3.1-11.7 15-9 15.1 13.4 18.5 14.5 2.5 7.3-2.5 13.2-11.5 10.6-19.2-2.7-6.3-11.8-4.5-13.4 1.7z"/><path d="m511.7 353.2c-.8.5-1.5 1-2.4 1.4-6.1-1.8-8.8 4.5-11.7 8.4-18.4 3.8-2.4 28.1 12.3 7.2 15.6-2.1 15.2-21.7 1.8-17zm-1.7 1.4h-.2z"/><path d="m520.3 393.2c-28.1 8.9-14.8 33.6-2.5 17.5 18.9-4.6 13.2-22.3 2.5-17.5z"/><path d="m224.2 244.8c-7 4.3-21.5 7.1-17.8 18.1 5.4 10.5 16.5-1.1 23.7-3.5 8.8-4 3.7-19.5-5.9-14.6z"/><path d="m456 249.3c-3.1 2.8-4 8.2-1.4 11.5 5.6 4.8 11.6 18.3 20.1 11.2 3.1-2.8 4.1-8.2 1.4-11.5-5.6-4.8-11.6-18.3-20.1-11.2z"/><path d="m353.4.2c-12.2 4.2-3.8 24.7-4.2 34.5 1.9 10.8 16.4 6.3 14.9-3.4-2.9-8.4 2.4-33.6-10.7-31.1z"/><path d="m238.1 43c-3.4 3.1-4 8.2-1.4 12 5.1 6.2 11.2 22.5 21.1 14.7 3.1-2.8 4.3-8.5 1.4-11.9-6.1-5.5-10.7-22.9-21.1-14.8z"/><path d="m192.8 156.2c-.5 3.9 2.3 8.2 6.4 8.3 7.2-.7 19.1 2.8 20.4-7.4.4-3.8-2.1-8-6.3-8.1-7.2.3-19.2-3.3-20.5 7.2z"/><path d="m464.8 61.7c-6 6.6-21.5 13.8-15.2 24.4 9.1 9.1 17.2-7.7 24.6-11.9 7.9-6.3-1.1-19.9-9.4-12.5z"/><path d="m477.2 165.1c-.4 4.2 2.3 8.7 6.9 8.9 8.5-.4 23.4 4.8 25.1-7.5.4-4.1-2.4-8.9-7-9-8.4.8-23.2-4.8-25 7.6z"/><path d="m363.7 57.5c-128.3-.7-162.5 167.8-46.4 218.2-5.1 55.6 75.3 55.5 73.9-2.9 112.8-39.4 93.1-215.9-27.5-215.3zm-20.7 177.8c5.3 4.1 12.7 7.9 19.3 4.8.9 2.9 3.6 9.5 7 15.2-11.5.3-23 1-34.5.9 3.9-7.4 7.1-17.9 8.2-20.9zm-6-25.5c.4 1.9.6 3.8.7 5.7-.6-1.9-.9-3.8-.7-5.7zm36.6-4.8c-.1 6.7-2 13.3-5.7 19 .2-6.6 1.4-13.8 5.7-19zm-40.8 79c-.6-2.2-.7-4.6-.1-7.4 10.9.2 21.8-1.2 32.7-1.5 1.5 1.7 3.8 2.6 6.6 2.8-12.4 5.7-25.9 6.4-39.2 6.1zm30.5 12c-8 2.4-19 .9-25.5-4.5 12.7.3 18.9-.6 32.9-4.8-1.2 4.1-3.3 7.7-7.4 9.3zm55.2-64.1c-11.2 10.7-24.9 17.6-39.1 23.2-5-5.8-8.5-12.6-10.3-20 34.3-41.8-13.6-56.6-8.6-3-5.4 3.6-11.7-2.1-15.6-5.6 6.6-45.4-30.9-27.7-8.2 2.5-1.9 9.3-5.9 18-10.4 26.4-5.2 0-11.2-2.1-14.9-4.5-77.1-52.1-50.4-169.3 46.6-171.6 78.6-9.8 120.7 105.2 60.5 152.6zm-44.6-27.2.2.2z"/><path d="m359.1 79.2c-.4 0-.9.1-1.3.1z"/><path d="m354.7 736.3c-10.6-62.7 24.7-248.3-74-241.1-49.3 12.2-63.6 134.1-88.2 25.6-4-7.3-4.3-30.3-10.9-38.7 2.8-1.5 5.6-3.4 8.2-5.1 1.5 18.9 32 12.1 35.4-3 7.4-19.6.8-40.5 4.3-60.7 5.9-36.9 48.1-44.9 77.8-31.1 7.5 8.5 19.4-3.9 12.6-11.9-41.8-31-106.5-9.1-109.8 46-2.3 15 1.5 30.2-1.1 45.2.2-.9.3-1.9.5-2.8-.4 2.8-1.1 5.6-1.9 8.4-1.6.5-3.3.5-4.8-.1.1-.5.2-1 .3-1.5 9.4-8.2-5.7-20.9-9.1-29.4-12.8-21.2-25.4-42.5-38.4-63.6.1.1.1.2.2.3l-1.4-2.2.1.2-.5-.8.1.1-.7-1.1.9 1.5c-7.1-12.4-15-24.2-22.7-36.2-4.8-5.4-8.1-19.2-16.6-17.5-1.7-2.7-5-4.2-8.9-2-34.2 19.8-71.2 37.2-103.2 59-14 7.5 33.7 75.8 39.8 89.3 9 15.5 18.5 30.7 27.1 46.5 10.8 21 14.1 27.2 35.6 12.4 8 13.9 26.5 7.5 39.3 7 9.6 53.5 27.7 140.2 90.6 84.3-.4 39 2 64.9 3.4 92.6l-.1-2.1c.8 14.6 2.2 29.1 3.9 43.7.8 6.7 10.2 8 13.3 2.1.6-71-17.8-151.1 10-220.6 28.7 57.7 38 83.3 53.1 1 25.8 64.7 13.5 138 19.4 206.2.4 5.9.3 15.2 8.7 13.8 4.3-1 5.7-4.6 6-8.5 1-1.4 1.6-3.1 1.7-5.2zm-236.4-239c-7.6 3.9-14.8 8.6-22.4 12.5h.1c-2.4.4-3.7 1.6-6 2.1-23.8-43.7-52.5-85-73.6-130.2 33.1-18.7 60.5-34.1 93.2-51.4 27.1 43.2 53.8 86.3 80.9 129.5-5.5 3.4-14.9 6.9-20.4 11.6-19.4-6.9-58.5-2.2-51.8 25.9zm118.4 88.1c-22.7 29-49.3 39-59.6-5.1.1.4.2.7.3 1.1-4.2-14.4-9.4-28.6-12.3-43.4-2.8-9.4-.4-33-16.3-26.8-9-.4-18.5 3.8-27.1.8 2.7-1.5 5.4-3 8.2-4.2 14.5 4.8 21.2-13.8 7.2-16.9 9.3-2.2 22.5-5.1 30.5 1.3 7.6 34.1 26.5 136.1 71.7 71.5-1.2 7.1-2 14.3-2.6 21.7zm67.6-63.2c-1.9 10.7-3.9 21.3-6.6 31.8-7.5-13.2-14.3-25.1-20.1-39.6 8.5-5.2 19.1-3.6 27.9 1.7-1 2.2-1.7 5-1.7 8.3z"/><path d="m716 328c-.7-2.2-2.4-4.1-5.1-5-27.9-6.6-55.2-15.1-82.7-22.8-17.2-3.4-45.6-19.4-54.1 4.4-.3.2-.6.5-.8.7-16 48.8-33.2 98.4-52.2 146.6-9.8 18.6 12.1 22.1 25.6 25.3-3.7 9.7-7.2 19.4-10.5 24.1-29.4 53.7-28.6 53-57.6-.1-6.5-12-20.5-25.4-30.8-25.8-107 4.6-72.2 187.9-84.1 262.2-1 5.8-1.6 11.8 5.5 12.8 9.3-.2 8.4-11.9 9.6-18.5 6.3-67.5.2-136.8 18.8-202.8 5.3-22 27.8-33 49-34 9 6.8 18.2 15.3 18.7 27.3 4.2 57.2-13.2 113.5-22.5 169.4l.4-2c-2.5 12.8-4.7 25.7-5.4 38.8-.5 13.2 17.5 12.7 18.1.1 2.3-35.2 12.3-69.2 18-103.9-.2.9-.3 1.7-.5 2.6 1.9-13.7 4.5-27.5 6.7-41.4 61.8 64.5 89.4-29.6 100.9-79.6 11.8-2.1 24.3-6 32.5-15.4 22 .1 51.9 21 61.5-10.2 6.8-16.9 60.3-149.6 41-152.8zm-146.8 168.5c-18 41.7-27.7 136.4-86.2 67.5.7-6 1.1-12 1.4-18.1 39.1 53.1 73.7-54.4 85.9-82.3 4.3-2.4 9.1-5.7 14.2-4.9-4.6 3.5-5.4 9.4-3.7 13.2-.1.3-.2.6-.3.9-1.7 8.2 3.3 11.7 10.1 13.5-9.9 3-19.9 2.6-21.4 10.2zm16.3-39.3c0-.2.1-.4.1-.6-.1.2-.1.4-.1.6zm72 23c-4.4-.2-8.8-1-13.1-1.9-6.2-6.4-23.7-4-31.5-7.4-5.3-1.2-10.5-1.2-15.7-3.1 15.2-33.2-31.4-31.9-43.1-8.2-5.4-1.6-12-2.2-16.1-4.2 17.8-48.6 38-96.3 49.7-146.9 39 7.8 76.6 23.9 115.8 31.9-13.1 47.3-25.6 95.1-46 139.8z"/></g></svg>