<svg enable-background="new 0 0 796.8 648.8" viewBox="0 0 796.8 648.8" xmlns="http://www.w3.org/2000/svg"><path d="m779 447c-22-22-42.7-45.1-64.8-66.8 9.7-96.5-65.8-199.4-139.9-260.3-65.5-46.2-141.4-65.9-219.7-64.6-233 8.7-412.9 144.1-336.5 393.4 103.1 245.1 472.8 258.6 638.1 72.1 12.6-.9 25-3.8 37.6-5.3-.6 6.3-2 16.4.3 22.7-3.2 6.1-4.2 12.1 2.2 16.8 12.2 5.8 17.1-9.6 22.8-19.3 19.8-20.9 35.6-37.5 55.3-56.6 4.9-.3 9.5-4.3 9.7-9.6 2.5-2.4 5-4.9 7.4-7.3 8.7-8.5-3.5-21.7-12.5-15.2zm-609.3-99.6c1.8 1.5 3.7 3 5.6 4.4-1.1 6.5-1.9 13-2.1 19.7-1.5-7.9-2.7-16-3.5-24.1z" fill="#ff4143"/><path d="m86.1 247c-7.8 1.2-36.8 17-28.8 26.4 6.4 5.5 11.1-4.3 16-7.4 3.5-2.6 7.2-4.8 11.1-6.5 6.1-3.5 14 1 19.5-3 7.4-11.6-11-10.7-17.8-9.5z" fill="#fff"/><path d="m117.8 245.1c-9.3 3.4-30.9 13-23.1 25.4-7.8 25.5 49.2 16.5 37.8-4.4 1.9-2.4 1.7-5.9-.4-8.1.3-2.5-.7-4.9-2.8-6.3.5-6.1-6.6-8.5-11.5-6.6z" fill="#fff"/><path d="m264.4 248.4c-9.7-18.8-54.3 3-33.1 19.8 2.7 3.4 5.5 8.3 10.5 9 1.1 6.7 13.7 9.3 14.7 1.2 7.6 1 10.3-5.7 7.4-9.6 7.6-6.1 11.4-15.1.5-20.4z" fill="#fff"/><path d="m305.2 244.7c-16.1-1.5-28.7 21.9-11.9 30.3 6 3.6 35.4 4.9 31.4-6.9 16.4-11.9-3.3-24.8-16.6-22.6-.9-.6-1.8-.8-2.9-.8z" fill="#fff"/><path d="m518.4 236.1c-13.5 1.5-31.3 19.9-16.7 31.3 9.8 24.1 48.2 5.5 43.8-17.1 5.1-16.2-15.9-21.8-27.1-14.2z" fill="#fff"/><path d="m654.5 308.3c.3 0 .7-.1 1-.1z" fill="#fff"/><path d="m672 304.5c-53.8 13.3-110.2 8.3-165.1 7.8-4.9-.1-6.9 5.5-4.7 8.9-4.7 2.7-8.5 5.9-7.1 10-15.7 32.6-15.8 71.1-18.2 106.7-1.6 1.1-2.6 2.7-2.5 5.2-3.2 1.3-4.5 5.2-2.7 8.2-4.9 2.4-6.3 9.9-.2 11.7 13.4 1 27-.9 40.5-.5 8.7-.6 25 2.4 24.3-10.7-.2-4.9.9-10.7-1.8-15.1 6.5-5.8 3.8-9.6-1.6-11.7.3-.6.5-1.3.8-1.9 8.6-2.6 5.1-15.3 6.4-22.3 1.6-22.5 4.6-36.3 5.2-63.9 9.4-1.2 18.8-2.4 28.2-3.7 6.8-2.3 20.8.4 22.5-8.4 11.2-.3 22.4-.8 33.5-1.5 6.2 10.3 32.7 15.8 28.2-3.2 6.7-2.6 15.8-2.2 21-7.4 2.3-4.1-2-9.6-6.7-8.2z" fill="#fff"/><path d="m317.7 392.3c-.4-7.5 8.2-25.3-2.8-27.1 5.9-7.5 2.5-30.2-.6-35.9-.1-6.5-.3-19.3-9.9-17.3-.3-5-4.8-9-9.9-7.4-3.6.9-6.8 3.2-9.6 5.5-9.8 1.2-18.3 10.7-24.9 21 1.3-5.3 1.9-10.4-3.2-13.8 1.4-7.5-1.7-18.2-11.3-16-3.3.9-5.7 3.6-8.4 5.6-18.9 2-32.4 35.1-36.6 50.7-1.9.2-3.9.3-5.7.5 5.2-9.6-3.4-30.6-3.3-41-.3-3.2.2-6.8-1.2-9.9-2.3-4.3-9.4-3.3-10.3 1.5-2.8-6.6-11.2-4.8-14.8.1-15.7-2-31 30.5-27.5 48.7-.7.2-1.3.3-2 .5-3.5-8.7-.9-37.6-14.4-33.5-.5-5.4-3.4-13-10.1-11.6-1 .3-1.9.8-2.6 1.6-18-5.6-29.9 51.1-34.1 72.4-3.3 3.2-4.2 8-.5 10.9.1 2 .4 3.8.9 5.4-3.8 14.5-5.6 25.1-5.9 38.9-3.4 8.3-10.9 18.6 2 22 .9 1.3 2.4 2.3 4.5 2.2 28.3-1.3 56.6-3.3 84.8-4.1 47.2-1.1 94.3-4.5 141.5-1.8 4.7.2 11.7.8 11.8-5.7-.3-2.6-1.5-4.1-3.2-5 .7-3.8 1.2-7.7 1.8-11.6 5.8-13.7 2-30.9 5.5-45.8z" fill="#fff"/><path d="m172.5 27.3c-5.6-15.6-25.3-20.8-41.9-15.4v.1c-7.3 1.8-14.4 4.2-21.6 6.3-5-11.8-23.7 5.7-30.3 9.5-26.1 14.8-55.4 43.2-62.7 73-5.8 27.5 6 62.1 33.5 72.8 6.6 19 24.3 5.4 36.9 2.1 2.7 6.4 4.2 16.4 11.4 19 8.6 8.6 20.2-22 23.3-28.1 14.7-1.9 53.5-19.1 48-38.1 19-25.7 32.5-79.5 3.4-101.2z" fill="#fff"/><path d="m294.6 10c-26.7 12.2-49.2 30.7-70.4 50.6-13.2 10-6.2 19.2-11.1 33.1-13.1 8.3 7 59.2 20.5 57.7 14.5 15.9 36.2 32.4 59 25.6 0 4.6.9 12.5 6.8 12.9.6.5 1.4.7 2.2.7 9.1 16.2 16-19.9 16.4-26.1 3-1.4 5.9-2.9 8.8-4.4 11.9 1.2 22-10 31.4-16.1 13.2-7.7 25.6-17 35.3-29 11.1-13.6 22.5-54 3.2-64.1.6-9.6-1-12.6-10.5-14-.4-.5-.8-1-1.1-1.5.9-20.6-26.6-23.2-42-25.6-7.3.3-23.6-5.8-28.2.4-2.2.4-4.5.6-6.7 1.1-1.8-7.8-8.8-3.8-13.6-1.3z" fill="#fff"/><path d="m114.3 68.5c-6.1 3.5-7.4 12.3-9.9 18.5-3.3 1.3-2.9 5.5-3.7 8.4-3.9-3-9.3-2-13.4-4.3-2.7-1.9-6.8-3.3-8.7.3-17.3 1.8-.2 26.8 8.4 30.7 3.1 4.5 8.1 9 13.9 7 5 16 16.6-5.6 13.5-13.4 4.2-6.3 27.6-44.6 10.7-43.9-1.6-1.9-4.2-1.9-6.3-1-.9-1.4-2.5-2.9-4.5-2.3zm-15.6 32.7-.2.1z" fill="#ff4143"/><path d="m196.4 233c-2.5-10.7-3.2-21.6-3.7-32.5 3.1-4.8 8.8-9.2 8.1-15.5-.8-9.1-12.8-8.8-18.5-4.5-3.2-5.3-9.6-6.8-15.3-5.4h.1c-4.9.6-9.1 3.7-11.1 8.1l-1-.4c-7.4-9.4-19.3 5-11.3 12.3-.8 4.1 1.7 8.7 6 9.2.8 9 2.5 17.9 4.1 26.8 1.1 6.1-.5 13.7 3.8 18.8.1 1.3.4 2.4.9 3.4-2.8 3.1-4.1 6.8-2.4 11.1-.7 4.7 3.7 8.5 8 9.2.4 7.4 9.7 8 15.1 5.6 5.8-3.2 20.4-6.7 15.8-15.6 1-1.7 1.2-3.7.6-5.5 4.2-6.8 3.2-17.2.8-25.1zm-5-39.8-.2.1c.1 0 .2 0 .2-.1z" fill="#fff"/><g fill="#8b0f26"><path d="m527.5 204.2c-16.8.3-36.8 8.5-44.8 24.3-3.7 8.6-3.8 18-8 26.6-4.8 8.7-14.9 14.9-24.5 16.5-4 .4-5-4.9-2.1-7 6.6-10.8-7.9-15.4-12.8-.9-4.2 25.3 20 24.3 35.5 12.2 34.7-24.3-1-64.1 71.3-60.1 10.6-9.8-6.9-11.9-14.6-11.6z"/><path d="m530.5 219.9c-37.6.7-61.4 58.1-14.8 65.6 42.8 2.9 55.4-63 14.8-65.6zm-10.7 53.5c-13.9.6-25.4-12.5-17.4-25.6 9.9-7.2 21.5-19.8 35.1-13.2 14.2 15.2 1.7 37.1-17.7 38.8z"/><path d="m258.2 307.9c-3.7-5.3-10.5-9-16.8-9.8 6.5 1.4 12.4 4.8 16.8 9.8z"/><path d="m585.8 393c.1.7.2 1.4.3 2.1.7.1 1.4.2 2.1.3 1-1 2.1-1.8 3.4-2.5z"/><path d="m309.9 233.4c-6.3-.7-31.6 9.6-27.4 18-13.9 22.6 17.3 43 37.1 31.6 25.4-12 19.8-50-9.7-49.6zm-2.3 40.8c-26.7-.7-21.8-26.3 1.1-28.9 23-.4 19.7 28.4-1.1 28.9z"/><path d="m241.2 230.1c-11.5 3-17.1 14.6-19.1 25.5l.1-.1c-8.7 28 29.9 45 46.5 22.4 16.9-18.8-1.5-56.1-27.5-47.8zm3.4 45.5c-20.5-1.4-15.2-33.6 2.7-34.2 22 .6 21.2 39.7-2.7 34.2z"/><path d="m182.4 231.6c-5.5-.1-11 1.7-15.3 5.2-8.4.7-12.5 8.3-15.9 15.5-7.3 14.1 1.4 30.3 15.8 33.9 36.6 13.6 59.2-53.8 15.4-54.6zm-5.9 44.2c-10 .1-21.6-7.9-16.9-19 3.5-.1 5.6-4 8.1-5.7 6-7.2 17.2-9.9 24.9-3.7 7 11.7-2.4 28.7-16.1 28.4z"/><path d="m117 236.2c-6.7-.1-12.4 2.8-17.3 7.4-40.3-21.9-36.7 29.2-66.1 39.1-4.8 1-6 8.5-1.1 10.4 7.2.7 15.7-2.1 22.5-4.9 12.3-5 22.7-13.2 31.6-23.2-4.7 20.9 23.1 38.1 40.2 26.7 22.3-13 18.9-54.2-9.8-55.5zm-1.9 46.7c-11.4-.1-23.2-10.6-17-22.2 3.8-3.5 7.6-6.9 11.6-10.2 22.9-10.6 27.7 31.1 5.4 32.4zm-54.2-9.5c8.7-11.9 10.7-30.7 30.7-22.1-.3.3-.6.7-.9 1.1-6.4-4.7-20.6 18.2-29.8 21z"/><path d="m684.9 369.5c0-.2 0-1.4 0-1.6z"/><path d="m784.5 473.5.5-.6c-.2.2-.4.4-.5.6z"/><path d="m796.7 454.4c-.2-1.6-1.3-2.9-2.7-3.3-1.3-7.9-17.8-19.3-23.4-26.3-13.5-13.5-27.2-26.9-41.2-39.9-11.6-11.6-22.6-23.8-33.8-35.8-2.5-2.1-4.3-3-8.5-.6-4.6 6.4-1.3 16-2.1 23.6 0-.1 0-.3 0-.4.2 2.5-.1 7.6.1 12.5-46 .4-92.1.3-138.1.5.9-14.7 1.4-26.7-.1-42.6 28.7-4.7 53.5-5.1 80.9-13.2 11.9 14.4 37 15.5 39.1-7 2.9-6.4-7.2-10.9-9.9-4.4-1.2 3.3-1.2 6.6-2.6 9.9-18.3 4.6-19.2-13.9-28.2-9-25.4 7.2-55.6 9.2-81.1 13.6-1.7-7.6-3.2-11.7-7.2-18 45.5 1.2 86.9-3.9 133.5-4.5 13.7 1.4 13.7-11.2 5.8-11.1-49.6 1.1-98.1 6.1-147.6 5.9-41.7-20-53.9 51.8-57.7 80.1-.3 0-.7 0-1 0l.2.1c-6.7.4-13.4 1.2-20.2 1.7l.2.1c-41.5 3-84.2 7.8-126.6 7.5.9-27.5 10.5-92.1-28.7-96h.1c-13.1-.2-22.6 10.3-29.4 20.4-7.6-39-48-14.4-60.4 8.2 0-.6 0-1.1.1-1.7-1.8 3.6-3.5 7.3-5.7 10.8-1.1-17.5-8-45.2-30.1-38.3v.1c-18.4 6.8-29.8 26.8-33.1 45.5-3.9-14.3-7.4-35.5-24.5-39.2-11.2-1.8-20.7 6.4-25.8 16-10.5 21-13.7 45.9-18 68.6-20 .2-40.7 1.9-61 2 .1 3.3.2 6.7.3 10 20.3-1 39.3.2 59.1-2.7-.1 8.6-13.6 68.2-2.5 65.5 8.8-1.2 4.3-15.5 6.5-22.6 5.4-36.5 9.3-74 21.1-109 1.2 11.6 4.2 21 6.6 32.1 1 6.8 4.5 17.6 12.1 9.1 5.1-12.7 8.6-26.2 12.8-39.2 1.3 5 2.6 9.1 3.6 14.3 1 5.9 1.8 20 10.6 12.6 10.8 3 6.1-26.9 20.5-41.7 4.8 13.6 6 25.8 10.8 39 11 15.8 16.1-24.6 19-31.3 1.1 7 1.7 14.1 1.8 21.2 0 6-.4 17.6 8.9 12 4.7-.5 6.1-6.6 7.6-12 6.2-21.6 46.5-60.4 48.2-19.2v-1.8c1.1 7.7-2 16.2-.3 23.8-.1.1-.2.1-.2.2-1.5 6.9 8.3 9 10.2 2.7 2.9-3.2 2-7.7 2.7-12 2.3-7.6 5.8-14.9 10.9-21.1.1 5.7-.6 11.6.4 17.2 2.3 5.2 9.3 1.8 13.6 3.4 16.3 3.5 14.5-7 17.5-18.7 4 9.7 4.3 22.1 4.9 31.6l.1-.4c0 21.6-1.7 43.2-5 64.6-1.7 13.7-4.7 24.1-6.7 36.9-1.2 3.5.8 8.2 4.8 8.4 8.7-.5 6.6-12.4 8.9-18.5 3-13.3 5-27.2 6.7-40.7 49.2.2 98.2-5 147.2-9.1-2.9 21.2-4.6 43.6-5.9 65-.8 7.5 10 7.8 10.5.5 4.6-45.1 4.2-93.4 23.9-134.8 3.7 13.6 7.1 28.1 12.1 41.3 6.5 7.2 12.3-3 13.6-8.8 2.8-8.1 5.9-16.2 8.8-24.3 5.6 32.3.2 65.4-2 97.9.7 7.4-7.1 32 3.2 32.7 7.4.1 6.8-8.9 7.3-14.3 1.3-15.4 3-30.7 3.9-46h.2c.2-2.5.4-5.1.7-7.6 47.5-.4 95.1.4 142.7-.3 1.4.2 3.4-.6 5.9-2.8 2.7-9.8-.3-20.4.8-30.6 8.2 9 16.4 18.1 24.8 26.9-.1-.1-.2-.2-.3-.3l.8.8.2.2-.3-.3c23 21.2 43.7 45.7 67.3 65.9-29.7 35.4-59.9 65.3-91.9 100.9-.8-8 3.9-39.7-2.3-42.5-1.8-1-4.1-1.1-5.9.2-4.7.2-9.3.3-13.7.5-210.1 6.9-421.1 8.8-631.3 6.9 1.4 3.2 2.9 6.3 4.5 9.4 212.6 2.4 424.7.5 637-6.4-.2 6.5.9 14.1 0 19.2 1.1 7.5-6.3 31 6.9 28 1.6.4 3.4-.2 4.2-1.7 27.8-33.8 59.8-63.8 88.6-96.7 3.8-6.3 12.4-11.1 11.7-19.3zm-695.2-128.5c-.4-2.9-.4-5.5-.6-8.1.9-.9 1.9-1.6 2.9-2.2-1.2 3.4-1.5 6.8-2.3 10.3zm11.4 9.8v-1h.1c.7-6.5-1.3-13 .4-19.4 2.1 1.5 3.8 3.4 5.1 5.6-3.7 3.8-3.5 10-5.6 14.8zm61.8 3.8c-2.1-9.6-4.8-19.1-8.1-28.3 5.1-3.8 11.3-6 16-.3-2.8 9.5-5 19.1-7.9 28.6zm123.4-9.3c-3.6-.3-7.3-1.2-10.6-1.2v-.5c0-5.1 0-12-.1-17.1 4.7-2.6 10.5-2.3 15 .7-1.6 5.5-2.9 12.3-4.3 18.1zm226.9-6.2c-2.4 8-5.6 15.6-8.3 23.4-.3-1-.6-2-.8-3-2.6-9.6-6.8-18.9-7.7-28.9 7.6-6 15.3-3.4 19.7 5.1-1.5.7-2.5 2-2.9 3.4z"/><path d="m326.6.1c-61.6-.1-136.4 54.7-120.4 122.3 9.4 37.6 46.5 66 85.5 60.9 19.5 47.7 19.5 16.4 31-11 112.7-22.7 130-164.1 3.9-172.2zm73.7 98.3c-11.3 35.4-49.6 51-80.8 64-.3 0-.7 0-1.1.1-7.2 3.7-8.9 20.1-12.3 27.6-6.5-10.8-4.5-20.8-20.3-18.2-76.9-.5-92.8-98-30.2-135.3l-1 .7c53.5-45.9 166-25.1 145.7 61.1z"/><path d="m123.5 3.2c-78.6 6.1-160.6 100.3-92.9 169.6l-.1-.1 2.3 2.3-.3-.3c13.7 15.2 34.4 21.9 53.6 12.6 20.7 37.8 25.4 22.4 31.8-10.3 27.3-17.7 62.6-32.4 73.1-66.1 21.5-52.4-3.8-115.1-67.5-107.7zm60.9 89.6c-6.5 48.8-50.4 48.6-72.7 79.7-6.8 2.6-5.6 14.6-8.4 20.6-4.6-5-6.7-13.7-12.7-16.8-4.7-4.4-15.4 4.3-21.8 3.2h.1c-26.6-1-47.8-34.3-51.2-58.5-4.2-27.7 13.8-53.6 32.9-72 50.4-49.5 153.2-49 133.8 43.8z"/><path d="m117.2 59.6c-11.1.9-20 12.2-22.4 22.5-33-13.3-43.9 22.4-22 43.6 8.9 8.4 20.6 13.1 31.6 18.3 3 1 6.8-1 8.7-3.4 9.9-21 47.9-77 4.1-81zm3.7 12c12.8 6.9 1.2 25.2-2.8 34.8l.8-1.5c-4.7 8.5-8.7 17.3-12.9 26-8.9-4.2-18.2-8.4-25.5-15.2-7.9-8.3-14.3-27 3.9-24.8 7.5.1 12.4 10.5 18.4 7.7 6.5-3.7 1-12 3.5-17.5 3.1-5.1 7.8-11.2 14.6-9.5z"/><path d="m312.3 40c-7.1 1.8-23.1.9-21.2 11.7-4 8 2.2 24.6 2.7 34.1 2 9.2 2.8 18.6 4.6 27.7 1.7 4.3 6.9 4 10.6 3.1 9.4-3.7 4.9-17.2 6.9-25.1 1.2-10.6 2.1-21.3 2.8-32 .3-7 4.5-19.4-6.4-19.5z"/><path d="m306 128.3c-3.9-.7-6.2 2.7-8.2 5.4-4.9 5.6-.4 14 6.6 14.6 11.1.7 15.1-21.9 1.6-20z"/><path d="m148.9 196.5c-8.4 2.6-.9 22.4-1.2 29.4 1.1 8.6 2.8 17.1 3.5 25.8.2 2.4 2.4 4.2 4.8 4 9.6-2 .5-24.4 1.1-31.9-2.2-6.1.5-28.9-8.2-27.3z"/><path d="m190.1 194c-2.7.7-4.4 3.3-4 6 2.5 14.4 5.6 28.9 7.4 43.4.2 2.4 2.4 4.1 4.7 3.9 9.5-2.5.7-21.6.7-28.8-2.4-6-.1-25.2-8.8-24.5z"/><path d="m168.4 169.5c-6 1.2-12.4 4.3-15.9 9.6-26.7-8.3-27.6 29-2.6 25.3 3.8-1 5.5-5.7 3.3-9-1.8-2.8-5.2-1.4-8-1.6-1.7-1.1-3.3-2.7-3.5-4.7 3.7-1.1 7.7-.5 10.9 1.6 8.1 2.4 5.7-11.4 18.5-10.6 4 1 2.5 9.4 9.8 6.5 4-3.9 7.6-7 13.7-4.6 3.2 5.8-3.8 8.4-6 12.4-1.8 4 2.6 9.1 6.7 6.7 19.5-12.8 8.2-40-14.7-27.6-3-3.4-8-4.6-12.2-4zm-26.6 19.3-.2.2zm2.9 4.9.2.1zm.8.4h.2z"/><path d="m232.7 234.9c-5 5.2-9.6 11.4-11 18.6-.7 4.9-2.6 16.2 5.2 15.5 7.7-2.9 1-13.3 5.5-18.9 1.6-4.4 6.2-7.1 7.4-11.4.7-3.9-4.2-6.8-7.1-3.8z"/></g></svg>