<svg enable-background="new 0 0 208.3 208.1" viewBox="0 0 208.3 208.1" xmlns="http://www.w3.org/2000/svg"><path d="m101.5 25.7s-28.3-1.9-28.3-1.9c-3.8 1.3-7.6 2.6-11.2 4.4-31 14.7-55.4 44.4-60.5 78.7-13.1 80.6 77.4 117.7 143.6 94.1 48.9-14.2 76.5-62.7 56.6-111.1-10-27.3-29.7-53.2-58.1-62.8-3.2-1.1-7-2.7-10.2-3.8-.7 1-1.6 1.8-2.3 2.7-.9 1.2-28.2-.6-29.6-.3" fill="#50c5dc"/><g fill="#fff"><path d="m126.8 11.5-.2-.5c-2.2-1.9-4.7-2.4-7.4-1.4-3.2-1.9-6.8 2.7-9.1 5-1.5 3.2-3 6.7-7.2 6.5-4.4-.2-5.6-6.7-10-6.5-5.9.8-12.9 6.7-4.9 10.7 11 2.1 5.7 23.9 7.9 32.4 7.2-5.9 17.1-10.7 26.5-7-.7-7.6-2.3-16.2-3.1-24.1 0 0 0 0-.1 0 0-2.1 1.2-4 3.1-4.8.8-3.7 4.9-6.3 4.5-10.3z"/><path d="m113 61c-5.4.8-9.6 4.8-13.9 7.9-4.7 11.8 12.9 15.9 20.5 10 6.3-5.2 3.4-20-6.6-17.9z"/><path d="m48.5 56.3c-1.1.1-2.2.4-3.3.7 1.3 3.9-2.3 6.3-5.3 7.7-5.9 10.5 6.7 14.4 14.9 11.8 14.4-6.2 9.6-22.7-6.3-20.2z"/><path d="m162.9 59.4c-5.3.5-9.3 6.6-14.8 5-6.6 14.7 10.5 19.4 21.5 15.5 13.9-4.7 4.7-21.1-6.7-20.4z"/><path d="m57.6 104.8c-15.3 1.6-20.9 17.4-22 30.8.1.2.3.4.4.6-2.7 8.2-1.7 18.4-1.6 27.1-.2 4.8 2.8 10.8-2.5 13.4 1.2.4 2.6.2 3.7-.5 45.4 5.3 91.7 11 137.3 9.5-.5-20.9 1.6-42.3-5-62.5-2.4-11.4-18.1-24.9-27.6-12.7-4.3 6.2-7.8 13.7-7.4 21.4.2 1.3-.2 2.8-.9 3.9-2.1 3.6-8.1 2.6-8.5-1.7-1.5-7-3.1-14.1-6.1-20.6-8.4-12.4-23.2-.2-27.6 9.7-3.7 6-2.3 17.9-12.6 12.8-4.4-6.2-2.6-15.6-6-22.4l-.1-.1h-.1s.1-.1.1-.1c-2.5-4.9-7.8-8.7-13.5-8.6z"/></g><path d="m165 48.6c-3.6-.2-7.1.9-10.2 2.7-17.8.5-26.8 39.7 5.8 40.1 16.3 2.5 33.3-16.9 22.5-31.6-4.2-6-10.4-11.4-18.1-11.2zm-13.4 16.8c11.1-4.4 14.9-9.2 23.3 3.4 2.1 16.9-34.3 13.6-25.2-3.9.6.1 1.2.3 1.9.3z" fill="#2b6c78"/><path d="m125 0c-7.5.1-15.7 2.6-20.5 8.5-7.5-8.6-21.9-2.7-27 5.7-4.9 7.8-.3 19.4 8.8 21.4.7 7.8.8 14.7 1.5 22.4.7 3.5-.5 8 1.7 10.9-7.9 35.6 57 32.2 42.4-9.6-3.2-10.1-2-20.9-4.3-31.1 11.5-4.7 12-27.6-2.6-28.2zm-21.8 21.6c6.2.1 5.5-7.9 11-9.2 4.2-1.6 12.9-3.8 11 3.6-1 2.1-3.1 3.7-3.5 6.2-6.7 2.4.5 21.6 0 27.8-9-3.5-18.6 1-25.5 6.8-1.3-9 .7-19.4-2.9-27.8-.5-2.1-2.5-3.7-4.7-3.5-7.7-3.8-1.1-9.5 4.6-10.3 4.4-.1 5.5 6.7 10 6.4zm8.8 59.9c-7.4.8-16.5-4.3-12.8-12.7 10-9.8 27-12.6 23 6.7-1.3 4-6.5 5.9-10.2 6z" fill="#2b6c78"/><path d="m50.5 45.5c-7.4-.4-13.9 3.9-17.3 10.3-2.3 3.3-5.8 8.3-2 11.9-2 6.1.7 12.4 5.7 16h.1c32.8 19.1 53.6-38 13.5-38.2zm.4 30.5c-7.3.3-13.8-2.9-9.7-11v-.1c2.6-1.2 5.8-3.4 4.7-6.9 18.2-5.3 22.6 15.5 5 18z" fill="#2b6c78"/><path d="m59.3 94.7c-35.5 2-35.3 47.4-33.8 73.8 0 3.9.9 10 6.3 8.3 5.4-2.6 2.3-8.6 2.6-13.4-.5-14.9.1-31.2 5.4-45.2 12-21.7 34-15.1 34.6 9.4.7 2.8.4 6.5 2.9 8.5 2.2 1.2 5.5 2.1 7.5.1 2.2-2.2 1.7-5.7 3.2-8.3 3.6-9.7 13.5-23.3 25.4-18.1 10 4.4 6.3 30.1 15.6 28.6 6-1.7 3-8.8 4.6-13.2 5.7-25.2 26.4-25.2 34.3-1.6 7.5 20.6 3 43.2 5.7 64.1 6.1 5.9 10.2-2.8 9.3-8.6.3-10.8.6-21.7 0-32.2-1.3-15.4-2.8-33.5-15.1-44.4-13.5-14.2-33.7-6.6-39.8 10.7-8.8-25.3-37.1-14.8-45.5 5.1-1.5-12.1-10.7-22.9-23.2-23.6z" fill="#2b6c78"/></svg>