<svg viewBox="0 0 213.82 202.99" xmlns="http://www.w3.org/2000/svg"><path d="m97.85 50.13c.07 2 .12 3.73.14 5.36a6.08 6.08 0 0 1 -1 2.67l-.89 1a5 5 0 0 1 -3.3 1.33h-.24a4.43 4.43 0 0 1 -3.3-1.78 5.12 5.12 0 0 1 -1-2.39v-1.32c0-.68 0-1.37 0-2.06s0-1.18 0-1.77v-.7h-.68l-3.32.11c-2.21.08-4.41.15-6.62.26h-.15a22.14 22.14 0 0 1 .07 2.49v.64a5.64 5.64 0 0 1 -.31 2.76l-.32.64-.32.64a5.36 5.36 0 0 1 -3.18 2.25 4.56 4.56 0 0 1 -5.43-4.07c0-.44-.08-.88-.11-1.31a5.68 5.68 0 0 1 -.19-.88v-.27-.55c0-.23 0-.47 0-.71s0-.47 0-.71v-.14h-.39l-4.72.56v12.66.16 3.75q.07 8.17.17 16.35c0 1.29.1 2.59.16 3.89 0 .69.06 1.37.1 2.14 0 .92.06 1.85.08 2.77v.3c0 1.07.06 2.15.12 3.23.21 3.92.33 8.12.4 13.21 0 1.54.1 3.08.16 4.61.06 1.31.12 2.61.15 3.92.08 2.79.1 5.64.12 8.39v.51c.12 5.91.32 11.16.6 16.06.09 1.53.15 3.07.22 4.63.05 1.32.1 2.64.18 4s.15 2.7.23 4.05c0 .39 0 .79.09 1.19.05.76.12 1.55.12 2.31 4.84-.55 9.69-.82 14.37-1.07h.14l2.22-.12h.09l7.7-.42c1.89-.1 3.77-.26 5.85-.44l.67-.06 2.87-.23c2.8-.2 5.66-.23 8.45-.25h1.62 3.75l5.66-.06c3.21 0 6.42-.05 9.64-.06h4.67c1.68 0 3.08 0 4.38.08 2.49.12 5.19.18 8.26.18h2.32 2.68 2 .5.09.12v-.74-.42c-.18-3-.38-6.06-.51-9.1 0-.73-.09-1.48-.16-2.23s-.11-1.21-.15-1.82l-.27-4.57c-.17-2.77-.31-5.71-.42-8.73-.12-3.62-.32-7.22-.55-11.28q-.23-4-.42-8c-.36-8.1-.5-14.9-.44-21.39.12-11.46.25-24.44.66-37.2h-.59c-1.4-.09-2.91-.22-4.62-.4h-.25-.08v1.37a15.67 15.67 0 0 1 0 1.91 3.55 3.55 0 0 0 -.09.72 5.73 5.73 0 0 1 -1.9 3.78 5.05 5.05 0 0 1 -3.43 1.24h-.24a4.61 4.61 0 0 1 -3.37-1.81 5.36 5.36 0 0 1 -1-3.23 17.59 17.59 0 0 1 0-1.93v-.68-.74c0-.48 0-1 0-1.45v-.06c-1.44-.08-2.89-.13-4.34-.18h-.37c-1.46-.06-2.91-.11-4.36-.19-2-.12-4.16-.22-6.58-.32 0 1.75.07 3.49.08 5.24a5.93 5.93 0 0 1 -2 3.89 5.28 5.28 0 0 1 -3.48 1.4h-.25a4.72 4.72 0 0 1 -3.41-1.88 5.41 5.41 0 0 1 -1-2.52c0-.48 0-.95 0-1.43v-3.6-1.39c-1 0-1.94 0-2.9 0h-1.87c-2.17 0-4.53 0-7.43.07zm9.5 87.92a33.32 33.32 0 0 1 -4.72-.54 59.57 59.57 0 0 1 -5.92-1.36 28 28 0 0 1 -4.31-1.63 35.16 35.16 0 0 1 -5.1-3.14 40.51 40.51 0 0 1 -4.2-3.38 29.48 29.48 0 0 1 -5.2-5.84 28.14 28.14 0 0 1 -3.2-6.44 26.21 26.21 0 0 1 -1.1-4.44 32.45 32.45 0 0 1 -.23-3.38c0-1.77 0-3.43.15-5.07a36.18 36.18 0 0 1 2.59-10.06 27.11 27.11 0 0 1 1.62-3.37l.41-.75c.21-.39.42-.79.66-1.16a32.33 32.33 0 0 1 2.39-3.49 27.86 27.86 0 0 1 2.81-3 31.45 31.45 0 0 1 3.28-2.45 35.92 35.92 0 0 1 5.29-2.87 7.58 7.58 0 0 1 1.9-2.72 6.75 6.75 0 0 1 3-1.59l.79-.07.86-.08 1.18-.07c1.43-.08 2.92-.17 4.38-.17h1.62a45.72 45.72 0 0 1 8.36 1.27 26.61 26.61 0 0 1 4.37 1.5l1.52.65.45.19h.14l2 .84a39.18 39.18 0 0 1 5.51 2.87 29.18 29.18 0 0 1 3.65 2.7 19.4 19.4 0 0 1 4 4.45 31 31 0 0 1 2.67 5.27 49.06 49.06 0 0 1 1.81 6.07 21.47 21.47 0 0 1 .36 6 37.11 37.11 0 0 1 -2.27 10.5l-.17.48c-.41 1.12-.92 2.52-1.53 3.8a53 53 0 0 1 -2.9 5.31c-.78 1.26-1.6 2.47-2.51 3.73a30.64 30.64 0 0 1 -2.5 3l-.11.12a14.64 14.64 0 0 1 -1.33 1.28 37 37 0 0 1 -4.87 3.37 34.86 34.86 0 0 1 -5.12 2.28 25.45 25.45 0 0 1 -9.09 1.47h-1.35z" fill="#50c5dc"/><path d="m99.29 84.94-1.67.06h-.07a3.15 3.15 0 0 1 -.8-.11c-.28.14-.55.27-.82.42-.92.53-1.79 1-2.63 1.59a23.5 23.5 0 0 0 -3.18 2.74 32.34 32.34 0 0 0 -2.54 3.86 38.68 38.68 0 0 0 -2.19 5.93 30.7 30.7 0 0 0 -.52 5.55 25.43 25.43 0 0 0 .45 4 22.92 22.92 0 0 0 1.42 3.39 25.21 25.21 0 0 0 2.85 3.7 45 45 0 0 0 7.41 5.46 32.89 32.89 0 0 0 7.22 2.25 28.84 28.84 0 0 0 3.41.43c.52 0 1.07.05 1.68.05s1.31 0 2.08-.06a21.69 21.69 0 0 0 3.86-.86 27.43 27.43 0 0 0 4.23-2.36 15.73 15.73 0 0 0 1.62-1.44 50 50 0 0 0 4.4-6.8 44.39 44.39 0 0 0 2.44-6.89 26.54 26.54 0 0 0 .46-4 15.8 15.8 0 0 0 -.3-2.16c-.32-1.1-.64-2-1-2.89a24.57 24.57 0 0 0 -1.08-2.4 15.56 15.56 0 0 0 -1.35-1.76 29.17 29.17 0 0 0 -4.28-3c-1.5-.74-3.08-1.39-4.62-2l-.15-.07h-.14l-1-.44-.2-.09c-.5-.22-1-.46-1.57-.66a20.72 20.72 0 0 0 -2.47-.76 48 48 0 0 0 -5.64-.65c-.51 0-1.06-.05-1.68-.05-1.19 0-2.41.06-3.65.12zm7.88 15.63c1.17-1.82 2.42-3.78 3.63-5.77a5.55 5.55 0 0 1 4.7-2.63 4.89 4.89 0 0 1 2.94 1 5.94 5.94 0 0 1 1.73 6.75 29.75 29.75 0 0 1 -2.46 4.9l-.43.71-.43.71-.33.55-1 1.69-.23.4c-.26.43-.5.86-.74 1.29l-.08.14-.07.12-.06.11c-.36.64-.77 1.38-1.2 2.08l-.22.36a9.22 9.22 0 0 1 -.85 1.23l-.36.43-.08.09c-.34.4-.72.85-1.13 1.25a7.6 7.6 0 0 1 -3.08 1.68 9 9 0 0 1 -1.62.18h-.37a5.87 5.87 0 0 1 -3-1.11l-.46-.42a5.14 5.14 0 0 1 -1.41-1.55l-.12-.2a14.19 14.19 0 0 1 -1.07-2c-.36-.84-.73-1.65-1.29-2.85-.46-1-.87-1.93-1.28-2.94l-.07-.17-.06-.14c-.49-1.18-1-2.52-1.67-3.74a6.12 6.12 0 0 1 0-4.59 6.35 6.35 0 0 1 3-3.48 5.41 5.41 0 0 1 2.55-.66 5 5 0 0 1 1.7.31 4.91 4.91 0 0 1 2.17 1.7l.71 1.26c.51 1 1 2 1.42 2.93l.07.16v.09l.22.62.29-.45z" fill="#50c5dc"/><g fill="#fff"><path d="m67.21 51.61-4.72.56v12.66.17 3.75q.07 8.17.17 16.35c0 1.29.1 2.59.16 3.89 0 .69.06 1.37.1 2.14 0 .92.06 1.85.08 2.77v.3c0 1.07.06 2.15.12 3.23.21 3.92.33 8.12.4 13.21 0 1.54.1 3.08.16 4.61.06 1.31.12 2.61.15 3.92.08 2.79.1 5.64.12 8.39v.51c.12 5.91.32 11.16.6 16.06.09 1.53.15 3.07.22 4.63.05 1.32.1 2.64.18 4s.15 2.7.23 4.05c0 .39 0 .79.09 1.19.05.69.1 1.41.12 2.11l.66.13c1.54-.17 3.07-.31 4.6-.43a9.28 9.28 0 0 0 3.42-2.17 9 9 0 0 0 2.72-6.55c-.43-6.51-1.11-13-1.61-19.52-.42-5.62-.73-11.25-.9-16.88a22.74 22.74 0 0 1 -.79-3.44 32.45 32.45 0 0 1 -.23-3.38c0-1.77 0-3.43.15-5.07a27 27 0 0 1 .56-3.65c-.13-9.89-.19-19.78-.24-29.67 0-3.11 0-6.21 0-9.32l-.33.09a4.56 4.56 0 0 1 -5.4-4.06c0-.44-.08-.88-.11-1.31a5.68 5.68 0 0 1 -.19-.88v-.27-.55c0-.23 0-.47 0-.71s0-.47 0-.71v-.14h-.39z"/><path d="m145.65 52.55v.71a15.67 15.67 0 0 1 0 1.91 3.55 3.55 0 0 0 -.09.72 5.73 5.73 0 0 1 -1.9 3.78 5.05 5.05 0 0 1 -3.34 1.33h-.24a4.57 4.57 0 0 1 -2.7-1.1c-.2 9-.2 18.08-.16 27.13a24 24 0 0 1 1.71 3.62 49.06 49.06 0 0 1 1.81 6.07 21.47 21.47 0 0 1 .36 6 37.11 37.11 0 0 1 -2.27 10.5l-.17.48c-.32.86-.69 1.89-1.13 2.9 0 .55 0 1.09.05 1.64q.18 5.27.42 10.52c.14 3.31.52 6.61.84 9.9s.69 6.62 1.06 9.93c.33 3 .62 6.09 1 9.12 1.54 0 3.17.06 4.92.06h2.32 2.68 2 .5.09.12v-.74-.42c-.18-3-.38-6.06-.51-9.1 0-.73-.09-1.48-.16-2.23s-.11-1.21-.15-1.82l-.27-4.57c-.17-2.77-.31-5.71-.42-8.73-.12-3.62-.32-7.22-.55-11.28q-.23-4-.42-8c-.36-8.1-.5-14.9-.44-21.39.12-11.46.25-24.44.66-37.2h-.59c-1.4-.09-2.91-.22-4.62-.4h-.25-.08v.66z"/><path d="m97.85 50.13c.07 2 .12 3.73.14 5.36a6.08 6.08 0 0 1 -1 2.67l-.89 1a5 5 0 0 1 -3.3 1.33h-.24a4.43 4.43 0 0 1 -3.3-1.78 5.12 5.12 0 0 1 -1-2.39v-1.32c0-.68 0-1.37 0-2.06s0-1.18 0-1.77v-.7h-.68l-3.32.11c-2.21.08-4.41.15-6.62.26h-.15a22.14 22.14 0 0 1 .07 2.49v.64a5.64 5.64 0 0 1 -.31 2.76l-.32.64-.32.64a5.36 5.36 0 0 1 -3.18 2.25 4.56 4.56 0 0 1 -5.43-4.07c0-.44-.08-.88-.11-1.31a5.68 5.68 0 0 1 -.19-.88v-.27-.55c0-.23 0-.47 0-.71s0-.47 0-.71v-.14h-.39l-4.72.56v9.17a8.44 8.44 0 0 0 3.84.81c7.6-.19 15.2-.35 22.8-.33 6.85 0 13.67.13 20.51.39 8.13.3 16.23.78 24.3 1.76l.84.14 2.46.33a9.09 9.09 0 0 0 4.68-1.27 9.25 9.25 0 0 0 3.98-11.18h-.23-.08v1.37a15.67 15.67 0 0 1 0 1.91 3.55 3.55 0 0 0 -.09.72 5.73 5.73 0 0 1 -1.9 3.78 5.05 5.05 0 0 1 -3.38 1.22h-.24a4.61 4.61 0 0 1 -3.37-1.81 5.36 5.36 0 0 1 -1-3.23 17.59 17.59 0 0 1 0-1.93v-.68-.74c0-.48 0-1 0-1.45v-.06c-1.44-.08-2.89-.13-4.34-.18h-.37c-1.46-.06-2.91-.11-4.36-.19-2-.12-4.16-.22-6.58-.32 0 1.75.07 3.49.08 5.24a5.93 5.93 0 0 1 -2 3.89 5.28 5.28 0 0 1 -3.48 1.4h-.25a4.72 4.72 0 0 1 -3.41-1.88 5.41 5.41 0 0 1 -1-2.52c0-.48 0-.95 0-1.43v-3.6-1.39c-1 0-1.94 0-2.9 0h-1.87c-2.17 0-4.53 0-7.43.07z"/><path d="m77.59 53.24v.08.64a5.64 5.64 0 0 1 -.31 2.76l-.32.64-.32.64a5.36 5.36 0 0 1 -3.18 2.25 4.53 4.53 0 0 1 -4.9-2.13c-.58.65-1.12 1.35-1.7 2.11a36.34 36.34 0 0 0 -3.48 6.17c-.28.59-.56 1.18-.83 1.78v.61q.07 8.17.17 16.35c0 1.29.1 2.59.16 3.89 0 .69.06 1.37.1 2.14 0 .92.06 1.85.08 2.77v.3c0 .77 0 1.54.08 2.31a9.33 9.33 0 0 0 1.25.88 9.19 9.19 0 0 0 4.68 1.27c1-.08 2-.2 2.92-.37a7.28 7.28 0 0 0 2.49-.92c.48-1.72 1.06-3.31 1.59-4.67a27.11 27.11 0 0 1 1.62-3.37l.41-.75c.21-.39.42-.79.66-1.16a32.33 32.33 0 0 1 2.43-3.46 27.86 27.86 0 0 1 2.81-3 31.45 31.45 0 0 1 3.28-2.45 35.92 35.92 0 0 1 5.29-2.87 7.58 7.58 0 0 1 1.9-2.72 6.75 6.75 0 0 1 3-1.59l.79-.07.86-.08 1.18-.07c1.43-.08 2.92-.17 4.38-.17h1.62a45.72 45.72 0 0 1 8.36 1.27 26.61 26.61 0 0 1 4.37 1.5l1.52.65.45.19h.14l2 .84a39.18 39.18 0 0 1 5.51 2.87 29.18 29.18 0 0 1 3.65 2.7 19.4 19.4 0 0 1 4 4.45c.37.63.76 1.29 1.14 2a9.56 9.56 0 0 0 2.69.4 9.32 9.32 0 0 0 6.55-2.72 9 9 0 0 0 1.52-2.13c.1-.15.19-.3.28-.46a9.26 9.26 0 0 0 .12-9.15c.25-2.47-1.2-5.17-2.92-6.81a10.68 10.68 0 0 0 -4.42-2.52l-.87-.23-2.68-1.22a9.75 9.75 0 0 0 -.27-1.37 9.35 9.35 0 0 0 -2.38-4.09 9.26 9.26 0 0 0 -4.06-2.39 40.45 40.45 0 0 0 -5-.49h-1.62c-1.34 0-2.68.07-4 .12h-.15v1.23a5.93 5.93 0 0 1 -2 3.89 5.28 5.28 0 0 1 -3.48 1.4h-.25a4.72 4.72 0 0 1 -3.5-1.85 5.41 5.41 0 0 1 -1-2.52c0-.48 0-.95 0-1.43v-.82a15.72 15.72 0 0 0 -2.54.45 8.51 8.51 0 0 0 -3.55 1.91c-1.21.3-2.41.61-3.61 1a9.54 9.54 0 0 0 -1.9-1.49l-.45-.24a6 6 0 0 1 -.95 2.24l-.89 1a5 5 0 0 1 -3.3 1.33h-.24a4.43 4.43 0 0 1 -3.3-1.78 5.13 5.13 0 0 1 -.94-2.18 10.35 10.35 0 0 0 -1.2 1l-.46.37a9.17 9.17 0 0 0 -1.51-2l-1.87-1.4a9.13 9.13 0 0 0 -4.68-1.26 3.93 3.93 0 0 0 -.49 0 4.78 4.78 0 0 0 -.53 0z"/><path d="m71.09 108.22c-.82.11-1.64.23-2.46.33a9.22 9.22 0 0 0 -4.09 2.39 9.42 9.42 0 0 0 -.89 1c0 1.12.09 2.22.13 3.33.06 1.31.12 2.61.15 3.92.06 2 .09 4.06.11 6.08a26.11 26.11 0 0 0 3.26 4.33 8.49 8.49 0 0 0 1.56 1.61l.21.2c.46.44.93.86 1.41 1.28l-.82.4a6.78 6.78 0 0 0 -.86.52 17.9 17.9 0 0 0 -2.64 2.1 11 11 0 0 0 -1.8 2.23q.14 3.21.3 6.21c.09 1.53.15 3.07.22 4.63 0 1 .08 2.08.13 3.12a12.66 12.66 0 0 0 3.26 2.61c.25.15.51.28.76.4a8.92 8.92 0 0 0 7.66 4.09c4-.16 7.93-.67 11.87-1 2.88-.25 5.79-.46 8.68-.55 6.24-.18 12.48-.34 18.72-.54 2.36.15 4.7.28 7.07.37 2.92.12 5.87.09 8.8 0l5.19-.15 3-.11c.43 0 .88-.06 1.32-.08a9.73 9.73 0 0 0 1.08 0 9.18 9.18 0 0 0 4.68-1.26 9.27 9.27 0 0 0 4.59-8 9.29 9.29 0 0 0 -4.6-8 8.3 8.3 0 0 0 -3.38-1.13c.44-.55.87-1.11 1.3-1.68a41.46 41.46 0 0 0 4.15-6.48 40.17 40.17 0 0 0 2.43-6.21v-.11c-.08-1.66-.18-3.38-.28-5.18-.07-1.19-.13-2.38-.2-3.57a10.63 10.63 0 0 0 -6.54-5.34 11.64 11.64 0 0 0 -4.71-.27c-.3 1.16-.67 2.32-1.1 3.49l-.17.48c-.41 1.12-.92 2.52-1.53 3.8a53 53 0 0 1 -2.9 5.31c-.78 1.26-1.6 2.47-2.51 3.73a30.64 30.64 0 0 1 -2.5 3l-.11.12a14.64 14.64 0 0 1 -1.33 1.28 37 37 0 0 1 -4.87 3.37 34.86 34.86 0 0 1 -5.12 2.28 25.45 25.45 0 0 1 -9.09 1.47h-1.35a33.32 33.32 0 0 1 -4.72-.54 59.57 59.57 0 0 1 -5.92-1.36 28 28 0 0 1 -4.31-1.63 35.16 35.16 0 0 1 -5.1-3.14 40.51 40.51 0 0 1 -4.13-3.37 29.48 29.48 0 0 1 -5.2-5.84 28.14 28.14 0 0 1 -3.2-6.44 26.21 26.21 0 0 1 -1.1-4.44 27.46 27.46 0 0 1 -.21-2.8 7.36 7.36 0 0 0 -1.81-.25 3.93 3.93 0 0 0 -.49 0z"/><path d="m132.3 81a19.4 19.4 0 0 1 4 4.45 31 31 0 0 1 2.67 5.27c.29.82.55 1.6.79 2.33a9.28 9.28 0 0 0 -4.12-10.92 9.65 9.65 0 0 0 -3.64-1.51h-.2c.16.12.31.25.46.38z"/><path d="m99.29 84.94-1.67.06h-.07a3.15 3.15 0 0 1 -.8-.11c-.28.14-.55.27-.82.42-.92.53-1.79 1-2.63 1.59a23.5 23.5 0 0 0 -3.18 2.74 32.34 32.34 0 0 0 -2.54 3.86 38.68 38.68 0 0 0 -2.19 5.93 30.7 30.7 0 0 0 -.52 5.55 25.43 25.43 0 0 0 .45 4 22.92 22.92 0 0 0 1.42 3.39 25.21 25.21 0 0 0 2.85 3.7 45 45 0 0 0 7.41 5.46 32.89 32.89 0 0 0 7.22 2.25 28.84 28.84 0 0 0 3.41.43c.52 0 1.07.05 1.68.05s1.31 0 2.08-.06a21.69 21.69 0 0 0 3.86-.86 27.43 27.43 0 0 0 4.23-2.36 15.73 15.73 0 0 0 1.62-1.44 50 50 0 0 0 4.4-6.8 44.39 44.39 0 0 0 2.44-6.89 26.54 26.54 0 0 0 .46-4 15.8 15.8 0 0 0 -.3-2.16c-.32-1.1-.64-2-1-2.89a24.57 24.57 0 0 0 -1.08-2.4 15.56 15.56 0 0 0 -1.35-1.76 29.17 29.17 0 0 0 -4.28-3c-1.5-.74-3.08-1.39-4.62-2l-.15-.07h-.14l-1-.44-.2-.09c-.5-.22-1-.46-1.57-.66a20.72 20.72 0 0 0 -2.47-.76 48 48 0 0 0 -5.64-.65c-.51 0-1.06-.05-1.68-.05-1.19 0-2.41.06-3.65.12zm7.88 15.63c1.17-1.82 2.42-3.78 3.63-5.77a5.55 5.55 0 0 1 4.7-2.63 4.89 4.89 0 0 1 2.94 1 5.94 5.94 0 0 1 1.73 6.75 29.75 29.75 0 0 1 -2.46 4.9l-.43.71-.43.71-.33.55-1 1.69-.23.4c-.26.43-.5.86-.74 1.29l-.08.14-.07.12-.06.11c-.36.64-.77 1.38-1.2 2.08l-.22.36a9.22 9.22 0 0 1 -.85 1.23l-.36.43-.08.09c-.34.4-.72.85-1.13 1.25a7.6 7.6 0 0 1 -3.08 1.68 9 9 0 0 1 -1.62.18h-.37a5.87 5.87 0 0 1 -3-1.11l-.46-.42a5.14 5.14 0 0 1 -1.41-1.55l-.12-.2a14.19 14.19 0 0 1 -1.07-2c-.36-.84-.73-1.65-1.29-2.85-.46-1-.87-1.93-1.28-2.94l-.07-.17-.06-.14c-.49-1.18-1-2.52-1.67-3.74a6.12 6.12 0 0 1 0-4.59 6.35 6.35 0 0 1 3-3.48 5.41 5.41 0 0 1 2.55-.66 5 5 0 0 1 1.7.31 4.91 4.91 0 0 1 2.17 1.7l.71 1.26c.51 1 1 2 1.42 2.93l.07.16v.09l.22.62.29-.45z"/><path d="m73.56 96.81a9.27 9.27 0 0 0 -4.09 15.5 9.55 9.55 0 0 0 1.33 1.09 9.35 9.35 0 0 0 -1.36 4.84c0 4.88 4.21 9.5 9.26 9.27 1.23-.06 2.45-.13 3.67-.22a27.11 27.11 0 0 1 -4.47-5.16 27.74 27.74 0 0 1 -3.2-6.44 26.21 26.21 0 0 1 -1.1-4.44 29.92 29.92 0 0 1 -.23-3.38c0-1.77 0-3.43.15-5.07a29.71 29.71 0 0 1 1.28-6.33z"/><path d="m122.9 134.32a34.73 34.73 0 0 1 -5.11 2.28 25.45 25.45 0 0 1 -9.09 1.47h-1.35a33.32 33.32 0 0 1 -4.72-.54 60.35 60.35 0 0 1 -5.93-1.36c-.59-.17-1.18-.37-1.77-.58a8.86 8.86 0 0 0 .87 1.91 10.21 10.21 0 0 0 3.57 3.64 9.29 9.29 0 0 0 4.68 1.27 18 18 0 0 0 2.74-.35c.63-.25 1.25-.46 1.89-.66 1-.34 2.08-.72 3.11-1.11a41.18 41.18 0 0 0 7.06-3.2l1-.62 1.66-.4a8.64 8.64 0 0 0 5.74-4.69 35.44 35.44 0 0 1 -4.36 3z"/><path d="m100.11 71.14h.2c1.1-.06 2.22-.13 3.33-.16a11.38 11.38 0 0 0 -1.31-.08 9.75 9.75 0 0 0 -2.22.25z"/><path d="m99.29 84.94-1.67.06h-.07a3.15 3.15 0 0 1 -.8-.11c-.28.14-.55.27-.82.42-.92.53-1.79 1-2.63 1.59a23.5 23.5 0 0 0 -3.18 2.74 32.34 32.34 0 0 0 -2.54 3.86 38.68 38.68 0 0 0 -2.19 5.93 30.7 30.7 0 0 0 -.52 5.55 25.43 25.43 0 0 0 .45 4 22.92 22.92 0 0 0 1.42 3.39 25.21 25.21 0 0 0 2.85 3.7 45 45 0 0 0 7.41 5.46 22.41 22.41 0 0 0 2.22.9l.75-1.52c.74-1.47 1.49-2.92 2.19-4.41l-.26-.23a5.14 5.14 0 0 1 -1.41-1.55l-.12-.2a14.19 14.19 0 0 1 -1.07-2c-.36-.84-.73-1.65-1.29-2.85-.46-1-.87-1.93-1.28-2.94l-.07-.17-.06-.14c-.49-1.18-1-2.52-1.67-3.74a6.12 6.12 0 0 1 0-4.59 6.35 6.35 0 0 1 3-3.48 5.41 5.41 0 0 1 2.55-.66 5 5 0 0 1 1.7.31 4.91 4.91 0 0 1 2.24 1.74l.71 1.26c.51 1 1 2 1.42 2.93l.07.16v.09l.22.62.29-.45c1.17-1.82 2.42-3.78 3.63-5.77a5.55 5.55 0 0 1 4.7-2.63h.23c0-1.55 0-3.11-.08-4.66h-.13l-1-.44-.2-.09c-.5-.22-1-.46-1.57-.66a20.72 20.72 0 0 0 -2.47-.76 48 48 0 0 0 -5.64-.65c-.51 0-1.06-.05-1.68-.05-1.19 0-2.41.06-3.65.12z"/><path d="m70.78 110.51a14 14 0 0 0 1 12 18.83 18.83 0 0 0 2.93 3.52c.38.36.76.72 1.16 1.06l1.88 1.45a9.46 9.46 0 0 0 2.66 1.05 9.26 9.26 0 0 0 7.26 2l-.34-.24a40.51 40.51 0 0 1 -4.23-3.35 29.48 29.48 0 0 1 -5.2-5.84 27.74 27.74 0 0 1 -3.2-6.44 26.21 26.21 0 0 1 -1.1-4.44 29.92 29.92 0 0 1 -.23-3.38c0-1.36 0-2.66.08-3.93-1 2.16-1.88 4.35-2.67 6.57z"/></g><path d="m104.7 71c-1.46 0-3 .09-4.38.17l-1.18.07-.86.08-.79.07a6.65 6.65 0 0 0 -3 1.59 7.58 7.58 0 0 0 -1.9 2.72 35.42 35.42 0 0 0 -5.29 2.87 31.45 31.45 0 0 0 -3.3 2.43 27.86 27.86 0 0 0 -2.81 3 33.39 33.39 0 0 0 -2.39 3.42c-.24.37-.45.77-.66 1.16l-.41.75a27.11 27.11 0 0 0 -1.62 3.37 36.18 36.18 0 0 0 -2.59 10.06c-.12 1.64-.17 3.3-.15 5.07a29.92 29.92 0 0 0 .23 3.38 27.47 27.47 0 0 0 1.09 4.44 28.13 28.13 0 0 0 3.21 6.44 29.48 29.48 0 0 0 5.2 5.91 42.1 42.1 0 0 0 4.2 3.42 35.43 35.43 0 0 0 5.1 3.13 30.28 30.28 0 0 0 4.31 1.63 59.57 59.57 0 0 0 5.92 1.36 33.32 33.32 0 0 0 4.72.54h1.35a25.45 25.45 0 0 0 9.09-1.47 35.34 35.34 0 0 0 5.12-2.28 37 37 0 0 0 4.87-3.37 13.33 13.33 0 0 0 1.32-1.28l.12-.12a29.52 29.52 0 0 0 2.5-3c.91-1.26 1.73-2.48 2.51-3.72a56.63 56.63 0 0 0 2.9-5.32c.61-1.28 1.12-2.68 1.52-3.8l.18-.48a37.11 37.11 0 0 0 2.27-10.5 21.47 21.47 0 0 0 -.36-6 50.85 50.85 0 0 0 -1.81-6.07 30.6 30.6 0 0 0 -2.67-5.27 19.4 19.4 0 0 0 -4-4.45 29.18 29.18 0 0 0 -3.65-2.59 38.79 38.79 0 0 0 -5.52-2.87l-2-.84h-.14l-.45-.19-1.52-.65a24.68 24.68 0 0 0 -4.38-1.5 45.49 45.49 0 0 0 -8.28-1.31c-.53 0-1.06 0-1.62 0zm-7.15 14h.07l1.67-.07c1.24-.06 2.46-.12 3.65-.12.62 0 1.17 0 1.68.05a48 48 0 0 1 5.64.65 23.45 23.45 0 0 1 2.47.76c.53.2 1.07.44 1.57.66l.2.09 1 .44h.14l.15.07c1.53.63 3.12 1.28 4.62 2a29.17 29.17 0 0 1 4.28 3 15.56 15.56 0 0 1 1.35 1.76 24.57 24.57 0 0 1 1.08 2.4c.32.84.63 1.79 1 2.89a17.55 17.55 0 0 1 .31 2.16 27.64 27.64 0 0 1 -.47 4 45.2 45.2 0 0 1 -2.44 6.9 49.08 49.08 0 0 1 -4.41 6.8 14.65 14.65 0 0 1 -1.61 1.44 27.43 27.43 0 0 1 -4.23 2.36 21.69 21.69 0 0 1 -3.86.86c-.77 0-1.46.06-2.08.06s-1.16 0-1.68-.05a28.84 28.84 0 0 1 -3.41-.43 33.43 33.43 0 0 1 -7.24-2.15 45 45 0 0 1 -7.41-5.53 25.21 25.21 0 0 1 -2.85-3.7 22.92 22.92 0 0 1 -1.42-3.3 25.43 25.43 0 0 1 -.45-4 30.79 30.79 0 0 1 .52-5.55 38.68 38.68 0 0 1 2.19-5.93 31.54 31.54 0 0 1 2.54-3.86 23.5 23.5 0 0 1 3.18-2.74c.84-.54 1.7-1.06 2.63-1.58a9.06 9.06 0 0 1 .82-.42 3.57 3.57 0 0 0 .8.09z" fill="#ff4143"/><path d="m115.5 92.17a5.56 5.56 0 0 0 -4.7 2.62c-1.21 2-2.46 4-3.63 5.78l-.29.45-.22-.62v-.09l-.07-.16c-.44-1-.91-2-1.42-2.93l-.75-1.22a5 5 0 0 0 -4-2 5.41 5.41 0 0 0 -2.55.66 6.4 6.4 0 0 0 -3 3.48 6.18 6.18 0 0 0 0 4.59c.62 1.22 1.18 2.56 1.67 3.74l.06.14.07.17c.41 1 .82 2 1.28 2.94.56 1.2.93 2 1.29 2.85a14.19 14.19 0 0 0 1.07 2l.12.21a5 5 0 0 0 1.42 1.54l.45.42a5.77 5.77 0 0 0 3 1.1h.38a9.24 9.24 0 0 0 1.63-.18 7.51 7.51 0 0 0 3.07-1.68c.41-.4.79-.85 1.13-1.25l.07-.09.37-.43a9.22 9.22 0 0 0 .85-1.23l.22-.36c.43-.7.84-1.44 1.2-2.08l.06-.11.07-.12.08-.14c.24-.43.49-.86.74-1.29l.23-.4 1-1.69.33-.55.43-.71.43-.71a29.75 29.75 0 0 0 2.46-4.9 5.94 5.94 0 0 0 -1.73-6.75 4.87 4.87 0 0 0 -2.94-1z" fill="#8b0f26"/><path d="m103 .13c-6.47.31-13 1.81-18.75 3.13-1.93.45-3.9.9-5.8 1.53l-.45.14-.14.07c-.72.23-1.55.5-2.33.81l-.82.32-.82.32-.2.08-.21.09h-.07l-.17.07h-.12a6.7 6.7 0 0 0 -1.18.43c-.19.07-.36.15-.54.23a7.75 7.75 0 0 0 -1.19.65l-.21.11a133.53 133.53 0 0 0 -14.94 8.35c-1.22.76-2.45 1.56-3.64 2.33l-.2.13-.27.17-3.32 2.12a87.47 87.47 0 0 0 -8.45 6c-2.47 2-4.81 4.11-7 6.08-4.59 4.17-9.76 9.14-13 15.27a8.54 8.54 0 0 0 -1.09 4.78c-.92 1.23-1.69 2.33-2.35 3.36a62.76 62.76 0 0 0 -5.1 10.3c-1.24 3-2.26 5.7-3.12 8.21-1 2.88-2 6-3.08 9.39-.88 2.73-1.54 5.58-2.19 8.33v.11.1a90.49 90.49 0 0 0 -1.64 10.6 91.6 91.6 0 0 0 -.61 11.2 77.08 77.08 0 0 0 1 9.83v.11c.21 1.38.47 2.81.8 4.36.56 2.62 1.24 5.4 1.78 7.64l.15.63.27 1.06.25 1.06c.54 2.27 1.21 5.1 2 7.73a61.25 61.25 0 0 0 5.61 13c.55 1 1.17 2 1.71 2.81l.34.53.52.83c.52.85 1.1 1.68 1.7 2.54l.27.39.38.55a68.14 68.14 0 0 0 6.15 7.86 87.65 87.65 0 0 0 8.35 7.74c5.37 4.47 11.82 7.55 16.83 9.72 3.65 1.59 6.72 2.79 9.65 3.77 2.52.85 5.27 1.66 8.9 2.62a100.59 100.59 0 0 0 19.34 2.94h.48.13c2 .14 4.27.29 6.44.29h1.1c3.08-.08 6.26-.22 9.45-.43 2.69-.18 5.43-.44 8.16-.78l2.66-.33 2.66-.33 1-.12.48-.06c1.36-.15 2.68-.31 4-.53l2-.35c2.27-.39 4.6-.79 6.88-1.35l1.9-.46 3.43-.84c.85-.2 1.67-.47 2.74-.83l.2-.06 1.06-.35c2.91-.91 5.65-1.89 8.93-3.09 1.49-.54 3-1.21 4.31-1.8l.61-.27 1.17-.52.17-.07c1.29-.57 2.46-1.08 3.61-1.66a62.66 62.66 0 0 0 10.12-6.06l1.3-1 3-2.25c1.51-1.15 2.9-2.33 4.53-3.77l.59-.52c.72-.63 1.55-1.36 2.3-2.1l3.57-3.56c.28-.28.53-.58.78-.88l.08-.1.37-.43 2.08-2.41c.92-1.07 1.78-2.24 2.61-3.37l.9-1.21c.21-.29.43-.59.66-.88.59-.78 1.15-1.52 1.66-2.29l3-4.46c.61-.91 1.18-2 1.6-2.72.25-.45.49-.9.75-1.33.57-1 1.08-2 1.56-3l.2-.41c.83-1.68 1.71-3.51 2.51-5.43l.53-1.29a139.4 139.4 0 0 0 5.73-15.73 104.09 104.09 0 0 0 3.14-19.08 105.59 105.59 0 0 0 .43-17.84 62.5 62.5 0 0 0 -1.72-10.55 56.56 56.56 0 0 0 -3.64-9.82c-.58-1.25-1.18-2.43-1.82-3.6a43.19 43.19 0 0 0 -1.34-4.17 71.46 71.46 0 0 0 -4.17-9.16c-1.06-1.91-2.25-3.85-3.53-5.77a48.75 48.75 0 0 0 -5.64-6.84 95.5 95.5 0 0 0 -10.85-9.32c-2.25-1.75-4.46-3.46-6.79-5.07-2.1-1.46-4-2.73-5.87-3.88a58.76 58.76 0 0 0 -5.82-3.23c-1.79-.87-3.68-1.63-5.5-2.36l-.56-.23-1.17-.47a151.69 151.69 0 0 0 -16.49-6.33l-1.57-.47c-2-.59-4.41-1.33-6.78-1.89-2.74-.63-5.59-1.26-8.46-1.87l-.59-.12c-1.09-.22-2.36-.49-3.57-.68-1.79-.28-3.69-.49-6.11-.65-1.16-.12-2.42-.12-3.84-.12s-3 0-4.75.13zm7 39.45v-1-1-1a7 7 0 0 1 0-.78 5.76 5.76 0 0 1 .35-2c.22-.43.44-.85.65-1.28a5.39 5.39 0 0 1 3-2.24 5.05 5.05 0 0 1 1-.11 4.3 4.3 0 0 1 2.64.88 4.73 4.73 0 0 1 1.86 3.28l.07 2.51v1.88 1.71c3.09.08 5.77.18 8.23.31 1.21.06 2.45.1 3.66.13h.44.69.54.54c.72 0 1.43 0 2.14.09l.05-.93.15-2.69a5.48 5.48 0 0 1 5.16-5h.23a4.42 4.42 0 0 1 3.29 1.77 5.08 5.08 0 0 1 1 3.19 5.28 5.28 0 0 1 0 .56c-.07 1.24-.12 2.49-.17 3.73.49.07 1 .11 1.44.15l1.11.1c1.28.12 2.44.22 3.59.24h3.69a4.7 4.7 0 0 1 1.43-.23h.24a4.8 4.8 0 0 1 3.58 1.91 5.8 5.8 0 0 1 1.06 3.73v.33l-.05 1.36v.13.59c0 .56 0 1.12-.05 1.68-.19 7-.28 14-.28 20.75v.66c0 4.05.06 8.16.13 12.72 0 1.8 0 3.6.07 5.39.17 8.91.78 17.92 1.36 26.63v.26l.32 4.88c.12 1.84.21 3.75.29 5.43v.39c.07 1.5.14 3 .23 4.5.12 2.14.25 4.27.38 6.41l.19 3.19c.05.77.08 1.53.11 2.29v.23c0 .74.06 1.47.1 2.21.11 1.65.19 3.16.22 4.62l.06 1.79v.43c.07 2.2.15 4.69.15 7.14v2.09a6.41 6.41 0 0 1 -2.14 4.25 5.72 5.72 0 0 1 -3.79 1.53h-.27a4.85 4.85 0 0 1 -2.93-1.16 4.13 4.13 0 0 1 -1.45.28h-.38a13.1 13.1 0 0 0 -1.46-.09c-.52.05-1.08.07-1.77.07h-1.26-1-3.63c-3.49-.05-6.44-.13-9-.27-1.74-.09-3.42-.1-5-.1h-4.15c-3.16 0-6.32 0-9.48-.06h-1.18-1.72l-6.9-.05h-3.62c-1.78 0-3.88 0-6 .16l-3.6.26c-1.78.13-4 .29-6.1.4l-5.92.28h-.17c-3.43.16-8.61.41-13.4.71h-.3-.3-.26-.17c-1.26.14-2.56.29-3.83.47a6.67 6.67 0 0 1 -1 .08 3.87 3.87 0 0 1 -2.45-.79 4.27 4.27 0 0 1 -1.26-1.75 5 5 0 0 1 -2.16-.92 5.22 5.22 0 0 1 -1.69-2.24l-.06-.2a14.75 14.75 0 0 1 -.56-2.51v-.27-.26-.37c0-.56-.09-1.13-.13-1.7-.39-5.54-.62-11.33-.82-16.43v-.29l-.12-3.14c-.2-4.69-.21-9.59-.23-13.91 0-1.94 0-3.84 0-5.75 0-.93 0-1.86-.07-2.79v-.43c-.05-1.59-.1-3.39-.1-5.18v-.76c0-1.46 0-2.92 0-4.38v-2.62l-.08-3.06c0-1.91-.11-4.17-.13-6.36q0-1.62-.09-3.24c-.07-2.09-.11-4.38-.11-7 0-3 0-6 .1-8.7v-1.26c0-1.25 0-2.5.05-3.75v-2.34c.05-5.09.12-11.42.22-17.56a5.44 5.44 0 0 1 1.83-3.65 5.16 5.16 0 0 1 1.87-1.09 5.9 5.9 0 0 1 .28-.65 4.63 4.63 0 0 1 2.88-2c2.79-.37 4.93-.65 7.24-.89v-1.11-1.74a5.42 5.42 0 0 1 1.88-3.63 4.91 4.91 0 0 1 3.24-1.31h.23a4.3 4.3 0 0 1 3.23 1.74 5 5 0 0 1 1 2.34v1.17.8a4.49 4.49 0 0 0 .09.83h.87.48.85c2.65-.14 5.8-.29 9-.4l-.11-2.8a4.73 4.73 0 0 1 0-.75 5.36 5.36 0 0 1 .34-1.9l.62-1.23a5.2 5.2 0 0 1 3-2.17 5.52 5.52 0 0 1 1-.1 4.22 4.22 0 0 1 2.55.84 4.53 4.53 0 0 1 1.79 3.17c.07 1.43.14 3 .24 4.46h.89c2.85-.07 5.82-.1 8.84-.1h1.18 1.67v-.67z" fill="#ff4143"/><path d="m115 30.17a5.05 5.05 0 0 0 -1 .11 5.39 5.39 0 0 0 -3.16 2.24l-.65 1.28a5.72 5.72 0 0 0 -.35 2 7 7 0 0 0 0 .78v1 1 1 .67c-.55 0-1.11 0-1.67 0h-1.18c-3 0-6 0-8.84.1h-.75c-.1-1.49-.17-3-.24-4.46a4.53 4.53 0 0 0 -1.79-3.17 4.22 4.22 0 0 0 -2.55-.84 4.73 4.73 0 0 0 -1 .1 5.2 5.2 0 0 0 -3 2.17l-.62 1.23a5.36 5.36 0 0 0 -.34 1.9 6.61 6.61 0 0 0 0 .76l.08 2.7c-3.18.11-6.33.26-9 .4h-.85-.48-.87a3.77 3.77 0 0 1 -.09-.83v-.8-1.17a5 5 0 0 0 -1-2.34 4.33 4.33 0 0 0 -3.23-1.74h-.23a4.91 4.91 0 0 0 -3.19 1.37 5.42 5.42 0 0 0 -1.82 3.63v1.66 1.11c-2.31.24-4.46.52-7.24.89a4.63 4.63 0 0 0 -2.94 2.08 5.9 5.9 0 0 0 -.4.69 5.16 5.16 0 0 0 -1.87 1.09 5.48 5.48 0 0 0 -1.83 3.65c-.1 6.13-.16 12.47-.21 17.56v2.34c0 1.25 0 2.5-.05 3.75v1.26c0 2.71-.09 5.7-.09 8.7 0 2.62 0 4.91.1 7 0 1.07.07 2.15.09 3.23 0 2.19.08 4.45.13 6.36l.08 3.06v2.62 4.38.76c0 1.79 0 3.59.1 5.18v.37c0 .93 0 1.86.07 2.79v5.75c0 4.32 0 9.22.23 13.91l.12 3.14v.29c.2 5.1.43 10.89.82 16.43 0 .57.08 1.14.13 1.7v.37.26.27a14.75 14.75 0 0 0 .56 2.51l.06.2a5.22 5.22 0 0 0 1.69 2.24 5 5 0 0 0 2.16.92 4.22 4.22 0 0 0 1.39 1.82 3.81 3.81 0 0 0 2.44.78 6.61 6.61 0 0 0 1-.07c1.27-.18 2.57-.33 3.84-.47h.17.25.3.3c4.79-.3 10-.55 13.4-.71h.17l5.92-.29c2.12-.1 4.32-.26 6.1-.39l3.6-.26c2.17-.14 4.27-.16 6-.16h3.62l6.9.06h1.72 1.18q4.74 0 9.48.06h4.15c1.57 0 3.25 0 5 .1 2.58.13 5.53.22 9 .27h3.63 1 1.26c.69 0 1.25 0 1.77-.07a13.1 13.1 0 0 1 1.46.09h.38a4.13 4.13 0 0 0 1.45-.28 5 5 0 0 0 2.93 1.16h.27a5.72 5.72 0 0 0 3.79-1.53 6.43 6.43 0 0 0 2.14-4.25c0-.7 0-1.39 0-2.09 0-2.45-.08-4.94-.15-7.14v-.41l-.06-1.79c0-1.46-.11-3-.22-4.62 0-.74-.07-1.47-.1-2.21v-.23c0-.76-.05-1.53-.1-2.29l-.19-3.19-.39-6.41c-.08-1.5-.15-3-.22-4.5v-.39c-.08-1.68-.17-3.59-.29-5.43l-.33-4.88v-.26c-.58-8.71-1.19-17.72-1.37-26.63 0-1.79 0-3.59-.07-5.39-.06-4.56-.11-8.67-.12-12.72v-.66c0-6.73.09-13.71.28-20.75 0-.56 0-1.12.05-1.68v-.59-.13l.05-1.36v-.33a5.8 5.8 0 0 0 -1.06-3.73 4.84 4.84 0 0 0 -3.58-1.91h-.24a5 5 0 0 0 -1.43.21h-3.56c-1.15 0-2.31-.12-3.59-.24l-1.11-.09c-.48 0-.95-.09-1.44-.16.05-1.23.1-2.49.17-3.73a5.28 5.28 0 0 0 0-.56 5.14 5.14 0 0 0 -1-3.19 4.42 4.42 0 0 0 -3.28-1.77h-.24a5.47 5.47 0 0 0 -5.16 5l-.15 2.71v.9c-.71-.05-1.44-.07-2.17-.09h-.54-1.29-.44c-1.21 0-2.45-.07-3.66-.13-2.46-.13-5.15-.23-8.23-.31v-1.71-1.88l-.07-2.51a4.73 4.73 0 0 0 -1.86-3.28 4.3 4.3 0 0 0 -2.64-.88zm-22.18 30.35a4.94 4.94 0 0 0 3.3-1.33l.89-1a6.08 6.08 0 0 0 1-2.67c0-1.63-.07-3.38-.14-5.36 2.9-.05 5.26-.07 7.43-.07h1.87 2.89v1.39 3.6 1.43a5.52 5.52 0 0 0 1 2.52 4.68 4.68 0 0 0 3.47 1.86h.25a5.26 5.26 0 0 0 3.48-1.4 5.87 5.87 0 0 0 2-3.89c0-1.75 0-3.49-.07-5.24 2.42.1 4.57.2 6.58.31 1.45.09 2.9.14 4.36.19h.35c1.45 0 2.9.1 4.34.18v.09 1.45.74.68a17.59 17.59 0 0 0 0 1.93 5.36 5.36 0 0 0 1 3.23 4.61 4.61 0 0 0 3.26 1.84h.24a5.05 5.05 0 0 0 3.38-1.36 5.73 5.73 0 0 0 1.9-3.78 3.55 3.55 0 0 1 .09-.72 13.55 13.55 0 0 0 0-1.91v-1.34h.08.24c1.72.18 3.23.31 4.63.39h.59c-.41 12.76-.54 25.74-.66 37.2-.06 6.49.08 13.29.44 21.39q.19 4 .42 8c.23 4.06.43 7.66.55 11.28.11 3 .25 6 .42 8.73.1 1.52.18 3.05.27 4.57 0 .61.09 1.21.15 1.82s.13 1.5.16 2.23c.13 3 .33 6.12.51 9.1v.42.74h-.12-.09a4.19 4.19 0 0 0 -.5 0h-2-2.68-2.3c-3.07 0-5.77-.06-8.26-.17-1.31-.06-2.7-.09-4.38-.09h-2.51-2.16l-9.64.05-5.66.06h-3.75-1.62c-2.79 0-5.65 0-8.45.25l-2.87.23-.67.06c-2.08.18-4 .34-5.85.44l-7.71.42h-.08l-2.22.11h-.1c-4.68.25-9.52.51-14.37 1.08 0-.77-.07-1.56-.13-2.33 0-.39-.06-.79-.08-1.18l-.24-4.05c-.07-1.32-.12-2.64-.18-4-.06-1.56-.12-3.09-.21-4.63-.28-4.9-.48-10.15-.6-16.06v-.51c0-2.75 0-5.6-.13-8.39 0-1.31-.09-2.61-.15-3.92-.06-1.54-.13-3.07-.17-4.61-.06-5.09-.18-9.29-.39-13.21-.06-1.08-.09-2.16-.12-3.23v-.3c0-.92-.05-1.85-.09-2.77 0-.77-.06-1.45-.09-2.14-.06-1.3-.12-2.6-.16-3.89q-.09-8.17-.17-16.35v-3.75-.21c0-4.15-.09-8.44 0-12.66l4.72-.56h.39v.14.71s0 .48.05.71 0 .37 0 .55v.44a5.84 5.84 0 0 0 .14.93c0 .43.07.87.11 1.31a4.56 4.56 0 0 0 5.54 4.06 5.36 5.36 0 0 0 3.13-2.3l.32-.64.32-.64a5.76 5.76 0 0 0 .31-2.72c0-.21 0-.43 0-.64a22.14 22.14 0 0 0 -.07-2.49h.15c2.21-.1 4.41-.17 6.62-.25 1.11 0 2.22-.07 3.32-.12h.68v2.47 2.06 1.37a5 5 0 0 0 1 2.39 4.43 4.43 0 0 0 3.3 1.78z" fill="#8b0f26"/></svg>