<svg enable-background="new 0 0 213.8 203" viewBox="0 0 213.8 203" xmlns="http://www.w3.org/2000/svg"><path d="m103 .1c-11.6 1.1-22.4 3.2-32.8 7.9-16.9 9.2-47.5 25.7-52.1 45.3-13.1 20.9-20.5 46.9-17.1 71.5 1.3 7.8 3.2 14.9 5.3 22.6 17.5 53.6 78.7 62.7 127 50.8 21-4.9 41.2-15.6 54.9-32.6 30.1-35.8 35.6-92.8 3.4-128.9-23.1-22.5-56.1-36.7-88.6-36.6z" fill="#ff4143"/><path d="m57.8 46.9h98.9v115.3h-98.9z" fill="#fff"/><path d="m104.7 71c-4.5.1-10.3-.4-12.1 4.7-15.1 6-22.5 24.8-17.9 40 6.6 18.3 31 28.4 48.2 18.7 17-10.3 25.7-38.8 9.4-53.4-7.9-6-17.7-9.9-27.6-10zm-7.1 14c25.1-2.1 42 14.3 21.9 35.9-24.5 14.4-50.5-20.7-22.7-36 .2.1.5.1.8.1z" fill="#ff4143"/><g fill="#8b0f26"><path d="m115.5 92.2c-4.8 0-6.2 5.8-8.6 8.8-3.5-13.4-17.5-5.1-10.3 5.5 1.8 3.6 2.6 7.7 5.8 10.3 6.2 4.1 10.7-3.5 13.1-8.3 3.1-4.7 9.4-14.8 0-16.3z"/><path d="m115 30.2c-5.4.3-5.4 6-5.2 10.1-4.1 0-8.4 0-12.4.1 1.3-11.9-11.3-10.8-9.5.4-4.1.1-7.5.4-11.2.4.8-10.1-10.9-8.4-9.6.9-3.2.7-8.8-.3-10.6 3.7-6.7 1.9-2.9 19.4-3.9 24.6-.3 15.4.2 31 .4 46.3 0 14.2.2 28.2 1.2 42.7 0 3.3.6 7.9 4.6 8.5 1.6 4.2 6.4 1.9 9.7 2.1 12.5-.6 23.3-1.4 35.2-1.8 8.8 0 18.2.1 27.1.1 7.8 0 16.9.9 25 .1 9.4 5.1 9.8-7.8 9-13.9-.1-4.8-.4-9.9-.7-14.7-.8-17.9-2.5-35.8-2.7-53.9-.2-12.6-.1-23.9.2-36.5.1-1.8.2-3.9-1-5.4-1.9-2.9-5.9-1.4-8.8-1.7-1.9-.1-4.1-.2-6.1-.5 2.6-12-10.8-12.4-9.7-.6-5.7-.1-10.3-.3-16.3-.5 0-4.1.8-10.4-4.7-10.5zm-22.2 30.3c5.5-.3 5.5-6 5.1-10.4 4.7-.1 7.9-.1 12.2-.1v5c.8 10.6 12.6 5.7 10.1-4.7 5.5.3 10.3.4 15.6.7v3c-.8 11.2 12 7.6 9.9-2.1 2 .1 3.8.4 5.5.4-1.6 35.8.1 69.9 2.3 105.5-29.4-.5-58.7-.4-88 2.4-1.8-35.8-2.9-72.3-2.9-108.2.4 0 4.8-.6 5.1-.6-.1 3.7.2 9.3 5.2 8.9 4.6-.5 5.1-5.8 4.6-9.5 3.6-.1 7.2-.3 10.8-.4 0 3.8-.8 10.1 4.5 10.1z"/></g></svg>