<svg enable-background="new 0 0 731.4 675.9" viewBox="0 0 731.4 675.9" xmlns="http://www.w3.org/2000/svg"><path d="m426.9 0c-21.1-.1-43.3 1.6-64.2 4.8-3.9.8-12.7 1.7-16.3 2.8-3.5.4-7.8.2-11.3.6-27.3 2.8-54.9 7.9-80.1 19-7.7 3.8-14.6 8.8-21.8 13.3-6.8 2.9-13.2 5.8-19.9 9.1-28 13.2-53.8 30.9-77.4 50.9-26.4 21.4-51.3 44.7-71.5 72.2-35.9 50.7-54.1 122.5-59 184-1.3 19.3-1.5 39 1.6 58.1 13.5 56.3 54.2 108.7 96 147.2 13.5 12.2 28.1 26.6 43.2 37.4 20.9 15 43.5 28.6 66.3 40.5 27.1 13.3 56.5 20.9 86.3 25.6 51.6 8.7 105.6 14.2 157.9 6.8 30.2-4.5 60.1-11.4 87.3-26 48.8-26.1 89-66.4 113.5-116.1 24.3-28.3 32.5-65.9 34.9-102.4 1.3-7.8 4.4-15.9 5.9-23.6 2.2-11.2 6.5-22.4 9.3-33.8 4.3-17.2 6.9-35.6 8.8-53.2 3.7-44.2-8.5-88.3-23.4-129.6l.2.4c-.2-.5-.6-1.6-.8-2.1l.3.7c-6.6-14.9-11.6-30.5-18.6-45.2-8.1-18-19.1-33.9-30.7-49.8 5.1 2.6 10.2 6.7 16.1 7.4 5.3 0 9.4-5.4 7.9-10.5-1.7-6.5-22.8-13.9-29.3-20-28.8-19.9-62.1-32-94.4-44.9-13.6-5.7-28.8-10.6-43.2-13.6-22.2-5.1-49.8-10.2-73.6-10z" fill="#fcb415"/><path d="m67.8 275.6c-11.1 8.6-21.1 25.1-16.9 39.4.6 2.2 3 5.2 5.4 3.5 6.3-3 9.9-10.1 14.2-15.4 3.5-3.1 7.3-6.1 10.4-9.7l-.1.1c3.9-4 2.4-21.9-5.6-15.4-1.6-2.3-4.6-4.1-7.4-2.5z" fill="#fff"/><path d="m110.9 272.8c-22 4.7-46.1 47.9-14.7 55.6 27.6 1 44.3-56.8 14.7-55.6z" fill="#fff"/><path d="m181.6 263.3c-3.5.2-7 1.4-10.1 3.1-1.4-.8-3.1 0-3.8 1.4-14.2 13.1-19.1 54 9 50.1 12.6-3.8 22.6-14.4 27.7-26.3 6.1-13.5 2.3-32.5-16.2-26.8-2.1-.9-4.4-1.5-6.6-1.5z" fill="#fff"/><path d="m199.2 287.8c-5.5 1.7-9.3 7-14 10.1-4.7 5.7-7.2 16.5-1.5 22.4 6.8.9 13.6-7.6 17.6-12.6 3.6-5.5 5.3-17.2-2.1-19.9z" fill="#fff"/><path d="m272.4 254.3c-26.2.3-43.6 46.8-13.5 54.5 2 2 5.3 2 8 1.8 1.7 2.3 4.2 1.6 6-.2 9.8 1.6 27.4-6.8 26.1-18.5 3.5-6 3.9-17.5-3.3-20.8-1.2-10.8-13.3-16.9-23.3-16.8z" fill="#fff"/><path d="m491 46.8c-17.2.4-77.4 2.7-74.3 27.5-1.8 1.3-3.5 2.7-5.1 4.2-13.9.8-28.9 3-43.1 3.5-9.9.7-20.8-.1-30 4.1-.5-4.2-4.6-8.3-7.2-4-4.7 13.5-.8 28.7-1.4 44.9-.5 12.7-.5 23.9-.6 38.7-.7 48.7 2.9 98.5 5.4 147.2-6.2 7.3-3.5 19.8-4 29.3-15.9 18.5-31.7 37.2-47.4 55.8-1.3-7.4 1.2-47.8-9.6-45.3-3.9-8.2-12.2-17.4-21.4-10-18.8 11.5-26.5 33.2-35.1 52.7-.7-5.7-1.7-11.9-3-17.3-2.5-20.6-27.5-46.7-46.3-26.3-17.1 16.8-15.1 42.7-19.6 64.3-4.5-17.9-11.1-66.1-37.4-59.4-1.4-5.5-4.2-5.9-8.8-3-12 10.9-14.3 29.4-15.6 44.8-.9 25.5 4.6 52.5 6.4 78-.4 17.4 1.1 32.7 4.9 49.3-2.7 4.7-2.4 10.4.1 14.9 1 2.4 4.1 1.7 6.1 1.3 4.1-.6 8.4-1.4 12.6-1.9 14.3-1.8 27.6-2.1 42.3-2.5 24.8-.4 47.1.7 73.4 1 11.4-.1 23.6.2 35-1.4 7.4-2.4 7.1-14.6 2.8-19.4.6-12.6 1.1-25.2 1.6-37.8 7-5.6 8.9-31.1 10.5-40.5 1.6-1.9 3.2-3.9 4.8-5.7 1.5 3.1 4.4 2.9 6.2.2 2.1-2 4.2-4.5 6.1-6.8 10.9-13 22.3-27 32.8-40 1.3 18.5 2.6 42.1 4.1 61.7 1.1 6.4-.5 18.5 5 22.5.3 5-1.5 8.6 1 12.7-.8 5.2-1.2 9.5-1.4 15.3 0 2.7.5 5.6 2.1 7.9.4 1.1-2.8 4.8-1.2 5.5 2.5 2.7 4.3 2.5 7.5 2.6 7.9-.6 100.3-5.9 110.1-4.7 56.7 1.8 114.7 1.7 171.6 1.9 26.2-.9 53.6 2.1 79.5.8 8.4 3.9 17.2-15.7 17.6-20.4 0-10.5.1-21.2-.9-31.5-.2-4.7-1.1-9.3-3.5-13.3-.5-3.8-.8-7.8-2.5-11.3 1.8-17.8 2.5-36.3 1.9-54.3-.3-7.5-.6-14.2-1-21.2 1.7-4.1 2.4-8.4 1.9-12.9 2.4-2.3 2.7-6.3 2.8-9 1-22-9.1-36.4-9.2-59.4-.5-15.2-.5-29.6-1.1-44.5-.1-11-3.9-21.4-2.9-32.5-.9-20.4 3.4-46.9-1.6-68.3 2.4-4.4 2.5-10.4-.2-14.7 2.2-4.9 2.1-12.3-2.8-15.7-.9-1.2-1.9-2.4-3.2-3.2-5.5-4.4-13-10.7-20.4-7.7 0-9.1-4.4-10.1-12-9.2-6.6.4-14.7.9-20.5 1.1-19.1.6-38.4 1.3-57.8 3.2-21.6-22.3-54.2-38.7-85.6-40.1-5.6-2.3-12.6-1.2-18.4-1.7z" fill="#fff"/><path d="m166.8 142c-.9-7.2-3.9-16.4-11.6-18.7-.4-.7-.8-1.3-1.3-1.9-5.1-17.1-38.2-22.9-54-21.6v-.1c-11.3 1.5-22.5 4.1-32.9 9-4.2-5.4-15.7 4.2-20.1 6.8-14 10-23.2 24.6-32.4 38.7-5.2 10.8-10.2 24.5-5 36.1.3 6.4 3.1 14 10.3 15 .5 6.8 5.2 12.6 12.2 13.3 1.9 3.2 6 4.2 9.5 4.1 6.6 14.6 32.3 4.6 44 1.5-.3 5.2 4.6 17.3 10.5 10.7 3.5-.1 4.4-4.6 4.7-7.4 6.7-12.4 21.4-15.2 33.1-21.2 15.7-8.5 35.8-20.5 35.4-40.7 3-5.5 8-24-2.4-23.6z" fill="#fff"/><g fill="#9e6418"><path d="m107.3 267.6c-8 0-16.1 3.5-21.3 9.6-10.2-6.1-26.6-5.2-34.8 3.8-9 12.3-2.3 30.4-13.8 41.8-5 1.8-10.6 1.9-15 5-8.3 13.9 15.6 9 20.6 2.9 11.8-3.8 22.5-12 29.2-22.4 3.3 19.9 30.1 34.8 46.6 20 12-9.8 20.6-27.9 12.8-42.7-5.1-8.9-13.4-18.2-24.3-18zm-2 55.8c-10.8.7-20.9-7.2-23.9-17.4 2.3-3.1 3.2-7.6 5.1-11.1 1.9-.9 3-3.2 2.7-5.3 10.2-19.2 32.5-10.9 35.2 8.3 0 10.8-8.3 23.3-19.1 25.5zm-53.7-7.1c5.8-15.9-2.2-37.2 23.4-33.2-5.6 12.4-11.2 25.9-23.4 33.2z"/><path d="m183.8 254c-12.4-.4-20.7 10-27.8 18.8-3.2 4.4-12.3 11.3-5.4 16.3-.3 10.9 1.6 23.3 9.5 31.3 13.6 10.3 33.8 4.3 44.2-7.9 19.1-20.7 10.8-58.4-20.5-58.5zm-6.3 61.2c-16.5 1.6-20.3-18.6-17.9-31.2 5.8-6.2 10.4-14.4 18.3-18.1 37.7-6.7 32.6 48.5-.4 49.3z"/><path d="m266.3 234.9c-19.7 1.2-35 18.2-40.1 36.2-1.9 6.1-12.7 9.8-8.8 16.7 8.2 7.9 20.1-18.4 21.2-24.7 4.7-6.6 10.8-13.1 18.3-16.6 12.1-5.1 25.5.5 37.8 1.5 5.4.3 6.7-8.8 1-9.3-9.9-1.1-19.5-3.8-29.4-3.8z"/><path d="m275.1 249.6c-9.6-.3-18 4.9-25.5 10.3-4 3.1-12.5 6.2-9.4 12.6-24 41 29.6 64.9 57 33.4 19.9-17.7 5-57.2-22-56.2zm-7.3 60c-42.7-1.1-21-52.6 10.7-48.7 14.8 2.8 20.9 20.3 15.7 33.4-6.9 7.3-15.5 15.2-26.4 15.3z"/><path d="m491.1 61.6c-12-.4-22.2 3-33.3 7.2-20.8 7.8-35.6 26.2-46.8 44.7-14.9 32.5-6.7 72.5 11.3 102.1 12.9 19.1 28.6 37.9 50.5 46.6 11.2 6.1 23.4 9.4 36.3 8.6 8.3.2 16.8-.5 24.7-2.8 25-6.9 50.8-19.4 66.7-40.4v-.1c20.6-31.2 24.7-75.8.8-106.4-14.7-22-35.6-41-60.6-49.9-15.7-6.8-32.5-10-49.6-9.6zm22.6 198.5c-51.3 3-94.7-49.7-99.6-97.7-1.6-15.7-1.7-32.9 6.7-46.8 12.4-19.2 29.1-36.9 52.5-41.6 19.6-5.2 41.9-2.9 60.8 4.6 5.2 1.9 10.9 3.1 15.6 6.2.9 4.5 13.9 9.9 18 14.7 14.6 12.4 27.2 27.4 35.2 44.8 10.6 28.3 4.2 65-18.1 86.2-19.5 16.6-45.3 28.7-71.1 29.6z"/><path d="m99.9 219.7c-1.3 4.6-1.8 9.4-2.7 14.1-3-4.3-7.1-15.9-13.7-11.3-5.2 5.1 2.8 9.6 4.6 14.2 3.4 4.7 6.9 21.3 14.5 12.7 2.8-9.7 5.7-20.3 5.5-30.4-1.3-3.9-7.1-3.1-8.2.7z"/><path d="m95.5 91.9c-52.9.9-124 66.7-83.7 118.9 18.4 18.9 47.6 31.8 73.2 19.8 3.5-1.8 3.8-7.6-.1-9.1-5.3-.2-10.3 3.7-15.9 3.5-18.9 1.9-36-8.4-49.3-21-34.7-44.7 29.7-99.5 73.7-101.3h-.4l1.9-.2-1.3.1c27.6-3.7 56.4 7.9 69.5 33.3 13.9 24.1-7.4 52.1-28.9 63-6.3 3.3-12.7 6.4-19.6 8.2-4.4 1.6-11.7 3.8-9.5 9.9 1.9 4.5 6.7 2.3 9.9.7 11.8-3.1 23.1-8.5 33.1-15.6 24.4-16.9 40.2-53 19.4-78.7-15.2-24-44.2-34.7-72-31.5zm12.6 118-.1.1z"/><path d="m94.2 123.6c-12.6.5-26.4 6.6-31 19.1-2.4 6.1 6.6 9.3 8.6 3.1 2.5-6.3 9.2-9.7 15.5-11 24.2-5.6-3.6 23.6-5.1 32.2-3.9 9 5.8 15.9 13.5 11.5 4-3.5 1-10-4.3-9.1 4-10 12.7-18 14.8-28.8 1.6-7.8-3.2-17.6-12-17zm2.6 12.4v.1z"/><path d="m93.6 119.3c-9.6-1.2-42.1 14.6-36.6 26.1 3.3 3.1 8.6 11.8 13.1 5.8 2.6-3.5-.9-6.8-3.5-9 7.9-9.5 38.8-22.6 35.4-.2-3.8 11.3-17.8 18.1-17.6 30.8.9 9.5 14.1 6 9.7-2.5 4.7-9 13.8-15.5 16.9-25.5 4.4-11.7-4.1-27-17.4-25.5z"/><path d="m89.3 189.5c-9.7 2.7-4 20.8 5.4 14.6 8.5-4.9 4.7-17.5-5.4-14.6z"/><path d="m429.8 121.8c-26.8-1.1-25.2 19.2-13.4 14.2 4-2.8 9.7-2.6 14.4-2.3 12.5 5.6 16.8 19.8 18.4 32.4 2.7 11.4-4.7 22.3-15 26.7-3.4 1.6-7.8.3-10.7 2.9-3.9 3.2-2.6 10.9 2.9 11.1 17.8-.1 35.5-17.4 34.8-35.4-.3-19.6-8.5-47.3-31.4-49.6z"/><path d="m486.6 118.2c-4.1 3.7-9.9 13.3-6.9 18.7 4.4 4.8 8.7-.5 9.6-5.2 6.1 11 12.8 8.4 20.7 1 8.2 8.4 18.1 6.2 25.8-1.5 4.4 12.1 13.9 7 21.4 1 4.2.1 8.5-.1 9.1-5.3.7-7.4-9.4-7-13.8-4.2-2.1 1.4-4.5 3.4-6.7 4.5-9.4-18.6-13.3-2-24.3-.1-11-7.5-11.4-8.6-21.9.8-3.4-3.8-6.4-12.5-13-9.7z"/><path d="m575.3 146.1c-20.2 1-40.4 2.5-60.5 4.3l1.1-.1-1.2.1h.3l-2.1.2.5-.1-2 .2h.4c-7.8.6-16.1 1.8-23.7 1.5-4.8.5-6.3 8.3-.8 9 4.1.1 8.1-.4 12.1-.5 20.6-1.2 41.2-2.9 61.8-3.8 5.3-.8 11.6.7 16.4-2 3-2.5 2.1-8.4-2.3-8.8zm-64.5 4.6.7-.1zm3.1-.3.8-.1z"/><path d="m508.8 169c-8.7 1.7-22-.7-28.9 4.5-2.5 3.3 0 8.8 4.4 7.8 8.5-1.2 17.2-1.5 25.8-2.4 5.8-1.1 5-11.2-1.3-9.9z"/><path d="m580.2 166.1c-10.6.5-21.2 1.2-31.8 2.3-6.2 1-25.5-.4-17.6 10.6 1 .6 2.3 1 3.4.7 10.8-1.2 21.5-2.3 32.3-2.9 5.1-.9 11.3.7 15.8-1.9 3.2-2.6 2.2-8.6-2.1-8.8z"/><path d="m565.2 188.7c-14 .3-28.9 1.7-42.9 2.9l1.3-.1c-3.7.3-12.5 1.6-16.3 2-7.7 2-17.9 0-24.1 5-2.5 3.4.1 9.1 4.6 8 14.9-2 30.2-4.2 45.3-5.4 6.8-.7 13.6-1 20.5-1.3 5.4-1 15 2.1 16.1-5.6.2-2.4-1.6-5.5-4.5-5.5z"/><path d="m426 325.4c-8.8 3-18.7 6.3-24.5 14.1-11.9 22.1.1 42.6 25.9 38 36.7-3.4 40.4-58.6-1.5-52.1zm10.2 12.7c9.4 1.9 9.4 10.3 6.6 17.8-6.8 10.1-30.2 15.2-35.2 1.5.6-5.6.6-12.8 6.4-15.7 6.6 2 12.3-6.9 22.2-3.6z"/><path d="m416 394.8c-.4 5.4-1.1 10.7-1.5 16-3.7-7.8-13.7-2.4-10.9 5.1 6.6 12.4 12.6 21.2 25.3 8.6 3.8-3.9 9.8-6.9 11.1-12.5.8-4.6-4.8-8.2-8.5-5.1-2.3 2.1-4.5 4.3-6.8 6.3-1-6.6 6-21.8-2.9-23.8-3.1.1-5.6 2.4-5.8 5.4z"/><path d="m418.6 434.3c-5.2.7-12.3 3.6-10.1 10.1-8.5 5-13.8 17.3-10.9 26.9 5.3 11.6 20.7 19.4 31.9 10.9 20.6-11.1 16.4-53.5-10.9-47.9zm5.6 12.3c14 4.9 4.9 32.3-9.6 26.2-8.8-3.3-10.1-13.7-2.8-19.4 2.1-1.1 3.5-3.1 3.3-5.5 3-.8 6-1.8 9.1-1.3z"/><path d="m567.7 346.9c-22.4.2-45.2 1.6-67.6 3.1h.6c-.6.1-1.2.1-1.8.1h.3c-.2 0-.7 0-.9 0h.3c-.4 0-1 0-1.4.1h.4c-5.2.5-11.1.7-16.3 1.3h.3c-.2 0-.5 0-.6 0h.1c-.1 0-.4 0-.5 0h.2c-.1 0-.4 0-.5 0h.4c-13.1-.9-13.2 10.4-5.6 10.1 10.1-1.2 21-2 31.2-2.7 22.3-1.3 44.8-2.4 67.1-2.3 7.9-1.4 7.5-12-5.9-10zm-67.8 3.1h-.2zm-5.7.5h-.5zm-12.8 1.2-.6.1h.3-.4c.2-.1.5-.1.7-.1zm-1.4.1h.3zm.4 0h.2zm1-.1h-.3zm.5 0h.1c-.1 0-.4 0-.5 0 .2 0 .8-.1 1-.1zm16.4-1.5h-.6.5-.2zm.9 0h.3zm1.3-.2h-.2l.6-.1z"/><path d="m538.8 365.8c-16.5.2-34.6 1-51 2.1-5.6.6-19.5-1.3-15 8.3 5.8 3.8 25.1-.6 33.3 0 16-1 32.7-.3 48.5-.6 3.5-1.8 3.9-7.7-.1-9.2-4.8-1.1-10.7-.5-15.7-.6z"/><path d="m729.8 462.2c-1.3-17.8-1.9-36.1-2.5-54.2-1.4-49.1-.1-97.1-.5-146.5v.1c-.2-10.7-.7-21.3-.9-32 .4-24-1.4-52.4-2.6-77.3 0-8-.3-16-.6-24-1-4.4 2.4-14.7-1.9-18.7-.5-5.4-6.6-8.9-9.4-13.2-3.3-3.8-6.5-7.3-11.1-12.2 1.3-2.4-.2-6.3-3.2-6.3h-20.6c-14.7 0-33.6 0-49.8-.2v-.1c-5.1-.2-6.2 8.4-.9 8.8 22.1.2 43.4.3 63.6.3-2.8 27.7-10.1 39 24.9 32.8 0 42.1 2.7 84.2 2.8 126.3 1.4 41.7-.7 83.8-.1 125.7.3 35.6.9 67.3 3.6 101.6.4 5.2.9 10.2 1 15.5-.3 5.3 4.4 15.4-3.8 16-28 2.3-56.8.2-85.1-.6-88.8.2-197.5.1-286.4 5l-2.3-2.6c-2.1-38-5.5-77.4-6.6-115.5-.2-1.3-.8-2.2-1.6-2.7 11.3-12.8 22.5-25.7 33.6-38.4 17.6-20.2 36.3-38.4 54.4-57.5.2 2.3.4 4.6.2 6.7.2 1.6.1 3.7.1 5.8-4.2-.8-7.8 1.3-6.5 7.6 1.8 3.5 6.5 4 9.5 6.3 7.3 5.7 10.3-4.5 13.1-9.3 5.8-2.9 3.6-13.2-3.3-10.1-1.2.7-2.3 1.6-3.2 2.6-.1-1-.1-1.9-.1-2.8-.6-3.5.7-12-.9-16.4 2.4-2.7 4.9-5.4 7.3-8.1 28 21 65.7 33.7 100.6 26.9 25-6.5 49.8-18.8 66.3-38.8 22.8-26.3 33.3-46.7 39.1-81.3 7-45.4-25.1-87.7-59.7-113.4h-.1c-29-19.8-65-30.1-100.2-30.1v-.1c-67.6-2.4-112.6 51.1-116.7 115.7-1.1 29 14.6 66.5 33.7 87.9 0 .2.1.5.1.7-22 26.4-44.1 52.6-66.1 78.9 0-78.1-7.9-156.6-7.4-235 10.7-1.5 20.5-1.7 32.3-2.3 4.9-1.5 26 2.7 26.1-4.8.2-2.1-1.2-4.6-3.5-4.6-17.3.2-35.9.8-53.3 2.7-1.1.1-2.3.3-3.4.4-.5-.3-1.1-.5-1.7-.4-4.2.3-8.1 5.9-4.2 9.2 0 12.8.2 24.4.4 36.8 0 2.4 0 7.2.1 9.4v-.5c1.5 62.4 4.3 124 6.3 186.1l.3 6.8c.1 1.6 1 2.7 2.2 3.3-14.4 17.3-28.7 34.7-42.9 52.1-.6-9.6-2-19.4-5.7-28.4.8-2.5-.7-5.5-3.4-5.8-13.5-17.9-37.2-5.9-48.7 7.8-6 7.6-7.9 18.2-10.8 27.1-5-14.3-11.9-39.4-28.3-43.6-28.8 2.8-39.1 28.3-40.6 54-8.4-28.9-27.5-60.8-59.9-37.1-16.8 28-10.1 63.1-7.3 93.9 2.6 22.4 6.9 44.6 8.1 67.2.3 5 .6 10.1.9 15.2.8 5.9 9.4 3.6 8.4-1.9-.8-32.8-6.9-65.1-10-97.8-2.4-17.8-3.6-37.2.2-55.3 8.6 17 17.3 36.3 27.5 52.9 8.8 4.3 9.6-9.2 11-14.7 2.7-11.2 5-22.8 5.9-34.3 5.5 12.3 8.1 25.2 11.3 38.4 1.3 3.6 6.5 3.7 8.4.5 3.8-7.5 1.9-17.1 3.4-25.2 1.1-11.2 2.9-24.5 9.8-34.1 3.1 6.6 5.3 13.8 7.8 20.6 2.8 5.7 3.4 15.9 7.8 21.5 9.2 5.1 10.9-11.6 13.5-17 2-6 4-11.9 5.9-17.9 4.6 10.5 8.3 22.7 9.6 34.1.6 6 9.9 5.1 10.4-.5 3.3-14.2 6.4-36.7 18.8-45.1 1.7 13.4 2.4 28 5.7 41.4 1.4 4.7 7.7 4.4 9.5.2 2.1-4.3 4.6-8.5 7-12.6 3.6-6.6 7.3-13.5 11.2-19.8 7 36.9-1.2 71-4.7 107.9-1.4 12.6-4.3 30-5.5 43.1.2 6.6-2.9 14.5 0 20.5 10.1 6.9 9.2-10.9 9.8-16.7 2.4-23.8 6-46.7 8.5-70.4 6.5-3.3 9.2-11.8 14.5-16.8.9-1 4.4-5.3 5.3-6.5 8.8-9.7 17.6-19.6 26.3-29.5 2.3 32.3 3.4 69.2 5.4 98.8 1.5 5.3-2.1 26.5 5.8 25.1 33.3-1.7 162.3-5.9 200.5-5 38.8-.3 75.7-1.3 113.9.5 13.7.8 27.7.9 41.6.5 6.7-.5 13.9.6 20.5-1.1 11.4.7 14.4-12.5 12.4-21.2 3.6-9.7-.4-21.1-.2-30.9zm-28.6-350.7c-1.7 0-3.5-.2-5.2-.5.7-5 .9-10.1 1.4-15.1 4.8 5.3 8.3 9.5 12.8 14.6-3 .1-6.1 1-9 1zm-595.7 269.8c-3.4-5.9-5.6-13.3-10-19 1.8-3.9 6.9-4.8 10.8-5.8-.2 6.5-.6 18.4-.8 24.8zm20.5-2.5c-1.6-4.5-3.2-9.1-4.9-13.6-1.2-2.7-1.8-6.3-4.1-8.4l-.2-.6c4.4 1.6 8 4.9 10.7 8.6-.5 4.6-1 9.3-1.5 14zm62.4 5.5c-3.9-11-7-21.6-12.2-31.8 7.9-5.6 17-8.1 22 2.3-2.8 8.8-6.7 20-9.8 29.5zm67.1-2.6c-2-10.8-2-23.1-4.6-32.6 7-4.2 16.4-2.9 21 4.1-5.7 9.3-11 18.9-16.4 28.5zm140.6-168.4c-6.4-11.4-10.3-24.4-14.2-36.8-7.3-27.3 2.1-56.3 15-80.5 16.2-26.4 46.2-45.8 77.8-46.2v-.2c31-2.2 62.9 5.2 90.7 19 19.6 9.9 35.3 24.8 48.7 42.1 13.4 17.1 22.9 37.7 22.9 59.9-1.5 18-5.9 36.4-14 52.5-10.2 17.4-22.2 34.8-38.4 47.3-16 11.5-34.6 19.9-54.1 23.1-20.4.6-41.3-2.9-60-11.3-16.6-7.5-31.7-19.6-45.3-31.7-11.6-10.8-21.2-23.3-29.1-37.2zm13.9 36.3c6.8 7.1 15.1 13.8 22.6 19.5-3.9 4.6-8.3 8.9-12.5 13.2-9.5-2.9-17.9-8.4-24.3-16.2 4.8-5.4 9.4-11.1 14.2-16.5zm-124 184.1c1.9-14.3 2.9-28.5 2.7-42.8.2 0 .3.1.5 0h-.1c1.6 0 3.1-.9 4-2.2 6.9-8.4 13.9-16.8 20.8-25.3l19.3-23.4c18.5-22.6 38-44.1 56.3-66.3 6.1 7.5 14 13.1 22.9 16.7-20.2 20.7-39.9 41.4-58.9 63.5l.1-.1c-22.1 26.6-46.2 52.3-67.6 79.9z"/><path d="m610 450.5c-46.1 2.6-92.6 3.5-138.8 3.2-5.2-.2-6.5 8.6-1 9 48.7.6 97.4-.6 146-3.1 7.4-1.2 7.4-11.5-6.2-9.1z"/><path d="m521.7 471.2c-16.6.6-33.3 1.7-49.8 1.9-3.7-.1-6.1 4.6-3.8 7.6 5.8 3.8 22.2.1 30 .8 9.8-.3 19.6-1 29.4-1.1 7.8-1.5 6.6-11.6-5.8-9.2z"/><path d="m583 471.2-10.9.1c-8.5.8-18-1.4-25.9 1.4-8.5 12.7 18.9 6.1 24.9 7.5 5.9 0 14.6-.1 20.4.1 5.2.2 6.6-8.2 1.2-9-3.2-.2-6.5-.1-9.7-.1z"/><path d="m535.8 428.1c-4.3 1.9-6.6-6.9-12.5-5.1-3.3.9-4.8 4.4-6.3 7.2-.6-.5-1.3-1-2.1-1.5.1-.8.1-1.6-.2-2.5-2.2-5.3-7.5-1-11.3-.7-2.3-3.4-6.5-4.2-9.7-1.6l-.1-.1c-1.9 1.4-3.9 2.7-6 3.9-7-8.7-24.7 6.1-17.8 13.6 5.3 3.4 7.1-4 10.6-6.4h.4c4.9 5.2 11.6 1.7 16.2-2 2 2.2 6 2.8 9.7 2.2 1.7 1.2 4.1 1.5 5.7 3 4.8 4.5 10.7.4 12.7-4.8 5.7 8.1 19.9 3.9 23-4.3-.7-9-8-3.1-12.3-.9zm-55 6.8c.1.1.2.1.3.2zm35.6-3.7-.2.1z"/><path d="m603.3 421.2c-18.5 14-12.8-2.8-22.4 3.6-1.6 1.6-2.9 3.7-5.3 4.1-5.2-4.6-18.9-8.5-18.9 2.3-.4 5.6 8.5 10.3 10.4 3.3 5.4 4.3 11.9 4.9 17.1-.4 6.1 5.6 26.9-2.1 24.9-10.9-.9-2.2-3.8-3.3-5.8-2zm-27.5 7.9.6.1c-.2 0-.4-.1-.6-.1z"/><path d="m558 322.9c-2.6.5-4.8 2.3-6.8 4-6.5-4.1-15.4-.8-15.4 7.4-.5 6.4 8.3 5.8 8.3-.2 6.5 2 8.3 3.6 13.9-1.9h.1c5.4 5 12.7 0 19.1 1.9 3.9.5 7.7-.6 11.2-2 .5-.1 1.1.2 1.5.4 8.6 6.3 15.9-5.6 6-7.3-5.5-3.2-9.4-1.9-15.1-.2-5.7-.6-11.3-.6-16.9.3-1.7-1.4-3.6-2.9-5.9-2.4zm-13.6 11.2h-.2zm-.7.1-.1.1z"/><path d="m522.7 331.5c-.6-4.9-5.5-3.5-8.9-3.4-2-2.3-4.6-5-8-4.1v.1c-3.9 1-6.4 4.9-10.1 6.2-3.3-1.1-6.8-3.2-10.4-2-1.3.5-2.4 1.1-3.3 1.8-1.1-3.3-2.9-6-6.7-5.6v-.1c-3.8.8-5.2 6.5-1.9 8.7 1.5 2.7.7 6.4 3.2 8.5 1.1.8 2.3 1 3.4.6 1.8.6 4.3-.5 7.1-4.7 7 3.9 13.8 2 19.2-3.6 3.5 5.4 16.9 5.8 16.4-2.4zm-49.2 1.7c.1.1.1.2.2.3z"/></g></svg>