<svg height="52" viewBox="0 0 33 52" width="33" xmlns="http://www.w3.org/2000/svg"><g fill="none" fill-rule="evenodd"><path d="m22.3804 37.2874c-5.953-.158-19.766-18.365-19.766-18.365s.413-.489 1.127-1.299c-1.958 1.736-3.23 4.414-3.312 7.495-.082 3.103 3.625 6.113 5.589 8.11-2.067 1.89-5.932 4.833-6.014 7.935-.043 1.611.247 3.127.797 4.472 1.327 3.239 4.177 5.472 7.605 5.563 2.165.058 5.494-2.214 8.855-5.127 4.337-3.761 8.725-8.589 10.73-10.865-1.531 1.356-3.482 2.137-5.611 2.081" fill="#50c5dc"/><path d="m25.7139 19.6014c2.067-1.89 5.933-4.833 6.015-7.935.043-1.611-.247-3.127-.798-4.472-1.326-3.239-4.176-5.472-7.605-5.563-2.165-.058-5.494 2.214-8.854 5.127-4.338 3.76-8.725 8.589-10.731 10.865 1.532-1.357 3.482-2.137 5.611-2.081 5.954.159 19.766 18.365 19.766 18.365s-.413.488-1.127 1.299c1.958-1.735 3.23-4.414 3.312-7.495.082-3.102-3.625-6.113-5.589-8.11" fill="#ff4143"/><path d="m9.3521 15.5428c-2.129-.056-4.08.724-5.611 2.081-.713.81-1.126 1.298-1.126 1.298s13.812 18.207 19.765 18.366c2.13.055 4.08-.725 5.611-2.081.714-.811 1.127-1.299 1.127-1.299s-13.812-18.207-19.766-18.365" fill="#741448"/></g></svg>