<svg enable-background="new 0 0 448.06 167.12" viewBox="0 0 448.06 167.12" xmlns="http://www.w3.org/2000/svg"><path d="m8.47-196.74c-7.79-.21-25.85-24.02-25.85-24.02s.54-.64 1.47-1.7c-2.56 2.27-4.22 5.77-4.33 9.8-.11 4.06 4.74 7.99 7.31 10.61-2.7 2.47-7.76 6.32-7.87 10.38-.06 2.11.32 4.09 1.04 5.85 1.74 4.24 5.46 7.16 9.95 7.28 2.83.08 7.19-2.9 11.58-6.71 5.67-4.92 11.41-11.23 14.03-14.21-2 1.77-4.55 2.79-7.33 2.72" fill="#40bed9"/><path d="m12.83-219.87c2.7-2.47 7.76-6.32 7.87-10.38.06-2.11-.32-4.09-1.04-5.85-1.73-4.24-5.46-7.16-9.95-7.28-2.83-.08-7.19 2.9-11.58 6.71-5.67 4.92-11.41 11.23-14.03 14.21 2-1.77 4.55-2.79 7.34-2.72 7.79.21 25.85 24.02 25.85 24.02s-.54.64-1.47 1.7c2.56-2.27 4.22-5.77 4.33-9.8.09-4.06-4.75-8-7.32-10.61" fill="#ed3b3b"/><path d="m-8.57-225.18c-2.78-.07-5.34.95-7.34 2.72-.93 1.06-1.47 1.7-1.47 1.7s18.06 23.81 25.85 24.02c2.79.07 5.34-.95 7.34-2.72.93-1.06 1.47-1.7 1.47-1.7s-18.06-23.81-25.85-24.02" fill="#6a1540"/><path d="m75.41 118.73c-19.01-.5-63.12-58.65-63.12-58.65s1.32-1.56 3.6-4.15c-6.26 5.54-10.32 14.1-10.58 23.93-.26 9.91 11.58 19.52 17.85 25.9-6.6 6.04-18.94 15.43-19.21 25.34-.14 5.14.79 9.99 2.55 14.28 4.24 10.34 13.34 17.47 24.29 17.77 6.91.19 17.55-7.07 28.28-16.37 13.85-12.01 27.86-27.43 34.27-34.7-4.9 4.33-11.13 6.83-17.93 6.65" fill="#40bed9"/><path d="m86.05 62.25c6.6-6.04 18.95-15.43 19.21-25.34.14-5.14-.79-9.99-2.55-14.28-4.23-10.35-13.33-17.48-24.28-17.77-6.91-.19-17.55 7.07-28.28 16.37-13.85 12.01-27.86 27.43-34.27 34.7 4.9-4.33 11.12-6.83 17.92-6.65 19.01.51 63.12 58.65 63.12 58.65s-1.32 1.56-3.6 4.15c6.25-5.54 10.32-14.1 10.58-23.94.27-9.9-11.57-19.52-17.85-25.89" fill="#ed3b3b"/><path d="m33.8 49.28c-6.8-.18-13.03 2.31-17.92 6.65-2.28 2.59-3.6 4.15-3.6 4.15s44.11 58.14 63.12 58.65c6.8.18 13.03-2.32 17.92-6.65 2.28-2.59 3.6-4.15 3.6-4.15s-44.1-58.14-63.12-58.65" fill="#6a1540"/><g fill="#ed3d3f"><path d="m148.11 71.99 3.13-12.52h10.64l-2.19 8.24c1.98.94 5.32 2.09 9.7 2.09 6.78 0 10.43-2.61 10.43-6.57 0-4.59-4.07-5.42-10.64-7.93-6.57-2.5-14.29-5.74-14.29-14.4 0-9.7 10.01-17.11 23.06-17.11 6.16 0 14.19 1.98 19.2 5.42l-2.93 11.79h-10.75l1.98-7.93c-1.57-.83-4.28-1.57-8.03-1.57-5.01 0-8.87 2.5-8.87 6.36 0 4.38 4.07 5.42 9.91 7.62 6.89 2.61 14.81 5.32 14.81 15.02 0 9.81-10.02 16.8-24.1 16.8-8.33.01-15.32-2.18-21.06-5.31z"/><path d="m199.23 54.15c0-16.48 11.37-30.36 28.58-30.36 14.71 0 24.62 8.45 24.62 22.85 0 16.59-11.58 30.67-28.79 30.67-14.5 0-24.41-8.77-24.41-23.16zm39.85-11.06c0-6.47-3.86-11.06-10.43-11.06-10.64 0-16.07 16.48-16.07 25.66 0 6.57 3.55 11.37 10.54 11.37 10.85.01 15.96-16.69 15.96-25.97z"/><path d="m292.28 63.95c-5.32 8.66-12.1 13.35-20.87 13.35-7.51 0-13.46-3.96-13.46-11.48.1-3.23 1.15-6.47 2.29-10.02l5.84-19.72c.52-1.57.42-3.13-.94-3.13h-6.14l2.09-7.82h8.66c5.11 0 10.95-.52 13.46-1.04l-8.76 30.57c-.73 2.82-1.67 6.05-1.67 8.03 0 3.76 2.19 5.63 5.95 5.63 8.55 0 15.96-12.31 23.68-43.19h5.53c3.76 0 6.68-.42 8.76-1.04l-8.14 30.36c-1.46 5.11-2.71 9.29-2.71 11.48 0 2.4 1.15 3.34 3.23 3.34 1.15 0 2.71-.31 3.86-.73l-1.98 7.41c-2.61.73-5.42 1.36-8.97 1.36-6.78 0-10.54-3.23-10.54-9.18 0-.63.31-2.19.83-4.18z"/><path d="m319.61 68.34c0-3.55 2.09-9.91 3.65-15.86l9.49-34.84c.63-2.4.42-3.13-.94-3.13h-5.32l2.09-7.82h9.08c5.11 0 10.01-.52 12.42-1.04l-11.68 42.88c-1.88 6.99-4.17 13.98-4.17 17.11 0 2.19 1.15 3.23 3.13 3.23 1.36 0 2.3-.21 3.86-.73l-2.09 7.82c-2.82.94-5.43 1.36-8.45 1.36-7.11-.01-11.07-3.04-11.07-8.98z"/><path d="m178.37 115.84c-1.25-3.55-4.49-5.84-10.33-5.84-11.37 0-16.8 12.52-16.8 23.58 0 8.03 4.28 13.14 11.79 13.14 5.95 0 10.02-3.65 12.94-8.76l7.3 4.9c-4.8 8.76-11.37 12.52-21.7 12.52-12.62 0-24.2-7.93-24.2-23.37 0-16.69 12.21-30.15 29.73-30.15 13.98 0 21.18 7.09 21.18 16.8 0 9.81-5.84 12.83-10.43 12.83-4.38 0-7.41-2.71-7.41-7.09 0-4.7 3.44-7.83 7.93-8.56z"/><path d="m203.92 131.28c-.1 1.36-.1 2.4-.1 3.34 0 8.66 5.84 11.89 12.52 11.89 7.51 0 10.75-3.55 14.4-8.14l6.89 5.32c-5.63 8.76-12.52 11.68-23.58 11.68-13.56 0-23.68-7.93-23.68-23.37 0-16.69 11.79-30.15 29.73-30.15 14.5 0 20.97 8.24 20.97 18.88 0 3.23-.63 7.41-1.98 10.54h-35.17zm1.78-7.3h22.12c.42-1.56.63-3.13.63-4.69 0-5.63-2.09-9.39-8.14-9.39-6.16-.01-11.28 3.44-14.61 14.08z"/><path d="m267.66 115.21c5.32-8.66 12.1-13.35 20.97-13.35 7.51 0 13.46 3.96 13.35 11.48 0 6.99-8.24 26.81-8.24 30.67 0 2.19 1.04 3.03 3.13 3.03 1.25 0 2.3-.21 3.76-.73l-2.09 7.72c-2.82.94-5.84 1.36-8.87 1.36-6.78 0-10.75-2.61-10.75-8.97 0-5.95 8.03-24.93 8.03-30.05 0-3.65-2.5-5.53-5.74-5.53-8.55 0-15.96 12.31-23.68 43.19h-13.98l10.95-39.85c.63-2.4.31-3.13-.94-3.13h-6.26l2.09-7.82h9.49c5.11 0 9.91-.52 12.41-1.04z"/><path d="m311.06 135.35 6.47-24.31h-7.3l2.09-7.82h7.51l3.44-12.83h13.98l-3.55 12.83h8.66l-2.19 7.82h-8.87l-6.57 24.2c-.63 2.5-1.56 5.53-1.56 7.62 0 3.23 2.19 4.59 5.22 4.59 2.4 0 3.86-.52 5.32-.94l-1.98 7.41c-2.4.73-5.43 1.46-8.76 1.46-8.97 0-13.46-3.65-13.46-10.75-.02-2.81.61-5.73 1.55-9.28z"/><path d="m354.87 131.28c-.1 1.36-.1 2.4-.1 3.34 0 8.66 5.84 11.89 12.52 11.89 7.51 0 10.75-3.55 14.4-8.14l6.89 5.32c-5.63 8.76-12.52 11.68-23.58 11.68-13.56 0-23.68-7.93-23.68-23.37 0-16.69 11.79-30.15 29.73-30.15 14.5 0 20.97 8.24 20.97 18.88 0 3.23-.63 7.41-1.98 10.54h-35.17zm1.77-7.3h22.12c.42-1.56.63-3.13.63-4.69 0-5.63-2.09-9.39-8.14-9.39-6.16-.01-11.27 3.44-14.61 14.08z"/><path d="m419.86 111.67c3.65-6.16 8.76-10.12 15.02-10.12 6.47 0 10.54 4.07 10.75 9.91.21 7.2-4.17 13.35-10.33 13.35-4.49 0-7.09-2.61-7.2-6.26-.1-3.23 2.4-6.47 6.05-6.99-.63-.94-2.19-1.56-3.76-1.56-8.45 0-12.62 9.6-17.42 27.33l-4.49 16.69h-13.98l10.95-39.85c.63-2.4.31-3.13-.94-3.13h-6.26l2.09-7.82h9.7c5.11 0 9.91-.52 12.41-1.04z"/></g><path d="m8.47-330.91c-7.79-.21-25.85-24.02-25.85-24.02s.54-.64 1.47-1.7c-2.56 2.27-4.22 5.77-4.33 9.8-.11 4.06 4.74 7.99 7.31 10.61-2.7 2.47-7.76 6.32-7.87 10.38-.06 2.11.32 4.09 1.04 5.85 1.74 4.24 5.46 7.16 9.95 7.28 2.83.08 7.19-2.9 11.58-6.71 5.67-4.92 11.41-11.23 14.03-14.21-2 1.78-4.55 2.8-7.33 2.72" fill="#40bed9"/><path d="m12.83-354.04c2.7-2.47 7.76-6.32 7.87-10.38.06-2.11-.32-4.09-1.04-5.85-1.73-4.24-5.46-7.16-9.95-7.28-2.83-.08-7.19 2.9-11.58 6.71-5.67 4.92-11.41 11.23-14.03 14.21 2-1.77 4.55-2.79 7.34-2.72 7.79.21 25.85 24.02 25.85 24.02s-.54.64-1.47 1.7c2.56-2.27 4.22-5.77 4.33-9.8.09-4.06-4.75-8-7.32-10.61" fill="#ed3b3b"/><path d="m-8.57-359.35c-2.78-.07-5.34.95-7.34 2.72-.93 1.06-1.47 1.7-1.47 1.7s18.06 23.81 25.85 24.02c2.79.07 5.34-.95 7.34-2.72.93-1.06 1.47-1.7 1.47-1.7s-18.06-23.81-25.85-24.02" fill="#6a1540"/><path d="m36.86-330.93 1.86-7.44h6.32l-1.3 4.9c1.18.56 3.16 1.24 5.77 1.24 4.03 0 6.2-1.55 6.2-3.91 0-2.73-2.42-3.22-6.32-4.71-3.91-1.49-8.49-3.41-8.49-8.56 0-5.77 5.95-10.17 13.7-10.17 3.66 0 8.43 1.18 11.41 3.22l-1.74 7.01h-6.39l1.18-4.71c-.93-.5-2.54-.93-4.77-.93-2.98 0-5.27 1.49-5.27 3.78 0 2.6 2.42 3.22 5.89 4.53 4.09 1.55 8.8 3.16 8.8 8.93 0 5.83-5.95 9.98-14.32 9.98-4.96.01-9.12-1.3-12.53-3.16z" fill="#ed3d3f"/><path d="m67.24-341.53c0-9.8 6.76-18.04 16.99-18.04 8.74 0 14.63 5.02 14.63 13.58 0 9.86-6.88 18.23-17.11 18.23-8.62 0-14.51-5.21-14.51-13.77zm23.69-6.57c0-3.84-2.29-6.57-6.2-6.57-6.32 0-9.55 9.8-9.55 15.25 0 3.91 2.11 6.76 6.26 6.76 6.45 0 9.49-9.92 9.49-15.44z" fill="#ed3d3f"/><path d="m122.55-335.7c-3.16 5.15-7.19 7.94-12.4 7.94-4.46 0-8-2.36-8-6.82.06-1.92.68-3.84 1.36-5.95l3.47-11.72c.31-.93.25-1.86-.56-1.86h-3.66l1.24-4.65h5.15c3.04 0 6.51-.31 8-.62l-5.21 18.16c-.43 1.67-.99 3.6-.99 4.77 0 2.23 1.3 3.35 3.53 3.35 5.08 0 9.49-7.32 14.07-25.67h3.29c2.23 0 3.97-.25 5.21-.62l-4.84 18.04c-.87 3.04-1.61 5.52-1.61 6.82 0 1.43.68 1.98 1.92 1.98.68 0 1.61-.19 2.29-.43l-1.18 4.4c-1.55.43-3.22.81-5.33.81-4.03 0-6.26-1.92-6.26-5.46.01-.36.2-1.29.51-2.47z" fill="#ed3d3f"/><path d="m138.79-333.1c0-2.11 1.24-5.89 2.17-9.42l5.64-20.71c.37-1.43.25-1.86-.56-1.86h-3.16l1.24-4.65h5.39c3.04 0 5.95-.31 7.38-.62l-6.94 25.48c-1.12 4.15-2.48 8.31-2.48 10.17 0 1.3.68 1.92 1.86 1.92.81 0 1.36-.12 2.29-.43l-1.24 4.65c-1.67.56-3.22.81-5.02.81-4.21 0-6.57-1.8-6.57-5.34z" fill="#ed3d3f"/><path d="m180.14-351.26c-.74-2.11-2.67-3.47-6.14-3.47-6.76 0-9.98 7.44-9.98 14.01 0 4.77 2.54 7.81 7 7.81 3.53 0 5.95-2.17 7.69-5.21l4.34 2.91c-2.85 5.21-6.76 7.44-12.89 7.44-7.5 0-14.38-4.71-14.38-13.89 0-9.92 7.25-17.92 17.67-17.92 8.31 0 12.59 4.22 12.59 9.98 0 5.83-3.47 7.63-6.2 7.63-2.6 0-4.4-1.61-4.4-4.22-.01-2.78 2.04-4.64 4.7-5.07z" fill="#ed3d3f"/><path d="m195.33-342.09c-.06.81-.06 1.43-.06 1.98 0 5.15 3.47 7.07 7.44 7.07 4.46 0 6.39-2.11 8.56-4.84l4.09 3.16c-3.35 5.21-7.44 6.94-14.01 6.94-8.06 0-14.07-4.71-14.07-13.89 0-9.92 7.01-17.92 17.67-17.92 8.62 0 12.46 4.9 12.46 11.22 0 1.92-.37 4.4-1.18 6.26h-20.9zm1.06-4.34h13.14c.25-.93.37-1.86.37-2.79 0-3.35-1.24-5.58-4.84-5.58-3.65 0-6.69 2.05-8.67 8.37z" fill="#ed3d3f"/><path d="m233.21-351.63c3.16-5.15 7.19-7.94 12.46-7.94 4.46 0 8 2.36 7.94 6.82 0 4.15-4.9 15.93-4.9 18.23 0 1.3.62 1.8 1.86 1.8.74 0 1.36-.12 2.23-.43l-1.24 4.59c-1.67.56-3.47.81-5.27.81-4.03 0-6.39-1.55-6.39-5.33 0-3.53 4.77-14.82 4.77-17.85 0-2.17-1.49-3.29-3.41-3.29-5.08 0-9.49 7.32-14.07 25.67h-8.31l6.51-23.68c.37-1.43.19-1.86-.56-1.86h-3.72l1.24-4.65h5.64c3.04 0 5.89-.31 7.38-.62z" fill="#ed3d3f"/><path d="m259.01-339.67 3.84-14.45h-4.34l1.24-4.65h4.46l2.05-7.63h8.31l-2.11 7.63h5.15l-1.3 4.65h-5.27l-3.91 14.38c-.37 1.49-.93 3.29-.93 4.53 0 1.92 1.3 2.73 3.1 2.73 1.43 0 2.29-.31 3.16-.56l-1.18 4.4c-1.43.43-3.22.87-5.21.87-5.33 0-8-2.17-8-6.39.01-1.66.38-3.4.94-5.51z" fill="#ed3d3f"/><path d="m285.04-342.09c-.06.81-.06 1.43-.06 1.98 0 5.15 3.47 7.07 7.44 7.07 4.46 0 6.39-2.11 8.56-4.84l4.09 3.16c-3.35 5.21-7.44 6.94-14.01 6.94-8.06 0-14.07-4.71-14.07-13.89 0-9.92 7.01-17.92 17.67-17.92 8.62 0 12.46 4.9 12.46 11.22 0 1.92-.37 4.4-1.18 6.26h-20.9zm1.06-4.34h13.14c.25-.93.37-1.86.37-2.79 0-3.35-1.24-5.58-4.84-5.58-3.65 0-6.69 2.05-8.67 8.37z" fill="#ed3d3f"/><path d="m323.67-353.74c2.17-3.66 5.21-6.01 8.93-6.01 3.84 0 6.26 2.42 6.39 5.89.12 4.28-2.48 7.94-6.14 7.94-2.67 0-4.22-1.55-4.28-3.72-.06-1.92 1.43-3.84 3.6-4.15-.37-.56-1.3-.93-2.23-.93-5.02 0-7.5 5.7-10.35 16.24l-2.67 9.92h-8.31l6.51-23.68c.37-1.43.19-1.86-.56-1.86h-3.72l1.24-4.65h5.77c3.04 0 5.89-.31 7.38-.62z" fill="#ed3d3f"/></svg>